<?xml version="1.0" encoding="UTF-8" standalone="no"?>
<svg
   xmlns:dc="http://purl.org/dc/elements/1.1/"
   xmlns:cc="http://creativecommons.org/ns#"
   xmlns:rdf="http://www.w3.org/1999/02/22-rdf-syntax-ns#"
   xmlns:svg="http://www.w3.org/2000/svg"
   xmlns="http://www.w3.org/2000/svg"
   version="1.1"
   id="svg5283"
   viewBox="0 0 762.65933 762.65932"
   height="215.23941mm"
   width="215.23941mm">
  <defs
     id="defs5285" />
  <metadata
     id="metadata5288">
    <rdf:RDF>
      <cc:Work
         rdf:about="">
        <dc:format>image/svg+xml</dc:format>
        <dc:type
           rdf:resource="http://purl.org/dc/dcmitype/StillImage" />
        <dc:title></dc:title>
      </cc:Work>
    </rdf:RDF>
  </metadata>
  <g
     transform="translate(-7.5790141,-21.504429)"
     style="display:inline"
     id="layer1">
    <circle
       r="345.89661"
       cy="402.83411"
       cx="388.90869"
       id="path5853"
       style="opacity:1;fill:#00b3ff;fill-opacity:0.19607843;fill-rule:nonzero;stroke:none;stroke-width:4.17144299;stroke-linecap:round;stroke-linejoin:round;stroke-miterlimit:4;stroke-dasharray:none;stroke-dashoffset:0;stroke-opacity:1" />
    <circle
       style="opacity:1;fill:#00b3ff;fill-opacity:0.19607843;fill-rule:nonzero;stroke:none;stroke-width:4.17144299;stroke-linecap:round;stroke-linejoin:round;stroke-miterlimit:4;stroke-dasharray:none;stroke-dashoffset:0;stroke-opacity:1"
       id="circle5861"
       cx="388.90869"
       cy="402.83411"
       r="286.29761" />
    <circle
       style="opacity:1;fill:#00b3ff;fill-opacity:0.19607843;fill-rule:nonzero;stroke:none;stroke-width:2.76571107;stroke-linecap:round;stroke-linejoin:round;stroke-miterlimit:4;stroke-dasharray:none;stroke-dashoffset:0;stroke-opacity:1"
       id="circle5855"
       cx="388.90869"
       cy="402.83411"
       r="213.25935" />
    <circle
       r="124.93864"
       cy="402.83411"
       cx="388.90869"
       id="circle5857"
       style="opacity:1;fill:#00b3ff;fill-opacity:0.19607843;fill-rule:nonzero;stroke:none;stroke-width:1.62030017;stroke-linecap:round;stroke-linejoin:round;stroke-miterlimit:4;stroke-dasharray:none;stroke-dashoffset:0;stroke-opacity:1" />
    <circle
       style="opacity:1;fill:#00b3ff;fill-opacity:0.39215686;fill-rule:nonzero;stroke:none;stroke-width:0.63758969;stroke-linecap:round;stroke-linejoin:round;stroke-miterlimit:4;stroke-dasharray:none;stroke-dashoffset:0;stroke-opacity:1"
       id="circle5859"
       cx="388.90869"
       cy="402.83411"
       r="49.163471" />
    <g
       id="g6044">
      <path
         style="fill:none;fill-rule:evenodd;stroke:#000000;stroke-width:3;stroke-linecap:butt;stroke-linejoin:miter;stroke-miterlimit:4;stroke-dasharray:none;stroke-opacity:1"
         d="m 388.90869,402.83411 -70,54.2857"
         id="path6028" />
      <path
         style="fill:none;fill-rule:evenodd;stroke:#000000;stroke-width:3;stroke-linecap:butt;stroke-linejoin:miter;stroke-miterlimit:4;stroke-dasharray:none;stroke-opacity:1"
         d="m 388.90869,319.26266 0,83.57145"
         id="path6030" />
      <path
         style="fill:none;fill-rule:evenodd;stroke:#000000;stroke-width:3;stroke-linecap:butt;stroke-linejoin:miter;stroke-miterlimit:4;stroke-dasharray:none;stroke-opacity:1"
         d="m 466.01807,426.35671 -77.10938,-23.5226"
         id="path6032" />
      <path
         style="fill:none;fill-rule:evenodd;stroke:#000000;stroke-width:3;stroke-linecap:butt;stroke-linejoin:miter;stroke-miterlimit:4;stroke-dasharray:none;stroke-opacity:1"
         d="m 514.88336,188.7238 -38.83182,64.82459 -87.14285,65.71427 -95,-44.2857"
         id="path6034" />
      <path
         style="fill:none;fill-rule:evenodd;stroke:#000000;stroke-width:3;stroke-linecap:butt;stroke-linejoin:miter;stroke-miterlimit:4;stroke-dasharray:none;stroke-opacity:1"
         d="m 138.78749,440.2518 80.12119,-13.13199 97.10939,29.95118 -46.39511,69.33453"
         id="path6036" />
      <path
         style="fill:none;fill-rule:evenodd;stroke:#000000;stroke-width:3;stroke-linecap:butt;stroke-linejoin:miter;stroke-miterlimit:4;stroke-dasharray:none;stroke-opacity:1"
         d="M 404.77673,651.37366 379.62296,572.11981 316.01807,457.07099"
         id="path6038" />
      <path
         style="fill:none;fill-rule:evenodd;stroke:#000000;stroke-width:3;stroke-linecap:butt;stroke-linejoin:miter;stroke-miterlimit:4;stroke-dasharray:none;stroke-opacity:1"
         d="m 466.01807,426.35671 98.01383,2.76124"
         id="path6040" />
      <path
         style="fill:none;fill-rule:evenodd;stroke:#000000;stroke-width:3;stroke-linecap:butt;stroke-linejoin:miter;stroke-miterlimit:4;stroke-dasharray:none;stroke-opacity:1"
         d="m 637.11182,391.76447 -74.63172,37.49819 41.98771,84.73027 55.87753,53.53808"
         id="path6042" />
    </g>
    <circle
       r="24.626007"
       cy="402.83411"
       cx="388.90869"
       id="path5863"
       style="opacity:1;fill:#ffffff;fill-opacity:1;fill-rule:nonzero;stroke:#000000;stroke-width:3.75053883;stroke-linecap:round;stroke-linejoin:round;stroke-miterlimit:4;stroke-dasharray:none;stroke-dashoffset:0;stroke-opacity:1" />
    <g
       id="flowRoot5865"
       style="font-style:normal;font-weight:normal;font-size:40px;line-height:125%;font-family:sans-serif;letter-spacing:0px;word-spacing:0px;fill:#000000;fill-opacity:1;stroke:none;stroke-width:1px;stroke-linecap:butt;stroke-linejoin:miter;stroke-opacity:1"
       transform="translate(497.97705,53.991645)">
      <path
         id="path4264"
         style=""
         d="m -96.783203,348.87176 q 0,3.96484 -1.738281,7.1875 -1.718746,3.22265 -4.589846,5 -1.99219,1.23047 -4.45312,1.77734 -2.44141,0.54688 -6.44532,0.54688 l -7.34375,0 0,-29.08203 7.26563,0 q 4.25781,0 6.75781,0.625 2.51953,0.60546 4.25781,1.67968 2.96875,1.85547 4.628911,4.94141 1.660156,3.08594 1.660156,7.32422 z m -4.042967,-0.0586 q 0,-3.41796 -1.19141,-5.76171 -1.1914,-2.34375 -3.55469,-3.69141 -1.71875,-0.97656 -3.65234,-1.34766 -1.93359,-0.39062 -4.62891,-0.39062 l -3.63281,0 0,22.4414 3.63281,0 q 2.79297,0 4.86329,-0.41015 2.08984,-0.41016 3.82812,-1.52344 2.16797,-1.38672 3.24219,-3.65234 1.09375,-2.26563 1.09375,-5.66407 z" />
    </g>
    <circle
       style="opacity:1;fill:#ffffff;fill-opacity:1;fill-rule:nonzero;stroke:#000000;stroke-width:3.75053883;stroke-linecap:round;stroke-linejoin:round;stroke-miterlimit:4;stroke-dasharray:none;stroke-dashoffset:0;stroke-opacity:1"
       id="circle5876"
       cx="388.90869"
       cy="319.26266"
       r="24.626007" />
    <g
       id="flowRoot5878"
       style="font-style:normal;font-weight:normal;font-size:40px;line-height:125%;font-family:sans-serif;letter-spacing:0px;word-spacing:0px;fill:#000000;fill-opacity:1;stroke:none;stroke-width:1px;stroke-linecap:butt;stroke-linejoin:miter;stroke-opacity:1"
       transform="translate(500.86768,-29.530969)">
      <path
         id="path4282"
         style=""
         d="m -104.08789,363.38348 -15.74219,0 0,-2.96875 6.05469,0 0,-19.49219 -6.05469,0 0,-2.65625 q 1.23047,0 2.63672,-0.19531 1.40625,-0.21485 2.12891,-0.60547 0.89843,-0.48828 1.40625,-1.23047 0.52734,-0.76172 0.60547,-2.03125 l 3.02734,0 0,26.21094 5.9375,0 0,2.96875 z" />
    </g>
    <circle
       r="24.626007"
       cy="426.40552"
       cx="468.90869"
       id="circle5886"
       style="opacity:1;fill:#ffffff;fill-opacity:1;fill-rule:nonzero;stroke:#000000;stroke-width:3.75053883;stroke-linecap:round;stroke-linejoin:round;stroke-miterlimit:4;stroke-dasharray:none;stroke-dashoffset:0;stroke-opacity:1" />
    <g
       id="flowRoot5888"
       style="font-style:normal;font-weight:normal;font-size:40px;line-height:125%;font-family:sans-serif;letter-spacing:0px;word-spacing:0px;fill:#000000;fill-opacity:1;stroke:none;stroke-width:1px;stroke-linecap:butt;stroke-linejoin:miter;stroke-opacity:1"
       transform="translate(580.86768,77.611884)">
      <path
         id="path4267"
         style=""
         d="m -104.08789,363.38348 -15.74219,0 0,-2.96875 6.05469,0 0,-19.49219 -6.05469,0 0,-2.65625 q 1.23047,0 2.63672,-0.19531 1.40625,-0.21485 2.12891,-0.60547 0.89843,-0.48828 1.40625,-1.23047 0.52734,-0.76172 0.60547,-2.03125 l 3.02734,0 0,26.21094 5.9375,0 0,2.96875 z" />
    </g>
    <circle
       style="opacity:1;fill:#ffffff;fill-opacity:1;fill-rule:nonzero;stroke:#000000;stroke-width:3.75053883;stroke-linecap:round;stroke-linejoin:round;stroke-miterlimit:4;stroke-dasharray:none;stroke-dashoffset:0;stroke-opacity:1"
       id="circle5896"
       cx="318.90869"
       cy="457.11981"
       r="24.626007" />
    <g
       id="flowRoot5898"
       style="font-style:normal;font-weight:normal;font-size:40px;line-height:125%;font-family:sans-serif;letter-spacing:0px;word-spacing:0px;fill:#000000;fill-opacity:1;stroke:none;stroke-width:1px;stroke-linecap:butt;stroke-linejoin:miter;stroke-opacity:1"
       transform="translate(430.86768,108.32618)">
      <path
         id="path4261"
         style=""
         d="m -104.08789,363.38348 -15.74219,0 0,-2.96875 6.05469,0 0,-19.49219 -6.05469,0 0,-2.65625 q 1.23047,0 2.63672,-0.19531 1.40625,-0.21485 2.12891,-0.60547 0.89843,-0.48828 1.40625,-1.23047 0.52734,-0.76172 0.60547,-2.03125 l 3.02734,0 0,26.21094 5.9375,0 0,2.96875 z" />
    </g>
    <circle
       r="24.626007"
       cy="274.97696"
       cx="293.90869"
       id="circle5908"
       style="opacity:1;fill:#ffffff;fill-opacity:1;fill-rule:nonzero;stroke:#000000;stroke-width:3.75053883;stroke-linecap:round;stroke-linejoin:round;stroke-miterlimit:4;stroke-dasharray:none;stroke-dashoffset:0;stroke-opacity:1" />
    <g
       id="flowRoot5910"
       style="font-style:normal;font-weight:normal;font-size:40px;line-height:125%;font-family:sans-serif;letter-spacing:0px;word-spacing:0px;fill:#000000;fill-opacity:1;stroke:none;stroke-width:1px;stroke-linecap:butt;stroke-linejoin:miter;stroke-opacity:1"
       transform="translate(406.18018,-73.562768)">
      <path
         id="path4291"
         style=""
         d="m -102.42773,363.38348 -19.6875,0 0,-4.08203 q 2.05078,-1.75782 4.10156,-3.51563 2.07031,-1.75781 3.84765,-3.49609 3.75,-3.63282 5.13672,-5.76172 1.38672,-2.14844 1.38672,-4.62891 0,-2.26562 -1.5039,-3.53515 -1.48438,-1.28907 -4.16016,-1.28907 -1.77734,0 -3.84766,0.625 -2.07031,0.625 -4.04297,1.91407 l -0.19531,0 0,-4.10157 q 1.38672,-0.68359 3.69141,-1.25 2.32422,-0.5664 4.49219,-0.5664 4.47265,0 7.01171,2.16797 2.53907,2.14843 2.53907,5.83984 0,1.66016 -0.42969,3.10547 -0.41016,1.42578 -1.23047,2.71484 -0.76172,1.21094 -1.79687,2.38281 -1.01563,1.17188 -2.48047,2.59766 -2.08985,2.05078 -4.31641,3.98438 -2.22656,1.91406 -4.16016,3.55468 l 15.64454,0 0,3.33985 z" />
    </g>
    <circle
       style="opacity:1;fill:#ffffff;fill-opacity:1;fill-rule:nonzero;stroke:#000000;stroke-width:3.75053883;stroke-linecap:round;stroke-linejoin:round;stroke-miterlimit:4;stroke-dasharray:none;stroke-dashoffset:0;stroke-opacity:1"
       id="circle5918"
       cx="476.05154"
       cy="253.54839"
       r="24.626007" />
    <g
       id="flowRoot5920"
       style="font-style:normal;font-weight:normal;font-size:40px;line-height:125%;font-family:sans-serif;letter-spacing:0px;word-spacing:0px;fill:#000000;fill-opacity:1;stroke:none;stroke-width:1px;stroke-linecap:butt;stroke-linejoin:miter;stroke-opacity:1"
       transform="translate(588.32303,-94.991342)">
      <path
         id="path4285"
         style=""
         d="m -102.42773,363.38348 -19.6875,0 0,-4.08203 q 2.05078,-1.75782 4.10156,-3.51563 2.07031,-1.75781 3.84765,-3.49609 3.75,-3.63282 5.13672,-5.76172 1.38672,-2.14844 1.38672,-4.62891 0,-2.26562 -1.5039,-3.53515 -1.48438,-1.28907 -4.16016,-1.28907 -1.77734,0 -3.84766,0.625 -2.07031,0.625 -4.04297,1.91407 l -0.19531,0 0,-4.10157 q 1.38672,-0.68359 3.69141,-1.25 2.32422,-0.5664 4.49219,-0.5664 4.47265,0 7.01171,2.16797 2.53907,2.14843 2.53907,5.83984 0,1.66016 -0.42969,3.10547 -0.41016,1.42578 -1.23047,2.71484 -0.76172,1.21094 -1.79687,2.38281 -1.01563,1.17188 -2.48047,2.59766 -2.08985,2.05078 -4.31641,3.98438 -2.22656,1.91406 -4.16016,3.55468 l 15.64454,0 0,3.33985 z" />
    </g>
    <circle
       r="24.626007"
       cy="429.26266"
       cx="562.4801"
       id="circle5928"
       style="opacity:1;fill:#ffffff;fill-opacity:1;fill-rule:nonzero;stroke:#000000;stroke-width:3.75053883;stroke-linecap:round;stroke-linejoin:round;stroke-miterlimit:4;stroke-dasharray:none;stroke-dashoffset:0;stroke-opacity:1" />
    <g
       id="flowRoot5930"
       style="font-style:normal;font-weight:normal;font-size:40px;line-height:125%;font-family:sans-serif;letter-spacing:0px;word-spacing:0px;fill:#000000;fill-opacity:1;stroke:none;stroke-width:1px;stroke-linecap:butt;stroke-linejoin:miter;stroke-opacity:1"
       transform="translate(674.75159,80.722938)">
      <path
         id="path4270"
         style=""
         d="m -102.42773,363.38348 -19.6875,0 0,-4.08203 q 2.05078,-1.75782 4.10156,-3.51563 2.07031,-1.75781 3.84765,-3.49609 3.75,-3.63282 5.13672,-5.76172 1.38672,-2.14844 1.38672,-4.62891 0,-2.26562 -1.5039,-3.53515 -1.48438,-1.28907 -4.16016,-1.28907 -1.77734,0 -3.84766,0.625 -2.07031,0.625 -4.04297,1.91407 l -0.19531,0 0,-4.10157 q 1.38672,-0.68359 3.69141,-1.25 2.32422,-0.5664 4.49219,-0.5664 4.47265,0 7.01171,2.16797 2.53907,2.14843 2.53907,5.83984 0,1.66016 -0.42969,3.10547 -0.41016,1.42578 -1.23047,2.71484 -0.76172,1.21094 -1.79687,2.38281 -1.01563,1.17188 -2.48047,2.59766 -2.08985,2.05078 -4.31641,3.98438 -2.22656,1.91406 -4.16016,3.55468 l 15.64454,0 0,3.33985 z" />
    </g>
    <circle
       style="opacity:1;fill:#ffffff;fill-opacity:1;fill-rule:nonzero;stroke:#000000;stroke-width:3.75053883;stroke-linecap:round;stroke-linejoin:round;stroke-miterlimit:4;stroke-dasharray:none;stroke-dashoffset:0;stroke-opacity:1"
       id="circle5938"
       cx="379.62296"
       cy="572.11981"
       r="24.626007" />
    <g
       id="flowRoot5940"
       style="font-style:normal;font-weight:normal;font-size:40px;line-height:125%;font-family:sans-serif;letter-spacing:0px;word-spacing:0px;fill:#000000;fill-opacity:1;stroke:none;stroke-width:1px;stroke-linecap:butt;stroke-linejoin:miter;stroke-opacity:1"
       transform="translate(491.89444,223.58008)">
      <path
         id="path4249"
         style=""
         d="m -102.42773,363.38348 -19.6875,0 0,-4.08203 q 2.05078,-1.75782 4.10156,-3.51563 2.07031,-1.75781 3.84765,-3.49609 3.75,-3.63282 5.13672,-5.76172 1.38672,-2.14844 1.38672,-4.62891 0,-2.26562 -1.5039,-3.53515 -1.48438,-1.28907 -4.16016,-1.28907 -1.77734,0 -3.84766,0.625 -2.07031,0.625 -4.04297,1.91407 l -0.19531,0 0,-4.10157 q 1.38672,-0.68359 3.69141,-1.25 2.32422,-0.5664 4.49219,-0.5664 4.47265,0 7.01171,2.16797 2.53907,2.14843 2.53907,5.83984 0,1.66016 -0.42969,3.10547 -0.41016,1.42578 -1.23047,2.71484 -0.76172,1.21094 -1.79687,2.38281 -1.01563,1.17188 -2.48047,2.59766 -2.08985,2.05078 -4.31641,3.98438 -2.22656,1.91406 -4.16016,3.55468 l 15.64454,0 0,3.33985 z" />
    </g>
    <circle
       r="24.626007"
       cy="526.40552"
       cx="269.62296"
       id="circle5948"
       style="opacity:1;fill:#ffffff;fill-opacity:1;fill-rule:nonzero;stroke:#000000;stroke-width:3.75053883;stroke-linecap:round;stroke-linejoin:round;stroke-miterlimit:4;stroke-dasharray:none;stroke-dashoffset:0;stroke-opacity:1" />
    <g
       id="flowRoot5950"
       style="font-style:normal;font-weight:normal;font-size:40px;line-height:125%;font-family:sans-serif;letter-spacing:0px;word-spacing:0px;fill:#000000;fill-opacity:1;stroke:none;stroke-width:1px;stroke-linecap:butt;stroke-linejoin:miter;stroke-opacity:1"
       transform="translate(381.89444,177.86579)">
      <path
         id="path4252"
         style=""
         d="m -102.42773,363.38348 -19.6875,0 0,-4.08203 q 2.05078,-1.75782 4.10156,-3.51563 2.07031,-1.75781 3.84765,-3.49609 3.75,-3.63282 5.13672,-5.76172 1.38672,-2.14844 1.38672,-4.62891 0,-2.26562 -1.5039,-3.53515 -1.48438,-1.28907 -4.16016,-1.28907 -1.77734,0 -3.84766,0.625 -2.07031,0.625 -4.04297,1.91407 l -0.19531,0 0,-4.10157 q 1.38672,-0.68359 3.69141,-1.25 2.32422,-0.5664 4.49219,-0.5664 4.47265,0 7.01171,2.16797 2.53907,2.14843 2.53907,5.83984 0,1.66016 -0.42969,3.10547 -0.41016,1.42578 -1.23047,2.71484 -0.76172,1.21094 -1.79687,2.38281 -1.01563,1.17188 -2.48047,2.59766 -2.08985,2.05078 -4.31641,3.98438 -2.22656,1.91406 -4.16016,3.55468 l 15.64454,0 0,3.33985 z" />
    </g>
    <circle
       style="opacity:1;fill:#ffffff;fill-opacity:1;fill-rule:nonzero;stroke:#000000;stroke-width:3.75053883;stroke-linecap:round;stroke-linejoin:round;stroke-miterlimit:4;stroke-dasharray:none;stroke-dashoffset:0;stroke-opacity:1"
       id="circle5958"
       cx="218.90868"
       cy="427.11981"
       r="24.626007" />
    <g
       id="flowRoot5960"
       style="font-style:normal;font-weight:normal;font-size:40px;line-height:125%;font-family:sans-serif;letter-spacing:0px;word-spacing:0px;fill:#000000;fill-opacity:1;stroke:none;stroke-width:1px;stroke-linecap:butt;stroke-linejoin:miter;stroke-opacity:1"
       transform="translate(331.18016,78.580085)">
      <path
         id="path4255"
         style=""
         d="m -102.42773,363.38348 -19.6875,0 0,-4.08203 q 2.05078,-1.75782 4.10156,-3.51563 2.07031,-1.75781 3.84765,-3.49609 3.75,-3.63282 5.13672,-5.76172 1.38672,-2.14844 1.38672,-4.62891 0,-2.26562 -1.5039,-3.53515 -1.48438,-1.28907 -4.16016,-1.28907 -1.77734,0 -3.84766,0.625 -2.07031,0.625 -4.04297,1.91407 l -0.19531,0 0,-4.10157 q 1.38672,-0.68359 3.69141,-1.25 2.32422,-0.5664 4.49219,-0.5664 4.47265,0 7.01171,2.16797 2.53907,2.14843 2.53907,5.83984 0,1.66016 -0.42969,3.10547 -0.41016,1.42578 -1.23047,2.71484 -0.76172,1.21094 -1.79687,2.38281 -1.01563,1.17188 -2.48047,2.59766 -2.08985,2.05078 -4.31641,3.98438 -2.22656,1.91406 -4.16016,3.55468 l 15.64454,0 0,3.33985 z" />
    </g>
    <circle
       r="24.626007"
       cy="440.2518"
       cx="142.13708"
       id="circle5968"
       style="opacity:1;fill:#ffffff;fill-opacity:1;fill-rule:nonzero;stroke:#000000;stroke-width:3.75053883;stroke-linecap:round;stroke-linejoin:round;stroke-miterlimit:4;stroke-dasharray:none;stroke-dashoffset:0;stroke-opacity:1" />
    <g
       id="flowRoot5970"
       style="font-style:normal;font-weight:normal;font-size:40px;line-height:125%;font-family:sans-serif;letter-spacing:0px;word-spacing:0px;fill:#000000;fill-opacity:1;stroke:none;stroke-width:1px;stroke-linecap:butt;stroke-linejoin:miter;stroke-opacity:1"
       transform="translate(254.55505,91.409339)">
      <path
         id="path4258"
         style=""
         d="m -104.98633,349.37957 q 0.9375,0.83984 1.54297,2.10938 0.60547,1.26953 0.60547,3.28125 0,1.99218 -0.72266,3.65234 -0.72265,1.66016 -2.03125,2.89062 -1.46484,1.36719 -3.45703,2.03125 -1.97265,0.64454 -4.33594,0.64454 -2.42187,0 -4.76562,-0.58594 -2.34375,-0.56641 -3.84766,-1.25 l 0,-4.08203 0.29297,0 q 1.66016,1.09375 3.90625,1.8164 2.2461,0.72266 4.33594,0.72266 1.23047,0 2.61719,-0.41016 1.38672,-0.41015 2.24609,-1.21093 0.89844,-0.85938 1.32813,-1.89454 0.44921,-1.03515 0.44921,-2.61718 0,-1.5625 -0.50781,-2.57813 -0.48828,-1.03515 -1.36719,-1.62109 -0.8789,-0.60547 -2.1289,-0.82031 -1.25,-0.23438 -2.69531,-0.23438 l -1.75782,0 0,-3.24219 1.36719,0 q 2.96875,0 4.72656,-1.23047 1.77735,-1.25 1.77735,-3.63281 0,-1.05469 -0.44922,-1.83594 -0.44922,-0.80078 -1.25,-1.30859 -0.83985,-0.50781 -1.79688,-0.70312 -0.95703,-0.19532 -2.16797,-0.19532 -1.85546,0 -3.94531,0.66407 -2.08984,0.66406 -3.94531,1.875 l -0.19531,0 0,-4.08204 q 1.38672,-0.68359 3.6914,-1.25 2.32422,-0.58593 4.49219,-0.58593 2.12891,0 3.75,0.39062 1.62109,0.39063 2.92969,1.25 1.40625,0.9375 2.1289,2.26563 0.72266,1.32812 0.72266,3.10547 0,2.42187 -1.71875,4.23828 -1.69922,1.79687 -4.02344,2.26562 l 0,0.27344 q 0.9375,0.15625 2.14844,0.66406 1.21094,0.48828 2.05078,1.23047 z" />
    </g>
    <circle
       style="opacity:1;fill:#ffffff;fill-opacity:1;fill-rule:nonzero;stroke:#000000;stroke-width:3.75053883;stroke-linecap:round;stroke-linejoin:round;stroke-miterlimit:4;stroke-dasharray:none;stroke-dashoffset:0;stroke-opacity:1"
       id="circle5978"
       cx="404.77673"
       cy="651.37366"
       r="24.626007" />
    <g
       id="flowRoot5980"
       style="font-style:normal;font-weight:normal;font-size:40px;line-height:125%;font-family:sans-serif;letter-spacing:0px;word-spacing:0px;fill:#000000;fill-opacity:1;stroke:none;stroke-width:1px;stroke-linecap:butt;stroke-linejoin:miter;stroke-opacity:1"
       transform="translate(517.1947,302.5312)">
      <path
         id="path4246"
         style=""
         d="m -104.98633,349.37957 q 0.9375,0.83984 1.54297,2.10938 0.60547,1.26953 0.60547,3.28125 0,1.99218 -0.72266,3.65234 -0.72265,1.66016 -2.03125,2.89062 -1.46484,1.36719 -3.45703,2.03125 -1.97265,0.64454 -4.33594,0.64454 -2.42187,0 -4.76562,-0.58594 -2.34375,-0.56641 -3.84766,-1.25 l 0,-4.08203 0.29297,0 q 1.66016,1.09375 3.90625,1.8164 2.2461,0.72266 4.33594,0.72266 1.23047,0 2.61719,-0.41016 1.38672,-0.41015 2.24609,-1.21093 0.89844,-0.85938 1.32813,-1.89454 0.44921,-1.03515 0.44921,-2.61718 0,-1.5625 -0.50781,-2.57813 -0.48828,-1.03515 -1.36719,-1.62109 -0.8789,-0.60547 -2.1289,-0.82031 -1.25,-0.23438 -2.69531,-0.23438 l -1.75782,0 0,-3.24219 1.36719,0 q 2.96875,0 4.72656,-1.23047 1.77735,-1.25 1.77735,-3.63281 0,-1.05469 -0.44922,-1.83594 -0.44922,-0.80078 -1.25,-1.30859 -0.83985,-0.50781 -1.79688,-0.70312 -0.95703,-0.19532 -2.16797,-0.19532 -1.85546,0 -3.94531,0.66407 -2.08984,0.66406 -3.94531,1.875 l -0.19531,0 0,-4.08204 q 1.38672,-0.68359 3.6914,-1.25 2.32422,-0.58593 4.49219,-0.58593 2.12891,0 3.75,0.39062 1.62109,0.39063 2.92969,1.25 1.40625,0.9375 2.1289,2.26563 0.72266,1.32812 0.72266,3.10547 0,2.42187 -1.71875,4.23828 -1.69922,1.79687 -4.02344,2.26562 l 0,0.27344 q 0.9375,0.15625 2.14844,0.66406 1.21094,0.48828 2.05078,1.23047 z" />
    </g>
    <circle
       r="24.626007"
       cy="513.99292"
       cx="604.46783"
       id="circle5988"
       style="opacity:1;fill:#ffffff;fill-opacity:1;fill-rule:nonzero;stroke:#000000;stroke-width:3.75053883;stroke-linecap:round;stroke-linejoin:round;stroke-miterlimit:4;stroke-dasharray:none;stroke-dashoffset:0;stroke-opacity:1" />
    <g
       id="flowRoot5990"
       style="font-style:normal;font-weight:normal;font-size:40px;line-height:125%;font-family:sans-serif;letter-spacing:0px;word-spacing:0px;fill:#000000;fill-opacity:1;stroke:none;stroke-width:1px;stroke-linecap:butt;stroke-linejoin:miter;stroke-opacity:1"
       transform="translate(716.88578,165.15047)">
      <path
         id="path4276"
         style=""
         d="m -104.98633,349.37957 q 0.9375,0.83984 1.54297,2.10938 0.60547,1.26953 0.60547,3.28125 0,1.99218 -0.72266,3.65234 -0.72265,1.66016 -2.03125,2.89062 -1.46484,1.36719 -3.45703,2.03125 -1.97265,0.64454 -4.33594,0.64454 -2.42187,0 -4.76562,-0.58594 -2.34375,-0.56641 -3.84766,-1.25 l 0,-4.08203 0.29297,0 q 1.66016,1.09375 3.90625,1.8164 2.2461,0.72266 4.33594,0.72266 1.23047,0 2.61719,-0.41016 1.38672,-0.41015 2.24609,-1.21093 0.89844,-0.85938 1.32813,-1.89454 0.44921,-1.03515 0.44921,-2.61718 0,-1.5625 -0.50781,-2.57813 -0.48828,-1.03515 -1.36719,-1.62109 -0.8789,-0.60547 -2.1289,-0.82031 -1.25,-0.23438 -2.69531,-0.23438 l -1.75782,0 0,-3.24219 1.36719,0 q 2.96875,0 4.72656,-1.23047 1.77735,-1.25 1.77735,-3.63281 0,-1.05469 -0.44922,-1.83594 -0.44922,-0.80078 -1.25,-1.30859 -0.83985,-0.50781 -1.79688,-0.70312 -0.95703,-0.19532 -2.16797,-0.19532 -1.85546,0 -3.94531,0.66407 -2.08984,0.66406 -3.94531,1.875 l -0.19531,0 0,-4.08204 q 1.38672,-0.68359 3.6914,-1.25 2.32422,-0.58593 4.49219,-0.58593 2.12891,0 3.75,0.39062 1.62109,0.39063 2.92969,1.25 1.40625,0.9375 2.1289,2.26563 0.72266,1.32812 0.72266,3.10547 0,2.42187 -1.71875,4.23828 -1.69922,1.79687 -4.02344,2.26562 l 0,0.27344 q 0.9375,0.15625 2.14844,0.66406 1.21094,0.48828 2.05078,1.23047 z" />
    </g>
    <circle
       style="opacity:1;fill:#ffffff;fill-opacity:1;fill-rule:nonzero;stroke:#000000;stroke-width:3.75053883;stroke-linecap:round;stroke-linejoin:round;stroke-miterlimit:4;stroke-dasharray:none;stroke-dashoffset:0;stroke-opacity:1"
       id="circle5998"
       cx="660.34534"
       cy="567.53101"
       r="24.626007" />
    <g
       id="flowRoot6000"
       style="font-style:normal;font-weight:normal;font-size:40px;line-height:125%;font-family:sans-serif;letter-spacing:0px;word-spacing:0px;fill:#000000;fill-opacity:1;stroke:none;stroke-width:1px;stroke-linecap:butt;stroke-linejoin:miter;stroke-opacity:1"
       transform="translate(773.1051,218.68854)">
      <path
         id="path4279"
         style=""
         d="m -101.76367,355.19988 -4.31641,0 0,8.1836 -3.75,0 0,-8.1836 -13.92578,0 0,-4.49218 14.08203,-16.40625 3.59375,0 0,17.77343 4.31641,0 0,3.125 z m -8.06641,-3.125 0,-13.125 -11.26953,13.125 11.26953,0 z" />
    </g>
    <circle
       r="24.626007"
       cy="391.76447"
       cx="637.11182"
       id="circle6008"
       style="opacity:1;fill:#ffffff;fill-opacity:1;fill-rule:nonzero;stroke:#000000;stroke-width:3.75053883;stroke-linecap:round;stroke-linejoin:round;stroke-miterlimit:4;stroke-dasharray:none;stroke-dashoffset:0;stroke-opacity:1" />
    <g
       id="flowRoot6010"
       style="font-style:normal;font-weight:normal;font-size:40px;line-height:125%;font-family:sans-serif;letter-spacing:0px;word-spacing:0px;fill:#000000;fill-opacity:1;stroke:none;stroke-width:1px;stroke-linecap:butt;stroke-linejoin:miter;stroke-opacity:1"
       transform="translate(749.52979,42.922004)">
      <path
         id="path4273"
         style=""
         d="m -104.98633,349.37957 q 0.9375,0.83984 1.54297,2.10938 0.60547,1.26953 0.60547,3.28125 0,1.99218 -0.72266,3.65234 -0.72265,1.66016 -2.03125,2.89062 -1.46484,1.36719 -3.45703,2.03125 -1.97265,0.64454 -4.33594,0.64454 -2.42187,0 -4.76562,-0.58594 -2.34375,-0.56641 -3.84766,-1.25 l 0,-4.08203 0.29297,0 q 1.66016,1.09375 3.90625,1.8164 2.2461,0.72266 4.33594,0.72266 1.23047,0 2.61719,-0.41016 1.38672,-0.41015 2.24609,-1.21093 0.89844,-0.85938 1.32813,-1.89454 0.44921,-1.03515 0.44921,-2.61718 0,-1.5625 -0.50781,-2.57813 -0.48828,-1.03515 -1.36719,-1.62109 -0.8789,-0.60547 -2.1289,-0.82031 -1.25,-0.23438 -2.69531,-0.23438 l -1.75782,0 0,-3.24219 1.36719,0 q 2.96875,0 4.72656,-1.23047 1.77735,-1.25 1.77735,-3.63281 0,-1.05469 -0.44922,-1.83594 -0.44922,-0.80078 -1.25,-1.30859 -0.83985,-0.50781 -1.79688,-0.70312 -0.95703,-0.19532 -2.16797,-0.19532 -1.85546,0 -3.94531,0.66407 -2.08984,0.66406 -3.94531,1.875 l -0.19531,0 0,-4.08204 q 1.38672,-0.68359 3.6914,-1.25 2.32422,-0.58593 4.49219,-0.58593 2.12891,0 3.75,0.39062 1.62109,0.39063 2.92969,1.25 1.40625,0.9375 2.1289,2.26563 0.72266,1.32812 0.72266,3.10547 0,2.42187 -1.71875,4.23828 -1.69922,1.79687 -4.02344,2.26562 l 0,0.27344 q 0.9375,0.15625 2.14844,0.66406 1.21094,0.48828 2.05078,1.23047 z" />
    </g>
    <circle
       style="opacity:1;fill:#ffffff;fill-opacity:1;fill-rule:nonzero;stroke:#000000;stroke-width:3.75053883;stroke-linecap:round;stroke-linejoin:round;stroke-miterlimit:4;stroke-dasharray:none;stroke-dashoffset:0;stroke-opacity:1"
       id="circle6018"
       cx="514.88336"
       cy="188.7238"
       r="24.626007" />
    <g
       id="flowRoot6020"
       style="font-style:normal;font-weight:normal;font-size:40px;line-height:125%;font-family:sans-serif;letter-spacing:0px;word-spacing:0px;fill:#000000;fill-opacity:1;stroke:none;stroke-width:1px;stroke-linecap:butt;stroke-linejoin:miter;stroke-opacity:1"
       transform="translate(627.30133,-160.11866)">
      <path
         id="path4288"
         style=""
         d="m -104.98633,349.37957 q 0.9375,0.83984 1.54297,2.10938 0.60547,1.26953 0.60547,3.28125 0,1.99218 -0.72266,3.65234 -0.72265,1.66016 -2.03125,2.89062 -1.46484,1.36719 -3.45703,2.03125 -1.97265,0.64454 -4.33594,0.64454 -2.42187,0 -4.76562,-0.58594 -2.34375,-0.56641 -3.84766,-1.25 l 0,-4.08203 0.29297,0 q 1.66016,1.09375 3.90625,1.8164 2.2461,0.72266 4.33594,0.72266 1.23047,0 2.61719,-0.41016 1.38672,-0.41015 2.24609,-1.21093 0.89844,-0.85938 1.32813,-1.89454 0.44921,-1.03515 0.44921,-2.61718 0,-1.5625 -0.50781,-2.57813 -0.48828,-1.03515 -1.36719,-1.62109 -0.8789,-0.60547 -2.1289,-0.82031 -1.25,-0.23438 -2.69531,-0.23438 l -1.75782,0 0,-3.24219 1.36719,0 q 2.96875,0 4.72656,-1.23047 1.77735,-1.25 1.77735,-3.63281 0,-1.05469 -0.44922,-1.83594 -0.44922,-0.80078 -1.25,-1.30859 -0.83985,-0.50781 -1.79688,-0.70312 -0.95703,-0.19532 -2.16797,-0.19532 -1.85546,0 -3.94531,0.66407 -2.08984,0.66406 -3.94531,1.875 l -0.19531,0 0,-4.08204 q 1.38672,-0.68359 3.6914,-1.25 2.32422,-0.58593 4.49219,-0.58593 2.12891,0 3.75,0.39062 1.62109,0.39063 2.92969,1.25 1.40625,0.9375 2.1289,2.26563 0.72266,1.32812 0.72266,3.10547 0,2.42187 -1.71875,4.23828 -1.69922,1.79687 -4.02344,2.26562 l 0,0.27344 q 0.9375,0.15625 2.14844,0.66406 1.21094,0.48828 2.05078,1.23047 z" />
    </g>
    <g
       id="flowRoot6054"
       style="font-style:normal;font-weight:normal;font-size:27.09514809px;line-height:125%;font-family:sans-serif;letter-spacing:0px;word-spacing:0px;fill:#000000;fill-opacity:1;stroke:none;stroke-width:0;stroke-linecap:butt;stroke-linejoin:miter;stroke-miterlimit:4;stroke-dasharray:none;stroke-opacity:1"
       transform="matrix(0.65980066,0,0,0.65980066,531.00813,308.74756)">
      <path
         id="path4294"
         style=""
         d="m -148.81973,91.564286 q -1.24362,0.595352 -2.36818,0.926103 -1.11132,0.330752 -2.36818,0.330752 -1.60083,0 -2.93707,-0.463052 -1.33624,-0.476282 -2.2888,-1.428846 -0.96579,-0.952564 -1.49499,-2.40787 -0.52921,-1.455305 -0.52921,-3.400123 0,-3.625035 1.98451,-5.688923 1.99774,-2.063888 5.26556,-2.063888 1.27009,0 2.48725,0.357211 1.2304,0.357212 2.24911,0.873184 l 0,2.765081 -0.1323,0 q -1.13778,-0.886414 -2.35495,-1.362696 -1.20393,-0.476281 -2.35495,-0.476281 -2.11681,0 -3.3472,1.428845 -1.21717,1.415616 -1.21717,4.167467 0,2.67247 1.19071,4.114546 1.20393,1.428846 3.37366,1.428846 0.75411,0 1.53469,-0.198451 0.78057,-0.198451 1.40238,-0.515972 0.54244,-0.277831 1.01872,-0.582122 0.47628,-0.317521 0.75411,-0.542432 l 0.1323,0 0,2.738621 z" />
      <path
         id="path4296"
         style=""
         d="m -133.02305,85.10802 q 0,3.611804 -1.8522,5.702153 -1.85221,2.090348 -4.96127,2.090348 -3.13553,0 -4.98773,-2.090348 -1.83898,-2.090349 -1.83898,-5.702153 0,-3.611805 1.83898,-5.702153 1.8522,-2.103578 4.98773,-2.103578 3.10906,0 4.96127,2.103578 1.8522,2.090348 1.8522,5.702153 z m -2.56663,0 q 0,-2.870922 -1.12455,-4.260077 -1.12456,-1.402386 -3.12229,-1.402386 -2.0242,0 -3.14876,1.402386 -1.11132,1.389155 -1.11132,4.260077 0,2.778311 1.12455,4.220387 1.12456,1.428845 3.13553,1.428845 1.9845,0 3.10906,-1.415615 1.13778,-1.428846 1.13778,-4.233617 z" />
      <path
         id="path4298"
         style=""
         d="m -116.90884,92.490389 -2.48725,0 0,-1.640526 q -1.25686,0.992254 -2.40787,1.521456 -1.15102,0.529202 -2.54017,0.529202 -2.32849,0 -3.62504,-1.415616 -1.29654,-1.428845 -1.29654,-4.180696 l 0,-9.591789 2.48725,0 0,8.414314 q 0,1.124554 0.10584,1.931588 0.10584,0.793803 0.44982,1.362695 0.35721,0.582122 0.9261,0.846723 0.5689,0.264601 1.65376,0.264601 0.96579,0 2.10358,-0.502742 1.15101,-0.502742 2.14327,-1.283315 l 0,-11.033864 2.48725,0 0,14.777969 z" />
      <path
         id="path4300"
         style=""
         d="m -101.0857,91.564286 q -1.24362,0.595352 -2.36818,0.926103 -1.11132,0.330752 -2.36818,0.330752 -1.60083,0 -2.93707,-0.463052 -1.33623,-0.476282 -2.2888,-1.428846 -0.96579,-0.952564 -1.49499,-2.40787 -0.52921,-1.455305 -0.52921,-3.400123 0,-3.625035 1.98451,-5.688923 1.99774,-2.063888 5.26556,-2.063888 1.27009,0 2.48725,0.357211 1.2304,0.357212 2.24911,0.873184 l 0,2.765081 -0.1323,0 q -1.13778,-0.886414 -2.35495,-1.362696 -1.20393,-0.476281 -2.35495,-0.476281 -2.11681,0 -3.3472,1.428845 -1.21716,1.415616 -1.21716,4.167467 0,2.67247 1.1907,4.114546 1.20393,1.428846 3.37366,1.428846 0.75412,0 1.53469,-0.198451 0.78057,-0.198451 1.40238,-0.515972 0.54244,-0.277831 1.01872,-0.582122 0.47628,-0.317521 0.75411,-0.542432 l 0.1323,0 0,2.738621 z" />
      <path
         id="path4302"
         style=""
         d="m -85.52716,92.490389 -2.48725,0 0,-8.414313 q 0,-1.018714 -0.11907,-1.905128 -0.119071,-0.899644 -0.436592,-1.402386 -0.330751,-0.555662 -0.952564,-0.820263 -0.621812,-0.277831 -1.614066,-0.277831 -1.018714,0 -2.130039,0.502742 -1.111324,0.502742 -2.130038,1.283315 l 0,11.033864 -2.48725,0 0,-20.585962 2.48725,0 0,7.44852 q 1.164245,-0.965794 2.40787,-1.508226 1.243625,-0.542432 2.5534,-0.542432 2.394639,0 3.651494,1.442075 1.256855,1.442076 1.256855,4.154237 l 0,9.591788 z" />
      <path
         id="path4304"
         style=""
         d="m -68.367781,85.359391 -10.888333,0 q 0,1.362695 0.410131,2.381409 0.410132,1.005484 1.124555,1.653757 0.687962,0.635042 1.627296,0.952564 0.952564,0.317521 2.090349,0.317521 1.508226,0 3.029682,-0.595352 1.534686,-0.608583 2.182958,-1.190705 l 0.132301,0 0,2.712161 q -1.256855,0.529202 -2.56663,0.886413 -1.309776,0.357212 -2.751851,0.357212 -3.677955,0 -5.741843,-1.984508 -2.063888,-1.997738 -2.063888,-5.662463 0,-3.625034 1.971277,-5.755073 1.984508,-2.130038 5.212641,-2.130038 2.989992,0 4.604059,1.746367 1.627296,1.746367 1.627296,4.961269 l 0,1.349466 z m -2.4211,-1.905128 q -0.01323,-1.958048 -0.992254,-3.029682 -0.965793,-1.071634 -2.950301,-1.071634 -1.997738,0 -3.188443,1.177475 -1.177475,1.177474 -1.336235,2.923841 l 8.467233,0 z" />
      <path
         id="path4306"
         style=""
         d="m -43.177757,92.490389 -10.663423,0 0,-2.010968 4.101317,0 0,-13.203592 -4.101317,0 0,-1.799288 q 0.833493,0 1.786057,-0.1323 0.952564,-0.145531 1.442076,-0.410132 0.608582,-0.330751 0.952564,-0.833493 0.357211,-0.515972 0.410131,-1.375926 l 2.050659,0 0,17.754731 4.021936,0 0,2.010968 z" />
    </g>
    <g
       id="flowRoot6086"
       style="font-style:normal;font-weight:normal;font-size:27.09514809px;line-height:125%;font-family:sans-serif;letter-spacing:0px;word-spacing:0px;fill:#000000;fill-opacity:1;stroke:none;stroke-width:0;stroke-linecap:butt;stroke-linejoin:miter;stroke-miterlimit:4;stroke-dasharray:none;stroke-opacity:1"
       transform="matrix(0.65980066,0,0,0.65980066,601.00813,263.74756)">
      <path
         id="path4309"
         style=""
         d="m -148.81973,91.564286 q -1.24362,0.595352 -2.36818,0.926103 -1.11132,0.330752 -2.36818,0.330752 -1.60083,0 -2.93707,-0.463052 -1.33624,-0.476282 -2.2888,-1.428846 -0.96579,-0.952564 -1.49499,-2.40787 -0.52921,-1.455305 -0.52921,-3.400123 0,-3.625035 1.98451,-5.688923 1.99774,-2.063888 5.26556,-2.063888 1.27009,0 2.48725,0.357211 1.2304,0.357212 2.24911,0.873184 l 0,2.765081 -0.1323,0 q -1.13778,-0.886414 -2.35495,-1.362696 -1.20393,-0.476281 -2.35495,-0.476281 -2.11681,0 -3.3472,1.428845 -1.21717,1.415616 -1.21717,4.167467 0,2.67247 1.19071,4.114546 1.20393,1.428846 3.37366,1.428846 0.75411,0 1.53469,-0.198451 0.78057,-0.198451 1.40238,-0.515972 0.54244,-0.277831 1.01872,-0.582122 0.47628,-0.317521 0.75411,-0.542432 l 0.1323,0 0,2.738621 z" />
      <path
         id="path4311"
         style=""
         d="m -133.02305,85.10802 q 0,3.611804 -1.8522,5.702153 -1.85221,2.090348 -4.96127,2.090348 -3.13553,0 -4.98773,-2.090348 -1.83898,-2.090349 -1.83898,-5.702153 0,-3.611805 1.83898,-5.702153 1.8522,-2.103578 4.98773,-2.103578 3.10906,0 4.96127,2.103578 1.8522,2.090348 1.8522,5.702153 z m -2.56663,0 q 0,-2.870922 -1.12455,-4.260077 -1.12456,-1.402386 -3.12229,-1.402386 -2.0242,0 -3.14876,1.402386 -1.11132,1.389155 -1.11132,4.260077 0,2.778311 1.12455,4.220387 1.12456,1.428845 3.13553,1.428845 1.9845,0 3.10906,-1.415615 1.13778,-1.428846 1.13778,-4.233617 z" />
      <path
         id="path4313"
         style=""
         d="m -116.90884,92.490389 -2.48725,0 0,-1.640526 q -1.25686,0.992254 -2.40787,1.521456 -1.15102,0.529202 -2.54017,0.529202 -2.32849,0 -3.62504,-1.415616 -1.29654,-1.428845 -1.29654,-4.180696 l 0,-9.591789 2.48725,0 0,8.414314 q 0,1.124554 0.10584,1.931588 0.10584,0.793803 0.44982,1.362695 0.35721,0.582122 0.9261,0.846723 0.5689,0.264601 1.65376,0.264601 0.96579,0 2.10358,-0.502742 1.15101,-0.502742 2.14327,-1.283315 l 0,-11.033864 2.48725,0 0,14.777969 z" />
      <path
         id="path4315"
         style=""
         d="m -101.0857,91.564286 q -1.24362,0.595352 -2.36818,0.926103 -1.11132,0.330752 -2.36818,0.330752 -1.60083,0 -2.93707,-0.463052 -1.33623,-0.476282 -2.2888,-1.428846 -0.96579,-0.952564 -1.49499,-2.40787 -0.52921,-1.455305 -0.52921,-3.400123 0,-3.625035 1.98451,-5.688923 1.99774,-2.063888 5.26556,-2.063888 1.27009,0 2.48725,0.357211 1.2304,0.357212 2.24911,0.873184 l 0,2.765081 -0.1323,0 q -1.13778,-0.886414 -2.35495,-1.362696 -1.20393,-0.476281 -2.35495,-0.476281 -2.11681,0 -3.3472,1.428845 -1.21716,1.415616 -1.21716,4.167467 0,2.67247 1.1907,4.114546 1.20393,1.428846 3.37366,1.428846 0.75412,0 1.53469,-0.198451 0.78057,-0.198451 1.40238,-0.515972 0.54244,-0.277831 1.01872,-0.582122 0.47628,-0.317521 0.75411,-0.542432 l 0.1323,0 0,2.738621 z" />
      <path
         id="path4317"
         style=""
         d="m -85.52716,92.490389 -2.48725,0 0,-8.414313 q 0,-1.018714 -0.11907,-1.905128 -0.119071,-0.899644 -0.436592,-1.402386 -0.330751,-0.555662 -0.952564,-0.820263 -0.621812,-0.277831 -1.614066,-0.277831 -1.018714,0 -2.130039,0.502742 -1.111324,0.502742 -2.130038,1.283315 l 0,11.033864 -2.48725,0 0,-20.585962 2.48725,0 0,7.44852 q 1.164245,-0.965794 2.40787,-1.508226 1.243625,-0.542432 2.5534,-0.542432 2.394639,0 3.651494,1.442075 1.256855,1.442076 1.256855,4.154237 l 0,9.591788 z" />
      <path
         id="path4319"
         style=""
         d="m -68.367781,85.359391 -10.888333,0 q 0,1.362695 0.410131,2.381409 0.410132,1.005484 1.124555,1.653757 0.687962,0.635042 1.627296,0.952564 0.952564,0.317521 2.090349,0.317521 1.508226,0 3.029682,-0.595352 1.534686,-0.608583 2.182958,-1.190705 l 0.132301,0 0,2.712161 q -1.256855,0.529202 -2.56663,0.886413 -1.309776,0.357212 -2.751851,0.357212 -3.677955,0 -5.741843,-1.984508 -2.063888,-1.997738 -2.063888,-5.662463 0,-3.625034 1.971277,-5.755073 1.984508,-2.130038 5.212641,-2.130038 2.989992,0 4.604059,1.746367 1.627296,1.746367 1.627296,4.961269 l 0,1.349466 z m -2.4211,-1.905128 q -0.01323,-1.958048 -0.992254,-3.029682 -0.965793,-1.071634 -2.950301,-1.071634 -1.997738,0 -3.188443,1.177475 -1.177475,1.177474 -1.336235,2.923841 l 8.467233,0 z" />
      <path
         id="path4321"
         style=""
         d="m -42.053203,92.490389 -13.335893,0 0,-2.765081 q 1.389156,-1.190705 2.778311,-2.381409 1.402386,-1.190705 2.60632,-2.36818 2.540171,-2.46079 3.479504,-3.902865 0.939334,-1.455306 0.939334,-3.135523 0,-1.534686 -1.018714,-2.394639 -1.005484,-0.873184 -2.818001,-0.873184 -1.203935,0 -2.606321,0.423362 -1.402385,0.423362 -2.738621,1.296545 l -0.1323,0 0,-2.778311 q 0.939334,-0.463052 2.50048,-0.846723 1.574376,-0.383672 3.042912,-0.383672 3.029682,0 4.749589,1.468536 1.719907,1.455306 1.719907,3.955786 0,1.124554 -0.291061,2.103578 -0.277831,0.965794 -0.833494,1.838977 -0.515972,0.820264 -1.217164,1.614067 -0.687963,0.793803 -1.680217,1.759597 -1.415616,1.389155 -2.923842,2.698931 -1.508226,1.296545 -2.818001,2.407869 l 10.597272,0 0,2.262339 z" />
    </g>
    <g
       id="flowRoot6094"
       style="font-style:normal;font-weight:normal;font-size:27.09514809px;line-height:125%;font-family:sans-serif;letter-spacing:0px;word-spacing:0px;fill:#000000;fill-opacity:1;stroke:none;stroke-width:0;stroke-linecap:butt;stroke-linejoin:miter;stroke-miterlimit:4;stroke-dasharray:none;stroke-opacity:1"
       transform="matrix(0.65980066,0,0,0.65980066,665.29384,213.74756)">
      <path
         id="path4324"
         style=""
         d="m -148.81973,91.564286 q -1.24362,0.595352 -2.36818,0.926103 -1.11132,0.330752 -2.36818,0.330752 -1.60083,0 -2.93707,-0.463052 -1.33624,-0.476282 -2.2888,-1.428846 -0.96579,-0.952564 -1.49499,-2.40787 -0.52921,-1.455305 -0.52921,-3.400123 0,-3.625035 1.98451,-5.688923 1.99774,-2.063888 5.26556,-2.063888 1.27009,0 2.48725,0.357211 1.2304,0.357212 2.24911,0.873184 l 0,2.765081 -0.1323,0 q -1.13778,-0.886414 -2.35495,-1.362696 -1.20393,-0.476281 -2.35495,-0.476281 -2.11681,0 -3.3472,1.428845 -1.21717,1.415616 -1.21717,4.167467 0,2.67247 1.19071,4.114546 1.20393,1.428846 3.37366,1.428846 0.75411,0 1.53469,-0.198451 0.78057,-0.198451 1.40238,-0.515972 0.54244,-0.277831 1.01872,-0.582122 0.47628,-0.317521 0.75411,-0.542432 l 0.1323,0 0,2.738621 z" />
      <path
         id="path4326"
         style=""
         d="m -133.02305,85.10802 q 0,3.611804 -1.8522,5.702153 -1.85221,2.090348 -4.96127,2.090348 -3.13553,0 -4.98773,-2.090348 -1.83898,-2.090349 -1.83898,-5.702153 0,-3.611805 1.83898,-5.702153 1.8522,-2.103578 4.98773,-2.103578 3.10906,0 4.96127,2.103578 1.8522,2.090348 1.8522,5.702153 z m -2.56663,0 q 0,-2.870922 -1.12455,-4.260077 -1.12456,-1.402386 -3.12229,-1.402386 -2.0242,0 -3.14876,1.402386 -1.11132,1.389155 -1.11132,4.260077 0,2.778311 1.12455,4.220387 1.12456,1.428845 3.13553,1.428845 1.9845,0 3.10906,-1.415615 1.13778,-1.428846 1.13778,-4.233617 z" />
      <path
         id="path4328"
         style=""
         d="m -116.90884,92.490389 -2.48725,0 0,-1.640526 q -1.25686,0.992254 -2.40787,1.521456 -1.15102,0.529202 -2.54017,0.529202 -2.32849,0 -3.62504,-1.415616 -1.29654,-1.428845 -1.29654,-4.180696 l 0,-9.591789 2.48725,0 0,8.414314 q 0,1.124554 0.10584,1.931588 0.10584,0.793803 0.44982,1.362695 0.35721,0.582122 0.9261,0.846723 0.5689,0.264601 1.65376,0.264601 0.96579,0 2.10358,-0.502742 1.15101,-0.502742 2.14327,-1.283315 l 0,-11.033864 2.48725,0 0,14.777969 z" />
      <path
         id="path4330"
         style=""
         d="m -101.0857,91.564286 q -1.24362,0.595352 -2.36818,0.926103 -1.11132,0.330752 -2.36818,0.330752 -1.60083,0 -2.93707,-0.463052 -1.33623,-0.476282 -2.2888,-1.428846 -0.96579,-0.952564 -1.49499,-2.40787 -0.52921,-1.455305 -0.52921,-3.400123 0,-3.625035 1.98451,-5.688923 1.99774,-2.063888 5.26556,-2.063888 1.27009,0 2.48725,0.357211 1.2304,0.357212 2.24911,0.873184 l 0,2.765081 -0.1323,0 q -1.13778,-0.886414 -2.35495,-1.362696 -1.20393,-0.476281 -2.35495,-0.476281 -2.11681,0 -3.3472,1.428845 -1.21716,1.415616 -1.21716,4.167467 0,2.67247 1.1907,4.114546 1.20393,1.428846 3.37366,1.428846 0.75412,0 1.53469,-0.198451 0.78057,-0.198451 1.40238,-0.515972 0.54244,-0.277831 1.01872,-0.582122 0.47628,-0.317521 0.75411,-0.542432 l 0.1323,0 0,2.738621 z" />
      <path
         id="path4332"
         style=""
         d="m -85.52716,92.490389 -2.48725,0 0,-8.414313 q 0,-1.018714 -0.11907,-1.905128 -0.119071,-0.899644 -0.436592,-1.402386 -0.330751,-0.555662 -0.952564,-0.820263 -0.621812,-0.277831 -1.614066,-0.277831 -1.018714,0 -2.130039,0.502742 -1.111324,0.502742 -2.130038,1.283315 l 0,11.033864 -2.48725,0 0,-20.585962 2.48725,0 0,7.44852 q 1.164245,-0.965794 2.40787,-1.508226 1.243625,-0.542432 2.5534,-0.542432 2.394639,0 3.651494,1.442075 1.256855,1.442076 1.256855,4.154237 l 0,9.591788 z" />
      <path
         id="path4334"
         style=""
         d="m -68.367781,85.359391 -10.888333,0 q 0,1.362695 0.410131,2.381409 0.410132,1.005484 1.124555,1.653757 0.687962,0.635042 1.627296,0.952564 0.952564,0.317521 2.090349,0.317521 1.508226,0 3.029682,-0.595352 1.534686,-0.608583 2.182958,-1.190705 l 0.132301,0 0,2.712161 q -1.256855,0.529202 -2.56663,0.886413 -1.309776,0.357212 -2.751851,0.357212 -3.677955,0 -5.741843,-1.984508 -2.063888,-1.997738 -2.063888,-5.662463 0,-3.625034 1.971277,-5.755073 1.984508,-2.130038 5.212641,-2.130038 2.989992,0 4.604059,1.746367 1.627296,1.746367 1.627296,4.961269 l 0,1.349466 z m -2.4211,-1.905128 q -0.01323,-1.958048 -0.992254,-3.029682 -0.965793,-1.071634 -2.950301,-1.071634 -1.997738,0 -3.188443,1.177475 -1.177475,1.177474 -1.336235,2.923841 l 8.467233,0 z" />
      <path
         id="path4336"
         style=""
         d="m -43.78634,83.004441 q 0.635043,0.568893 1.045174,1.428846 0.410132,0.859954 0.410132,2.222649 0,1.349465 -0.489512,2.47402 -0.489512,1.124554 -1.375925,1.958048 -0.992254,0.926103 -2.34172,1.375925 -1.336235,0.436592 -2.937071,0.436592 -1.640527,0 -3.228133,-0.396902 -1.587607,-0.383671 -2.606321,-0.846723 l 0,-2.765081 0.198451,0 q 1.124555,0.740883 2.646011,1.230395 1.521456,0.489512 2.937071,0.489512 0.833494,0 1.772827,-0.277831 0.939334,-0.277831 1.521456,-0.820264 0.608583,-0.582122 0.899644,-1.283315 0.304291,-0.701193 0.304291,-1.772827 0,-1.058404 -0.343981,-1.746367 -0.330751,-0.701193 -0.926104,-1.098094 -0.595352,-0.410132 -1.442076,-0.555662 -0.846723,-0.158761 -1.825747,-0.158761 l -1.190705,0 0,-2.196189 0.926104,0 q 2.010968,0 3.201673,-0.833493 1.203935,-0.846723 1.203935,-2.46079 0,-0.714423 -0.304291,-1.243625 -0.304292,-0.542432 -0.846724,-0.886413 -0.568892,-0.343982 -1.217165,-0.476282 -0.648272,-0.132301 -1.468536,-0.132301 -1.256855,0 -2.67247,0.449822 -1.415616,0.449822 -2.672471,1.270085 l -0.1323,0 0,-2.765081 q 0.939333,-0.463052 2.50048,-0.846723 1.574376,-0.396902 3.042912,-0.396902 1.442075,0 2.54017,0.264601 1.098094,0.264601 1.984508,0.846723 0.952564,0.635043 1.442075,1.534687 0.489512,0.899643 0.489512,2.103578 0,1.640527 -1.164244,2.870921 -1.151015,1.217165 -2.725391,1.534687 l 0,0.18522 q 0.635042,0.105841 1.455306,0.449822 0.820263,0.330751 1.389155,0.833493 z" />
    </g>
    <g
       id="flowRoot6102"
       style="font-style:normal;font-weight:normal;font-size:17.87739754px;line-height:125%;font-family:sans-serif;letter-spacing:0px;word-spacing:0px;fill:#000000;fill-opacity:1;stroke:none;stroke-width:0;stroke-linecap:butt;stroke-linejoin:miter;stroke-miterlimit:4;stroke-dasharray:none;stroke-opacity:1">
      <path
         id="path4339"
         style=""
         d="m 621.38772,234.87703 q -0.82055,0.39281 -1.56253,0.61104 -0.73325,0.21823 -1.56252,0.21823 -1.05624,0 -1.93789,-0.30552 -0.88164,-0.31425 -1.51015,-0.94275 -0.63723,-0.6285 -0.9864,-1.58872 -0.34916,-0.96021 -0.34916,-2.2434 0,-2.3918 1.30938,-3.75356 1.3181,-1.36175 3.47422,-1.36175 0.838,0 1.64109,0.23569 0.81181,0.23569 1.48396,0.57612 l 0,1.82441 -0.0873,0 q -0.75071,-0.58486 -1.5538,-0.89911 -0.79436,-0.31425 -1.5538,-0.31425 -1.39667,0 -2.20848,0.94275 -0.80309,0.93403 -0.80309,2.7497 0,1.7633 0.78563,2.71478 0.79435,0.94275 2.22594,0.94275 0.49757,0 1.01259,-0.13093 0.51502,-0.13094 0.92529,-0.34044 0.3579,-0.18332 0.67215,-0.38409 0.31425,-0.2095 0.49757,-0.3579 l 0.0873,0 0,1.80695 z" />
      <path
         id="path4341"
         style=""
         d="m 631.81038,230.61718 q 0,2.38307 -1.22209,3.76228 -1.22208,1.37922 -3.27345,1.37922 -2.06882,0 -3.2909,-1.37922 -1.21336,-1.37921 -1.21336,-3.76228 0,-2.38307 1.21336,-3.76228 1.22208,-1.38795 3.2909,-1.38795 2.05137,0 3.27345,1.38795 1.22209,1.37921 1.22209,3.76228 z m -1.69346,0 q 0,-1.89424 -0.74198,-2.8108 -0.74199,-0.9253 -2.0601,-0.9253 -1.33556,0 -2.07754,0.9253 -0.73326,0.91656 -0.73326,2.8108 0,1.83313 0.74198,2.78461 0.74199,0.94276 2.06882,0.94276 1.30938,0 2.05137,-0.93403 0.75071,-0.94275 0.75071,-2.79334 z" />
      <path
         id="path4343"
         style=""
         d="m 642.44254,235.48807 -1.64108,0 0,-1.08242 q -0.82928,0.65469 -1.58872,1.00386 -0.75944,0.34917 -1.676,0.34917 -1.53634,0 -2.3918,-0.93403 -0.85547,-0.94275 -0.85547,-2.75842 l 0,-6.32867 1.64109,0 0,5.55177 q 0,0.74198 0.0698,1.27446 0.0698,0.52375 0.29679,0.89911 0.23569,0.38408 0.61104,0.55867 0.37536,0.17458 1.09115,0.17458 0.63723,0 1.38795,-0.33171 0.75944,-0.33171 1.41413,-0.84673 l 0,-7.28015 1.64108,0 0,9.75051 z" />
      <path
         id="path4345"
         style=""
         d="m 652.88266,234.87703 q -0.82054,0.39281 -1.56252,0.61104 -0.73325,0.21823 -1.56253,0.21823 -1.05623,0 -1.93788,-0.30552 -0.88165,-0.31425 -1.51015,-0.94275 -0.63723,-0.6285 -0.9864,-1.58872 -0.34917,-0.96021 -0.34917,-2.2434 0,-2.3918 1.30938,-3.75356 1.31811,-1.36175 3.47422,-1.36175 0.838,0 1.64109,0.23569 0.81182,0.23569 1.48396,0.57612 l 0,1.82441 -0.0873,0 q -0.75071,-0.58486 -1.55379,-0.89911 -0.79436,-0.31425 -1.5538,-0.31425 -1.39667,0 -2.20849,0.94275 -0.80309,0.93403 -0.80309,2.7497 0,1.7633 0.78563,2.71478 0.79436,0.94275 2.22595,0.94275 0.49756,0 1.01259,-0.13093 0.51502,-0.13094 0.92529,-0.34044 0.3579,-0.18332 0.67215,-0.38409 0.31425,-0.2095 0.49756,-0.3579 l 0.0873,0 0,1.80695 z" />
      <path
         id="path4347"
         style=""
         d="m 663.1482,235.48807 -1.64109,0 0,-5.55177 q 0,-0.67215 -0.0786,-1.257 -0.0786,-0.59359 -0.28806,-0.9253 -0.21823,-0.36662 -0.62851,-0.54121 -0.41027,-0.18331 -1.06496,-0.18331 -0.67215,0 -1.4054,0.33171 -0.73325,0.33171 -1.4054,0.84673 l 0,7.28015 -1.64109,0 0,-13.58263 1.64109,0 0,4.91454 q 0.76817,-0.63723 1.58871,-0.99513 0.82055,-0.3579 1.68474,-0.3579 1.57998,0 2.40926,0.95149 0.82927,0.95148 0.82927,2.74096 l 0,6.32867 z" />
      <path
         id="path4349"
         style=""
         d="m 674.46997,230.78304 -7.18413,0 q 0,0.8991 0.27061,1.57125 0.2706,0.66342 0.74198,1.09115 0.45392,0.419 1.07369,0.6285 0.6285,0.2095 1.37922,0.2095 0.99512,0 1.99898,-0.39281 1.01259,-0.40154 1.44032,-0.78563 l 0.0873,0 0,1.78949 q -0.82927,0.34917 -1.69346,0.58485 -0.86419,0.23569 -1.81568,0.23569 -2.42671,0 -3.78847,-1.30938 -1.36175,-1.31811 -1.36175,-3.73609 0,-2.3918 1.30065,-3.79721 1.30938,-1.4054 3.4393,-1.4054 1.9728,0 3.03776,1.15226 1.07369,1.15225 1.07369,3.27345 l 0,0.89038 z m -1.59744,-1.25701 q -0.009,-1.29192 -0.65469,-1.99899 -0.63723,-0.70706 -1.94661,-0.70706 -1.31811,0 -2.10374,0.7769 -0.7769,0.7769 -0.88165,1.92915 l 5.58669,0 z" />
      <path
         id="path4351"
         style=""
         d="m 692.12914,231.83054 -1.92915,0 0,3.65753 -1.67601,0 0,-3.65753 -6.22392,0 0,-2.00772 6.29375,-7.33252 1.60618,0 0,7.94357 1.92915,0 0,1.39667 z m -3.60516,-1.39667 0,-5.86602 -5.03675,5.86602 5.03675,0 z" />
    </g>
  </g>
</svg>
