<?xml version="1.0" encoding="UTF-8" standalone="no"?>
<svg
   xmlns:dc="http://purl.org/dc/elements/1.1/"
   xmlns:cc="http://creativecommons.org/ns#"
   xmlns:rdf="http://www.w3.org/1999/02/22-rdf-syntax-ns#"
   xmlns:svg="http://www.w3.org/2000/svg"
   xmlns="http://www.w3.org/2000/svg"
   version="1.1"
   id="svg5283"
   viewBox="0 0 762.65933 762.65932"
   height="215.23941mm"
   width="215.23941mm">
  <defs
     id="defs5285" />
  <metadata
     id="metadata5288">
    <rdf:RDF>
      <cc:Work
         rdf:about="">
        <dc:format>image/svg+xml</dc:format>
        <dc:type
           rdf:resource="http://purl.org/dc/dcmitype/StillImage" />
        <dc:title></dc:title>
      </cc:Work>
    </rdf:RDF>
  </metadata>
  <g
     transform="translate(-7.5790141,-738.64737)"
     style="display:inline"
     id="layer1">
    <circle
       style="opacity:1;fill:#00b3ff;fill-opacity:0.19607843;fill-rule:nonzero;stroke:none;stroke-width:4.17144299;stroke-linecap:round;stroke-linejoin:round;stroke-miterlimit:4;stroke-dasharray:none;stroke-dashoffset:0;stroke-opacity:1"
       id="circle6330"
       cx="388.90869"
       cy="1119.9771"
       r="345.89661" />
    <circle
       r="286.29761"
       cy="1119.9771"
       cx="388.90869"
       id="circle6332"
       style="opacity:1;fill:#00b3ff;fill-opacity:0.19607843;fill-rule:nonzero;stroke:none;stroke-width:4.17144299;stroke-linecap:round;stroke-linejoin:round;stroke-miterlimit:4;stroke-dasharray:none;stroke-dashoffset:0;stroke-opacity:1" />
    <circle
       r="213.25935"
       cy="1119.9771"
       cx="388.90869"
       id="circle6334"
       style="opacity:1;fill:#00b3ff;fill-opacity:0.19607843;fill-rule:nonzero;stroke:none;stroke-width:2.76571107;stroke-linecap:round;stroke-linejoin:round;stroke-miterlimit:4;stroke-dasharray:none;stroke-dashoffset:0;stroke-opacity:1" />
    <circle
       style="opacity:1;fill:#00b3ff;fill-opacity:0.19607843;fill-rule:nonzero;stroke:none;stroke-width:1.62030017;stroke-linecap:round;stroke-linejoin:round;stroke-miterlimit:4;stroke-dasharray:none;stroke-dashoffset:0;stroke-opacity:1"
       id="circle6336"
       cx="388.90869"
       cy="1119.9771"
       r="124.93864" />
    <circle
       r="49.163471"
       cy="1119.9771"
       cx="388.90869"
       id="circle6338"
       style="opacity:1;fill:#00b3ff;fill-opacity:0.39215686;fill-rule:nonzero;stroke:none;stroke-width:0.63758969;stroke-linecap:round;stroke-linejoin:round;stroke-miterlimit:4;stroke-dasharray:none;stroke-dashoffset:0;stroke-opacity:1" />
    <circle
       style="opacity:1;fill:#ffffff;fill-opacity:1;fill-rule:nonzero;stroke:#000000;stroke-width:3.75053883;stroke-linecap:round;stroke-linejoin:round;stroke-miterlimit:4;stroke-dasharray:none;stroke-dashoffset:0;stroke-opacity:1"
       id="circle6358"
       cx="388.90869"
       cy="1119.9771"
       r="24.626007" />
    <g
       id="flowRoot6360"
       style="font-style:normal;font-weight:normal;font-size:40px;line-height:125%;font-family:sans-serif;letter-spacing:0px;word-spacing:0px;fill:#000000;fill-opacity:1;stroke:none;stroke-width:1px;stroke-linecap:butt;stroke-linejoin:miter;stroke-opacity:1"
       transform="translate(497.97705,771.1345)">
      <path
         id="path4277"
         style=""
         d="m -96.783203,348.87176 q 0,3.96484 -1.738281,7.1875 -1.718746,3.22265 -4.589846,5 -1.99219,1.23047 -4.45312,1.77734 -2.44141,0.54688 -6.44532,0.54688 l -7.34375,0 0,-29.08203 7.26563,0 q 4.25781,0 6.75781,0.625 2.51953,0.60546 4.25781,1.67968 2.96875,1.85547 4.628911,4.94141 1.660156,3.08594 1.660156,7.32422 z m -4.042967,-0.0586 q 0,-3.41796 -1.19141,-5.76171 -1.1914,-2.34375 -3.55469,-3.69141 -1.71875,-0.97656 -3.65234,-1.34766 -1.93359,-0.39062 -4.62891,-0.39062 l -3.63281,0 0,22.4414 3.63281,0 q 2.79297,0 4.86329,-0.41015 2.08984,-0.41016 3.82812,-1.52344 2.16797,-1.38672 3.24219,-3.65234 1.09375,-2.26563 1.09375,-5.66407 z" />
    </g>
    <path
       id="path6560"
       d="M 397.70566,870.51131 287.15302,978.77246"
       style="fill:none;fill-rule:evenodd;stroke:#000000;stroke-width:3;stroke-linecap:butt;stroke-linejoin:miter;stroke-miterlimit:4;stroke-dasharray:none;stroke-opacity:1" />
    <circle
       r="24.626007"
       cy="978.77246"
       cx="287.15302"
       id="circle6408"
       style="opacity:1;fill:#ffffff;fill-opacity:1;fill-rule:nonzero;stroke:#000000;stroke-width:3.75053883;stroke-linecap:round;stroke-linejoin:round;stroke-miterlimit:4;stroke-dasharray:none;stroke-dashoffset:0;stroke-opacity:1" />
    <path
       id="path6562"
       d="M 463.92972,968.67093 397.70566,870.51131"
       style="fill:none;fill-rule:evenodd;stroke:#000000;stroke-width:3;stroke-linecap:butt;stroke-linejoin:miter;stroke-miterlimit:4;stroke-dasharray:none;stroke-opacity:1" />
    <g
       id="flowRoot6410"
       style="font-style:normal;font-weight:normal;font-size:40px;line-height:125%;font-family:sans-serif;letter-spacing:0px;word-spacing:0px;fill:#000000;fill-opacity:1;stroke:none;stroke-width:1px;stroke-linecap:butt;stroke-linejoin:miter;stroke-opacity:1"
       transform="translate(397.53973,629.93)">
      <path
         id="path4271"
         style=""
         d="m -99.419922,354.43816 q 0,2.16797 -0.820308,3.82813 -0.82032,1.66016 -2.20704,2.73437 -1.64062,1.28907 -3.61328,1.83594 -1.95312,0.54688 -4.98047,0.54688 l -10.3125,0 0,-29.08203 8.61329,0 q 3.18359,0 4.76562,0.23437 1.58203,0.23438 3.02734,0.97656 1.60157,0.83985 2.32422,2.16797 0.72266,1.3086 0.72266,3.14453 0,2.07032 -1.05469,3.53516 -1.05469,1.44531 -2.8125,2.32422 l 0,0.15625 q 2.94922,0.60547 4.64844,2.59765 1.699218,1.97266 1.699218,5 z m -6.503908,-13.10546 q 0,-1.05469 -0.35156,-1.77735 -0.35156,-0.72265 -1.13281,-1.17187 -0.91797,-0.52735 -2.22657,-0.64453 -1.30859,-0.13672 -3.24218,-0.13672 l -4.60938,0 0,8.39843 5,0 q 1.81641,0 2.89063,-0.17578 1.07422,-0.19531 1.99218,-0.78125 0.91797,-0.58593 1.28907,-1.5039 0.39062,-0.9375 0.39062,-2.20703 z m 2.48047,13.26171 q 0,-1.75781 -0.52734,-2.79296 -0.52735,-1.03516 -1.91407,-1.75782 -0.9375,-0.48828 -2.28515,-0.625 -1.32813,-0.15625 -3.24219,-0.15625 l -6.07422,0 0,10.82032 5.11719,0 q 2.53906,0 4.16016,-0.25391 1.62109,-0.27344 2.65625,-0.97656 1.09375,-0.76172 1.60156,-1.73828 0.50781,-0.97657 0.50781,-2.51954 z" />
    </g>
    <circle
       r="24.626007"
       cy="870.51129"
       cx="397.70566"
       id="circle6508"
       style="opacity:1;fill:#ffffff;fill-opacity:1;fill-rule:nonzero;stroke:#000000;stroke-width:3.75053883;stroke-linecap:round;stroke-linejoin:round;stroke-miterlimit:4;stroke-dasharray:none;stroke-dashoffset:0;stroke-opacity:1" />
    <g
       id="flowRoot6510"
       style="font-style:normal;font-weight:normal;font-size:40px;line-height:125%;font-family:sans-serif;letter-spacing:0px;word-spacing:0px;fill:#000000;fill-opacity:1;stroke:none;stroke-width:1px;stroke-linecap:butt;stroke-linejoin:miter;stroke-opacity:1"
       transform="translate(510.12363,521.66885)">
      <path
         id="path4274"
         style=""
         d="m -100.2207,355.0827 q 0,1.69921 -0.80078,3.35937 -0.78125,1.66016 -2.20704,2.8125 -1.5625,1.25 -3.65234,1.95313 -2.07031,0.70312 -5,0.70312 -3.14453,0 -5.66406,-0.58594 -2.5,-0.58593 -5.09766,-1.73828 l 0,-4.84375 0.27344,0 q 2.20703,1.83594 5.09766,2.83203 2.89062,0.9961 5.42968,0.9961 3.59375,0 5.58594,-1.34766 2.01172,-1.34766 2.01172,-3.59375 0,-1.93359 -0.95703,-2.85156 -0.9375,-0.91797 -2.8711,-1.42578 -1.46484,-0.39063 -3.18359,-0.64453 -1.69922,-0.25391 -3.61328,-0.64454 -3.86719,-0.82031 -5.74219,-2.79296 -1.85547,-1.99219 -1.85547,-5.17579 0,-3.65234 3.08594,-5.97656 3.08594,-2.34375 7.83203,-2.34375 3.06641,0 5.625,0.58594 2.5586,0.58594 4.53125,1.44531 l 0,4.57031 -0.27344,0 q -1.66015,-1.40625 -4.375,-2.32421 -2.69531,-0.9375 -5.52734,-0.9375 -3.10547,0 -5,1.28906 -1.875,1.28906 -1.875,3.32031 0,1.81641 0.9375,2.85156 0.9375,1.03516 3.30078,1.58203 1.25,0.27344 3.55469,0.66407 2.30469,0.39062 3.90625,0.80078 3.24219,0.85937 4.88281,2.59765 1.64063,1.73829 1.64063,4.86329 z" />
    </g>
    <g
       id="flowRoot6526"
       style="font-style:normal;font-weight:normal;font-size:27.09514809px;line-height:125%;font-family:sans-serif;letter-spacing:0px;word-spacing:0px;fill:#000000;fill-opacity:1;stroke:none;stroke-width:0;stroke-linecap:butt;stroke-linejoin:miter;stroke-miterlimit:4;stroke-dasharray:none;stroke-opacity:1"
       transform="matrix(0.65980066,0,0,0.65980066,601.00813,980.89041)">
      <path
         id="path4215"
         style=""
         d="m -148.81973,91.564286 q -1.24362,0.595352 -2.36818,0.926103 -1.11132,0.330752 -2.36818,0.330752 -1.60083,0 -2.93707,-0.463052 -1.33624,-0.476282 -2.2888,-1.428846 -0.96579,-0.952564 -1.49499,-2.40787 -0.52921,-1.455305 -0.52921,-3.400123 0,-3.625035 1.98451,-5.688923 1.99774,-2.063888 5.26556,-2.063888 1.27009,0 2.48725,0.357211 1.2304,0.357212 2.24911,0.873184 l 0,2.765081 -0.1323,0 q -1.13778,-0.886414 -2.35495,-1.362696 -1.20393,-0.476281 -2.35495,-0.476281 -2.11681,0 -3.3472,1.428845 -1.21717,1.415616 -1.21717,4.167467 0,2.67247 1.19071,4.114546 1.20393,1.428846 3.37366,1.428846 0.75411,0 1.53469,-0.198451 0.78057,-0.198451 1.40238,-0.515972 0.54244,-0.277831 1.01872,-0.582122 0.47628,-0.317521 0.75411,-0.542432 l 0.1323,0 0,2.738621 z" />
      <path
         id="path4217"
         style=""
         d="m -133.02305,85.10802 q 0,3.611804 -1.8522,5.702153 -1.85221,2.090348 -4.96127,2.090348 -3.13553,0 -4.98773,-2.090348 -1.83898,-2.090349 -1.83898,-5.702153 0,-3.611805 1.83898,-5.702153 1.8522,-2.103578 4.98773,-2.103578 3.10906,0 4.96127,2.103578 1.8522,2.090348 1.8522,5.702153 z m -2.56663,0 q 0,-2.870922 -1.12455,-4.260077 -1.12456,-1.402386 -3.12229,-1.402386 -2.0242,0 -3.14876,1.402386 -1.11132,1.389155 -1.11132,4.260077 0,2.778311 1.12455,4.220387 1.12456,1.428845 3.13553,1.428845 1.9845,0 3.10906,-1.415615 1.13778,-1.428846 1.13778,-4.233617 z" />
      <path
         id="path4219"
         style=""
         d="m -116.90884,92.490389 -2.48725,0 0,-1.640526 q -1.25686,0.992254 -2.40787,1.521456 -1.15102,0.529202 -2.54017,0.529202 -2.32849,0 -3.62504,-1.415616 -1.29654,-1.428845 -1.29654,-4.180696 l 0,-9.591789 2.48725,0 0,8.414314 q 0,1.124554 0.10584,1.931588 0.10584,0.793803 0.44982,1.362695 0.35721,0.582122 0.9261,0.846723 0.5689,0.264601 1.65376,0.264601 0.96579,0 2.10358,-0.502742 1.15101,-0.502742 2.14327,-1.283315 l 0,-11.033864 2.48725,0 0,14.777969 z" />
      <path
         id="path4221"
         style=""
         d="m -101.0857,91.564286 q -1.24362,0.595352 -2.36818,0.926103 -1.11132,0.330752 -2.36818,0.330752 -1.60083,0 -2.93707,-0.463052 -1.33623,-0.476282 -2.2888,-1.428846 -0.96579,-0.952564 -1.49499,-2.40787 -0.52921,-1.455305 -0.52921,-3.400123 0,-3.625035 1.98451,-5.688923 1.99774,-2.063888 5.26556,-2.063888 1.27009,0 2.48725,0.357211 1.2304,0.357212 2.24911,0.873184 l 0,2.765081 -0.1323,0 q -1.13778,-0.886414 -2.35495,-1.362696 -1.20393,-0.476281 -2.35495,-0.476281 -2.11681,0 -3.3472,1.428845 -1.21716,1.415616 -1.21716,4.167467 0,2.67247 1.1907,4.114546 1.20393,1.428846 3.37366,1.428846 0.75412,0 1.53469,-0.198451 0.78057,-0.198451 1.40238,-0.515972 0.54244,-0.277831 1.01872,-0.582122 0.47628,-0.317521 0.75411,-0.542432 l 0.1323,0 0,2.738621 z" />
      <path
         id="path4223"
         style=""
         d="m -85.52716,92.490389 -2.48725,0 0,-8.414313 q 0,-1.018714 -0.11907,-1.905128 -0.119071,-0.899644 -0.436592,-1.402386 -0.330751,-0.555662 -0.952564,-0.820263 -0.621812,-0.277831 -1.614066,-0.277831 -1.018714,0 -2.130039,0.502742 -1.111324,0.502742 -2.130038,1.283315 l 0,11.033864 -2.48725,0 0,-20.585962 2.48725,0 0,7.44852 q 1.164245,-0.965794 2.40787,-1.508226 1.243625,-0.542432 2.5534,-0.542432 2.394639,0 3.651494,1.442075 1.256855,1.442076 1.256855,4.154237 l 0,9.591788 z" />
      <path
         id="path4225"
         style=""
         d="m -68.367781,85.359391 -10.888333,0 q 0,1.362695 0.410131,2.381409 0.410132,1.005484 1.124555,1.653757 0.687962,0.635042 1.627296,0.952564 0.952564,0.317521 2.090349,0.317521 1.508226,0 3.029682,-0.595352 1.534686,-0.608583 2.182958,-1.190705 l 0.132301,0 0,2.712161 q -1.256855,0.529202 -2.56663,0.886413 -1.309776,0.357212 -2.751851,0.357212 -3.677955,0 -5.741843,-1.984508 -2.063888,-1.997738 -2.063888,-5.662463 0,-3.625034 1.971277,-5.755073 1.984508,-2.130038 5.212641,-2.130038 2.989992,0 4.604059,1.746367 1.627296,1.746367 1.627296,4.961269 l 0,1.349466 z m -2.4211,-1.905128 q -0.01323,-1.958048 -0.992254,-3.029682 -0.965793,-1.071634 -2.950301,-1.071634 -1.997738,0 -3.188443,1.177475 -1.177475,1.177474 -1.336235,2.923841 l 8.467233,0 z" />
      <path
         id="path4227"
         style=""
         d="m -42.714705,92.490389 -2.48725,0 0,-8.414313 q 0,-1.018714 -0.119071,-1.905128 -0.11907,-0.899644 -0.436592,-1.402386 -0.330751,-0.555662 -0.952563,-0.820263 -0.621813,-0.277831 -1.614067,-0.277831 -1.018714,0 -2.130038,0.502742 -1.111325,0.502742 -2.130039,1.283315 l 0,11.033864 -2.48725,0 0,-14.777969 2.48725,0 0,1.640527 q 1.164245,-0.965794 2.40787,-1.508226 1.243625,-0.542432 2.5534,-0.542432 2.39464,0 3.651495,1.442075 1.256855,1.442076 1.256855,4.154237 l 0,9.591788 z" />
      <path
         id="path4229"
         style=""
         d="m -30.093235,85.06833 -8.255553,0 0,-2.39464 8.255553,0 0,2.39464 z" />
      <path
         id="path4231"
         style=""
         d="m -13.701195,92.490389 -10.663422,0 0,-2.010968 4.101316,0 0,-13.203592 -4.101316,0 0,-1.799288 q 0.833493,0 1.786057,-0.1323 0.952564,-0.145531 1.442076,-0.410132 0.608582,-0.330751 0.952563,-0.833493 0.357212,-0.515972 0.410132,-1.375926 l 2.050658,0 0,17.754731 4.021936,0 0,2.010968 z" />
    </g>
    <g
       id="flowRoot6534"
       style="font-style:normal;font-weight:normal;font-size:27.09514809px;line-height:125%;font-family:sans-serif;letter-spacing:0px;word-spacing:0px;fill:#000000;fill-opacity:1;stroke:none;stroke-width:0;stroke-linecap:butt;stroke-linejoin:miter;stroke-miterlimit:4;stroke-dasharray:none;stroke-opacity:1"
       transform="matrix(0.65980066,0,0,0.65980066,665.29384,930.89041)">
      <path
         id="path4234"
         style=""
         d="m -148.81973,91.564286 q -1.24362,0.595352 -2.36818,0.926103 -1.11132,0.330752 -2.36818,0.330752 -1.60083,0 -2.93707,-0.463052 -1.33624,-0.476282 -2.2888,-1.428846 -0.96579,-0.952564 -1.49499,-2.40787 -0.52921,-1.455305 -0.52921,-3.400123 0,-3.625035 1.98451,-5.688923 1.99774,-2.063888 5.26556,-2.063888 1.27009,0 2.48725,0.357211 1.2304,0.357212 2.24911,0.873184 l 0,2.765081 -0.1323,0 q -1.13778,-0.886414 -2.35495,-1.362696 -1.20393,-0.476281 -2.35495,-0.476281 -2.11681,0 -3.3472,1.428845 -1.21717,1.415616 -1.21717,4.167467 0,2.67247 1.19071,4.114546 1.20393,1.428846 3.37366,1.428846 0.75411,0 1.53469,-0.198451 0.78057,-0.198451 1.40238,-0.515972 0.54244,-0.277831 1.01872,-0.582122 0.47628,-0.317521 0.75411,-0.542432 l 0.1323,0 0,2.738621 z" />
      <path
         id="path4236"
         style=""
         d="m -133.02305,85.10802 q 0,3.611804 -1.8522,5.702153 -1.85221,2.090348 -4.96127,2.090348 -3.13553,0 -4.98773,-2.090348 -1.83898,-2.090349 -1.83898,-5.702153 0,-3.611805 1.83898,-5.702153 1.8522,-2.103578 4.98773,-2.103578 3.10906,0 4.96127,2.103578 1.8522,2.090348 1.8522,5.702153 z m -2.56663,0 q 0,-2.870922 -1.12455,-4.260077 -1.12456,-1.402386 -3.12229,-1.402386 -2.0242,0 -3.14876,1.402386 -1.11132,1.389155 -1.11132,4.260077 0,2.778311 1.12455,4.220387 1.12456,1.428845 3.13553,1.428845 1.9845,0 3.10906,-1.415615 1.13778,-1.428846 1.13778,-4.233617 z" />
      <path
         id="path4238"
         style=""
         d="m -116.90884,92.490389 -2.48725,0 0,-1.640526 q -1.25686,0.992254 -2.40787,1.521456 -1.15102,0.529202 -2.54017,0.529202 -2.32849,0 -3.62504,-1.415616 -1.29654,-1.428845 -1.29654,-4.180696 l 0,-9.591789 2.48725,0 0,8.414314 q 0,1.124554 0.10584,1.931588 0.10584,0.793803 0.44982,1.362695 0.35721,0.582122 0.9261,0.846723 0.5689,0.264601 1.65376,0.264601 0.96579,0 2.10358,-0.502742 1.15101,-0.502742 2.14327,-1.283315 l 0,-11.033864 2.48725,0 0,14.777969 z" />
      <path
         id="path4240"
         style=""
         d="m -101.0857,91.564286 q -1.24362,0.595352 -2.36818,0.926103 -1.11132,0.330752 -2.36818,0.330752 -1.60083,0 -2.93707,-0.463052 -1.33623,-0.476282 -2.2888,-1.428846 -0.96579,-0.952564 -1.49499,-2.40787 -0.52921,-1.455305 -0.52921,-3.400123 0,-3.625035 1.98451,-5.688923 1.99774,-2.063888 5.26556,-2.063888 1.27009,0 2.48725,0.357211 1.2304,0.357212 2.24911,0.873184 l 0,2.765081 -0.1323,0 q -1.13778,-0.886414 -2.35495,-1.362696 -1.20393,-0.476281 -2.35495,-0.476281 -2.11681,0 -3.3472,1.428845 -1.21716,1.415616 -1.21716,4.167467 0,2.67247 1.1907,4.114546 1.20393,1.428846 3.37366,1.428846 0.75412,0 1.53469,-0.198451 0.78057,-0.198451 1.40238,-0.515972 0.54244,-0.277831 1.01872,-0.582122 0.47628,-0.317521 0.75411,-0.542432 l 0.1323,0 0,2.738621 z" />
      <path
         id="path4242"
         style=""
         d="m -85.52716,92.490389 -2.48725,0 0,-8.414313 q 0,-1.018714 -0.11907,-1.905128 -0.119071,-0.899644 -0.436592,-1.402386 -0.330751,-0.555662 -0.952564,-0.820263 -0.621812,-0.277831 -1.614066,-0.277831 -1.018714,0 -2.130039,0.502742 -1.111324,0.502742 -2.130038,1.283315 l 0,11.033864 -2.48725,0 0,-20.585962 2.48725,0 0,7.44852 q 1.164245,-0.965794 2.40787,-1.508226 1.243625,-0.542432 2.5534,-0.542432 2.394639,0 3.651494,1.442075 1.256855,1.442076 1.256855,4.154237 l 0,9.591788 z" />
      <path
         id="path4244"
         style=""
         d="m -68.367781,85.359391 -10.888333,0 q 0,1.362695 0.410131,2.381409 0.410132,1.005484 1.124555,1.653757 0.687962,0.635042 1.627296,0.952564 0.952564,0.317521 2.090349,0.317521 1.508226,0 3.029682,-0.595352 1.534686,-0.608583 2.182958,-1.190705 l 0.132301,0 0,2.712161 q -1.256855,0.529202 -2.56663,0.886413 -1.309776,0.357212 -2.751851,0.357212 -3.677955,0 -5.741843,-1.984508 -2.063888,-1.997738 -2.063888,-5.662463 0,-3.625034 1.971277,-5.755073 1.984508,-2.130038 5.212641,-2.130038 2.989992,0 4.604059,1.746367 1.627296,1.746367 1.627296,4.961269 l 0,1.349466 z m -2.4211,-1.905128 q -0.01323,-1.958048 -0.992254,-3.029682 -0.965793,-1.071634 -2.950301,-1.071634 -1.997738,0 -3.188443,1.177475 -1.177475,1.177474 -1.336235,2.923841 l 8.467233,0 z" />
      <path
         id="path4246"
         style=""
         d="m -42.714705,92.490389 -2.48725,0 0,-8.414313 q 0,-1.018714 -0.119071,-1.905128 -0.11907,-0.899644 -0.436592,-1.402386 -0.330751,-0.555662 -0.952563,-0.820263 -0.621813,-0.277831 -1.614067,-0.277831 -1.018714,0 -2.130038,0.502742 -1.111325,0.502742 -2.130039,1.283315 l 0,11.033864 -2.48725,0 0,-14.777969 2.48725,0 0,1.640527 q 1.164245,-0.965794 2.40787,-1.508226 1.243625,-0.542432 2.5534,-0.542432 2.39464,0 3.651495,1.442075 1.256855,1.442076 1.256855,4.154237 l 0,9.591788 z" />
    </g>
    <g
       id="flowRoot6542"
       style="font-style:normal;font-weight:normal;font-size:17.87739754px;line-height:125%;font-family:sans-serif;letter-spacing:0px;word-spacing:0px;fill:#000000;fill-opacity:1;stroke:none;stroke-width:0;stroke-linecap:butt;stroke-linejoin:miter;stroke-miterlimit:4;stroke-dasharray:none;stroke-opacity:1"
       transform="translate(0,717.14285)">
      <path
         id="path4249"
         style=""
         d="m 621.38772,234.87703 q -0.82055,0.39281 -1.56253,0.61104 -0.73325,0.21823 -1.56252,0.21823 -1.05624,0 -1.93789,-0.30552 -0.88164,-0.31425 -1.51015,-0.94275 -0.63723,-0.6285 -0.9864,-1.58872 -0.34916,-0.96021 -0.34916,-2.2434 0,-2.3918 1.30938,-3.75356 1.3181,-1.36175 3.47422,-1.36175 0.838,0 1.64109,0.23569 0.81181,0.23569 1.48396,0.57612 l 0,1.82441 -0.0873,0 q -0.75071,-0.58486 -1.5538,-0.89911 -0.79436,-0.31425 -1.5538,-0.31425 -1.39667,0 -2.20848,0.94275 -0.80309,0.93403 -0.80309,2.7497 0,1.7633 0.78563,2.71478 0.79435,0.94275 2.22594,0.94275 0.49757,0 1.01259,-0.13093 0.51502,-0.13094 0.92529,-0.34044 0.3579,-0.18332 0.67215,-0.38409 0.31425,-0.2095 0.49757,-0.3579 l 0.0873,0 0,1.80695 z" />
      <path
         id="path4251"
         style=""
         d="m 631.81038,230.61718 q 0,2.38307 -1.22209,3.76228 -1.22208,1.37922 -3.27345,1.37922 -2.06882,0 -3.2909,-1.37922 -1.21336,-1.37921 -1.21336,-3.76228 0,-2.38307 1.21336,-3.76228 1.22208,-1.38795 3.2909,-1.38795 2.05137,0 3.27345,1.38795 1.22209,1.37921 1.22209,3.76228 z m -1.69346,0 q 0,-1.89424 -0.74198,-2.8108 -0.74199,-0.9253 -2.0601,-0.9253 -1.33556,0 -2.07754,0.9253 -0.73326,0.91656 -0.73326,2.8108 0,1.83313 0.74198,2.78461 0.74199,0.94276 2.06882,0.94276 1.30938,0 2.05137,-0.93403 0.75071,-0.94275 0.75071,-2.79334 z" />
      <path
         id="path4253"
         style=""
         d="m 642.44254,235.48807 -1.64108,0 0,-1.08242 q -0.82928,0.65469 -1.58872,1.00386 -0.75944,0.34917 -1.676,0.34917 -1.53634,0 -2.3918,-0.93403 -0.85547,-0.94275 -0.85547,-2.75842 l 0,-6.32867 1.64109,0 0,5.55177 q 0,0.74198 0.0698,1.27446 0.0698,0.52375 0.29679,0.89911 0.23569,0.38408 0.61104,0.55867 0.37536,0.17458 1.09115,0.17458 0.63723,0 1.38795,-0.33171 0.75944,-0.33171 1.41413,-0.84673 l 0,-7.28015 1.64108,0 0,9.75051 z" />
      <path
         id="path4255"
         style=""
         d="m 652.88266,234.87703 q -0.82054,0.39281 -1.56252,0.61104 -0.73325,0.21823 -1.56253,0.21823 -1.05623,0 -1.93788,-0.30552 -0.88165,-0.31425 -1.51015,-0.94275 -0.63723,-0.6285 -0.9864,-1.58872 -0.34917,-0.96021 -0.34917,-2.2434 0,-2.3918 1.30938,-3.75356 1.31811,-1.36175 3.47422,-1.36175 0.838,0 1.64109,0.23569 0.81182,0.23569 1.48396,0.57612 l 0,1.82441 -0.0873,0 q -0.75071,-0.58486 -1.55379,-0.89911 -0.79436,-0.31425 -1.5538,-0.31425 -1.39667,0 -2.20849,0.94275 -0.80309,0.93403 -0.80309,2.7497 0,1.7633 0.78563,2.71478 0.79436,0.94275 2.22595,0.94275 0.49756,0 1.01259,-0.13093 0.51502,-0.13094 0.92529,-0.34044 0.3579,-0.18332 0.67215,-0.38409 0.31425,-0.2095 0.49756,-0.3579 l 0.0873,0 0,1.80695 z" />
      <path
         id="path4257"
         style=""
         d="m 663.1482,235.48807 -1.64109,0 0,-5.55177 q 0,-0.67215 -0.0786,-1.257 -0.0786,-0.59359 -0.28806,-0.9253 -0.21823,-0.36662 -0.62851,-0.54121 -0.41027,-0.18331 -1.06496,-0.18331 -0.67215,0 -1.4054,0.33171 -0.73325,0.33171 -1.4054,0.84673 l 0,7.28015 -1.64109,0 0,-13.58263 1.64109,0 0,4.91454 q 0.76817,-0.63723 1.58871,-0.99513 0.82055,-0.3579 1.68474,-0.3579 1.57998,0 2.40926,0.95149 0.82927,0.95148 0.82927,2.74096 l 0,6.32867 z" />
      <path
         id="path4259"
         style=""
         d="m 674.46997,230.78304 -7.18413,0 q 0,0.8991 0.27061,1.57125 0.2706,0.66342 0.74198,1.09115 0.45392,0.419 1.07369,0.6285 0.6285,0.2095 1.37922,0.2095 0.99512,0 1.99898,-0.39281 1.01259,-0.40154 1.44032,-0.78563 l 0.0873,0 0,1.78949 q -0.82927,0.34917 -1.69346,0.58485 -0.86419,0.23569 -1.81568,0.23569 -2.42671,0 -3.78847,-1.30938 -1.36175,-1.31811 -1.36175,-3.73609 0,-2.3918 1.30065,-3.79721 1.30938,-1.4054 3.4393,-1.4054 1.9728,0 3.03776,1.15226 1.07369,1.15225 1.07369,3.27345 l 0,0.89038 z m -1.59744,-1.25701 q -0.009,-1.29192 -0.65469,-1.99899 -0.63723,-0.70706 -1.94661,-0.70706 -1.31811,0 -2.10374,0.7769 -0.7769,0.7769 -0.88165,1.92915 l 5.58669,0 z" />
      <path
         id="path4261"
         style=""
         d="m 691.39589,235.48807 -1.64109,0 0,-5.55177 q 0,-0.67215 -0.0786,-1.257 -0.0786,-0.59359 -0.28806,-0.9253 -0.21823,-0.36662 -0.6285,-0.54121 -0.41027,-0.18331 -1.06496,-0.18331 -0.67215,0 -1.4054,0.33171 -0.73326,0.33171 -1.4054,0.84673 l 0,7.28015 -1.64109,0 0,-9.75051 1.64109,0 0,1.08242 q 0.76816,-0.63723 1.58871,-0.99513 0.82054,-0.3579 1.68473,-0.3579 1.57999,0 2.40926,0.95149 0.82928,0.95148 0.82928,2.74096 l 0,6.32867 z" />
      <path
         id="path4263"
         style=""
         d="m 705.73796,230.49497 -4.75741,0 0,4.75741 -1.44905,0 0,-4.75741 -4.75741,0 0,-1.39667 4.75741,0 0,-4.75741 1.44905,0 0,4.75741 4.75741,0 0,1.39667 z" />
      <path
         id="path4265"
         style=""
         d="m 717.03354,235.48807 -7.03573,0 0,-1.32684 2.70605,0 0,-8.71173 -2.70605,0 0,-1.18718 q 0.54994,0 1.17844,-0.0873 0.6285,-0.096 0.95148,-0.2706 0.40155,-0.21823 0.6285,-0.54994 0.23569,-0.34044 0.27061,-0.90784 l 1.35303,0 0,11.71458 2.65367,0 0,1.32684 z" />
    </g>
    <circle
       style="opacity:1;fill:#ffffff;fill-opacity:1;fill-rule:nonzero;stroke:#000000;stroke-width:3.75053883;stroke-linecap:round;stroke-linejoin:round;stroke-miterlimit:4;stroke-dasharray:none;stroke-dashoffset:0;stroke-opacity:1"
       id="circle6550"
       cx="463.92969"
       cy="968.6709"
       r="24.626007" />
    <g
       id="flowRoot6552"
       style="font-style:normal;font-weight:normal;font-size:40px;line-height:125%;font-family:sans-serif;letter-spacing:0px;word-spacing:0px;fill:#000000;fill-opacity:1;stroke:none;stroke-width:1px;stroke-linecap:butt;stroke-linejoin:miter;stroke-opacity:1"
       transform="translate(575.51758,619.82844)">
      <path
         id="path4268"
         style=""
         d="m -98.423828,363.38348 -4.121092,0 -2.85156,-8.10547 -12.57813,0 -2.85156,8.10547 -3.92578,0 10.58593,-29.08203 5.15625,0 10.585942,29.08203 z m -8.164062,-11.42578 -5.09766,-14.27735 -5.11718,14.27735 10.21484,0 z" />
    </g>
    <path
       id="path6564"
       d="m 358.35905,1121.3397 c -18.67712,-6.0276 -35.42874,-17.8794 -47.32919,-33.4854 -11.90044,-15.606 -18.89675,-34.8967 -19.76702,-54.5031 -1.18271,-26.6453 8.7819,-52.90039 23.74827,-74.97709 17.22316,-25.40566 41.22618,-46.16917 68.84686,-59.55509"
       style="fill:none;fill-opacity:1;fill-rule:evenodd;stroke:#ff000b;stroke-width:5;stroke-linecap:butt;stroke-linejoin:miter;stroke-miterlimit:4;stroke-dasharray:none;stroke-opacity:1" />
    <path
       style="fill:none;fill-opacity:1;fill-rule:evenodd;stroke:#008000;stroke-width:5;stroke-linecap:butt;stroke-linejoin:miter;stroke-miterlimit:4;stroke-dasharray:none;stroke-opacity:1"
       d="m 420.31258,1122.3499 c 25.39983,-18.7831 41.68476,-49.3586 43.09765,-80.9174 1.17452,-26.2345 -7.35393,-51.95145 -17.93246,-75.98732 -9.72609,-22.099 -21.27882,-43.39375 -34.50167,-63.5957"
       id="path6568" />
    <g
       id="flowRoot6572"
       style="font-style:normal;font-weight:normal;font-size:15px;line-height:125%;font-family:sans-serif;letter-spacing:0px;word-spacing:0px;fill:#ff000b;fill-opacity:1;stroke:none;stroke-width:1px;stroke-linecap:butt;stroke-linejoin:miter;stroke-opacity:1"
       transform="matrix(1.4915191,0,0,1.4915191,-76.357229,-422.19624)">
      <path
         id="path4185"
         style=""
         d="m 186.68994,1018.0742 q -0.68848,0.3296 -1.31103,0.5127 -0.61524,0.1831 -1.31104,0.1831 -0.88623,0 -1.62598,-0.2563 -0.73974,-0.2637 -1.26709,-0.791 -0.53466,-0.5274 -0.82763,-1.333 -0.29297,-0.8057 -0.29297,-1.8824 0,-2.0068 1.09863,-3.1494 1.10596,-1.1426 2.91504,-1.1426 0.70313,0 1.37695,0.1978 0.68116,0.1977 1.24512,0.4834 l 0,1.5308 -0.0732,0 q -0.62988,-0.4908 -1.30371,-0.7544 -0.66651,-0.2637 -1.30371,-0.2637 -1.17188,0 -1.85303,0.791 -0.67383,0.7837 -0.67383,2.3071 0,1.4795 0.65918,2.2779 0.66651,0.791 1.86768,0.791 0.41748,0 0.84961,-0.1099 0.43213,-0.1098 0.77636,-0.2856 0.3003,-0.1538 0.56397,-0.3223 0.26367,-0.1758 0.41748,-0.3003 l 0.0732,0 0,1.5161 z" />
      <path
         id="path4187"
         style=""
         d="m 195.30322,1018.5869 -1.37695,0 0,-4.6582 q 0,-0.5639 -0.0659,-1.0547 -0.0659,-0.498 -0.2417,-0.7763 -0.1831,-0.3077 -0.52734,-0.4541 -0.34424,-0.1538 -0.89356,-0.1538 -0.56396,0 -1.1792,0.2783 -0.61523,0.2783 -1.17919,0.7104 l 0,6.1084 -1.37696,0 0,-11.3965 1.37696,0 0,4.1236 q 0.64453,-0.5347 1.333,-0.835 0.68848,-0.3003 1.41358,-0.3003 1.32568,0 2.02148,0.7984 0.6958,0.7983 0.6958,2.2998 l 0,5.31 z" />
      <path
         id="path4189"
         style=""
         d="m 204.80273,1014.6392 -6.02783,0 q 0,0.7544 0.22705,1.3183 0.22705,0.5567 0.62256,0.9156 0.38086,0.3515 0.90088,0.5273 0.52734,0.1758 1.15723,0.1758 0.83496,0 1.67724,-0.3296 0.84961,-0.3369 1.2085,-0.6592 l 0.0732,0 0,1.5015 q -0.6958,0.2929 -1.4209,0.4907 -0.72509,0.1977 -1.52343,0.1977 -2.03614,0 -3.17872,-1.0986 -1.14257,-1.1059 -1.14257,-3.1347 0,-2.0069 1.09131,-3.1861 1.09863,-1.1792 2.88574,-1.1792 1.65527,0 2.54883,0.9668 0.90087,0.9668 0.90087,2.7466 l 0,0.7471 z m -1.34033,-1.0547 q -0.007,-1.084 -0.54931,-1.6773 -0.53467,-0.5932 -1.6333,-0.5932 -1.10596,0 -1.76514,0.6518 -0.65186,0.6519 -0.73975,1.6187 l 4.6875,0 z" />
      <path
         id="path4191"
         style=""
         d="m 218.82861,1018.5869 -1.37695,0 0,-4.6582 q 0,-0.5273 -0.0513,-1.0181 -0.0439,-0.4907 -0.19775,-0.7836 -0.16846,-0.315 -0.4834,-0.4761 -0.31494,-0.1611 -0.9082,-0.1611 -0.57862,0 -1.15723,0.2929 -0.57861,0.2857 -1.15723,0.7324 0.022,0.1685 0.0366,0.3955 0.0147,0.2198 0.0147,0.4395 l 0,5.2368 -1.37695,0 0,-4.6582 q 0,-0.542 -0.0513,-1.0254 -0.0439,-0.4907 -0.19776,-0.7837 -0.16845,-0.3149 -0.48339,-0.4687 -0.31494,-0.1611 -0.90821,-0.1611 -0.56396,0 -1.13525,0.2783 -0.56397,0.2783 -1.12793,0.7104 l 0,6.1084 -1.37695,0 0,-8.1811 1.37695,0 0,0.9082 q 0.64453,-0.5347 1.28174,-0.835 0.64453,-0.3003 1.36963,-0.3003 0.83496,0 1.41357,0.3516 0.58594,0.3515 0.87158,0.9741 0.83496,-0.7031 1.52344,-1.0107 0.68848,-0.315 1.47217,-0.315 1.34765,0 1.98486,0.8203 0.64453,0.813 0.64453,2.2779 l 0,5.31 z" />
      <path
         id="path4193"
         style=""
         d="m 222.95947,1009.0361 -1.55273,0 0,-1.4282 1.55273,0 0,1.4282 z m -0.0879,9.5508 -1.37695,0 0,-8.1811 1.37695,0 0,8.1811 z" />
      <path
         id="path4195"
         style=""
         d="m 232.39307,1018.5869 -1.37696,0 0,-4.6582 q 0,-0.5639 -0.0659,-1.0547 -0.0659,-0.498 -0.2417,-0.7763 -0.18311,-0.3077 -0.52735,-0.4541 -0.34424,-0.1538 -0.89355,-0.1538 -0.56397,0 -1.1792,0.2783 -0.61524,0.2783 -1.1792,0.7104 l 0,6.1084 -1.37695,0 0,-8.1811 1.37695,0 0,0.9082 q 0.64453,-0.5347 1.33301,-0.835 0.68847,-0.3003 1.41357,-0.3003 1.32568,0 2.02149,0.7984 0.6958,0.7983 0.6958,2.2998 l 0,5.31 z" />
      <path
         id="path4197"
         style=""
         d="m 246.90234,1018.5869 -5.90332,0 0,-1.1133 2.27051,0 0,-7.3095 -2.27051,0 0,-0.9961 q 0.46143,0 0.98877,-0.073 0.52735,-0.081 0.79834,-0.227 0.33692,-0.1831 0.52735,-0.4614 0.19775,-0.2857 0.22705,-0.7618 l 1.13525,0 0,9.8291 2.22656,0 0,1.1133 z" />
    </g>
    <g
       id="flowRoot6580"
       style="font-style:normal;font-weight:normal;font-size:15px;line-height:125%;font-family:sans-serif;letter-spacing:0px;word-spacing:0px;fill:#008000;fill-opacity:1;stroke:none;stroke-width:1px;stroke-linecap:butt;stroke-linejoin:miter;stroke-opacity:1"
       transform="matrix(1.4915191,0,0,1.4915191,188.64277,-420.76767)">
      <path
         id="path4200"
         style=""
         d="m 186.68994,1018.0742 q -0.68848,0.3296 -1.31103,0.5127 -0.61524,0.1831 -1.31104,0.1831 -0.88623,0 -1.62598,-0.2563 -0.73974,-0.2637 -1.26709,-0.791 -0.53466,-0.5274 -0.82763,-1.333 -0.29297,-0.8057 -0.29297,-1.8824 0,-2.0068 1.09863,-3.1494 1.10596,-1.1426 2.91504,-1.1426 0.70313,0 1.37695,0.1978 0.68116,0.1977 1.24512,0.4834 l 0,1.5308 -0.0732,0 q -0.62988,-0.4908 -1.30371,-0.7544 -0.66651,-0.2637 -1.30371,-0.2637 -1.17188,0 -1.85303,0.791 -0.67383,0.7837 -0.67383,2.3071 0,1.4795 0.65918,2.2779 0.66651,0.791 1.86768,0.791 0.41748,0 0.84961,-0.1099 0.43213,-0.1098 0.77636,-0.2856 0.3003,-0.1538 0.56397,-0.3223 0.26367,-0.1758 0.41748,-0.3003 l 0.0732,0 0,1.5161 z" />
      <path
         id="path4202"
         style=""
         d="m 195.30322,1018.5869 -1.37695,0 0,-4.6582 q 0,-0.5639 -0.0659,-1.0547 -0.0659,-0.498 -0.2417,-0.7763 -0.1831,-0.3077 -0.52734,-0.4541 -0.34424,-0.1538 -0.89356,-0.1538 -0.56396,0 -1.1792,0.2783 -0.61523,0.2783 -1.17919,0.7104 l 0,6.1084 -1.37696,0 0,-11.3965 1.37696,0 0,4.1236 q 0.64453,-0.5347 1.333,-0.835 0.68848,-0.3003 1.41358,-0.3003 1.32568,0 2.02148,0.7984 0.6958,0.7983 0.6958,2.2998 l 0,5.31 z" />
      <path
         id="path4204"
         style=""
         d="m 204.80273,1014.6392 -6.02783,0 q 0,0.7544 0.22705,1.3183 0.22705,0.5567 0.62256,0.9156 0.38086,0.3515 0.90088,0.5273 0.52734,0.1758 1.15723,0.1758 0.83496,0 1.67724,-0.3296 0.84961,-0.3369 1.2085,-0.6592 l 0.0732,0 0,1.5015 q -0.6958,0.2929 -1.4209,0.4907 -0.72509,0.1977 -1.52343,0.1977 -2.03614,0 -3.17872,-1.0986 -1.14257,-1.1059 -1.14257,-3.1347 0,-2.0069 1.09131,-3.1861 1.09863,-1.1792 2.88574,-1.1792 1.65527,0 2.54883,0.9668 0.90087,0.9668 0.90087,2.7466 l 0,0.7471 z m -1.34033,-1.0547 q -0.007,-1.084 -0.54931,-1.6773 -0.53467,-0.5932 -1.6333,-0.5932 -1.10596,0 -1.76514,0.6518 -0.65186,0.6519 -0.73975,1.6187 l 4.6875,0 z" />
      <path
         id="path4206"
         style=""
         d="m 218.82861,1018.5869 -1.37695,0 0,-4.6582 q 0,-0.5273 -0.0513,-1.0181 -0.0439,-0.4907 -0.19775,-0.7836 -0.16846,-0.315 -0.4834,-0.4761 -0.31494,-0.1611 -0.9082,-0.1611 -0.57862,0 -1.15723,0.2929 -0.57861,0.2857 -1.15723,0.7324 0.022,0.1685 0.0366,0.3955 0.0147,0.2198 0.0147,0.4395 l 0,5.2368 -1.37695,0 0,-4.6582 q 0,-0.542 -0.0513,-1.0254 -0.0439,-0.4907 -0.19776,-0.7837 -0.16845,-0.3149 -0.48339,-0.4687 -0.31494,-0.1611 -0.90821,-0.1611 -0.56396,0 -1.13525,0.2783 -0.56397,0.2783 -1.12793,0.7104 l 0,6.1084 -1.37695,0 0,-8.1811 1.37695,0 0,0.9082 q 0.64453,-0.5347 1.28174,-0.835 0.64453,-0.3003 1.36963,-0.3003 0.83496,0 1.41357,0.3516 0.58594,0.3515 0.87158,0.9741 0.83496,-0.7031 1.52344,-1.0107 0.68848,-0.315 1.47217,-0.315 1.34765,0 1.98486,0.8203 0.64453,0.813 0.64453,2.2779 l 0,5.31 z" />
      <path
         id="path4208"
         style=""
         d="m 222.95947,1009.0361 -1.55273,0 0,-1.4282 1.55273,0 0,1.4282 z m -0.0879,9.5508 -1.37695,0 0,-8.1811 1.37695,0 0,8.1811 z" />
      <path
         id="path4210"
         style=""
         d="m 232.39307,1018.5869 -1.37696,0 0,-4.6582 q 0,-0.5639 -0.0659,-1.0547 -0.0659,-0.498 -0.2417,-0.7763 -0.18311,-0.3077 -0.52735,-0.4541 -0.34424,-0.1538 -0.89355,-0.1538 -0.56397,0 -1.1792,0.2783 -0.61524,0.2783 -1.1792,0.7104 l 0,6.1084 -1.37695,0 0,-8.1811 1.37695,0 0,0.9082 q 0.64453,-0.5347 1.33301,-0.835 0.68847,-0.3003 1.41357,-0.3003 1.32568,0 2.02149,0.7984 0.6958,0.7983 0.6958,2.2998 l 0,5.31 z" />
      <path
         id="path4212"
         style=""
         d="m 247.5249,1018.5869 -7.38281,0 0,-1.5307 q 0.76904,-0.6592 1.53809,-1.3184 0.77636,-0.6592 1.44287,-1.311 1.40625,-1.3623 1.92627,-2.1607 0.52002,-0.8056 0.52002,-1.7358 0,-0.8496 -0.56397,-1.3257 -0.55664,-0.4834 -1.56006,-0.4834 -0.6665,0 -1.44287,0.2344 -0.77637,0.2343 -1.51611,0.7177 l -0.0732,0 0,-1.538 q 0.52002,-0.2564 1.38427,-0.4688 0.87159,-0.2124 1.68457,-0.2124 1.67725,0 2.6294,0.813 0.95215,0.8057 0.95215,2.1899 0,0.6226 -0.16114,1.1646 -0.1538,0.5347 -0.46142,1.0181 -0.28565,0.4541 -0.67383,0.8935 -0.38086,0.4395 -0.93018,0.9741 -0.78369,0.7691 -1.61865,1.4942 -0.83496,0.7177 -1.56006,1.333 l 5.8667,0 0,1.2524 z" />
    </g>
  </g>
</svg>
