<?xml version="1.0" encoding="UTF-8" standalone="no"?>
<!-- Created with Inkscape (http://www.inkscape.org/) -->

<svg
   xmlns:dc="http://purl.org/dc/elements/1.1/"
   xmlns:cc="http://creativecommons.org/ns#"
   xmlns:rdf="http://www.w3.org/1999/02/22-rdf-syntax-ns#"
   xmlns:svg="http://www.w3.org/2000/svg"
   xmlns="http://www.w3.org/2000/svg"
   xmlns:sodipodi="http://sodipodi.sourceforge.net/DTD/sodipodi-0.dtd"
   xmlns:inkscape="http://www.inkscape.org/namespaces/inkscape"
   width="22.192322cm"
   height="7.9901147cm"
   viewBox="0 0 786.34212 283.11429"
   id="svg2"
   version="1.1"
   inkscape:version="0.91 r13725"
   sodipodi:docname="cout_chemin_illustre.svg">
  <defs
     id="defs4" />
  <sodipodi:namedview
     id="base"
     pagecolor="#ffffff"
     bordercolor="#666666"
     borderopacity="1.0"
     inkscape:pageopacity="0.0"
     inkscape:pageshadow="2"
     inkscape:zoom="1.4"
     inkscape:cx="238.4021"
     inkscape:cy="88.714794"
     inkscape:document-units="px"
     inkscape:current-layer="layer1"
     showgrid="false"
     inkscape:snap-center="true"
     inkscape:snap-object-midpoints="true"
     inkscape:snap-smooth-nodes="false"
     inkscape:object-nodes="false"
     inkscape:snap-intersection-paths="true"
     inkscape:snap-nodes="true"
     inkscape:snap-bbox="true"
     inkscape:bbox-nodes="true"
     inkscape:snap-others="true"
     inkscape:snap-global="false"
     inkscape:window-width="1280"
     inkscape:window-height="657"
     inkscape:window-x="-8"
     inkscape:window-y="-8"
     inkscape:window-maximized="1"
     fit-margin-top="1"
     fit-margin-left="1"
     fit-margin-bottom="1"
     fit-margin-right="1"
     units="cm" />
  <metadata
     id="metadata7">
    <rdf:RDF>
      <cc:Work
         rdf:about="">
        <dc:format>image/svg+xml</dc:format>
        <dc:type
           rdf:resource="http://purl.org/dc/dcmitype/StillImage" />
        <dc:title />
      </cc:Work>
    </rdf:RDF>
  </metadata>
  <g
     inkscape:label="Calque 1"
     inkscape:groupmode="layer"
     id="layer1"
     transform="translate(23.072434,-675.0563)">
    <path
       inkscape:connector-curvature="0"
       id="path4771"
       d="m 350.5834,733.03081 -0.35377,168.51122"
       style="fill:#008000;fill-opacity:1;fill-rule:evenodd;stroke:#008000;stroke-width:1.67203724;stroke-linecap:butt;stroke-linejoin:miter;stroke-miterlimit:4;stroke-dasharray:none;stroke-opacity:1"
       sodipodi:nodetypes="cc"
       inkscape:export-xdpi="400"
       inkscape:export-ydpi="400" />
    <path
       inkscape:connector-curvature="0"
       id="path4947"
       d="M 28.483851,811.0592 150.38139,733.03081"
       style="fill:#008000;fill-opacity:1;fill-rule:evenodd;stroke:#008000;stroke-width:1.67203724;stroke-linecap:butt;stroke-linejoin:miter;stroke-miterlimit:4;stroke-dasharray:none;stroke-opacity:1"
       inkscape:export-xdpi="400"
       inkscape:export-ydpi="400" />
    <path
       inkscape:connector-curvature="0"
       id="path4949"
       d="m 350.22963,733.03081 -199.84824,0"
       style="fill:#008000;fill-opacity:1;fill-rule:evenodd;stroke:#008000;stroke-width:1.67203724;stroke-linecap:butt;stroke-linejoin:miter;stroke-miterlimit:4;stroke-dasharray:none;stroke-opacity:1"
       inkscape:export-xdpi="400"
       inkscape:export-ydpi="400" />
    <path
       inkscape:connector-curvature="0"
       id="path4951"
       d="m 237.16808,811.0592 -208.684229,0"
       style="fill:#ff0000;fill-opacity:1;fill-rule:evenodd;stroke:#ff0000;stroke-width:1.67203724;stroke-linecap:butt;stroke-linejoin:miter;stroke-miterlimit:4;stroke-dasharray:none;stroke-opacity:1"
       inkscape:export-xdpi="400"
       inkscape:export-ydpi="400" />
    <path
       inkscape:connector-curvature="0"
       id="path4953"
       d="M 150.38139,901.54204 28.483851,811.0592"
       style="fill:#0000ff;fill-rule:evenodd;stroke:#0000ff;stroke-width:1.67203724;stroke-linecap:butt;stroke-linejoin:miter;stroke-miterlimit:4;stroke-dasharray:none;stroke-opacity:1"
       inkscape:export-xdpi="400"
       inkscape:export-ydpi="400" />
    <path
       inkscape:connector-curvature="0"
       id="path4955"
       d="m 237.16808,811.0592 -86.78669,90.48284"
       style="fill:none;fill-rule:evenodd;stroke:#000000;stroke-width:1.67203724;stroke-linecap:butt;stroke-linejoin:miter;stroke-miterlimit:4;stroke-dasharray:none;stroke-opacity:1"
       inkscape:export-xdpi="400"
       inkscape:export-ydpi="400" />
    <path
       inkscape:connector-curvature="0"
       id="path4957"
       d="m 350.22963,901.54203 -199.84824,1e-5"
       style="fill:#0000ff;fill-rule:evenodd;stroke:#0000ff;stroke-width:1.67203724;stroke-linecap:butt;stroke-linejoin:miter;stroke-miterlimit:4;stroke-dasharray:none;stroke-opacity:1"
       inkscape:export-xdpi="400"
       inkscape:export-ydpi="400" />
    <circle
       r="15.205633"
       cy="901.54205"
       cx="150.38138"
       id="circle4819"
       style="opacity:1;fill:#ffffff;fill-opacity:1;fill-rule:nonzero;stroke:#000000;stroke-width:1.83516264;stroke-linecap:round;stroke-linejoin:round;stroke-miterlimit:4;stroke-dasharray:none;stroke-dashoffset:0;stroke-opacity:1" />
    <g
       transform="matrix(0.55734571,0,0,0.55734571,-19.664584,759.47619)"
       style="font-style:normal;font-weight:normal;font-size:40px;line-height:125%;font-family:sans-serif;letter-spacing:0px;word-spacing:0px;fill:#000000;fill-opacity:1;stroke:none;stroke-width:1px;stroke-linecap:butt;stroke-linejoin:miter;stroke-opacity:1"
       id="flowRoot4821">
      <path
         d="m 313.9082,243.79363 -14.70703,0 0,8.20313 12.63672,0 0,3.4375 -12.63672,0 0,14.0039 -3.86719,0 0,-29.08203 18.57422,0 0,3.4375 z"
         style=""
         id="path4368" />
    </g>
    <path
       inkscape:connector-curvature="0"
       id="path4959"
       d="m 237.16808,811.0592 113.06155,90.48283"
       style="fill:#ff0000;fill-opacity:1;fill-rule:evenodd;stroke:#ff0000;stroke-width:1.67203724;stroke-linecap:butt;stroke-linejoin:miter;stroke-miterlimit:4;stroke-dasharray:none;stroke-opacity:1"
       inkscape:export-xdpi="400"
       inkscape:export-ydpi="400" />
    <path
       inkscape:connector-curvature="0"
       id="path4961"
       d="M 350.22963,733.03081 237.16808,811.0592"
       style="fill:none;fill-rule:evenodd;stroke:#000000;stroke-width:1.67203724;stroke-linecap:butt;stroke-linejoin:miter;stroke-miterlimit:4;stroke-dasharray:none;stroke-opacity:1"
       inkscape:export-xdpi="400"
       inkscape:export-ydpi="400" />
    <path
       inkscape:connector-curvature="0"
       id="path4769"
       d="M 237.16808,811.0592 151.05085,733.03081"
       style="fill:none;fill-rule:evenodd;stroke:#000000;stroke-width:1.67203724;stroke-linecap:butt;stroke-linejoin:miter;stroke-miterlimit:4;stroke-dasharray:none;stroke-opacity:1"
       sodipodi:nodetypes="cc"
       inkscape:export-xdpi="400"
       inkscape:export-ydpi="400" />
    <path
       style="opacity:1;fill:#ffffff;fill-opacity:1;fill-rule:nonzero;stroke:#000000;stroke-width:1.83516264;stroke-linecap:round;stroke-linejoin:round;stroke-miterlimit:4;stroke-dasharray:none;stroke-dashoffset:0;stroke-opacity:1"
       d="m 43.689485,811.0592 c 0,8.39784 -6.807794,15.20563 -15.205634,15.20563 -8.397839,0 -15.205633,-6.80779 -15.205633,-15.20563 0,-8.39784 6.807794,-15.20564 15.205633,-15.20564 8.39784,0 15.205634,6.8078 15.205634,15.20564 z"
       id="path4795"
       inkscape:connector-curvature="0"
       sodipodi:nodetypes="sssss" />
    <g
       style="font-style:normal;font-weight:normal;font-size:22.29382896px;line-height:125%;font-family:sans-serif;letter-spacing:0px;word-spacing:0px;fill:#000000;fill-opacity:1;stroke:none;stroke-width:1px;stroke-linecap:butt;stroke-linejoin:miter;stroke-opacity:1"
       id="flowRoot4797">
      <path
         d="m 35.822129,819.16426 -2.296874,0 -1.589306,-4.51755 -7.010364,0 -1.589306,4.51755 -2.188017,0 5.900027,-16.20875 2.873813,0 5.900027,16.20875 z m -4.550205,-6.36811 -2.841157,-7.95742 -2.852042,7.95742 5.693199,0 z"
         style=""
         id="path4359" />
    </g>
    <circle
       style="opacity:1;fill:#ffffff;fill-opacity:1;fill-rule:nonzero;stroke:#000000;stroke-width:1.83516264;stroke-linecap:round;stroke-linejoin:round;stroke-miterlimit:4;stroke-dasharray:none;stroke-dashoffset:0;stroke-opacity:1"
       id="circle4807"
       cx="150.38139"
       cy="733.03082"
       r="15.205633" />
    <g
       style="font-style:normal;font-weight:normal;font-size:22.29382896px;line-height:125%;font-family:sans-serif;letter-spacing:0px;word-spacing:0px;fill:#000000;fill-opacity:1;stroke:none;stroke-width:1px;stroke-linecap:butt;stroke-linejoin:miter;stroke-opacity:1"
       id="flowRoot4809">
      <path
         d="m 157.16345,736.14933 q 0,1.20831 -0.4572,2.13359 -0.4572,0.92528 -1.23008,1.52399 -0.9144,0.71845 -2.01385,1.02325 -1.08856,0.3048 -2.77584,0.3048 l -5.74763,0 0,-16.20874 4.80058,0 q 1.77436,0 2.6561,0.13062 0.88174,0.13063 1.68727,0.54429 0.89263,0.46808 1.2954,1.2083 0.40277,0.72934 0.40277,1.7526 0,1.15388 -0.58783,1.9703 -0.58782,0.80554 -1.56753,1.29539 l 0,0.0871 q 1.64373,0.33745 2.59078,1.44779 0.94706,1.09945 0.94706,2.78673 z m -3.62493,-7.30428 q 0,-0.58782 -0.19594,-0.99059 -0.19594,-0.40277 -0.63137,-0.65314 -0.51163,-0.29391 -1.24096,-0.35923 -0.72934,-0.0762 -1.80702,-0.0762 l -2.56902,0 0,4.68083 2.78673,0 q 1.01237,0 1.61108,-0.098 0.59871,-0.10885 1.11033,-0.43542 0.51163,-0.32657 0.71846,-0.8382 0.21771,-0.52251 0.21771,-1.23008 z m 1.38248,7.39136 q 0,-0.9797 -0.29391,-1.55664 -0.29392,-0.57694 -1.0668,-0.97971 -0.52251,-0.27215 -1.27362,-0.34834 -0.74022,-0.0871 -1.80702,-0.0871 l -3.38544,0 0,6.03065 2.85204,0 q 1.41514,0 2.31865,-0.14151 0.90351,-0.1524 1.48045,-0.54428 0.6096,-0.42454 0.89262,-0.96883 0.28303,-0.54428 0.28303,-1.40425 z"
         style=""
         id="path4362" />
    </g>
    <circle
       style="opacity:1;fill:#ffffff;fill-opacity:1;fill-rule:nonzero;stroke:#000000;stroke-width:1.83516264;stroke-linecap:round;stroke-linejoin:round;stroke-miterlimit:4;stroke-dasharray:none;stroke-dashoffset:0;stroke-opacity:1"
       id="circle4831"
       cx="237.16809"
       cy="811.0592"
       r="15.205633" />
    <g
       style="font-style:normal;font-weight:normal;font-size:22.29382896px;line-height:125%;font-family:sans-serif;letter-spacing:0px;word-spacing:0px;fill:#000000;fill-opacity:1;stroke:none;stroke-width:1px;stroke-linecap:butt;stroke-linejoin:miter;stroke-opacity:1"
       id="flowRoot4833">
      <path
         d="m 245.42012,811.07621 q 0,2.20979 -0.96883,4.00593 -0.95793,1.79613 -2.55812,2.78672 -1.11034,0.6858 -2.48194,0.9906 -1.3607,0.3048 -3.59226,0.3048 l -4.09301,0 0,-16.20875 4.04946,0 q 2.37308,0 3.76644,0.34834 1.40425,0.33746 2.37308,0.93617 1.65462,1.03414 2.5799,2.75407 0.92528,1.71994 0.92528,4.08212 z m -2.25333,-0.0326 q 0,-1.90499 -0.66403,-3.21127 -0.66402,-1.30628 -1.98119,-2.05739 -0.95794,-0.54429 -2.03562,-0.75111 -1.07768,-0.21772 -2.5799,-0.21772 l -2.02473,0 0,12.50763 2.02473,0 q 1.55665,0 2.71053,-0.2286 1.16477,-0.2286 2.13359,-0.84908 1.20831,-0.77289 1.80702,-2.03562 0.6096,-1.26274 0.6096,-3.15684 z"
         style=""
         id="path4365" />
    </g>
    <circle
       r="15.205633"
       cy="733.03082"
       cx="350.22964"
       id="circle4843"
       style="opacity:1;fill:#ffffff;fill-opacity:1;fill-rule:nonzero;stroke:#000000;stroke-width:1.83516264;stroke-linecap:round;stroke-linejoin:round;stroke-miterlimit:4;stroke-dasharray:none;stroke-dashoffset:0;stroke-opacity:1" />
    <g
       transform="matrix(0.55734571,0,0,0.55734571,180.18366,590.96497)"
       style="font-style:normal;font-weight:normal;font-size:40px;line-height:125%;font-family:sans-serif;letter-spacing:0px;word-spacing:0px;fill:#000000;fill-opacity:1;stroke:none;stroke-width:1px;stroke-linecap:butt;stroke-linejoin:miter;stroke-opacity:1"
       id="flowRoot4845">
      <path
         d="m 317.79492,267.32879 q -1.07422,0.46875 -1.95312,0.87891 -0.85938,0.41015 -2.26563,0.85937 -1.1914,0.37109 -2.59765,0.625 -1.38672,0.27344 -3.06641,0.27344 -3.16406,0 -5.76172,-0.87891 -2.57812,-0.89844 -4.49219,-2.79297 -1.875,-1.85547 -2.92968,-4.70703 -1.05469,-2.87109 -1.05469,-6.66015 0,-3.59375 1.01562,-6.42579 1.01563,-2.83203 2.92969,-4.78515 1.85547,-1.89453 4.47266,-2.89063 2.63672,-0.99609 5.83984,-0.99609 2.34375,0 4.66797,0.56641 2.34375,0.5664 5.19531,1.99218 l 0,4.58985 -0.29297,0 q -2.40234,-2.01172 -4.76562,-2.92969 -2.36328,-0.91797 -5.0586,-0.91797 -2.20703,0 -3.98437,0.72266 -1.75781,0.70312 -3.14453,2.20703 -1.34766,1.46484 -2.10938,3.71094 -0.74218,2.22656 -0.74218,5.15625 0,3.0664 0.82031,5.27343 0.83984,2.20703 2.14844,3.59375 1.36718,1.44532 3.18359,2.14844 1.83594,0.68359 3.86719,0.68359 2.79297,0 5.23437,-0.95703 2.44141,-0.95703 4.57031,-2.87109 l 0.27344,0 0,4.53125 z"
         style=""
         id="path4371" />
    </g>
    <circle
       style="opacity:1;fill:#ffffff;fill-opacity:1;fill-rule:nonzero;stroke:#000000;stroke-width:1.83516264;stroke-linecap:round;stroke-linejoin:round;stroke-miterlimit:4;stroke-dasharray:none;stroke-dashoffset:0;stroke-opacity:1"
       id="circle4855"
       cx="350.22964"
       cy="901.54205"
       r="15.205633" />
    <g
       transform="matrix(0.55734571,0,0,0.55734571,94.646803,725.85589)"
       id="g4857">
      <g
         transform="translate(153.47183,60.322189)"
         style="font-style:normal;font-weight:normal;font-size:40px;line-height:125%;font-family:sans-serif;letter-spacing:0px;word-spacing:0px;fill:#000000;fill-opacity:1;stroke:none;stroke-width:1px;stroke-linecap:butt;stroke-linejoin:miter;stroke-opacity:1"
         id="flowRoot4859">
        <path
           d="m 314.49414,269.43816 -19.16016,0 0,-29.08203 19.16016,0 0,3.4375 -15.29297,0 0,7.96875 15.29297,0 0,3.4375 -15.29297,0 0,10.80078 15.29297,0 0,3.4375 z"
           style=""
           id="path4302" />
      </g>
    </g>
    <g
       transform="matrix(0.55734571,0,0,0.55734571,-16.332494,678.35172)"
       style="font-style:normal;font-weight:normal;font-size:40px;line-height:125%;font-family:sans-serif;letter-spacing:0px;word-spacing:0px;fill:#008000;fill-opacity:1;stroke:#008000;stroke-width:1px;stroke-linecap:butt;stroke-linejoin:miter;stroke-opacity:1"
       id="flowRoot4867">
      <path
         d="m 185.68945,158.01043 -19.6875,0 0,-4.08203 q 2.05078,-1.75781 4.10157,-3.51563 2.07031,-1.75781 3.84765,-3.49609 3.75,-3.63281 5.13672,-5.76172 1.38672,-2.14844 1.38672,-4.6289 0,-2.26563 -1.50391,-3.53516 -1.48437,-1.28906 -4.16015,-1.28906 -1.77735,0 -3.84766,0.625 -2.07031,0.625 -4.04297,1.91406 l -0.19531,0 0,-4.10156 q 1.38672,-0.6836 3.69141,-1.25 2.32421,-0.56641 4.49218,-0.56641 4.47266,0 7.01172,2.16797 2.53906,2.14844 2.53906,5.83984 0,1.66016 -0.42968,3.10547 -0.41016,1.42578 -1.23047,2.71485 -0.76172,1.21093 -1.79688,2.38281 -1.01562,1.17187 -2.48047,2.59765 -2.08984,2.05079 -4.3164,3.98438 -2.22656,1.91406 -4.16016,3.55469 l 15.64453,0 0,3.33984 z"
         style=""
         id="path4356" />
    </g>
    <g
       transform="matrix(0.55734571,0,0,0.55734571,58.120667,685.88741)"
       style="font-style:normal;font-weight:normal;font-size:40px;line-height:125%;font-family:sans-serif;letter-spacing:0px;word-spacing:0px;fill:#008000;fill-opacity:1;stroke:#008000;stroke-width:1px;stroke-linecap:butt;stroke-linejoin:miter;stroke-opacity:1"
       id="flowRoot4875">
      <path
         d="m 369.21094,65.539727 -4.31641,0 0,8.183594 -3.75,0 0,-8.183594 -13.92578,0 0,-4.492187 14.08203,-16.40625 3.59375,0 0,17.773437 4.31641,0 0,3.125 z m -8.06641,-3.125 0,-13.125 -11.26953,13.125 11.26953,0 z"
         style=""
         id="path4353" />
    </g>
    <g
       transform="matrix(0.55734571,0,0,0.55734571,20.41596,664.38979)"
       style="font-style:normal;font-weight:normal;font-size:40px;line-height:125%;font-family:sans-serif;letter-spacing:0px;word-spacing:0px;fill:#000000;fill-opacity:1;stroke:none;stroke-width:1px;stroke-linecap:butt;stroke-linejoin:miter;stroke-opacity:1"
       id="flowRoot4883">
      <path
         d="m 338.31445,195.15301 -15.74218,0 0,-2.96875 6.05468,0 0,-19.49219 -6.05468,0 0,-2.65625 q 1.23046,0 2.63671,-0.19531 1.40625,-0.21485 2.12891,-0.60547 0.89844,-0.48828 1.40625,-1.23047 0.52734,-0.76172 0.60547,-2.03125 l 3.02734,0 0,26.21094 5.9375,0 0,2.96875 z"
         style=""
         id="path4344" />
    </g>
    <g
       transform="matrix(0.55734571,0,0,0.55734571,-22.226042,662.49101)"
       style="font-style:normal;font-weight:normal;font-size:40px;line-height:125%;font-family:sans-serif;letter-spacing:0px;word-spacing:0px;fill:#ff0000;fill-opacity:1;stroke:#ff0000;stroke-width:1px;stroke-linecap:butt;stroke-linejoin:miter;stroke-opacity:1"
       id="flowRoot4891">
      <path
         d="m 279.74023,250.19988 q 0,2.03125 -0.74218,3.88672 -0.74219,1.85547 -2.03125,3.125 -1.40625,1.36719 -3.35938,2.10938 -1.93359,0.72265 -4.49219,0.72265 -2.38281,0 -4.58984,-0.50781 -2.20703,-0.48828 -3.73047,-1.19141 l 0,-4.12109 0.27344,0 q 1.60156,1.01563 3.75,1.73828 2.14844,0.70313 4.21875,0.70313 1.38672,0 2.67578,-0.39063 1.30859,-0.39062 2.32422,-1.36719 0.85937,-0.83984 1.28906,-2.01171 0.44922,-1.17188 0.44922,-2.71485 0,-1.5039 -0.52734,-2.53906 -0.50782,-1.03516 -1.42578,-1.66016 -1.01563,-0.74218 -2.48047,-1.03515 -1.44532,-0.3125 -3.24219,-0.3125 -1.71875,0 -3.32031,0.23437 -1.58203,0.23438 -2.73438,0.46875 l 0,-14.98047 17.5,0 0,3.41797 -13.73047,0 0,7.73438 q 0.83985,-0.0781 1.71875,-0.11719 0.87891,-0.0391 1.52344,-0.0391 2.36328,0 4.14063,0.41015 1.77734,0.39063 3.26171,1.40625 1.5625,1.07422 2.42188,2.77344 0.85937,1.69922 0.85937,4.25781 z"
         style=""
         id="path4341" />
    </g>
    <g
       transform="matrix(0.55734571,0,0,0.55734571,-37.193952,684.29499)"
       style="font-style:normal;font-weight:normal;font-size:40px;line-height:125%;font-family:sans-serif;letter-spacing:0px;word-spacing:0px;fill:#0000ff;fill-opacity:1;stroke:#0000ff;stroke-width:1px;stroke-linecap:butt;stroke-linejoin:miter;stroke-opacity:1"
       id="flowRoot4899">
      <path
         d="m 214.55859,331.1491 q 0.9375,0.83985 1.54297,2.10938 0.60547,1.26953 0.60547,3.28125 0,1.99218 -0.72266,3.65234 -0.72265,1.66016 -2.03125,2.89063 -1.46484,1.36718 -3.45703,2.03125 -1.97265,0.64453 -4.33593,0.64453 -2.42188,0 -4.76563,-0.58594 -2.34375,-0.56641 -3.84766,-1.25 l 0,-4.08203 0.29297,0 q 1.66016,1.09375 3.90625,1.8164 2.2461,0.72266 4.33594,0.72266 1.23047,0 2.61719,-0.41016 1.38672,-0.41015 2.24609,-1.21093 0.89844,-0.85938 1.32813,-1.89453 0.44922,-1.03516 0.44922,-2.61719 0,-1.5625 -0.50782,-2.57813 -0.48828,-1.03515 -1.36718,-1.62109 -0.87891,-0.60547 -2.12891,-0.82031 -1.25,-0.23438 -2.69531,-0.23438 l -1.75782,0 0,-3.24219 1.36719,0 q 2.96875,0 4.72656,-1.23046 1.77735,-1.25 1.77735,-3.63282 0,-1.05468 -0.44922,-1.83593 -0.44922,-0.80079 -1.25,-1.3086 -0.83984,-0.50781 -1.79688,-0.70312 -0.95703,-0.19532 -2.16796,-0.19532 -1.85547,0 -3.94532,0.66407 -2.08984,0.66406 -3.94531,1.875 l -0.19531,0 0,-4.08203 q 1.38672,-0.6836 3.6914,-1.25 2.32422,-0.58594 4.49219,-0.58594 2.12891,0 3.75,0.39062 1.6211,0.39063 2.92969,1.25 1.40625,0.9375 2.12891,2.26563 0.72265,1.32812 0.72265,3.10547 0,2.42187 -1.71875,4.23828 -1.69922,1.79687 -4.02344,2.26562 l 0,0.27344 q 0.9375,0.15625 2.14844,0.66406 1.21094,0.48828 2.05078,1.23047 z"
         style=""
         id="path4335" />
    </g>
    <g
       transform="matrix(0.55734571,0,0,0.55734571,24.18547,703.47714)"
       style="font-style:normal;font-weight:normal;font-size:40px;line-height:125%;font-family:sans-serif;letter-spacing:0px;word-spacing:0px;fill:#0000ff;fill-opacity:1;stroke:#0000ff;stroke-width:1px;stroke-linecap:butt;stroke-linejoin:miter;stroke-opacity:1"
       id="flowRoot4907">
      <path
         d="m 386.88672,392.29559 -15.74219,0 0,-2.96875 6.05469,0 0,-19.49219 -6.05469,0 0,-2.65625 q 1.23047,0 2.63672,-0.19531 1.40625,-0.21485 2.12891,-0.60547 0.89843,-0.48828 1.40625,-1.23047 0.52734,-0.76172 0.60546,-2.03125 l 3.02735,0 0,26.21094 5.9375,0 0,2.96875 z"
         style=""
         id="path4330" />
      <path
         d="m 413.97656,377.74481 q 0,7.83203 -2.46094,11.5039 -2.4414,3.65235 -7.59765,3.65235 -5.23438,0 -7.65625,-3.71094 -2.40235,-3.71094 -2.40235,-11.40625 0,-7.75391 2.44141,-11.44531 2.44141,-3.71094 7.61719,-3.71094 5.23437,0 7.63672,3.76953 2.42187,3.75 2.42187,11.34766 z m -5.13672,8.86718 q 0.6836,-1.58203 0.91797,-3.71093 0.25391,-2.14844 0.25391,-5.15625 0,-2.96875 -0.25391,-5.15625 -0.23437,-2.1875 -0.9375,-3.71094 -0.68359,-1.50391 -1.875,-2.26563 -1.17187,-0.76172 -3.02734,-0.76172 -1.83594,0 -3.04688,0.76172 -1.1914,0.76172 -1.89453,2.30469 -0.66406,1.44531 -0.91797,3.76953 -0.23437,2.32422 -0.23437,5.09766 0,3.04687 0.21484,5.09765 0.21485,2.05079 0.91797,3.67188 0.64453,1.52344 1.81641,2.32422 1.1914,0.80078 3.14453,0.80078 1.83594,0 3.04687,-0.76172 1.21094,-0.76172 1.875,-2.30469 z"
         style=""
         id="path4332" />
    </g>
    <g
       transform="matrix(0.55734571,0,0,0.55734571,-35.54495,702.18139)"
       style="font-style:normal;font-weight:normal;font-size:40px;line-height:125%;font-family:sans-serif;letter-spacing:0px;word-spacing:0px;fill:#000000;fill-opacity:1;stroke:none;stroke-width:1px;stroke-linecap:butt;stroke-linejoin:miter;stroke-opacity:1"
       id="flowRoot4915">
      <path
         d="m 382.83203,295.15301 -19.6875,0 0,-4.08203 q 2.05078,-1.75782 4.10156,-3.51563 2.07032,-1.75781 3.84766,-3.49609 3.75,-3.63281 5.13672,-5.76172 1.38672,-2.14844 1.38672,-4.62891 0,-2.26562 -1.50391,-3.53515 -1.48437,-1.28907 -4.16016,-1.28907 -1.77734,0 -3.84765,0.625 -2.07031,0.625 -4.04297,1.91407 l -0.19531,0 0,-4.10157 q 1.38672,-0.68359 3.6914,-1.25 2.32422,-0.5664 4.49219,-0.5664 4.47266,0 7.01172,2.16797 2.53906,2.14843 2.53906,5.83984 0,1.66016 -0.42969,3.10547 -0.41015,1.42578 -1.23046,2.71484 -0.76172,1.21094 -1.79688,2.38282 -1.01562,1.17187 -2.48047,2.59765 -2.08984,2.05078 -4.3164,3.98438 -2.22657,1.91406 -4.16016,3.55468 l 15.64453,0 0,3.33985 z"
         style=""
         id="path4338" />
    </g>
    <g
       transform="matrix(0.55734571,0,0,0.55734571,54.339684,682.34934)"
       style="font-style:normal;font-weight:normal;font-size:40px;line-height:125%;font-family:sans-serif;letter-spacing:0px;word-spacing:0px;fill:#000000;fill-opacity:1;stroke:none;stroke-width:1px;stroke-linecap:butt;stroke-linejoin:miter;stroke-opacity:1"
       id="flowRoot4923">
      <path
         d="m 458.54687,193.72332 -19.6875,0 0,-4.08203 q 2.05079,-1.75781 4.10157,-3.51563 2.07031,-1.75781 3.84765,-3.49609 3.75,-3.63281 5.13672,-5.76172 1.38672,-2.14844 1.38672,-4.6289 0,-2.26563 -1.50391,-3.53516 -1.48437,-1.28906 -4.16015,-1.28906 -1.77735,0 -3.84766,0.625 -2.07031,0.625 -4.04297,1.91406 l -0.19531,0 0,-4.10156 q 1.38672,-0.6836 3.69141,-1.25 2.32422,-0.56641 4.49218,-0.56641 4.47266,0 7.01172,2.16797 2.53907,2.14844 2.53907,5.83984 0,1.66016 -0.42969,3.10547 -0.41016,1.42578 -1.23047,2.71485 -0.76172,1.21093 -1.79688,2.38281 -1.01562,1.17187 -2.48046,2.59765 -2.08985,2.05079 -4.31641,3.98438 -2.22656,1.91406 -4.16016,3.55469 l 15.64453,0 0,3.33984 z"
         style=""
         id="path4350" />
    </g>
    <g
       transform="matrix(0.55734571,0,0,0.55734571,38.679027,694.38905)"
       style="font-style:normal;font-weight:normal;font-size:40px;line-height:125%;font-family:sans-serif;letter-spacing:0px;word-spacing:0px;fill:#ff0000;fill-opacity:1;stroke:#ff0000;stroke-width:1px;stroke-linecap:butt;stroke-linejoin:miter;stroke-opacity:1"
       id="flowRoot4931">
      <path
         d="m 464.33789,243.28387 -13.16406,24.72656 -4.17969,0 14.00391,-25.66406 -16.5625,0 0,-3.41797 19.90234,0 0,4.35547 z"
         style=""
         id="path4347" />
    </g>
    <g
       transform="matrix(0.55734571,0,0,0.55734571,113.45513,717.2556)"
       style="font-style:normal;font-weight:normal;font-size:40px;line-height:125%;font-family:sans-serif;letter-spacing:0px;word-spacing:0px;fill:#008000;fill-opacity:1;stroke:#008000;stroke-width:1px;stroke-linecap:butt;stroke-linejoin:miter;stroke-opacity:1"
       id="flowRoot4939">
      <path
         d="m 459.21094,185.53973 -4.31641,0 0,8.18359 -3.75,0 0,-8.18359 -13.92578,0 0,-4.49219 14.08203,-16.40625 3.59375,0 0,17.77344 4.31641,0 0,3.125 z m -8.06641,-3.125 0,-13.125 -11.26953,13.125 11.26953,0 z"
         style=""
         id="path4374" />
    </g>
    <g
       id="g5261"
       transform="matrix(0.77961284,0,0,0.77961284,27.226243,165.4926)"
       inkscape:export-xdpi="400"
       inkscape:export-ydpi="400">
      <path
         d="m 526.24596,745.22316 q -1.31252,0.62833 -2.49936,0.9774 -1.17289,0.34907 -2.49936,0.34907 -1.68951,0 -3.09976,-0.4887 -1.41026,-0.50266 -2.41559,-1.50799 -1.01929,-1.00533 -1.5778,-2.54125 -0.55852,-1.53592 -0.55852,-3.58847 0,-3.82583 2.09444,-6.00404 2.1084,-2.17822 5.55723,-2.17822 1.34044,0 2.62503,0.377 1.29855,0.377 2.37369,0.92156 l 0,2.91824 -0.13963,0 q -1.20081,-0.93552 -2.48539,-1.43818 -1.27063,-0.50267 -2.48541,-0.50267 -2.23406,0 -3.53261,1.508 -1.28459,1.49403 -1.28459,4.39831 0,2.82051 1.25667,4.34247 1.27062,1.50799 3.56053,1.50799 0.7959,0 1.6197,-0.20944 0.82381,-0.20945 1.48007,-0.54456 0.57248,-0.29322 1.07515,-0.61437 0.50266,-0.33511 0.79588,-0.57247 l 0.13963,0 0,2.89032 z"
         style="font-style:normal;font-weight:normal;font-size:medium;line-height:125%;font-family:sans-serif;letter-spacing:0px;word-spacing:0px;fill:#0000ff;fill-opacity:1;stroke:none;stroke-width:1px;stroke-linecap:butt;stroke-linejoin:miter;stroke-opacity:1"
         id="path5021"
         inkscape:connector-curvature="0" />
      <path
         d="m 542.91766,738.40926 q 0,3.81187 -1.9548,6.01801 -1.95481,2.20614 -5.23609,2.20614 -3.30921,0 -5.26401,-2.20614 -1.94084,-2.20614 -1.94084,-6.01801 0,-3.81187 1.94084,-6.01801 1.9548,-2.2201 5.26401,-2.2201 3.28128,0 5.23609,2.2201 1.9548,2.20614 1.9548,6.01801 z m -2.7088,0 q 0,-3.02995 -1.18684,-4.49605 -1.18685,-1.48007 -3.29525,-1.48007 -2.13632,0 -3.32317,1.48007 -1.17288,1.4661 -1.17288,4.49605 0,2.93221 1.18684,4.45417 1.18685,1.50799 3.30921,1.50799 2.09444,0 3.28128,-1.49403 1.20081,-1.50799 1.20081,-4.46813 z"
         style="font-style:normal;font-weight:normal;font-size:medium;line-height:125%;font-family:sans-serif;letter-spacing:0px;word-spacing:0px;fill:#0000ff;fill-opacity:1;stroke:none;stroke-width:1px;stroke-linecap:butt;stroke-linejoin:miter;stroke-opacity:1"
         id="path5023"
         inkscape:connector-curvature="0" />
      <path
         d="m 559.92448,746.20056 -2.62503,0 0,-1.7314 q -1.32647,1.04722 -2.54125,1.60574 -1.21476,0.55851 -2.68087,0.55851 -2.45747,0 -3.82584,-1.49403 -1.36836,-1.50799 -1.36836,-4.41228 l 0,-10.1231 2.62502,0 0,8.88041 q 0,1.18684 0.11171,2.03858 0.1117,0.83778 0.47474,1.43818 0.377,0.61436 0.9774,0.89362 0.60041,0.27926 1.74536,0.27926 1.01929,0 2.22011,-0.53059 1.21477,-0.53059 2.26198,-1.3544 l 0,-11.64506 2.62503,0 0,15.59656 z m -1.75932,-18.10988 -2.22011,0 -2.58313,-3.57451 -2.56918,3.57451 -2.16424,0 3.18353,-5.29195 3.16958,0 3.18355,5.29195 z"
         style="font-style:normal;font-weight:normal;font-size:medium;line-height:125%;font-family:sans-serif;letter-spacing:0px;word-spacing:0px;fill:#0000ff;fill-opacity:1;stroke:none;stroke-width:1px;stroke-linecap:butt;stroke-linejoin:miter;stroke-opacity:1"
         id="path5025"
         inkscape:connector-curvature="0" />
      <path
         d="m 573.18924,746.06093 q -0.74003,0.19548 -1.6197,0.32115 -0.8657,0.12567 -1.54988,0.12567 -2.38765,0 -3.63035,-1.28459 -1.24271,-1.28459 -1.24271,-4.11906 l 0,-8.29396 -1.77328,0 0,-2.20614 1.77328,0 0,-4.48209 2.62503,0 0,4.48209 5.41761,0 0,2.20614 -5.41761,0 0,7.10712 q 0,1.22873 0.0558,1.92688 0.0558,0.68418 0.39096,1.28458 0.30719,0.55852 0.83777,0.82382 0.54456,0.25133 1.64763,0.25133 0.64229,0 1.34044,-0.18152 0.69814,-0.19548 1.00532,-0.32114 l 0.13963,0 0,2.35972 z"
         style="font-style:normal;font-weight:normal;font-size:medium;line-height:125%;font-family:sans-serif;letter-spacing:0px;word-spacing:0px;fill:#0000ff;fill-opacity:1;stroke:none;stroke-width:1px;stroke-linecap:butt;stroke-linejoin:miter;stroke-opacity:1"
         id="path5027"
         inkscape:connector-curvature="0" />
      <path
         d="m 584.7226,751.95327 -3.19751,0 q -2.47143,-2.83446 -3.83979,-6.18556 -1.36837,-3.3511 -1.36837,-7.55393 0,-4.20283 1.36837,-7.55393 1.36836,-3.35109 3.83979,-6.18557 l 3.19751,0 0,0.13964 q -1.131,1.01929 -2.16426,2.35973 -1.01929,1.32647 -1.89895,3.09976 -0.83777,1.71744 -1.36836,3.78394 -0.51663,2.06652 -0.51663,4.35643 0,2.38766 0.50267,4.37039 0.51663,1.98273 1.38232,3.76998 0.83778,1.71744 1.91292,3.09977 1.07514,1.39629 2.15029,2.35973 l 0,0.13962 z"
         style="font-style:normal;font-weight:normal;font-size:medium;line-height:125%;font-family:sans-serif;letter-spacing:0px;word-spacing:0px;fill:#0000ff;fill-opacity:1;stroke:none;stroke-width:1px;stroke-linecap:butt;stroke-linejoin:miter;stroke-opacity:1"
         id="path5029"
         inkscape:connector-curvature="0" />
      <path
         d="m 605.9881,746.20056 -2.94617,0 -2.03859,-5.7946 -8.99211,0 -2.03858,5.7946 -2.80654,0 7.56789,-20.79076 3.6862,0 7.5679,20.79076 z m -5.83649,-8.1683 -3.64432,-10.20688 -3.65829,10.20688 7.30261,0 z"
         style="font-style:normal;font-weight:normal;font-size:medium;line-height:125%;font-family:sans-serif;letter-spacing:0px;word-spacing:0px;fill:#0000ff;fill-opacity:1;stroke:none;stroke-width:1px;stroke-linecap:butt;stroke-linejoin:miter;stroke-opacity:1"
         id="path5031"
         inkscape:connector-curvature="0" />
      <path
         d="m 616.53009,738.36737 -8.71285,0 0,-2.52728 8.71285,0 0,2.52728 z"
         style="font-style:normal;font-weight:normal;font-size:medium;line-height:125%;font-family:sans-serif;letter-spacing:0px;word-spacing:0px;fill:#0000ff;fill-opacity:1;stroke:none;stroke-width:1px;stroke-linecap:butt;stroke-linejoin:miter;stroke-opacity:1"
         id="path5033"
         inkscape:connector-curvature="0" />
      <path
         d="m 634.76564,727.86727 -10.51406,0 0,5.86442 9.03399,0 0,2.45747 -9.03399,0 0,10.0114 -2.76466,0 0,-20.79076 13.27872,0 0,2.45747 z"
         style="font-style:normal;font-weight:normal;font-size:medium;line-height:125%;font-family:sans-serif;letter-spacing:0px;word-spacing:0px;fill:#0000ff;fill-opacity:1;stroke:none;stroke-width:1px;stroke-linecap:butt;stroke-linejoin:miter;stroke-opacity:1"
         id="path5035"
         inkscape:connector-curvature="0" />
      <path
         d="m 645.96389,738.36737 -8.71285,0 0,-2.52728 8.71285,0 0,2.52728 z"
         style="font-style:normal;font-weight:normal;font-size:medium;line-height:125%;font-family:sans-serif;letter-spacing:0px;word-spacing:0px;fill:#0000ff;fill-opacity:1;stroke:none;stroke-width:1px;stroke-linecap:butt;stroke-linejoin:miter;stroke-opacity:1"
         id="path5037"
         inkscape:connector-curvature="0" />
      <path
         d="m 664.61833,746.20056 -13.69761,0 0,-20.79076 13.69761,0 0,2.45747 -10.93296,0 0,5.69687 10.93296,0 0,2.45747 -10.93296,0 0,7.72148 10.93296,0 0,2.45747 z"
         style="font-style:normal;font-weight:normal;font-size:medium;line-height:125%;font-family:sans-serif;letter-spacing:0px;word-spacing:0px;fill:#0000ff;fill-opacity:1;stroke:none;stroke-width:1px;stroke-linecap:butt;stroke-linejoin:miter;stroke-opacity:1"
         id="path5039"
         inkscape:connector-curvature="0" />
      <path
         d="m 676.68228,738.21378 q 0,4.20283 -1.36837,7.55393 -1.36837,3.3511 -3.8398,6.18556 l -3.1975,0 0,-0.13962 q 1.07514,-0.96344 2.15029,-2.35973 1.0891,-1.38233 1.91291,-3.09977 0.8657,-1.78725 1.36837,-3.76998 0.51663,-1.98273 0.51663,-4.37039 0,-2.28991 -0.51663,-4.35643 -0.51663,-2.0665 -1.36837,-3.78394 -0.87966,-1.77329 -1.91291,-3.09976 -1.0193,-1.34044 -2.15029,-2.35973 l 0,-0.13964 3.1975,0 q 2.47143,2.83448 3.8398,6.18557 1.36837,3.3511 1.36837,7.55393 z"
         style="font-style:normal;font-weight:normal;font-size:medium;line-height:125%;font-family:sans-serif;letter-spacing:0px;word-spacing:0px;fill:#0000ff;fill-opacity:1;stroke:none;stroke-width:1px;stroke-linecap:butt;stroke-linejoin:miter;stroke-opacity:1"
         id="path5041"
         inkscape:connector-curvature="0" />
      <path
         d="m 709.27169,735.28157 -16.56,0 0,-2.23406 16.56,0 0,2.23406 z m 0,5.86442 -16.56,0 0,-2.23406 16.56,0 0,2.23406 z"
         style="font-style:normal;font-weight:normal;font-size:medium;line-height:125%;font-family:sans-serif;letter-spacing:0px;word-spacing:0px;fill:#0000ff;fill-opacity:1;stroke:none;stroke-width:1px;stroke-linecap:butt;stroke-linejoin:miter;stroke-opacity:1"
         id="path5043"
         inkscape:connector-curvature="0" />
      <path
         d="m 737.23939,736.18916 q 0.67021,0.60041 1.10307,1.508 0.43285,0.90758 0.43285,2.34576 0,1.42422 -0.51663,2.61106 -0.51663,1.18685 -1.45215,2.06652 -1.04721,0.97739 -2.47143,1.45214 -1.41025,0.46077 -3.09976,0.46077 -1.7314,0 -3.40695,-0.41889 -1.67555,-0.40492 -2.75069,-0.89362 l 0,-2.91825 0.20944,0 q 1.18685,0.78193 2.79258,1.29856 1.60573,0.51662 3.09977,0.51662 0.87966,0 1.87103,-0.29322 0.99136,-0.29322 1.60573,-0.8657 0.64229,-0.61437 0.94947,-1.3544 0.32115,-0.74004 0.32115,-1.87103 0,-1.11703 -0.36303,-1.84311 -0.34907,-0.74003 -0.97741,-1.15892 -0.62832,-0.43285 -1.52195,-0.58644 -0.89363,-0.16756 -1.92689,-0.16756 l -1.25666,0 0,-2.31783 0.97741,0 q 2.12236,0 3.37902,-0.87967 1.27063,-0.89362 1.27063,-2.5971 0,-0.75399 -0.32115,-1.31251 -0.32115,-0.57248 -0.89362,-0.93552 -0.60041,-0.36303 -1.2846,-0.50266 -0.68418,-0.13963 -1.54988,-0.13963 -1.32648,0 -2.8205,0.47474 -1.49403,0.47474 -2.82051,1.34044 l -0.13962,0 0,-2.91825 q 0.99135,-0.4887 2.63898,-0.89362 1.66159,-0.41889 3.21147,-0.41889 1.52196,0 2.68088,0.27925 1.15891,0.27927 2.09443,0.89363 1.00533,0.67022 1.52196,1.6197 0.51663,0.94947 0.51663,2.2201 0,1.7314 -1.22874,3.02995 -1.21477,1.28459 -2.87636,1.61969 l 0,0.19549 q 0.67022,0.1117 1.53592,0.47473 0.8657,0.34908 1.46611,0.87967 z"
         style="font-style:normal;font-weight:normal;font-size:medium;line-height:125%;font-family:sans-serif;letter-spacing:0px;word-spacing:0px;fill:#0000ff;fill-opacity:1;stroke:none;stroke-width:1px;stroke-linecap:butt;stroke-linejoin:miter;stroke-opacity:1"
         id="path5045"
         inkscape:connector-curvature="0" />
      <path
         d="m 771.47643,738.21378 -7.60979,0 0,7.60979 -2.31784,0 0,-7.60979 -7.60978,0 0,-2.23407 7.60978,0 0,-7.60978 2.31784,0 0,7.60978 7.60979,0 0,2.23407 z"
         style="font-style:normal;font-weight:normal;font-size:medium;line-height:125%;font-family:sans-serif;letter-spacing:0px;word-spacing:0px;fill:#0000ff;fill-opacity:1;stroke:none;stroke-width:1px;stroke-linecap:butt;stroke-linejoin:miter;stroke-opacity:1"
         id="path5047"
         inkscape:connector-curvature="0" />
      <path
         d="m 799.59771,746.20056 -11.2541,0 0,-2.12236 4.3285,0 0,-13.93498 -4.3285,0 0,-1.89895 q 0.87966,0 1.88499,-0.13963 1.00533,-0.15359 1.52196,-0.43285 0.64229,-0.34907 1.00533,-0.87966 0.37699,-0.54456 0.43285,-1.45215 l 2.16425,0 0,18.73822 4.24472,0 0,2.12236 z"
         style="font-style:normal;font-weight:normal;font-size:medium;line-height:125%;font-family:sans-serif;letter-spacing:0px;word-spacing:0px;fill:#0000ff;fill-opacity:1;stroke:none;stroke-width:1px;stroke-linecap:butt;stroke-linejoin:miter;stroke-opacity:1"
         id="path5049"
         inkscape:connector-curvature="0" />
      <path
         d="m 818.96426,735.7982 q 0,5.59912 -1.75933,8.22415 -1.74536,2.61106 -5.43157,2.61106 -3.74206,0 -5.47346,-2.65295 -1.71743,-2.65295 -1.71743,-8.15434 0,-5.54327 1.74536,-8.18226 1.74536,-2.65295 5.44553,-2.65295 3.74206,0 5.4595,2.69484 1.7314,2.68088 1.7314,8.11245 z m -3.67225,6.33916 q 0.4887,-1.131 0.65626,-2.65295 0.18151,-1.53592 0.18151,-3.68621 0,-2.12236 -0.18151,-3.68621 -0.16756,-1.56384 -0.67022,-2.65295 -0.4887,-1.07515 -1.34044,-1.61969 -0.83777,-0.54456 -2.16425,-0.54456 -1.31251,0 -2.17821,0.54456 -0.85174,0.54454 -1.3544,1.64761 -0.47474,1.03326 -0.65626,2.69484 -0.16756,1.66159 -0.16756,3.64432 0,2.17822 0.1536,3.64432 0.15359,1.46611 0.65626,2.62503 0.46077,1.08911 1.29854,1.66158 0.85174,0.57248 2.24803,0.57248 1.31251,0 2.17822,-0.54455 0.8657,-0.54456 1.34043,-1.64762 z"
         style="font-style:normal;font-weight:normal;font-size:medium;line-height:125%;font-family:sans-serif;letter-spacing:0px;word-spacing:0px;fill:#0000ff;fill-opacity:1;stroke:none;stroke-width:1px;stroke-linecap:butt;stroke-linejoin:miter;stroke-opacity:1"
         id="path5051"
         inkscape:connector-curvature="0" />
      <g
         transform="translate(177.16132,0)"
         id="g5078">
        <path
           inkscape:connector-curvature="0"
           id="path5053"
           style="font-style:normal;font-weight:normal;font-size:medium;line-height:125%;font-family:sans-serif;letter-spacing:0px;word-spacing:0px;fill:#0000ff;fill-opacity:1;stroke:none;stroke-width:1px;stroke-linecap:butt;stroke-linejoin:miter;stroke-opacity:1"
           d="m 532.11038,771.0266 -16.56001,0 0,-2.23406 16.56001,0 0,2.23406 z m 0,5.86442 -16.56001,0 0,-2.23406 16.56001,0 0,2.23406 z" />
        <path
           inkscape:connector-curvature="0"
           id="path5055"
           style="font-style:normal;font-weight:normal;font-size:medium;line-height:125%;font-family:sans-serif;letter-spacing:0px;word-spacing:0px;fill:#0000ff;fill-opacity:1;stroke:none;stroke-width:1px;stroke-linecap:butt;stroke-linejoin:miter;stroke-opacity:1"
           d="m 560.72037,781.94559 -11.2541,0 0,-2.12236 4.3285,0 0,-13.93498 -4.3285,0 0,-1.89895 q 0.87966,0 1.88499,-0.13963 1.00533,-0.15359 1.52196,-0.43285 0.64229,-0.34907 1.00533,-0.87966 0.37699,-0.54456 0.43284,-1.45215 l 2.16426,0 0,18.73822 4.24472,0 0,2.12236 z" />
        <path
           inkscape:connector-curvature="0"
           id="path5057"
           style="font-style:normal;font-weight:normal;font-size:medium;line-height:125%;font-family:sans-serif;letter-spacing:0px;word-spacing:0px;fill:#0000ff;fill-opacity:1;stroke:none;stroke-width:1px;stroke-linecap:butt;stroke-linejoin:miter;stroke-opacity:1"
           d="m 578.2857,771.93419 q 0.67022,0.60041 1.10307,1.508 0.43285,0.90758 0.43285,2.34576 0,1.42422 -0.51663,2.61106 -0.51662,1.18685 -1.45214,2.06652 -1.04722,0.9774 -2.47144,1.45214 -1.41025,0.46077 -3.09976,0.46077 -1.7314,0 -3.40695,-0.41888 -1.67554,-0.40493 -2.75069,-0.89363 l 0,-2.91825 0.20944,0 q 1.18685,0.78193 2.79258,1.29856 1.60574,0.51662 3.09977,0.51662 0.87966,0 1.87103,-0.29322 0.99136,-0.29322 1.60573,-0.8657 0.6423,-0.61437 0.94948,-1.3544 0.32114,-0.74004 0.32114,-1.87103 0,-1.11703 -0.36303,-1.84311 -0.34907,-0.74003 -0.97741,-1.15892 -0.62832,-0.43285 -1.52195,-0.58644 -0.89362,-0.16755 -1.92688,-0.16755 l -1.25666,0 0,-2.31784 0.9774,0 q 2.12236,0 3.37902,-0.87966 1.27063,-0.89363 1.27063,-2.59711 0,-0.75399 -0.32115,-1.31251 -0.32114,-0.57248 -0.89362,-0.93552 -0.60041,-0.36303 -1.28459,-0.50266 -0.68418,-0.13962 -1.54989,-0.13962 -1.32647,0 -2.8205,0.47473 -1.49403,0.47474 -2.8205,1.34044 l -0.13963,0 0,-2.91824 q 0.99136,-0.48871 2.63898,-0.89363 1.66159,-0.41889 3.21147,-0.41889 1.52196,0 2.68088,0.27926 1.15892,0.27926 2.09444,0.89362 1.00533,0.67022 1.52195,1.6197 0.51663,0.94948 0.51663,2.2201 0,1.7314 -1.22874,3.02995 -1.21477,1.28459 -2.87636,1.6197 l 0,0.19548 q 0.67022,0.1117 1.53592,0.47474 0.86571,0.34907 1.46611,0.87966 z" />
      </g>
    </g>
    <g
       id="g5236"
       transform="matrix(0.77961284,0,0,0.77961284,27.226243,165.4926)"
       inkscape:export-xdpi="400"
       inkscape:export-ydpi="400">
      <path
         d="m 526.24596,826.94634 q -1.31252,0.62833 -2.49936,0.9774 -1.17289,0.34907 -2.49936,0.34907 -1.68951,0 -3.09976,-0.4887 -1.41026,-0.50266 -2.41559,-1.50799 -1.01929,-1.00533 -1.5778,-2.54125 -0.55852,-1.53592 -0.55852,-3.58847 0,-3.82583 2.09444,-6.00404 2.1084,-2.17822 5.55723,-2.17822 1.34044,0 2.62503,0.377 1.29855,0.377 2.37369,0.92156 l 0,2.91824 -0.13963,0 q -1.20081,-0.93552 -2.48539,-1.43818 -1.27063,-0.50267 -2.48541,-0.50267 -2.23406,0 -3.53261,1.508 -1.28459,1.49403 -1.28459,4.39831 0,2.82051 1.25667,4.34247 1.27062,1.50799 3.56053,1.50799 0.7959,0 1.6197,-0.20944 0.82381,-0.20945 1.48007,-0.54456 0.57248,-0.29322 1.07515,-0.61437 0.50266,-0.33511 0.79588,-0.57247 l 0.13963,0 0,2.89032 z"
         style="font-style:normal;font-weight:normal;font-size:medium;line-height:125%;font-family:sans-serif;letter-spacing:0px;word-spacing:0px;fill:#008000;fill-opacity:1;stroke:none;stroke-width:1px;stroke-linecap:butt;stroke-linejoin:miter;stroke-opacity:0.8745098"
         id="path5084"
         inkscape:connector-curvature="0" />
      <path
         d="m 542.91766,820.13244 q 0,3.81187 -1.9548,6.01801 -1.95481,2.20614 -5.23609,2.20614 -3.30921,0 -5.26401,-2.20614 -1.94084,-2.20614 -1.94084,-6.01801 0,-3.81187 1.94084,-6.01801 1.9548,-2.2201 5.26401,-2.2201 3.28128,0 5.23609,2.2201 1.9548,2.20614 1.9548,6.01801 z m -2.7088,0 q 0,-3.02995 -1.18684,-4.49605 -1.18685,-1.48007 -3.29525,-1.48007 -2.13632,0 -3.32317,1.48007 -1.17288,1.4661 -1.17288,4.49605 0,2.93221 1.18684,4.45417 1.18685,1.50799 3.30921,1.50799 2.09444,0 3.28128,-1.49403 1.20081,-1.50799 1.20081,-4.46813 z"
         style="font-style:normal;font-weight:normal;font-size:medium;line-height:125%;font-family:sans-serif;letter-spacing:0px;word-spacing:0px;fill:#008000;fill-opacity:1;stroke:none;stroke-width:1px;stroke-linecap:butt;stroke-linejoin:miter;stroke-opacity:0.8745098"
         id="path5086"
         inkscape:connector-curvature="0" />
      <path
         d="m 559.92448,827.92374 -2.62503,0 0,-1.7314 q -1.32647,1.04722 -2.54125,1.60574 -1.21476,0.55851 -2.68087,0.55851 -2.45747,0 -3.82584,-1.49403 -1.36836,-1.50799 -1.36836,-4.41228 l 0,-10.1231 2.62502,0 0,8.88041 q 0,1.18684 0.11171,2.03858 0.1117,0.83778 0.47474,1.43818 0.377,0.61436 0.9774,0.89362 0.60041,0.27926 1.74536,0.27926 1.01929,0 2.22011,-0.53059 1.21477,-0.53059 2.26198,-1.3544 l 0,-11.64506 2.62503,0 0,15.59656 z m -1.75932,-18.10988 -2.22011,0 -2.58313,-3.57451 -2.56918,3.57451 -2.16424,0 3.18353,-5.29195 3.16958,0 3.18355,5.29195 z"
         style="font-style:normal;font-weight:normal;font-size:medium;line-height:125%;font-family:sans-serif;letter-spacing:0px;word-spacing:0px;fill:#008000;fill-opacity:1;stroke:none;stroke-width:1px;stroke-linecap:butt;stroke-linejoin:miter;stroke-opacity:0.8745098"
         id="path5088"
         inkscape:connector-curvature="0" />
      <path
         d="m 573.18924,827.78411 q -0.74003,0.19548 -1.6197,0.32115 -0.8657,0.12567 -1.54988,0.12567 -2.38765,0 -3.63035,-1.28459 -1.24271,-1.28459 -1.24271,-4.11906 l 0,-8.29396 -1.77328,0 0,-2.20614 1.77328,0 0,-4.48209 2.62503,0 0,4.48209 5.41761,0 0,2.20614 -5.41761,0 0,7.10712 q 0,1.22873 0.0558,1.92688 0.0558,0.68418 0.39096,1.28458 0.30719,0.55852 0.83777,0.82382 0.54456,0.25133 1.64763,0.25133 0.64229,0 1.34044,-0.18152 0.69814,-0.19548 1.00532,-0.32114 l 0.13963,0 0,2.35972 z"
         style="font-style:normal;font-weight:normal;font-size:medium;line-height:125%;font-family:sans-serif;letter-spacing:0px;word-spacing:0px;fill:#008000;fill-opacity:1;stroke:none;stroke-width:1px;stroke-linecap:butt;stroke-linejoin:miter;stroke-opacity:0.8745098"
         id="path5090"
         inkscape:connector-curvature="0" />
      <path
         d="m 584.7226,833.67645 -3.19751,0 q -2.47143,-2.83446 -3.83979,-6.18556 -1.36837,-3.3511 -1.36837,-7.55393 0,-4.20283 1.36837,-7.55393 1.36836,-3.35109 3.83979,-6.18557 l 3.19751,0 0,0.13964 q -1.131,1.01929 -2.16426,2.35973 -1.01929,1.32647 -1.89895,3.09976 -0.83777,1.71744 -1.36836,3.78394 -0.51663,2.06652 -0.51663,4.35643 0,2.38766 0.50267,4.37039 0.51663,1.98273 1.38232,3.76998 0.83778,1.71744 1.91292,3.09977 1.07514,1.39629 2.15029,2.35973 l 0,0.13962 z"
         style="font-style:normal;font-weight:normal;font-size:medium;line-height:125%;font-family:sans-serif;letter-spacing:0px;word-spacing:0px;fill:#008000;fill-opacity:1;stroke:none;stroke-width:1px;stroke-linecap:butt;stroke-linejoin:miter;stroke-opacity:0.8745098"
         id="path5092"
         inkscape:connector-curvature="0" />
      <path
         d="m 605.9881,827.92374 -2.94617,0 -2.03859,-5.7946 -8.99211,0 -2.03858,5.7946 -2.80654,0 7.56789,-20.79076 3.6862,0 7.5679,20.79076 z m -5.83649,-8.1683 -3.64432,-10.20688 -3.65829,10.20688 7.30261,0 z"
         style="font-style:normal;font-weight:normal;font-size:medium;line-height:125%;font-family:sans-serif;letter-spacing:0px;word-spacing:0px;fill:#008000;fill-opacity:1;stroke:none;stroke-width:1px;stroke-linecap:butt;stroke-linejoin:miter;stroke-opacity:0.8745098"
         id="path5094"
         inkscape:connector-curvature="0" />
      <path
         d="m 616.53009,820.09055 -8.71285,0 0,-2.52728 8.71285,0 0,2.52728 z"
         style="font-style:normal;font-weight:normal;font-size:medium;line-height:125%;font-family:sans-serif;letter-spacing:0px;word-spacing:0px;fill:#008000;fill-opacity:1;stroke:none;stroke-width:1px;stroke-linecap:butt;stroke-linejoin:miter;stroke-opacity:0.8745098"
         id="path5096"
         inkscape:connector-curvature="0" />
      <path
         d="m 637.16726,821.52873 q 0,1.54989 -0.58644,2.73673 -0.58644,1.18685 -1.57781,1.95481 -1.17289,0.92155 -2.58313,1.31251 -1.3963,0.39096 -3.56055,0.39096 l -7.37241,0 0,-20.79076 6.15764,0 q 2.27595,0 3.40695,0.16755 1.131,0.16756 2.16425,0.69815 1.14496,0.6004 1.66159,1.54988 0.51662,0.93552 0.51662,2.24803 0,1.48007 -0.75399,2.52728 -0.754,1.03326 -2.01066,1.66159 l 0,0.1117 q 2.10839,0.43285 3.32317,1.85707 1.21477,1.41025 1.21477,3.5745 z m -4.64964,-9.3691 q 0,-0.754 -0.25134,-1.27063 -0.25133,-0.51663 -0.80985,-0.83777 -0.65625,-0.377 -1.59177,-0.46078 -0.93552,-0.0977 -2.31784,-0.0977 l -3.29524,0 0,6.00405 3.5745,0 q 1.29855,0 2.06651,-0.12566 0.76796,-0.13964 1.42422,-0.55852 0.65625,-0.41889 0.92155,-1.07515 0.27926,-0.67022 0.27926,-1.5778 z m 1.77328,9.48081 q 0,-1.25667 -0.377,-1.9967 -0.37699,-0.74004 -1.36836,-1.25666 -0.67022,-0.34908 -1.63366,-0.44681 -0.94948,-0.1117 -2.31785,-0.1117 l -4.34245,0 0,7.73544 3.65827,0 q 1.81519,0 2.9741,-0.18152 1.15892,-0.19548 1.89896,-0.69814 0.78192,-0.54456 1.14496,-1.2427 0.36303,-0.69814 0.36303,-1.80121 z"
         style="font-style:normal;font-weight:normal;font-size:medium;line-height:125%;font-family:sans-serif;letter-spacing:0px;word-spacing:0px;fill:#008000;fill-opacity:1;stroke:none;stroke-width:1px;stroke-linecap:butt;stroke-linejoin:miter;stroke-opacity:0.8745098"
         id="path5098"
         inkscape:connector-curvature="0" />
      <path
         d="m 649.31499,820.09055 -8.71286,0 0,-2.52728 8.71286,0 0,2.52728 z"
         style="font-style:normal;font-weight:normal;font-size:medium;line-height:125%;font-family:sans-serif;letter-spacing:0px;word-spacing:0px;fill:#008000;fill-opacity:1;stroke:none;stroke-width:1px;stroke-linecap:butt;stroke-linejoin:miter;stroke-opacity:0.8745098"
         id="path5100"
         inkscape:connector-curvature="0" />
      <path
         d="m 670.32915,826.41574 q -0.76796,0.33511 -1.39628,0.62834 -0.61437,0.29322 -1.6197,0.61437 -0.85174,0.26529 -1.85707,0.44681 -0.99136,0.19548 -2.19217,0.19548 -2.26199,0 -4.11906,-0.62833 -1.84311,-0.64229 -3.21147,-1.99669 -1.34044,-1.32648 -2.09444,-3.36506 -0.75399,-2.05255 -0.75399,-4.76136 0,-2.56917 0.72607,-4.59379 0.72607,-2.02462 2.09444,-3.42091 1.32647,-1.3544 3.1975,-2.06651 1.88499,-0.71211 4.17491,-0.71211 1.67555,0 3.33713,0.40492 1.67555,0.40493 3.71413,1.42422 l 0,3.28128 -0.20944,0 q -1.71743,-1.43818 -3.40694,-2.09444 -1.68952,-0.65625 -3.6164,-0.65625 -1.57781,0 -2.84843,0.51663 -1.25666,0.50267 -2.24803,1.5778 -0.96344,1.04723 -1.50799,2.65296 -0.5306,1.59177 -0.5306,3.6862 0,2.19218 0.58645,3.76999 0.6004,1.57781 1.53592,2.56917 0.9774,1.03326 2.27595,1.53593 1.31252,0.48869 2.76466,0.48869 1.99669,0 3.74205,-0.68418 1.74537,-0.68418 3.26732,-2.05255 l 0.19548,0 0,3.23939 z"
         style="font-style:normal;font-weight:normal;font-size:medium;line-height:125%;font-family:sans-serif;letter-spacing:0px;word-spacing:0px;fill:#008000;fill-opacity:1;stroke:none;stroke-width:1px;stroke-linecap:butt;stroke-linejoin:miter;stroke-opacity:0.8745098"
         id="path5102"
         inkscape:connector-curvature="0" />
      <path
         d="m 681.65307,820.09055 -8.71286,0 0,-2.52728 8.71286,0 0,2.52728 z"
         style="font-style:normal;font-weight:normal;font-size:medium;line-height:125%;font-family:sans-serif;letter-spacing:0px;word-spacing:0px;fill:#008000;fill-opacity:1;stroke:none;stroke-width:1px;stroke-linecap:butt;stroke-linejoin:miter;stroke-opacity:0.8745098"
         id="path5104"
         inkscape:connector-curvature="0" />
      <path
         d="m 700.3075,827.92374 -13.6976,0 0,-20.79076 13.6976,0 0,2.45747 -10.93294,0 0,5.69687 10.93294,0 0,2.45747 -10.93294,0 0,7.72148 10.93294,0 0,2.45747 z"
         style="font-style:normal;font-weight:normal;font-size:medium;line-height:125%;font-family:sans-serif;letter-spacing:0px;word-spacing:0px;fill:#008000;fill-opacity:1;stroke:none;stroke-width:1px;stroke-linecap:butt;stroke-linejoin:miter;stroke-opacity:0.8745098"
         id="path5106"
         inkscape:connector-curvature="0" />
      <path
         d="m 712.37145,819.93696 q 0,4.20283 -1.36836,7.55393 -1.36836,3.3511 -3.8398,6.18556 l -3.1975,0 0,-0.13962 q 1.07514,-0.96344 2.15028,-2.35973 1.08911,-1.38233 1.91293,-3.09977 0.86569,-1.78725 1.36836,-3.76998 0.51662,-1.98273 0.51662,-4.37039 0,-2.28991 -0.51662,-4.35643 -0.51663,-2.0665 -1.36836,-3.78394 -0.87967,-1.77329 -1.91293,-3.09976 -1.01929,-1.34044 -2.15028,-2.35973 l 0,-0.13964 3.1975,0 q 2.47144,2.83448 3.8398,6.18557 1.36836,3.3511 1.36836,7.55393 z"
         style="font-style:normal;font-weight:normal;font-size:medium;line-height:125%;font-family:sans-serif;letter-spacing:0px;word-spacing:0px;fill:#008000;fill-opacity:1;stroke:none;stroke-width:1px;stroke-linecap:butt;stroke-linejoin:miter;stroke-opacity:0.8745098"
         id="path5108"
         inkscape:connector-curvature="0" />
      <path
         d="m 744.96087,817.00475 -16.56,0 0,-2.23406 16.56,0 0,2.23406 z m 0,5.86442 -16.56,0 0,-2.23406 16.56,0 0,2.23406 z"
         style="font-style:normal;font-weight:normal;font-size:medium;line-height:125%;font-family:sans-serif;letter-spacing:0px;word-spacing:0px;fill:#008000;fill-opacity:1;stroke:none;stroke-width:1px;stroke-linecap:butt;stroke-linejoin:miter;stroke-opacity:0.8745098"
         id="path5110"
         inkscape:connector-curvature="0" />
      <path
         d="m 774.75771,827.92374 -14.07461,0 0,-2.91824 q 1.4661,-1.25666 2.93221,-2.51333 1.48006,-1.25666 2.75069,-2.49936 2.68088,-2.59709 3.67225,-4.11905 0.99136,-1.53593 0.99136,-3.30921 0,-1.6197 -1.07514,-2.52729 -1.06119,-0.92155 -2.9741,-0.92155 -1.27062,0 -2.75069,0.44682 -1.48007,0.44681 -2.89032,1.36836 l -0.13963,0 0,-2.93221 q 0.99136,-0.4887 2.63898,-0.89362 1.66159,-0.40493 3.21147,-0.40493 3.19751,0 5.01269,1.54988 1.81517,1.53592 1.81517,4.17491 0,1.18685 -0.30718,2.2201 -0.29322,1.01929 -0.87967,1.94084 -0.54454,0.8657 -1.28458,1.70348 -0.72608,0.83777 -1.77329,1.85706 -1.49403,1.46611 -3.0858,2.84844 -1.59177,1.36836 -2.9741,2.54125 l 11.18429,0 0,2.38765 z"
         style="font-style:normal;font-weight:normal;font-size:medium;line-height:125%;font-family:sans-serif;letter-spacing:0px;word-spacing:0px;fill:#008000;fill-opacity:1;stroke:none;stroke-width:1px;stroke-linecap:butt;stroke-linejoin:miter;stroke-opacity:0.8745098"
         id="path5112"
         inkscape:connector-curvature="0" />
      <path
         d="m 807.1656,819.93696 -7.60978,0 0,7.60979 -2.31784,0 0,-7.60979 -7.60978,0 0,-2.23407 7.60978,0 0,-7.60978 2.31784,0 0,7.60978 7.60978,0 0,2.23407 z"
         style="font-style:normal;font-weight:normal;font-size:medium;line-height:125%;font-family:sans-serif;letter-spacing:0px;word-spacing:0px;fill:#008000;fill-opacity:1;stroke:none;stroke-width:1px;stroke-linecap:butt;stroke-linejoin:miter;stroke-opacity:0.8745098"
         id="path5114"
         inkscape:connector-curvature="0" />
      <path
         d="m 836.94848,822.07329 -3.08581,0 0,5.85045 -2.68087,0 0,-5.85045 -9.95555,0 0,-3.21147 10.06725,-11.72884 2.56917,0 0,12.70624 3.08581,0 0,2.23407 z m -5.76668,-2.23407 0,-9.38307 -8.0566,9.38307 8.0566,0 z"
         style="font-style:normal;font-weight:normal;font-size:medium;line-height:125%;font-family:sans-serif;letter-spacing:0px;word-spacing:0px;fill:#008000;fill-opacity:1;stroke:none;stroke-width:1px;stroke-linecap:butt;stroke-linejoin:miter;stroke-opacity:0.8745098"
         id="path5116"
         inkscape:connector-curvature="0" />
      <path
         d="m 868.88164,819.93696 -7.60979,0 0,7.60979 -2.31784,0 0,-7.60979 -7.60978,0 0,-2.23407 7.60978,0 0,-7.60978 2.31784,0 0,7.60978 7.60979,0 0,2.23407 z"
         style="font-style:normal;font-weight:normal;font-size:medium;line-height:125%;font-family:sans-serif;letter-spacing:0px;word-spacing:0px;fill:#008000;fill-opacity:1;stroke:none;stroke-width:1px;stroke-linecap:butt;stroke-linejoin:miter;stroke-opacity:0.8745098"
         id="path5118"
         inkscape:connector-curvature="0" />
      <path
         d="m 898.66451,822.07329 -3.0858,0 0,5.85045 -2.68088,0 0,-5.85045 -9.95556,0 0,-3.21147 10.06726,-11.72884 2.56918,0 0,12.70624 3.0858,0 0,2.23407 z m -5.76668,-2.23407 0,-9.38307 -8.0566,9.38307 8.0566,0 z"
         style="font-style:normal;font-weight:normal;font-size:medium;line-height:125%;font-family:sans-serif;letter-spacing:0px;word-spacing:0px;fill:#008000;fill-opacity:1;stroke:none;stroke-width:1px;stroke-linecap:butt;stroke-linejoin:miter;stroke-opacity:0.8745098"
         id="path5120"
         inkscape:connector-curvature="0" />
      <g
         transform="translate(212.8505,0)"
         id="g5150">
        <path
           inkscape:connector-curvature="0"
           id="path5122"
           style="font-style:normal;font-weight:normal;font-size:medium;line-height:125%;font-family:sans-serif;letter-spacing:0px;word-spacing:0px;fill:#008000;fill-opacity:1;stroke:none;stroke-width:1px;stroke-linecap:butt;stroke-linejoin:miter;stroke-opacity:0.8745098"
           d="m 532.11038,852.74978 -16.56001,0 0,-2.23406 16.56001,0 0,2.23406 z m 0,5.86442 -16.56001,0 0,-2.23406 16.56001,0 0,2.23406 z" />
        <path
           inkscape:connector-curvature="0"
           id="path5124"
           style="font-style:normal;font-weight:normal;font-size:medium;line-height:125%;font-family:sans-serif;letter-spacing:0px;word-spacing:0px;fill:#008000;fill-opacity:1;stroke:none;stroke-width:1px;stroke-linecap:butt;stroke-linejoin:miter;stroke-opacity:0.8745098"
           d="m 560.72037,863.66877 -11.2541,0 0,-2.12236 4.3285,0 0,-13.93498 -4.3285,0 0,-1.89895 q 0.87966,0 1.88499,-0.13963 1.00533,-0.15359 1.52196,-0.43285 0.64229,-0.34907 1.00533,-0.87966 0.37699,-0.54456 0.43284,-1.45215 l 2.16426,0 0,18.73822 4.24472,0 0,2.12236 z" />
        <path
           inkscape:connector-curvature="0"
           id="path5126"
           style="font-style:normal;font-weight:normal;font-size:medium;line-height:125%;font-family:sans-serif;letter-spacing:0px;word-spacing:0px;fill:#008000;fill-opacity:1;stroke:none;stroke-width:1px;stroke-linecap:butt;stroke-linejoin:miter;stroke-opacity:0.8745098"
           d="m 580.08691,853.26641 q 0,5.59912 -1.75933,8.22415 -1.74535,2.61106 -5.43156,2.61106 -3.74206,0 -5.47346,-2.65295 -1.71744,-2.65295 -1.71744,-8.15433 0,-5.54328 1.74537,-8.18226 1.74536,-2.65296 5.44553,-2.65296 3.74205,0 5.4595,2.69484 1.73139,2.68088 1.73139,8.11245 z m -3.67224,6.33916 q 0.4887,-1.131 0.65625,-2.65295 0.18153,-1.53592 0.18153,-3.68621 0,-2.12236 -0.18153,-3.6862 -0.16755,-1.56385 -0.67021,-2.65296 -0.4887,-1.07514 -1.34044,-1.61969 -0.83777,-0.54456 -2.16425,-0.54456 -1.31252,0 -2.17822,0.54456 -0.85173,0.54455 -1.3544,1.64762 -0.47473,1.03326 -0.65626,2.69484 -0.16755,1.66158 -0.16755,3.64432 0,2.17821 0.15359,3.64432 0.1536,1.4661 0.65626,2.62502 0.46078,1.08911 1.29855,1.66158 0.85174,0.57248 2.24803,0.57248 1.31251,0 2.17821,-0.54455 0.8657,-0.54456 1.34044,-1.64762 z" />
      </g>
    </g>
    <g
       id="g5215"
       transform="matrix(0.77961284,0,0,0.77961284,27.226243,165.4926)"
       inkscape:export-xdpi="400"
       inkscape:export-ydpi="400">
      <path
         d="m 526.24596,904.0892 q -1.31252,0.62833 -2.49936,0.9774 -1.17289,0.34907 -2.49936,0.34907 -1.68951,0 -3.09976,-0.4887 -1.41026,-0.50266 -2.41559,-1.50799 -1.01929,-1.00533 -1.5778,-2.54125 -0.55852,-1.53592 -0.55852,-3.58847 0,-3.82583 2.09444,-6.00404 2.1084,-2.17822 5.55723,-2.17822 1.34044,0 2.62503,0.377 1.29855,0.377 2.37369,0.92156 l 0,2.91824 -0.13963,0 q -1.20081,-0.93552 -2.48539,-1.43818 -1.27063,-0.50267 -2.48541,-0.50267 -2.23406,0 -3.53261,1.508 -1.28459,1.49403 -1.28459,4.39831 0,2.82051 1.25667,4.34247 1.27062,1.50799 3.56053,1.50799 0.7959,0 1.6197,-0.20944 0.82381,-0.20945 1.48007,-0.54456 0.57248,-0.29322 1.07515,-0.61437 0.50266,-0.33511 0.79588,-0.57247 l 0.13963,0 0,2.89032 z"
         style="font-style:normal;font-weight:normal;font-size:medium;line-height:125%;font-family:sans-serif;letter-spacing:0px;word-spacing:0px;fill:#ff0000;fill-opacity:1;stroke:none;stroke-width:1px;stroke-linecap:butt;stroke-linejoin:miter;stroke-opacity:1"
         id="path5156"
         inkscape:connector-curvature="0" />
      <path
         d="m 542.91766,897.2753 q 0,3.81187 -1.9548,6.01801 -1.95481,2.20614 -5.23609,2.20614 -3.30921,0 -5.26401,-2.20614 -1.94084,-2.20614 -1.94084,-6.01801 0,-3.81187 1.94084,-6.01801 1.9548,-2.2201 5.26401,-2.2201 3.28128,0 5.23609,2.2201 1.9548,2.20614 1.9548,6.01801 z m -2.7088,0 q 0,-3.02995 -1.18684,-4.49605 -1.18685,-1.48007 -3.29525,-1.48007 -2.13632,0 -3.32317,1.48007 -1.17288,1.4661 -1.17288,4.49605 0,2.93221 1.18684,4.45417 1.18685,1.50799 3.30921,1.50799 2.09444,0 3.28128,-1.49403 1.20081,-1.50799 1.20081,-4.46813 z"
         style="font-style:normal;font-weight:normal;font-size:medium;line-height:125%;font-family:sans-serif;letter-spacing:0px;word-spacing:0px;fill:#ff0000;fill-opacity:1;stroke:none;stroke-width:1px;stroke-linecap:butt;stroke-linejoin:miter;stroke-opacity:1"
         id="path5158"
         inkscape:connector-curvature="0" />
      <path
         d="m 559.92448,905.0666 -2.62503,0 0,-1.7314 q -1.32647,1.04722 -2.54125,1.60574 -1.21476,0.55851 -2.68087,0.55851 -2.45747,0 -3.82584,-1.49403 -1.36836,-1.50799 -1.36836,-4.41228 l 0,-10.1231 2.62502,0 0,8.88041 q 0,1.18684 0.11171,2.03858 0.1117,0.83778 0.47474,1.43818 0.377,0.61436 0.9774,0.89362 0.60041,0.27926 1.74536,0.27926 1.01929,0 2.22011,-0.53059 1.21477,-0.53059 2.26198,-1.3544 l 0,-11.64506 2.62503,0 0,15.59656 z m -1.75932,-18.10988 -2.22011,0 -2.58313,-3.57451 -2.56918,3.57451 -2.16424,0 3.18353,-5.29195 3.16958,0 3.18355,5.29195 z"
         style="font-style:normal;font-weight:normal;font-size:medium;line-height:125%;font-family:sans-serif;letter-spacing:0px;word-spacing:0px;fill:#ff0000;fill-opacity:1;stroke:none;stroke-width:1px;stroke-linecap:butt;stroke-linejoin:miter;stroke-opacity:1"
         id="path5160"
         inkscape:connector-curvature="0" />
      <path
         d="m 573.18924,904.92697 q -0.74003,0.19548 -1.6197,0.32115 -0.8657,0.12567 -1.54988,0.12567 -2.38765,0 -3.63035,-1.28459 -1.24271,-1.28459 -1.24271,-4.11906 l 0,-8.29396 -1.77328,0 0,-2.20614 1.77328,0 0,-4.48209 2.62503,0 0,4.48209 5.41761,0 0,2.20614 -5.41761,0 0,7.10712 q 0,1.22873 0.0558,1.92688 0.0558,0.68418 0.39096,1.28458 0.30719,0.55852 0.83777,0.82382 0.54456,0.25133 1.64763,0.25133 0.64229,0 1.34044,-0.18152 0.69814,-0.19548 1.00532,-0.32114 l 0.13963,0 0,2.35972 z"
         style="font-style:normal;font-weight:normal;font-size:medium;line-height:125%;font-family:sans-serif;letter-spacing:0px;word-spacing:0px;fill:#ff0000;fill-opacity:1;stroke:none;stroke-width:1px;stroke-linecap:butt;stroke-linejoin:miter;stroke-opacity:1"
         id="path5162"
         inkscape:connector-curvature="0" />
      <path
         d="m 584.7226,910.81931 -3.19751,0 q -2.47143,-2.83446 -3.83979,-6.18556 -1.36837,-3.3511 -1.36837,-7.55393 0,-4.20283 1.36837,-7.55393 1.36836,-3.35109 3.83979,-6.18557 l 3.19751,0 0,0.13964 q -1.131,1.01929 -2.16426,2.35973 -1.01929,1.32647 -1.89895,3.09976 -0.83777,1.71744 -1.36836,3.78394 -0.51663,2.06652 -0.51663,4.35643 0,2.38766 0.50267,4.37039 0.51663,1.98273 1.38232,3.76998 0.83778,1.71744 1.91292,3.09977 1.07514,1.39629 2.15029,2.35973 l 0,0.13962 z"
         style="font-style:normal;font-weight:normal;font-size:medium;line-height:125%;font-family:sans-serif;letter-spacing:0px;word-spacing:0px;fill:#ff0000;fill-opacity:1;stroke:none;stroke-width:1px;stroke-linecap:butt;stroke-linejoin:miter;stroke-opacity:1"
         id="path5164"
         inkscape:connector-curvature="0" />
      <path
         d="m 605.9881,905.0666 -2.94617,0 -2.03859,-5.7946 -8.99211,0 -2.03858,5.7946 -2.80654,0 7.56789,-20.79076 3.6862,0 7.5679,20.79076 z m -5.83649,-8.1683 -3.64432,-10.20688 -3.65829,10.20688 7.30261,0 z"
         style="font-style:normal;font-weight:normal;font-size:medium;line-height:125%;font-family:sans-serif;letter-spacing:0px;word-spacing:0px;fill:#ff0000;fill-opacity:1;stroke:none;stroke-width:1px;stroke-linecap:butt;stroke-linejoin:miter;stroke-opacity:1"
         id="path5166"
         inkscape:connector-curvature="0" />
      <path
         d="m 616.53009,897.23341 -8.71285,0 0,-2.52728 8.71285,0 0,2.52728 z"
         style="font-style:normal;font-weight:normal;font-size:medium;line-height:125%;font-family:sans-serif;letter-spacing:0px;word-spacing:0px;fill:#ff0000;fill-opacity:1;stroke:none;stroke-width:1px;stroke-linecap:butt;stroke-linejoin:miter;stroke-opacity:1"
         id="path5168"
         inkscape:connector-curvature="0" />
      <path
         d="m 639.05225,894.69216 q 0,2.83447 -1.2427,5.13835 -1.22873,2.30388 -3.28128,3.57451 -1.42421,0.87966 -3.18354,1.27062 -1.74537,0.39096 -4.60776,0.39096 l -5.25005,0 0,-20.79076 5.1942,0 q 3.04392,0 4.83117,0.44681 1.80121,0.43285 3.04391,1.20081 2.12236,1.32647 3.3092,3.53261 1.18685,2.20615 1.18685,5.23609 z m -2.89032,-0.0419 q 0,-2.44351 -0.85173,-4.11906 -0.85174,-1.67554 -2.54125,-2.63899 -1.22874,-0.69814 -2.61107,-0.96343 -1.38232,-0.27926 -3.3092,-0.27926 l -2.5971,0 0,16.04337 2.5971,0 q 1.99669,0 3.47676,-0.29322 1.49403,-0.29322 2.73672,-1.08911 1.54989,-0.99137 2.31785,-2.61106 0.78192,-1.6197 0.78192,-4.04924 z"
         style="font-style:normal;font-weight:normal;font-size:medium;line-height:125%;font-family:sans-serif;letter-spacing:0px;word-spacing:0px;fill:#ff0000;fill-opacity:1;stroke:none;stroke-width:1px;stroke-linecap:butt;stroke-linejoin:miter;stroke-opacity:1"
         id="path5170"
         inkscape:connector-curvature="0" />
      <path
         d="m 651.6049,897.23341 -8.71285,0 0,-2.52728 8.71285,0 0,2.52728 z"
         style="font-style:normal;font-weight:normal;font-size:medium;line-height:125%;font-family:sans-serif;letter-spacing:0px;word-spacing:0px;fill:#ff0000;fill-opacity:1;stroke:none;stroke-width:1px;stroke-linecap:butt;stroke-linejoin:miter;stroke-opacity:1"
         id="path5172"
         inkscape:connector-curvature="0" />
      <path
         d="m 670.25934,905.0666 -13.69761,0 0,-20.79076 13.69761,0 0,2.45747 -10.93295,0 0,5.69687 10.93295,0 0,2.45747 -10.93295,0 0,7.72148 10.93295,0 0,2.45747 z"
         style="font-style:normal;font-weight:normal;font-size:medium;line-height:125%;font-family:sans-serif;letter-spacing:0px;word-spacing:0px;fill:#ff0000;fill-opacity:1;stroke:none;stroke-width:1px;stroke-linecap:butt;stroke-linejoin:miter;stroke-opacity:1"
         id="path5174"
         inkscape:connector-curvature="0" />
      <path
         d="m 682.32329,897.07982 q 0,4.20283 -1.36837,7.55393 -1.36836,3.3511 -3.83979,6.18556 l -3.19751,0 0,-0.13962 q 1.07515,-0.96344 2.15028,-2.35973 1.08911,-1.38233 1.91293,-3.09977 0.86569,-1.78725 1.36836,-3.76998 0.51662,-1.98273 0.51662,-4.37039 0,-2.28991 -0.51662,-4.35643 -0.51663,-2.0665 -1.36836,-3.78394 -0.87967,-1.77329 -1.91293,-3.09976 -1.01929,-1.34044 -2.15028,-2.35973 l 0,-0.13964 3.19751,0 q 2.47143,2.83448 3.83979,6.18557 1.36837,3.3511 1.36837,7.55393 z"
         style="font-style:normal;font-weight:normal;font-size:medium;line-height:125%;font-family:sans-serif;letter-spacing:0px;word-spacing:0px;fill:#ff0000;fill-opacity:1;stroke:none;stroke-width:1px;stroke-linecap:butt;stroke-linejoin:miter;stroke-opacity:1"
         id="path5176"
         inkscape:connector-curvature="0" />
      <path
         d="m 714.9127,894.14761 -16.56,0 0,-2.23406 16.56,0 0,2.23406 z m 0,5.86442 -16.56,0 0,-2.23406 16.56,0 0,2.23406 z"
         style="font-style:normal;font-weight:normal;font-size:medium;line-height:125%;font-family:sans-serif;letter-spacing:0px;word-spacing:0px;fill:#ff0000;fill-opacity:1;stroke:none;stroke-width:1px;stroke-linecap:butt;stroke-linejoin:miter;stroke-opacity:1"
         id="path5178"
         inkscape:connector-curvature="0" />
      <path
         d="m 744.54198,898.46215 q 0,1.45214 -0.53058,2.77862 -0.5306,1.32648 -1.45215,2.23406 -1.00533,0.9774 -2.40162,1.50799 -1.38232,0.51663 -3.21147,0.51663 -1.70347,0 -3.28128,-0.36303 -1.57781,-0.34908 -2.66691,-0.85174 l 0,-2.94617 0.19548,0 q 1.14496,0.72607 2.68088,1.2427 1.53592,0.50266 3.01598,0.50266 0.99137,0 1.91292,-0.27926 0.93551,-0.27926 1.66159,-0.9774 0.61436,-0.6004 0.92155,-1.43818 0.32114,-0.83777 0.32114,-1.94084 0,-1.07515 -0.37699,-1.81518 -0.36304,-0.74003 -1.01929,-1.18685 -0.72608,-0.53059 -1.77329,-0.74003 -1.03326,-0.22341 -2.31785,-0.22341 -1.22873,0 -2.37369,0.16756 -1.13099,0.16755 -1.95481,0.33511 l 0,-10.70955 12.51076,0 0,2.44351 -9.81592,0 0,5.52931 q 0.60041,-0.0558 1.22874,-0.0838 0.62833,-0.028 1.08911,-0.028 1.68951,0 2.96013,0.29323 1.27063,0.27925 2.3318,1.00533 1.11704,0.76796 1.73141,1.98273 0.61436,1.21477 0.61436,3.04391 z"
         style="font-style:normal;font-weight:normal;font-size:medium;line-height:125%;font-family:sans-serif;letter-spacing:0px;word-spacing:0px;fill:#ff0000;fill-opacity:1;stroke:none;stroke-width:1px;stroke-linecap:butt;stroke-linejoin:miter;stroke-opacity:1"
         id="path5180"
         inkscape:connector-curvature="0" />
      <path
         d="m 777.11744,897.07982 -7.60979,0 0,7.60979 -2.31784,0 0,-7.60979 -7.60978,0 0,-2.23407 7.60978,0 0,-7.60978 2.31784,0 0,7.60978 7.60979,0 0,2.23407 z"
         style="font-style:normal;font-weight:normal;font-size:medium;line-height:125%;font-family:sans-serif;letter-spacing:0px;word-spacing:0px;fill:#ff0000;fill-opacity:1;stroke:none;stroke-width:1px;stroke-linecap:butt;stroke-linejoin:miter;stroke-opacity:1"
         id="path5182"
         inkscape:connector-curvature="0" />
      <path
         d="m 806.48142,887.38957 -9.41099,17.67703 -2.98807,0 10.01141,-18.34725 -11.84054,0 0,-2.44351 14.22819,0 0,3.11373 z"
         style="font-style:normal;font-weight:normal;font-size:medium;line-height:125%;font-family:sans-serif;letter-spacing:0px;word-spacing:0px;fill:#ff0000;fill-opacity:1;stroke:none;stroke-width:1px;stroke-linecap:butt;stroke-linejoin:miter;stroke-opacity:1"
         id="path5184"
         inkscape:connector-curvature="0" />
      <g
         transform="translate(182.80233,0)"
         id="g5210">
        <path
           inkscape:connector-curvature="0"
           id="path5186"
           style="font-style:normal;font-weight:normal;font-size:medium;line-height:125%;font-family:sans-serif;letter-spacing:0px;word-spacing:0px;fill:#ff0000;fill-opacity:1;stroke:none;stroke-width:1px;stroke-linecap:butt;stroke-linejoin:miter;stroke-opacity:1"
           d="m 532.11038,929.89264 -16.56001,0 0,-2.23406 16.56001,0 0,2.23406 z m 0,5.86442 -16.56001,0 0,-2.23406 16.56001,0 0,2.23406 z" />
        <path
           inkscape:connector-curvature="0"
           id="path5188"
           style="font-style:normal;font-weight:normal;font-size:medium;line-height:125%;font-family:sans-serif;letter-spacing:0px;word-spacing:0px;fill:#ff0000;fill-opacity:1;stroke:none;stroke-width:1px;stroke-linecap:butt;stroke-linejoin:miter;stroke-opacity:1"
           d="m 560.72037,940.81163 -11.2541,0 0,-2.12236 4.3285,0 0,-13.93498 -4.3285,0 0,-1.89895 q 0.87966,0 1.88499,-0.13963 1.00533,-0.15359 1.52196,-0.43285 0.64229,-0.34907 1.00533,-0.87966 0.37699,-0.54456 0.43284,-1.45215 l 2.16426,0 0,18.73822 4.24472,0 0,2.12236 z" />
        <path
           inkscape:connector-curvature="0"
           id="path5190"
           style="font-style:normal;font-weight:normal;font-size:medium;line-height:125%;font-family:sans-serif;letter-spacing:0px;word-spacing:0px;fill:#ff0000;fill-opacity:1;stroke:none;stroke-width:1px;stroke-linecap:butt;stroke-linejoin:miter;stroke-opacity:1"
           d="m 580.11484,940.81163 -14.07461,0 0,-2.91824 q 1.46611,-1.25666 2.93221,-2.51333 1.48007,-1.25666 2.75069,-2.49936 2.68088,-2.59709 3.67225,-4.11905 0.99136,-1.53592 0.99136,-3.30921 0,-1.6197 -1.07514,-2.52728 -1.06118,-0.92155 -2.9741,-0.92155 -1.27063,0 -2.75069,0.44681 -1.48007,0.44681 -2.89032,1.36836 l -0.13963,0 0,-2.93221 q 0.99137,-0.4887 2.63899,-0.89362 1.66159,-0.40493 3.21146,-0.40493 3.19751,0 5.01269,1.54988 1.81518,1.53593 1.81518,4.17491 0,1.18685 -0.30719,2.2201 -0.29322,1.01929 -0.87966,1.94084 -0.54455,0.8657 -1.28459,1.70348 -0.72607,0.83777 -1.77328,1.85706 -1.49404,1.46611 -3.08581,2.84844 -1.59177,1.36836 -2.9741,2.54125 l 11.18429,0 0,2.38765 z" />
      </g>
    </g>
    <path
       sodipodi:type="star"
       style="opacity:1;fill:#000000;fill-opacity:1;fill-rule:nonzero;stroke:#000000;stroke-width:3;stroke-linecap:round;stroke-linejoin:round;stroke-miterlimit:4;stroke-dasharray:none;stroke-dashoffset:0;stroke-opacity:1"
       id="path4773"
       sodipodi:sides="3"
       sodipodi:cx="396.11478"
       sodipodi:cy="176.46408"
       sodipodi:r1="8.9357119"
       sodipodi:r2="4.4678559"
       sodipodi:arg1="0.74541948"
       sodipodi:arg2="1.792617"
       inkscape:flatsided="true"
       inkscape:rounded="0"
       inkscape:randomized="0"
       d="m 402.68077,182.525 -15.0979,-3.40506 10.49782,-11.37263 z"
       inkscape:transform-center-x="0.52907232"
       inkscape:transform-center-y="-0.75845045"
       transform="matrix(0.5573291,-0.00430329,0.00430329,0.5573291,-0.34005799,699.98103)"
       inkscape:export-xdpi="400"
       inkscape:export-ydpi="400" />
    <path
       transform="matrix(0.41118756,0.37624332,-0.37624332,0.41118756,36.316174,522.84558)"
       inkscape:transform-center-y="1.0590131"
       inkscape:transform-center-x="0.20973675"
       d="m 402.68077,182.525 -15.0979,-3.40506 10.49782,-11.37263 z"
       inkscape:randomized="0"
       inkscape:rounded="0"
       inkscape:flatsided="true"
       sodipodi:arg2="1.792617"
       sodipodi:arg1="0.74541948"
       sodipodi:r2="4.4678559"
       sodipodi:r1="8.9357119"
       sodipodi:cy="176.46408"
       sodipodi:cx="396.11478"
       sodipodi:sides="3"
       id="path4775"
       style="opacity:1;fill:#008000;fill-opacity:1;fill-rule:nonzero;stroke:#008000;stroke-width:3;stroke-linecap:round;stroke-linejoin:round;stroke-miterlimit:4;stroke-dasharray:none;stroke-dashoffset:0;stroke-opacity:1"
       sodipodi:type="star"
       inkscape:export-xdpi="400"
       inkscape:export-ydpi="400" />
    <path
       sodipodi:type="star"
       style="opacity:1;fill:#ff0000;fill-opacity:1;fill-rule:nonzero;stroke:#ff0000;stroke-width:3;stroke-linecap:round;stroke-linejoin:round;stroke-miterlimit:4;stroke-dasharray:none;stroke-dashoffset:0;stroke-opacity:1"
       id="path4777"
       sodipodi:sides="3"
       sodipodi:cx="396.11478"
       sodipodi:cy="176.46408"
       sodipodi:r1="8.9357119"
       sodipodi:r2="4.4678559"
       sodipodi:arg1="0.74541948"
       sodipodi:arg2="1.792617"
       inkscape:flatsided="true"
       inkscape:rounded="0"
       inkscape:randomized="0"
       d="m 402.68077,182.525 -15.0979,-3.40506 10.49782,-11.37263 z"
       inkscape:transform-center-x="-1.2092776"
       inkscape:transform-center-y="0.041137745"
       transform="matrix(0.40323885,-0.38475014,0.38475014,0.40323885,-11.498616,892.40499)"
       inkscape:export-xdpi="400"
       inkscape:export-ydpi="400" />
    <path
       transform="matrix(0.47372408,-0.29363198,0.29363198,0.47372408,-74.737606,918.91066)"
       inkscape:transform-center-y="-0.47160204"
       inkscape:transform-center-x="-0.81411296"
       d="m 402.68077,182.525 -15.0979,-3.40506 10.49782,-11.37263 z"
       inkscape:randomized="0"
       inkscape:rounded="0"
       inkscape:flatsided="true"
       sodipodi:arg2="1.792617"
       sodipodi:arg1="0.74541948"
       sodipodi:r2="4.4678559"
       sodipodi:r1="8.9357119"
       sodipodi:cy="176.46408"
       sodipodi:cx="396.11478"
       sodipodi:sides="3"
       id="path4779"
       style="opacity:1;fill:#000000;fill-opacity:1;fill-rule:nonzero;stroke:#000000;stroke-width:3;stroke-linecap:round;stroke-linejoin:round;stroke-miterlimit:4;stroke-dasharray:none;stroke-dashoffset:0;stroke-opacity:1"
       sodipodi:type="star"
       inkscape:export-xdpi="400"
       inkscape:export-ydpi="400" />
    <path
       sodipodi:type="star"
       style="opacity:1;fill:#0000ff;fill-opacity:1;fill-rule:nonzero;stroke:#0000ff;stroke-width:3;stroke-linecap:round;stroke-linejoin:round;stroke-miterlimit:4;stroke-dasharray:none;stroke-dashoffset:0;stroke-opacity:1"
       id="path4781"
       sodipodi:sides="3"
       sodipodi:cx="396.11478"
       sodipodi:cy="176.46408"
       sodipodi:r1="8.9357119"
       sodipodi:r2="4.4678559"
       sodipodi:arg1="0.74541948"
       sodipodi:arg2="1.792617"
       inkscape:flatsided="true"
       inkscape:rounded="0"
       inkscape:randomized="0"
       d="m 402.68077,182.525 -15.0979,-3.40506 10.49782,-11.37263 z"
       inkscape:transform-center-x="0.21626102"
       inkscape:transform-center-y="-1.0530762"
       transform="matrix(0.55228481,-0.0749382,0.0749382,0.55228481,-98.73661,821.23576)"
       inkscape:export-xdpi="400"
       inkscape:export-ydpi="400" />
    <path
       transform="matrix(0.40592839,-0.38191149,0.38191149,0.40592839,101.02821,981.18593)"
       inkscape:transform-center-y="0.023728496"
       inkscape:transform-center-x="-1.224519"
       d="m 402.68077,182.525 -15.0979,-3.40506 10.49782,-11.37263 z"
       inkscape:randomized="0"
       inkscape:rounded="0"
       inkscape:flatsided="true"
       sodipodi:arg2="1.792617"
       sodipodi:arg1="0.74541948"
       sodipodi:r2="4.4678559"
       sodipodi:r1="8.9357119"
       sodipodi:cy="176.46408"
       sodipodi:cx="396.11478"
       sodipodi:sides="3"
       id="path4783"
       style="opacity:1;fill:#0000ff;fill-opacity:1;fill-rule:nonzero;stroke:#0000ff;stroke-width:3;stroke-linecap:round;stroke-linejoin:round;stroke-miterlimit:4;stroke-dasharray:none;stroke-dashoffset:0;stroke-opacity:1"
       sodipodi:type="star"
       inkscape:export-xdpi="400"
       inkscape:export-ydpi="400" />
    <path
       sodipodi:type="star"
       style="opacity:1;fill:#ff0000;fill-opacity:1;fill-rule:nonzero;stroke:#ff0000;stroke-width:3;stroke-linecap:round;stroke-linejoin:round;stroke-miterlimit:4;stroke-dasharray:none;stroke-dashoffset:0;stroke-opacity:1"
       id="path4785"
       sodipodi:sides="3"
       sodipodi:cx="396.11478"
       sodipodi:cy="176.46408"
       sodipodi:r1="8.9357119"
       sodipodi:r2="4.4678559"
       sodipodi:arg1="0.74541948"
       sodipodi:arg2="1.792617"
       inkscape:flatsided="true"
       inkscape:rounded="0"
       inkscape:randomized="0"
       d="m 402.68077,182.525 -15.0979,-3.40506 10.49782,-11.37263 z"
       inkscape:transform-center-x="0.50009066"
       inkscape:transform-center-y="-0.78660591"
       transform="matrix(0.55723848,-0.01093282,0.01093282,0.55723848,111.23643,794.09326)"
       inkscape:export-xdpi="400"
       inkscape:export-ydpi="400" />
    <path
       transform="matrix(0.37913626,0.40852165,-0.40852165,0.37913626,272.06075,651.83961)"
       inkscape:transform-center-y="1.239268"
       inkscape:transform-center-x="0.006695028"
       d="m 402.68077,182.525 -15.0979,-3.40506 10.49782,-11.37263 z"
       inkscape:randomized="0"
       inkscape:rounded="0"
       inkscape:flatsided="true"
       sodipodi:arg2="1.792617"
       sodipodi:arg1="0.74541948"
       sodipodi:r2="4.4678559"
       sodipodi:r1="8.9357119"
       sodipodi:cy="176.46408"
       sodipodi:cx="396.11478"
       sodipodi:sides="3"
       id="path4787"
       style="opacity:1;fill:#008000;fill-opacity:1;fill-rule:nonzero;stroke:#008000;stroke-width:3;stroke-linecap:round;stroke-linejoin:round;stroke-miterlimit:4;stroke-dasharray:none;stroke-dashoffset:0;stroke-opacity:1"
       sodipodi:type="star"
       inkscape:export-xdpi="400"
       inkscape:export-ydpi="400" />
    <path
       sodipodi:type="star"
       style="opacity:1;fill:#000000;fill-opacity:1;fill-rule:nonzero;stroke:#000000;stroke-width:3;stroke-linecap:round;stroke-linejoin:round;stroke-miterlimit:4;stroke-dasharray:none;stroke-dashoffset:0;stroke-opacity:1"
       id="path4789"
       sodipodi:sides="3"
       sodipodi:cx="396.11478"
       sodipodi:cy="176.46408"
       sodipodi:r1="8.9357119"
       sodipodi:r2="4.4678559"
       sodipodi:arg1="0.74541948"
       sodipodi:arg2="1.792617"
       inkscape:flatsided="true"
       inkscape:rounded="0"
       inkscape:randomized="0"
       d="m 402.68077,182.525 -15.0979,-3.40506 10.49782,-11.37263 z"
       inkscape:transform-center-x="0.24977618"
       inkscape:transform-center-y="1.0224755"
       transform="matrix(0.41720961,0.3695543,-0.3695543,0.41720961,233.16699,524.69644)"
       inkscape:export-xdpi="400"
       inkscape:export-ydpi="400" />
    <path
       sodipodi:type="star"
       style="opacity:1;fill:#008000;fill-opacity:1;fill-rule:nonzero;stroke:#008000;stroke-width:3;stroke-linecap:round;stroke-linejoin:round;stroke-miterlimit:4;stroke-dasharray:none;stroke-dashoffset:0;stroke-opacity:1"
       id="path4791"
       sodipodi:sides="3"
       sodipodi:cx="396.11478"
       sodipodi:cy="176.46408"
       sodipodi:r1="8.9357119"
       sodipodi:r2="4.4678559"
       sodipodi:arg1="0.74541948"
       sodipodi:arg2="1.792617"
       inkscape:flatsided="true"
       inkscape:rounded="0"
       inkscape:randomized="0"
       d="m 402.68077,182.525 -15.0979,-3.40506 10.49782,-11.37263 z"
       inkscape:transform-center-x="-1.2149851"
       inkscape:transform-center-y="0.034604124"
       transform="matrix(0.4042463,-0.38369151,0.38369151,0.4042463,101.58014,813.84958)"
       inkscape:export-xdpi="400"
       inkscape:export-ydpi="400" />
  </g>
</svg>
