<?xml version="1.0" encoding="UTF-8" standalone="no"?>
<!-- Created with Inkscape (http://www.inkscape.org/) -->

<svg
   xmlns:dc="http://purl.org/dc/elements/1.1/"
   xmlns:cc="http://creativecommons.org/ns#"
   xmlns:rdf="http://www.w3.org/1999/02/22-rdf-syntax-ns#"
   xmlns:svg="http://www.w3.org/2000/svg"
   xmlns="http://www.w3.org/2000/svg"
   xmlns:sodipodi="http://sodipodi.sourceforge.net/DTD/sodipodi-0.dtd"
   xmlns:inkscape="http://www.inkscape.org/namespaces/inkscape"
   width="393.63477mm"
   height="102.38169mm"
   viewBox="0 0 1394.7689 362.76977"
   id="svg4946"
   version="1.1"
   inkscape:version="0.91 r13725"
   sodipodi:docname="cycles.svg">
  <defs
     id="defs4948" />
  <sodipodi:namedview
     id="base"
     pagecolor="#ffffff"
     bordercolor="#666666"
     borderopacity="1.0"
     inkscape:pageopacity="0.0"
     inkscape:pageshadow="2"
     inkscape:zoom="0.49497474"
     inkscape:cx="737.94011"
     inkscape:cy="328.02006"
     inkscape:document-units="px"
     inkscape:current-layer="layer1"
     showgrid="false"
     inkscape:snap-center="true"
     inkscape:snap-global="false"
     inkscape:window-width="1280"
     inkscape:window-height="657"
     inkscape:window-x="-8"
     inkscape:window-y="-8"
     inkscape:window-maximized="1"
     fit-margin-top="10"
     fit-margin-left="10"
     fit-margin-bottom="10"
     fit-margin-right="10" />
  <metadata
     id="metadata4951">
    <rdf:RDF>
      <cc:Work
         rdf:about="">
        <dc:format>image/svg+xml</dc:format>
        <dc:type
           rdf:resource="http://purl.org/dc/dcmitype/StillImage" />
        <dc:title></dc:title>
      </cc:Work>
    </rdf:RDF>
  </metadata>
  <g
     inkscape:label="Calque 1"
     inkscape:groupmode="layer"
     id="layer1"
     transform="translate(-13.574551,-32.220881)">
    <path
       style="fill:none;fill-rule:evenodd;stroke:#000000;stroke-width:3;stroke-linecap:butt;stroke-linejoin:miter;stroke-miterlimit:4;stroke-dasharray:none;stroke-opacity:1"
       d="M 81.317276,99.963606 201.02034,212.09054 81.317276,327.24793"
       id="path5531"
       inkscape:connector-curvature="0" />
    <path
       style="fill:none;fill-rule:evenodd;stroke:#000000;stroke-width:3;stroke-linecap:butt;stroke-linejoin:miter;stroke-miterlimit:4;stroke-dasharray:none;stroke-opacity:1"
       d="M 560.12958,99.963606 440.42648,212.09054 320.72342,327.24793 201.02034,212.09054 320.72342,99.963606 560.12958,327.24793"
       id="path5533"
       inkscape:connector-curvature="0" />
    <g
       id="g5527"
       transform="translate(0,11.791968)">
      <circle
         r="31.01244"
         cy="315.45596"
         cx="81.317276"
         id="path5494"
         style="opacity:1;fill:#ffffff;fill-opacity:1;fill-rule:nonzero;stroke:#000000;stroke-width:2.59442925;stroke-linecap:round;stroke-linejoin:round;stroke-miterlimit:4;stroke-dasharray:none;stroke-dashoffset:0;stroke-opacity:1" />
      <circle
         style="opacity:1;fill:#ffffff;fill-opacity:1;fill-rule:nonzero;stroke:#000000;stroke-width:2.59442925;stroke-linecap:round;stroke-linejoin:round;stroke-miterlimit:4;stroke-dasharray:none;stroke-dashoffset:0;stroke-opacity:1"
         id="circle5505"
         cx="81.317276"
         cy="88.171638"
         r="31.01244" />
    </g>
    <circle
       style="opacity:1;fill:#ffffff;fill-opacity:1;fill-rule:nonzero;stroke:#000000;stroke-width:2.59442925;stroke-linecap:round;stroke-linejoin:round;stroke-miterlimit:4;stroke-dasharray:none;stroke-dashoffset:0;stroke-opacity:1"
       id="circle5507"
       cx="201.02034"
       cy="212.09053"
       r="31.01244" />
    <g
       id="g5523"
       transform="translate(2.0202942,11.791968)">
      <circle
         style="opacity:1;fill:#ffffff;fill-opacity:1;fill-rule:nonzero;stroke:#000000;stroke-width:2.59442925;stroke-linecap:round;stroke-linejoin:round;stroke-miterlimit:4;stroke-dasharray:none;stroke-dashoffset:0;stroke-opacity:1"
         id="circle5509"
         cx="318.70312"
         cy="88.171638"
         r="31.01244" />
      <circle
         r="31.01244"
         cy="315.45596"
         cx="318.70312"
         id="circle5511"
         style="opacity:1;fill:#ffffff;fill-opacity:1;fill-rule:nonzero;stroke:#000000;stroke-width:2.59442925;stroke-linecap:round;stroke-linejoin:round;stroke-miterlimit:4;stroke-dasharray:none;stroke-dashoffset:0;stroke-opacity:1" />
    </g>
    <circle
       r="31.01244"
       cy="211.9518"
       cx="440.42648"
       id="circle5513"
       style="opacity:1;fill:#ffffff;fill-opacity:1;fill-rule:nonzero;stroke:#000000;stroke-width:2.59442925;stroke-linecap:round;stroke-linejoin:round;stroke-miterlimit:4;stroke-dasharray:none;stroke-dashoffset:0;stroke-opacity:1" />
    <g
       id="g5519"
       transform="translate(0,11.791968)">
      <circle
         r="31.01244"
         cy="88.171638"
         cx="560.12958"
         id="circle5515"
         style="opacity:1;fill:#ffffff;fill-opacity:1;fill-rule:nonzero;stroke:#000000;stroke-width:2.59442925;stroke-linecap:round;stroke-linejoin:round;stroke-miterlimit:4;stroke-dasharray:none;stroke-dashoffset:0;stroke-opacity:1" />
      <circle
         style="opacity:1;fill:#ffffff;fill-opacity:1;fill-rule:nonzero;stroke:#000000;stroke-width:2.59442925;stroke-linecap:round;stroke-linejoin:round;stroke-miterlimit:4;stroke-dasharray:none;stroke-dashoffset:0;stroke-opacity:1"
         id="circle5517"
         cx="560.12958"
         cy="315.45596"
         r="31.01244" />
    </g>
    <g
       id="g5547"
       transform="translate(-1.5123248,12.157886)">
      <path
         transform="matrix(-0.01002718,-0.99994973,0.99994973,-0.01002718,0,0)"
         d="m -146.44312,320.21539 a 56.568542,56.568542 0 0 1 -48.56131,55.99897 56.568542,56.568542 0 0 1 -62.30894,-40.14575 56.568542,56.568542 0 0 1 30.92176,-67.36416 56.568542,56.568542 0 0 1 71.06283,21.07506"
         sodipodi:open="true"
         sodipodi:end="5.7150806"
         sodipodi:start="0"
         sodipodi:ry="56.568542"
         sodipodi:rx="56.568542"
         sodipodi:cy="320.21539"
         sodipodi:cx="-203.01166"
         sodipodi:type="arc"
         id="path5535"
         style="opacity:1;fill:none;fill-opacity:1;fill-rule:nonzero;stroke:#d40000;stroke-width:3;stroke-linecap:round;stroke-linejoin:round;stroke-miterlimit:4;stroke-dasharray:none;stroke-dashoffset:0;stroke-opacity:1" />
      <path
         transform="matrix(0.66945987,0.74284823,-0.74284823,0.66945987,230.12408,-186.56011)"
         inkscape:transform-center-y="1.5468577"
         inkscape:transform-center-x="-0.037716617"
         d="m 299.28571,182.00506 -10.67582,-2.40774 7.42307,-8.04166 z"
         inkscape:randomized="0"
         inkscape:rounded="0"
         inkscape:flatsided="true"
         sodipodi:arg2="1.792617"
         sodipodi:arg1="0.74541948"
         sodipodi:r2="3.1592512"
         sodipodi:r1="6.3185024"
         sodipodi:cy="177.71935"
         sodipodi:cx="294.64285"
         sodipodi:sides="3"
         id="path5537"
         style="opacity:1;fill:none;fill-opacity:1;fill-rule:nonzero;stroke:#d40000;stroke-width:3;stroke-linecap:round;stroke-linejoin:round;stroke-miterlimit:4;stroke-dasharray:none;stroke-dashoffset:0;stroke-opacity:1"
         sodipodi:type="star" />
    </g>
    <g
       transform="matrix(1.143461,0,0,1.143461,-36.356057,-16.923166)"
       style="font-style:normal;font-weight:normal;font-size:17.5px;line-height:125%;font-family:sans-serif;letter-spacing:0px;word-spacing:0px;fill:#d40000;fill-opacity:1;stroke:none;stroke-width:1px;stroke-linecap:butt;stroke-linejoin:miter;stroke-opacity:1"
       id="flowRoot5539">
      <path
         d="m 293.41357,206.28777 q -1.14746,0.54932 -2.18505,0.85449 -1.0254,0.30518 -2.18506,0.30518 -1.47705,0 -2.70996,-0.42725 -1.23291,-0.43945 -2.11182,-1.31836 -0.89111,-0.8789 -1.37939,-2.22168 -0.48829,-1.34277 -0.48829,-3.13721 0,-3.34472 1.83106,-5.24902 1.84326,-1.9043 4.8584,-1.9043 1.17187,0 2.29492,0.32959 1.13525,0.32959 2.07519,0.80567 l 0,2.55127 -0.12207,0 q -1.0498,-0.81787 -2.17285,-1.25733 -1.11084,-0.43945 -2.17285,-0.43945 -1.95312,0 -3.08838,1.31836 -1.12305,1.30615 -1.12305,3.84521 0,2.46583 1.09864,3.79639 1.11084,1.31836 3.11279,1.31836 0.6958,0 1.41602,-0.1831 0.72021,-0.18311 1.29394,-0.47608 0.50049,-0.25635 0.93994,-0.53711 0.43946,-0.29297 0.6958,-0.50049 l 0.12207,0 0,2.52686 z"
         style="font-size:25px;fill:#d40000;fill-opacity:1"
         id="path4330" />
      <path
         d="m 308.15967,193.50701 -7.95899,18.66455 -2.45361,0 2.53906,-5.68848 -5.43213,-12.97607 2.49024,0 4.18701,10.10742 4.22363,-10.10742 2.40479,0 z"
         style="font-size:25px;fill:#d40000;fill-opacity:1"
         id="path4332" />
      <path
         d="m 321.05029,206.28777 q -1.14746,0.54932 -2.18506,0.85449 -1.02539,0.30518 -2.18505,0.30518 -1.47706,0 -2.70997,-0.42725 -1.23291,-0.43945 -2.11181,-1.31836 -0.89111,-0.8789 -1.3794,-2.22168 -0.48828,-1.34277 -0.48828,-3.13721 0,-3.34472 1.83106,-5.24902 1.84326,-1.9043 4.8584,-1.9043 1.17187,0 2.29492,0.32959 1.13525,0.32959 2.07519,0.80567 l 0,2.55127 -0.12207,0 q -1.0498,-0.81787 -2.17285,-1.25733 -1.11084,-0.43945 -2.17285,-0.43945 -1.95313,0 -3.08838,1.31836 -1.12305,1.30615 -1.12305,3.84521 0,2.46583 1.09864,3.79639 1.11084,1.31836 3.11279,1.31836 0.6958,0 1.41602,-0.1831 0.72021,-0.18311 1.29394,-0.47608 0.50049,-0.25635 0.93994,-0.53711 0.43945,-0.29297 0.6958,-0.50049 l 0.12207,0 0,2.52686 z"
         style="font-size:25px;fill:#d40000;fill-opacity:1"
         id="path4334" />
      <path
         d="m 326.32373,207.14226 -2.29492,0 0,-18.99414 2.29492,0 0,18.99414 z"
         style="font-size:25px;fill:#d40000;fill-opacity:1"
         id="path4336" />
      <path
         d="m 342.20508,200.56267 -10.04639,0 q 0,1.25733 0.37842,2.19727 0.37842,0.92773 1.0376,1.52588 0.63476,0.58593 1.50146,0.8789 0.87891,0.29297 1.92871,0.29297 1.3916,0 2.79541,-0.54932 1.41602,-0.56152 2.01416,-1.09863 l 0.12207,0 0,2.50244 q -1.15966,0.48828 -2.36816,0.81787 -1.2085,0.32959 -2.53906,0.32959 -3.39356,0 -5.29785,-1.83105 -1.9043,-1.84326 -1.9043,-5.22461 0,-3.34473 1.81885,-5.31006 1.83105,-1.96533 4.80957,-1.96533 2.75879,0 4.24804,1.61133 1.50147,1.61133 1.50147,4.57763 l 0,1.24512 z m -2.23389,-1.75781 q -0.0122,-1.80664 -0.91553,-2.79541 -0.89111,-0.98877 -2.72216,-0.98877 -1.84327,0 -2.9419,1.08642 -1.08642,1.08643 -1.23291,2.69776 l 7.8125,0 z"
         style="font-size:25px;fill:#d40000;fill-opacity:1"
         id="path4338" />
    </g>
    <g
       transform="translate(82.142857,173.24148)"
       style="font-style:normal;font-weight:normal;font-size:20.01056671px;line-height:125%;font-family:sans-serif;letter-spacing:0px;word-spacing:0px;fill:#d40000;fill-opacity:1;stroke:none;stroke-width:1px;stroke-linecap:butt;stroke-linejoin:miter;stroke-opacity:1"
       id="flowRoot5551">
      <path
         d="m 172.93755,114.49377 q 0,2.69395 -2.1077,4.48061 -2.09374,1.78665 -5.27622,1.78665 -3.3779,0 -5.38789,-1.74478 -1.99603,-1.74478 -1.99603,-4.46664 0,-1.73083 1.00499,-3.12665 1.005,-1.40979 2.83353,-2.23333 l 0,-0.0837 q -1.67499,-0.89333 -2.48457,-1.95415 -0.79562,-1.06083 -0.79562,-2.65207 0,-2.34499 1.92624,-3.90832 1.92624,-1.563323 4.89935,-1.563323 3.11269,0 4.96914,1.493533 1.85645,1.49354 1.85645,3.79665 0,1.40978 -0.87937,2.77769 -0.87937,1.35396 -2.58228,2.12166 l 0,0.0837 q 1.95416,0.8375 2.98707,2.06582 1.03291,1.22833 1.03291,3.12665 z m -3.30811,-10.14765 q 0,-1.49354 -1.15854,-2.37291 -1.14457,-0.89333 -2.93123,-0.89333 -1.75874,0 -2.88936,0.8375 -1.11666,0.83749 -1.11666,2.26124 0,1.00499 0.55833,1.74478 0.57229,0.72583 1.71686,1.29812 0.51646,0.25125 1.47958,0.65604 0.97708,0.40479 1.89832,0.66999 1.38187,-0.92124 1.91229,-1.91228 0.53041,-0.99104 0.53041,-2.28915 z m 0.43271,10.41286 q 0,-1.28416 -0.57229,-2.05186 -0.55833,-0.78167 -2.20541,-1.56333 -0.65604,-0.30708 -1.4377,-0.57229 -0.78166,-0.26521 -2.07978,-0.73979 -1.25624,0.68396 -2.02395,1.85645 -0.75375,1.1725 -0.75375,2.65207 0,1.88437 1.29812,3.1127 1.29812,1.22832 3.29415,1.22832 2.03791,0 3.25228,-1.04687 1.22833,-1.04687 1.22833,-2.8754 z"
         style="font-size:28.58652496px;fill:#d40000;fill-opacity:1"
         id="path4341" />
    </g>
    <g
       transform="translate(227.14286,173.24148)"
       style="font-style:normal;font-weight:normal;font-size:20.01056671px;line-height:125%;font-family:sans-serif;letter-spacing:0px;word-spacing:0px;fill:#000000;fill-opacity:1;stroke:none;stroke-width:1px;stroke-linecap:butt;stroke-linejoin:miter;stroke-opacity:1"
       id="flowRoot5559">
      <path
         d="m 172.83984,102.61529 -9.40787,17.67116 -2.98707,0 10.00808,-18.34116 -11.83661,0 0,-2.442692 14.22347,0 0,3.112692 z"
         style="font-size:28.58652496px;fill:#000000;fill-opacity:1"
         id="path4353" />
    </g>
    <g
       transform="translate(226.19173,34.151177)"
       style="font-style:normal;font-weight:normal;font-size:20.01056671px;line-height:125%;font-family:sans-serif;letter-spacing:0px;word-spacing:0px;fill:#000000;fill-opacity:1;stroke:none;stroke-width:1px;stroke-linecap:butt;stroke-linejoin:miter;stroke-opacity:1"
       id="flowRoot5567">
      <path
         d="m 173.25859,114.43794 -3.08478,0 0,5.84851 -2.67998,0 0,-5.84851 -9.95225,0 0,-3.2104 10.06391,-11.724942 2.56832,0 0,12.702022 3.08478,0 0,2.23332 z m -5.76476,-2.23332 0,-9.37995 -8.05392,9.37995 8.05392,0 z"
         style="font-size:28.58652496px;fill:#000000;fill-opacity:1"
         id="path4327" />
    </g>
    <g
       transform="translate(84.807055,34.151177)"
       style="font-style:normal;font-weight:normal;font-size:20.01056671px;line-height:125%;font-family:sans-serif;letter-spacing:0px;word-spacing:0px;fill:#000000;fill-opacity:1;stroke:none;stroke-width:1px;stroke-linecap:butt;stroke-linejoin:miter;stroke-opacity:1"
       id="flowRoot5575">
      <path
         d="m 170.95548,110.27838 q 0.66999,0.6002 1.1027,1.50749 0.4327,0.90729 0.4327,2.34499 0,1.42374 -0.51645,2.61019 -0.51646,1.18646 -1.45166,2.06583 -1.04687,0.97708 -2.47061,1.45166 -1.40979,0.46062 -3.09874,0.46062 -1.73082,0 -3.40581,-0.41875 -1.675,-0.40479 -2.74978,-0.89333 l 0,-2.91727 0.20937,0 q 1.18645,0.78166 2.79165,1.29811 1.6052,0.51646 3.09874,0.51646 0.87937,0 1.87041,-0.29312 0.99103,-0.29313 1.6052,-0.86542 0.64208,-0.61416 0.94916,-1.35395 0.32104,-0.73979 0.32104,-1.8704 0,-1.11667 -0.36292,-1.8425 -0.34895,-0.73978 -0.97708,-1.15853 -0.62812,-0.43271 -1.52145,-0.58625 -0.89332,-0.1675 -1.92624,-0.1675 l -1.25624,0 0,-2.31707 0.97708,0 q 2.12165,0 3.3779,-0.87937 1.2702,-0.89333 1.2702,-2.59624 0,-0.75374 -0.32104,-1.31207 -0.32104,-0.57229 -0.89333,-0.93521 -0.6002,-0.36291 -1.28416,-0.5025 -0.68395,-0.13958 -1.54937,-0.13958 -1.32603,0 -2.81957,0.47458 -1.49353,0.47458 -2.81957,1.34 l -0.13958,0 0,-2.91728 q 0.99104,-0.48854 2.63811,-0.89333 1.66104,-0.418748 3.21041,-0.418748 1.52145,0 2.67998,0.279165 1.15854,0.279166 2.09374,0.893333 1.005,0.66999 1.52145,1.61915 0.51646,0.94917 0.51646,2.21937 0,1.73082 -1.22833,3.02894 -1.21437,1.28416 -2.8754,1.61916 l 0,0.19542 q 0.66999,0.11166 1.53541,0.47458 0.86541,0.34895 1.46562,0.87937 z"
         style="font-size:28.58652496px;fill:#000000;fill-opacity:1"
         id="path4350" />
    </g>
    <g
       transform="translate(-11.204489,34.186073)"
       style="font-style:normal;font-weight:normal;font-size:20.01056671px;line-height:125%;font-family:sans-serif;letter-spacing:0px;word-spacing:0px;fill:#000000;fill-opacity:1;stroke:none;stroke-width:1px;stroke-linecap:butt;stroke-linejoin:miter;stroke-opacity:1"
       id="flowRoot5583">
      <path
         d="m 171.59756,120.28645 -11.25037,0 0,-2.12165 4.32707,0 0,-13.93035 -4.32707,0 0,-1.89832 q 0.87937,0 1.88437,-0.13959 1.00499,-0.15354 1.52145,-0.4327 0.64208,-0.34896 1.005,-0.87937 0.37687,-0.54438 0.4327,-1.451663 l 2.16353,0 0,18.731993 4.24332,0 0,2.12165 z"
         style="font-size:28.58652496px;fill:#000000;fill-opacity:1"
         id="path4347" />
    </g>
    <g
       transform="translate(-11.428566,173.45783)"
       style="font-style:normal;font-weight:normal;font-size:20.01056671px;line-height:125%;font-family:sans-serif;letter-spacing:0px;word-spacing:0px;fill:#000000;fill-opacity:1;stroke:none;stroke-width:1px;stroke-linecap:butt;stroke-linejoin:miter;stroke-opacity:1"
       id="flowRoot5591">
      <path
         d="m 172.78401,120.28645 -14.06993,0 0,-2.91727 q 1.46562,-1.25625 2.93123,-2.51249 1.47958,-1.25625 2.74978,-2.49853 2.67999,-2.59624 3.67102,-4.11769 0.99104,-1.53541 0.99104,-3.30811 0,-1.61916 -1.07479,-2.52644 -1.06082,-0.92125 -2.97311,-0.92125 -1.2702,0 -2.74977,0.44667 -1.47958,0.44666 -2.88936,1.36791 l -0.13959,0 0,-2.93124 q 0.99104,-0.488539 2.63812,-0.893328 1.66103,-0.40479 3.2104,-0.40479 3.19644,0 5.01101,1.549368 1.81458,1.53541 1.81458,4.17352 0,1.18645 -0.30708,2.21936 -0.29313,1.01896 -0.87938,1.9402 -0.54437,0.86542 -1.28416,1.70291 -0.72583,0.8375 -1.7727,1.85645 -1.49353,1.46562 -3.08477,2.84749 -1.59124,1.36791 -2.97311,2.5404 l 11.18057,0 0,2.38686 z"
         style="font-size:28.58652496px;fill:#000000;fill-opacity:1"
         id="path4344" />
    </g>
    <g
       transform="translate(325.00001,173.22054)"
       style="font-style:normal;font-weight:normal;font-size:20.01056671px;line-height:125%;font-family:sans-serif;letter-spacing:0px;word-spacing:0px;fill:#000000;fill-opacity:1;stroke:none;stroke-width:1px;stroke-linecap:butt;stroke-linejoin:miter;stroke-opacity:1"
       id="flowRoot5599">
      <path
         d="m 173.09109,113.54461 q 0,3.16853 -2.09374,5.17852 -2.07978,1.99603 -5.10872,1.99603 -1.53541,0 -2.79166,-0.47458 -1.25624,-0.47458 -2.21936,-1.40979 -1.20041,-1.15853 -1.85645,-3.07081 -0.64208,-1.91229 -0.64208,-4.60623 0,-2.76374 0.58625,-4.89935 0.6002,-2.13562 1.89832,-3.79665 1.22833,-1.57728 3.16853,-2.45665 1.94019,-0.893333 4.52247,-0.893333 0.82354,0 1.38187,0.06979 0.55833,0.06979 1.13062,0.251249 l 0,2.666033 -0.13958,0 q -0.39083,-0.20938 -1.18645,-0.39084 -0.78167,-0.19541 -1.6052,-0.19541 -3.00103,0 -4.78769,1.88436 -1.78666,1.87041 -2.07978,5.06685 1.17249,-0.71187 2.30311,-1.07478 1.14458,-0.37688 2.63812,-0.37688 1.32603,0 2.33103,0.25125 1.01895,0.23729 2.07978,0.97708 1.22832,0.85146 1.84249,2.14957 0.62812,1.29812 0.62812,3.15457 z m -2.83353,0.11167 q 0,-1.29812 -0.39083,-2.14957 -0.37687,-0.85146 -1.25624,-1.47958 -0.64208,-0.44667 -1.42375,-0.58625 -0.78166,-0.13958 -1.63311,-0.13958 -1.18646,0 -2.20541,0.27916 -1.01895,0.27917 -2.09374,0.86542 -0.0279,0.30708 -0.0419,0.6002 -0.014,0.27917 -0.014,0.71187 0,2.20541 0.44666,3.48957 0.46063,1.2702 1.25625,2.00999 0.64208,0.61416 1.38186,0.90729 0.75375,0.27916 1.63312,0.27916 2.02395,0 3.18249,-1.22832 1.15853,-1.24229 1.15853,-3.55936 z"
         style="font-size:28.58652496px;fill:#000000;fill-opacity:1"
         id="path4356" />
    </g>
    <g
       transform="translate(321.42858,33.934824)"
       style="font-style:normal;font-weight:normal;font-size:20.01056671px;line-height:125%;font-family:sans-serif;letter-spacing:0px;word-spacing:0px;fill:#000000;fill-opacity:1;stroke:none;stroke-width:1px;stroke-linecap:butt;stroke-linejoin:miter;stroke-opacity:1"
       id="flowRoot5607">
      <path
         d="m 172.61651,113.68419 q 0,1.45166 -0.53042,2.7777 -0.53041,1.32603 -1.45166,2.23332 -1.00499,0.97708 -2.40082,1.50749 -1.38186,0.51646 -3.2104,0.51646 -1.70291,0 -3.28019,-0.36292 -1.57728,-0.34895 -2.66603,-0.85145 l 0,-2.94519 0.19542,0 q 1.14458,0.72583 2.67998,1.24228 1.53541,0.5025 3.01499,0.5025 0.99104,0 1.91228,-0.27917 0.93521,-0.27916 1.66104,-0.97707 0.61416,-0.60021 0.92124,-1.43771 0.32104,-0.83749 0.32104,-1.94019 0,-1.07479 -0.37687,-1.81458 -0.36292,-0.73979 -1.01896,-1.18645 -0.72583,-0.53041 -1.7727,-0.73979 -1.03291,-0.22333 -2.31707,-0.22333 -1.22832,0 -2.3729,0.1675 -1.13062,0.1675 -1.95416,0.335 l 0,-10.705992 12.50661,0 0,2.442692 -9.81266,0 0,5.52748 q 0.6002,-0.0558 1.22832,-0.0837 0.62813,-0.0279 1.08875,-0.0279 1.68895,0 2.95915,0.29312 1.2702,0.27917 2.33103,1.005 1.11666,0.7677 1.73082,1.98207 0.61417,1.21437 0.61417,3.0429 z"
         style="font-size:28.58652496px;fill:#000000;fill-opacity:1"
         id="path4324" />
    </g>
    <g
       id="g5665"
       inkscape:export-xdpi="400"
       inkscape:export-ydpi="400">
      <path
         sodipodi:nodetypes="cc"
         inkscape:connector-curvature="0"
         id="path5645"
         d="m 981.28589,169.63283 c 45.23931,-24.30204 96.14411,-33.97865 163.17751,-2.02031"
         style="fill:none;fill-rule:evenodd;stroke:#000000;stroke-width:4.31210518;stroke-linecap:butt;stroke-linejoin:miter;stroke-miterlimit:4;stroke-dasharray:none;stroke-opacity:1" />
      <path
         sodipodi:nodetypes="cc"
         inkscape:connector-curvature="0"
         id="path5647"
         d="m 973.06831,264.58717 c 50.91069,24.31021 106.04209,32.67339 172.56899,-2.02031"
         style="fill:none;fill-rule:evenodd;stroke:#000000;stroke-width:4.31210518;stroke-linecap:butt;stroke-linejoin:miter;stroke-miterlimit:4;stroke-dasharray:none;stroke-opacity:1" />
      <ellipse
         ry="141.42857"
         rx="127.85714"
         cy="211.60649"
         cx="864.22864"
         id="path5615"
         style="opacity:1;fill:#bec1fc;fill-opacity:1;fill-rule:nonzero;stroke:none;stroke-width:3;stroke-linecap:round;stroke-linejoin:round;stroke-miterlimit:4;stroke-dasharray:none;stroke-dashoffset:0;stroke-opacity:1" />
      <path
         inkscape:connector-curvature="0"
         id="ellipse5626"
         d="M 1372.9103,215.60505 A 127.85714,141.42857 0 0 1 1245.0532,357.03362 127.85714,141.42857 0 0 1 1117.196,215.60505 127.85714,141.42857 0 0 1 1245.0532,74.176483 127.85714,141.42857 0 0 1 1372.9103,215.60505 Z"
         style="opacity:1;fill:#bec1fc;fill-opacity:1;fill-rule:nonzero;stroke:none;stroke-width:3;stroke-linecap:round;stroke-linejoin:round;stroke-miterlimit:4;stroke-dasharray:none;stroke-dashoffset:0;stroke-opacity:1" />
      <g
         transform="matrix(1.0609989,0,0,1.0609989,715.69138,-391.20764)"
         style="font-style:normal;font-weight:normal;font-size:40px;line-height:125%;font-family:sans-serif;letter-spacing:0px;word-spacing:0px;fill:#000000;fill-opacity:1;stroke:none;stroke-width:1px;stroke-linecap:butt;stroke-linejoin:miter;stroke-opacity:1"
         id="flowRoot5629">
        <path
           d="m 62.507324,570.21746 q 0,1.86767 -1.550293,3.06396 -1.538086,1.19629 -4.211426,1.19629 -1.513671,0 -2.783203,-0.354 -1.257324,-0.36621 -2.111816,-0.79346 l 0,-2.57568 0.12207,0 q 1.086426,0.81787 2.416992,1.30615 1.330567,0.47607 2.55127,0.47607 1.513672,0 2.368164,-0.48828 0.854492,-0.48828 0.854492,-1.53808 0,-0.80567 -0.463867,-1.22071 -0.463867,-0.41504 -1.782227,-0.70801 -0.488281,-0.10986 -1.281738,-0.25634 -0.78125,-0.14649 -1.428222,-0.31739 -1.794434,-0.47607 -2.55127,-1.3916 -0.744629,-0.92773 -0.744629,-2.27051 0,-0.84228 0.341797,-1.58691 0.354004,-0.74463 1.062012,-1.33057 0.683593,-0.57373 1.733398,-0.90332 1.062012,-0.34179 2.368164,-0.34179 1.220703,0 2.46582,0.30517 1.257325,0.29297 2.087403,0.72022 l 0,2.45361 -0.12207,0 q -0.878907,-0.64697 -2.136231,-1.08643 -1.257324,-0.45166 -2.46582,-0.45166 -1.257324,0 -2.124024,0.48829 -0.866699,0.47607 -0.866699,1.42822 0,0.84228 0.524902,1.26953 0.512696,0.42725 1.660157,0.6958 0.634765,0.14649 1.416015,0.29297 0.793457,0.14648 1.31836,0.26855 1.599121,0.36622 2.46582,1.25733 0.866699,0.90332 0.866699,2.39258 z"
           style="font-size:25px;fill:#000000;stroke:none;stroke-opacity:1"
           id="path4241" />
        <path
           d="m 77.424316,567.3366 q 0,3.33252 -1.708984,5.26123 -1.708984,1.92871 -4.577637,1.92871 -2.893066,0 -4.60205,-1.92871 -1.696778,-1.92871 -1.696778,-5.26123 0,-3.33252 1.696778,-5.26123 1.708984,-1.94092 4.60205,-1.94092 2.868653,0 4.577637,1.94092 1.708984,1.92871 1.708984,5.26123 z m -2.368164,0 q 0,-2.64893 -1.037597,-3.93067 -1.037598,-1.29394 -2.88086,-1.29394 -1.867675,0 -2.905273,1.29394 -1.025391,1.28174 -1.025391,3.93067 0,2.56347 1.037598,3.89404 1.037598,1.31836 2.893066,1.31836 1.831055,0 2.868653,-1.30615 1.049804,-1.31836 1.049804,-3.90625 z"
           style="font-size:25px;fill:#000000;stroke:none;stroke-opacity:1"
           id="path4243" />
        <path
           d="m 92.29248,574.14812 -2.294921,0 0,-1.51367 q -1.159668,0.91553 -2.22168,1.40381 -1.062012,0.48828 -2.34375,0.48828 -2.148438,0 -3.344727,-1.30615 -1.196289,-1.31836 -1.196289,-3.85743 l 0,-8.85009 2.294922,0 0,7.76367 q 0,1.0376 0.09766,1.78223 0.09766,0.73242 0.415039,1.25732 0.32959,0.53711 0.854493,0.78125 0.524902,0.24414 1.525879,0.24414 0.891113,0 1.940918,-0.46387 1.062011,-0.46386 1.977539,-1.18408 l 0,-10.18066 2.294921,0 0,13.63525 z"
           style="font-size:25px;fill:#000000;stroke:none;stroke-opacity:1"
           id="path4245" />
        <path
           d="m 106.55029,570.21746 q 0,1.86767 -1.55029,3.06396 -1.53809,1.19629 -4.21143,1.19629 -1.513668,0 -2.783199,-0.354 -1.257324,-0.36621 -2.111816,-0.79346 l 0,-2.57568 0.12207,0 q 1.086426,0.81787 2.416992,1.30615 1.330567,0.47607 2.551273,0.47607 1.51367,0 2.36816,-0.48828 0.85449,-0.48828 0.85449,-1.53808 0,-0.80567 -0.46386,-1.22071 -0.46387,-0.41504 -1.78223,-0.70801 -0.48828,-0.10986 -1.28174,-0.25634 -0.781249,-0.14649 -1.428222,-0.31739 -1.794433,-0.47607 -2.551269,-1.3916 -0.744629,-0.92773 -0.744629,-2.27051 0,-0.84228 0.341797,-1.58691 0.354004,-0.74463 1.062011,-1.33057 0.683594,-0.57373 1.733399,-0.90332 1.062013,-0.34179 2.368163,-0.34179 1.2207,0 2.46582,0.30517 1.25733,0.29297 2.0874,0.72022 l 0,2.45361 -0.12207,0 q -0.8789,-0.64697 -2.13623,-1.08643 -1.25732,-0.45166 -2.46582,-0.45166 -1.25732,0 -2.124021,0.48829 -0.866699,0.47607 -0.866699,1.42822 0,0.84228 0.524902,1.26953 0.512695,0.42725 1.660158,0.6958 0.63476,0.14649 1.41601,0.29297 0.79346,0.14648 1.31836,0.26855 1.59912,0.36622 2.46582,1.25733 0.8667,0.90332 0.8667,2.39258 z"
           style="font-size:25px;fill:#000000;stroke:none;stroke-opacity:1"
           id="path4247" />
        <path
           d="m 117.07275,567.29998 -7.61718,0 0,-2.20948 7.61718,0 0,2.20948 z"
           style="font-size:25px;fill:#000000;stroke:none;stroke-opacity:1"
           id="path4249" />
        <path
           d="m 132.28271,572.59783 q 0,3.46679 -1.5747,5.09033 -1.57471,1.62353 -4.84619,1.62353 -1.08643,0 -2.12403,-0.15869 -1.02539,-0.14648 -2.02636,-0.42724 l 0,-2.34375 0.12207,0 q 0.56152,0.21972 1.78222,0.53711 1.22071,0.32959 2.44141,0.32959 1.17187,0 1.94092,-0.28077 0.76904,-0.28076 1.19629,-0.78125 0.42724,-0.47607 0.61035,-1.14746 0.1831,-0.67138 0.1831,-1.50146 l 0,-1.24512 q -1.03759,0.83008 -1.98974,1.24512 -0.93994,0.40283 -2.40479,0.40283 -2.4414,0 -3.88183,-1.75781 -1.42823,-1.77002 -1.42823,-4.98047 0,-1.75781 0.48828,-3.02734 0.50049,-1.28174 1.35498,-2.20948 0.79346,-0.8667 1.92872,-1.34277 1.13525,-0.48828 2.2583,-0.48828 1.18408,0 1.97754,0.24414 0.80566,0.23193 1.69677,0.72021 l 0.14649,-0.58593 2.14843,0 0,12.08496 z m -2.29492,-2.19727 0,-7.43408 q -0.91552,-0.41504 -1.70898,-0.58594 -0.78125,-0.1831 -1.5625,-0.1831 -1.89209,0 -2.97852,1.26953 -1.08642,1.26953 -1.08642,3.68652 0,2.29492 0.80566,3.47901 0.80567,1.18408 2.67334,1.18408 1.00098,0 2.00195,-0.37842 1.01319,-0.39063 1.85547,-1.0376 z"
           style="font-size:25px;fill:#000000;stroke:none;stroke-opacity:1"
           id="path4251" />
        <path
           d="m 145.30762,563.01531 -0.12207,0 q -0.5127,-0.12207 -1.00098,-0.1709 -0.47607,-0.061 -1.13525,-0.061 -1.06202,0 -2.05078,0.47608 -0.98877,0.46387 -1.9043,1.20849 l 0,9.68018 -2.29492,0 0,-13.63525 2.29492,0 0,2.01416 q 1.36719,-1.09864 2.40478,-1.5503 1.04981,-0.46386 2.13623,-0.46386 0.59815,0 0.8667,0.0366 0.26856,0.0244 0.80567,0.10986 l 0,2.35596 z"
           style="font-size:25px;fill:#000000;stroke:none;stroke-opacity:1"
           id="path4253" />
        <path
           d="m 157.64893,574.14812 -2.28272,0 0,-1.45264 q -0.30517,0.20752 -0.83008,0.58594 -0.51269,0.36621 -1.00097,0.58594 -0.57373,0.28076 -1.31836,0.46387 -0.74463,0.19531 -1.74561,0.19531 -1.84326,0 -3.125,-1.2207 -1.28174,-1.22071 -1.28174,-3.1128 0,-1.55029 0.65918,-2.50244 0.67139,-0.96435 1.9043,-1.51367 1.24512,-0.54932 2.99072,-0.74463 1.74561,-0.19531 3.74756,-0.29297 l 0,-0.354 q 0,-0.78125 -0.28076,-1.29395 -0.26856,-0.51269 -0.78125,-0.80566 -0.48828,-0.28076 -1.17188,-0.37842 -0.68359,-0.0977 -1.42822,-0.0977 -0.90332,0 -2.01416,0.24414 -1.11084,0.23194 -2.29492,0.6836 l -0.12207,0 0,-2.33154 q 0.67139,-0.18311 1.94092,-0.40284 1.26953,-0.21972 2.50244,-0.21972 1.44043,0 2.50244,0.24414 1.07422,0.23193 1.85547,0.80566 0.76904,0.56152 1.17187,1.45264 0.40284,0.89111 0.40284,2.20947 l 0,9.25293 z m -2.28272,-3.35693 0,-3.79639 q -1.0498,0.061 -2.47803,0.18311 -1.41601,0.12207 -2.24609,0.354 -0.98877,0.28076 -1.59912,0.87891 -0.61035,0.58593 -0.61035,1.62353 0,1.17188 0.708,1.77002 0.70801,0.58594 2.16065,0.58594 1.2085,0 2.20947,-0.46387 1.00098,-0.47607 1.85547,-1.13525 z"
           style="font-size:25px;fill:#000000;stroke:none;stroke-opacity:1"
           id="path4255" />
        <path
           d="m 174.0918,567.1657 q 0,1.66015 -0.47608,3.03955 -0.47607,1.36719 -1.34277,2.31934 -0.80566,0.90332 -1.9043,1.4038 -1.08642,0.48829 -2.30713,0.48829 -1.06201,0 -1.92871,-0.23194 -0.85449,-0.23193 -1.7456,-0.72021 l 0,5.71289 -2.29492,0 0,-18.66455 2.29492,0 0,1.42822 q 0.91552,-0.76904 2.05078,-1.28174 1.14746,-0.5249 2.4414,-0.5249 2.46582,0 3.83301,1.86767 1.3794,1.85547 1.3794,5.16358 z m -2.36817,0.061 q 0,-2.46582 -0.84228,-3.68652 -0.84229,-1.2207 -2.58789,-1.2207 -0.98877,0 -1.98975,0.42724 -1.00098,0.42725 -1.9165,1.12305 l 0,7.72705 q 0.97656,0.43945 1.67236,0.59815 0.70801,0.15869 1.59912,0.15869 1.91651,0 2.99072,-1.29395 1.07422,-1.29394 1.07422,-3.83301 z"
           style="font-size:25px;fill:#000000;stroke:none;stroke-opacity:1"
           id="path4257" />
        <path
           d="m 189.06982,574.14812 -2.29492,0 0,-7.76367 q 0,-0.93994 -0.10986,-1.75781 -0.10986,-0.83008 -0.40283,-1.29395 -0.30518,-0.51269 -0.87891,-0.75684 -0.57373,-0.25634 -1.48926,-0.25634 -0.93994,0 -1.96533,0.46386 -1.02539,0.46387 -1.96533,1.18409 l 0,10.18066 -2.29492,0 0,-18.99414 2.29492,0 0,6.87256 q 1.07422,-0.89111 2.22168,-1.3916 1.14746,-0.50049 2.35596,-0.50049 2.20947,0 3.36914,1.33057 1.15966,1.33056 1.15966,3.833 l 0,8.8501 z"
           style="font-size:25px;fill:#000000;stroke:none;stroke-opacity:1"
           id="path4259" />
        <path
           d="m 204.90234,567.56853 -10.04638,0 q 0,1.25732 0.37841,2.19727 0.37842,0.92773 1.0376,1.52588 0.63477,0.58593 1.50147,0.8789 0.8789,0.29297 1.92871,0.29297 1.3916,0 2.79541,-0.54932 1.41601,-0.56152 2.01416,-1.09863 l 0.12207,0 0,2.50244 q -1.15967,0.48828 -2.36817,0.81787 -1.20849,0.32959 -2.53906,0.32959 -3.39355,0 -5.29785,-1.83105 -1.9043,-1.84326 -1.9043,-5.22461 0,-3.34473 1.81885,-5.31006 1.83106,-1.96533 4.80957,-1.96533 2.75879,0 4.24805,1.61133 1.50146,1.61132 1.50146,4.57763 l 0,1.24512 z m -2.23388,-1.75781 q -0.0122,-1.80664 -0.91553,-2.79541 -0.89111,-0.98877 -2.72217,-0.98877 -1.84326,0 -2.94189,1.08642 -1.08643,1.08643 -1.23291,2.69776 l 7.8125,0 z"
           style="font-size:25px;fill:#000000;stroke:none;stroke-opacity:1"
           id="path4261" />
        <path
           d="m 228.14453,574.14812 -9.83887,0 0,-1.85547 3.78418,0 0,-12.18262 -3.78418,0 0,-1.66015 q 0.76905,0 1.64795,-0.12207 0.87891,-0.13428 1.33057,-0.37842 0.56152,-0.30518 0.87891,-0.76904 0.32959,-0.47608 0.37841,-1.26953 l 1.89209,0 0,16.38183 3.71094,0 0,1.85547 z"
           style="font-size:25px;fill:#000000;stroke:none;stroke-opacity:1"
           id="path4263" />
      </g>
      <g
         transform="matrix(1.0609989,0,0,1.0609989,1095.9654,-386.96518)"
         style="font-style:normal;font-weight:normal;font-size:40px;line-height:125%;font-family:sans-serif;letter-spacing:0px;word-spacing:0px;fill:#000000;fill-opacity:1;stroke:none;stroke-width:1px;stroke-linecap:butt;stroke-linejoin:miter;stroke-opacity:1"
         id="flowRoot5637">
        <path
           d="m 62.507324,570.21746 q 0,1.86767 -1.550293,3.06396 -1.538086,1.19629 -4.211426,1.19629 -1.513671,0 -2.783203,-0.354 -1.257324,-0.36621 -2.111816,-0.79346 l 0,-2.57568 0.12207,0 q 1.086426,0.81787 2.416992,1.30615 1.330567,0.47607 2.55127,0.47607 1.513672,0 2.368164,-0.48828 0.854492,-0.48828 0.854492,-1.53808 0,-0.80567 -0.463867,-1.22071 -0.463867,-0.41504 -1.782227,-0.70801 -0.488281,-0.10986 -1.281738,-0.25634 -0.78125,-0.14649 -1.428222,-0.31739 -1.794434,-0.47607 -2.55127,-1.3916 -0.744629,-0.92773 -0.744629,-2.27051 0,-0.84228 0.341797,-1.58691 0.354004,-0.74463 1.062012,-1.33057 0.683593,-0.57373 1.733398,-0.90332 1.062012,-0.34179 2.368164,-0.34179 1.220703,0 2.46582,0.30517 1.257325,0.29297 2.087403,0.72022 l 0,2.45361 -0.12207,0 q -0.878907,-0.64697 -2.136231,-1.08643 -1.257324,-0.45166 -2.46582,-0.45166 -1.257324,0 -2.124024,0.48829 -0.866699,0.47607 -0.866699,1.42822 0,0.84228 0.524902,1.26953 0.512696,0.42725 1.660157,0.6958 0.634765,0.14649 1.416015,0.29297 0.793457,0.14648 1.31836,0.26855 1.599121,0.36622 2.46582,1.25733 0.866699,0.90332 0.866699,2.39258 z"
           style="font-size:25px;fill:#000000;stroke:none;stroke-opacity:1"
           id="path4216" />
        <path
           d="m 77.424316,567.3366 q 0,3.33252 -1.708984,5.26123 -1.708984,1.92871 -4.577637,1.92871 -2.893066,0 -4.60205,-1.92871 -1.696778,-1.92871 -1.696778,-5.26123 0,-3.33252 1.696778,-5.26123 1.708984,-1.94092 4.60205,-1.94092 2.868653,0 4.577637,1.94092 1.708984,1.92871 1.708984,5.26123 z m -2.368164,0 q 0,-2.64893 -1.037597,-3.93067 -1.037598,-1.29394 -2.88086,-1.29394 -1.867675,0 -2.905273,1.29394 -1.025391,1.28174 -1.025391,3.93067 0,2.56347 1.037598,3.89404 1.037598,1.31836 2.893066,1.31836 1.831055,0 2.868653,-1.30615 1.049804,-1.31836 1.049804,-3.90625 z"
           style="font-size:25px;fill:#000000;stroke:none;stroke-opacity:1"
           id="path4218" />
        <path
           d="m 92.29248,574.14812 -2.294921,0 0,-1.51367 q -1.159668,0.91553 -2.22168,1.40381 -1.062012,0.48828 -2.34375,0.48828 -2.148438,0 -3.344727,-1.30615 -1.196289,-1.31836 -1.196289,-3.85743 l 0,-8.85009 2.294922,0 0,7.76367 q 0,1.0376 0.09766,1.78223 0.09766,0.73242 0.415039,1.25732 0.32959,0.53711 0.854493,0.78125 0.524902,0.24414 1.525879,0.24414 0.891113,0 1.940918,-0.46387 1.062011,-0.46386 1.977539,-1.18408 l 0,-10.18066 2.294921,0 0,13.63525 z"
           style="font-size:25px;fill:#000000;stroke:none;stroke-opacity:1"
           id="path4220" />
        <path
           d="m 106.55029,570.21746 q 0,1.86767 -1.55029,3.06396 -1.53809,1.19629 -4.21143,1.19629 -1.513668,0 -2.783199,-0.354 -1.257324,-0.36621 -2.111816,-0.79346 l 0,-2.57568 0.12207,0 q 1.086426,0.81787 2.416992,1.30615 1.330567,0.47607 2.551273,0.47607 1.51367,0 2.36816,-0.48828 0.85449,-0.48828 0.85449,-1.53808 0,-0.80567 -0.46386,-1.22071 -0.46387,-0.41504 -1.78223,-0.70801 -0.48828,-0.10986 -1.28174,-0.25634 -0.781249,-0.14649 -1.428222,-0.31739 -1.794433,-0.47607 -2.551269,-1.3916 -0.744629,-0.92773 -0.744629,-2.27051 0,-0.84228 0.341797,-1.58691 0.354004,-0.74463 1.062011,-1.33057 0.683594,-0.57373 1.733399,-0.90332 1.062013,-0.34179 2.368163,-0.34179 1.2207,0 2.46582,0.30517 1.25733,0.29297 2.0874,0.72022 l 0,2.45361 -0.12207,0 q -0.8789,-0.64697 -2.13623,-1.08643 -1.25732,-0.45166 -2.46582,-0.45166 -1.25732,0 -2.124021,0.48829 -0.866699,0.47607 -0.866699,1.42822 0,0.84228 0.524902,1.26953 0.512695,0.42725 1.660158,0.6958 0.63476,0.14649 1.41601,0.29297 0.79346,0.14648 1.31836,0.26855 1.59912,0.36622 2.46582,1.25733 0.8667,0.90332 0.8667,2.39258 z"
           style="font-size:25px;fill:#000000;stroke:none;stroke-opacity:1"
           id="path4222" />
        <path
           d="m 117.07275,567.29998 -7.61718,0 0,-2.20948 7.61718,0 0,2.20948 z"
           style="font-size:25px;fill:#000000;stroke:none;stroke-opacity:1"
           id="path4224" />
        <path
           d="m 132.28271,572.59783 q 0,3.46679 -1.5747,5.09033 -1.57471,1.62353 -4.84619,1.62353 -1.08643,0 -2.12403,-0.15869 -1.02539,-0.14648 -2.02636,-0.42724 l 0,-2.34375 0.12207,0 q 0.56152,0.21972 1.78222,0.53711 1.22071,0.32959 2.44141,0.32959 1.17187,0 1.94092,-0.28077 0.76904,-0.28076 1.19629,-0.78125 0.42724,-0.47607 0.61035,-1.14746 0.1831,-0.67138 0.1831,-1.50146 l 0,-1.24512 q -1.03759,0.83008 -1.98974,1.24512 -0.93994,0.40283 -2.40479,0.40283 -2.4414,0 -3.88183,-1.75781 -1.42823,-1.77002 -1.42823,-4.98047 0,-1.75781 0.48828,-3.02734 0.50049,-1.28174 1.35498,-2.20948 0.79346,-0.8667 1.92872,-1.34277 1.13525,-0.48828 2.2583,-0.48828 1.18408,0 1.97754,0.24414 0.80566,0.23193 1.69677,0.72021 l 0.14649,-0.58593 2.14843,0 0,12.08496 z m -2.29492,-2.19727 0,-7.43408 q -0.91552,-0.41504 -1.70898,-0.58594 -0.78125,-0.1831 -1.5625,-0.1831 -1.89209,0 -2.97852,1.26953 -1.08642,1.26953 -1.08642,3.68652 0,2.29492 0.80566,3.47901 0.80567,1.18408 2.67334,1.18408 1.00098,0 2.00195,-0.37842 1.01319,-0.39063 1.85547,-1.0376 z"
           style="font-size:25px;fill:#000000;stroke:none;stroke-opacity:1"
           id="path4226" />
        <path
           d="m 145.30762,563.01531 -0.12207,0 q -0.5127,-0.12207 -1.00098,-0.1709 -0.47607,-0.061 -1.13525,-0.061 -1.06202,0 -2.05078,0.47608 -0.98877,0.46387 -1.9043,1.20849 l 0,9.68018 -2.29492,0 0,-13.63525 2.29492,0 0,2.01416 q 1.36719,-1.09864 2.40478,-1.5503 1.04981,-0.46386 2.13623,-0.46386 0.59815,0 0.8667,0.0366 0.26856,0.0244 0.80567,0.10986 l 0,2.35596 z"
           style="font-size:25px;fill:#000000;stroke:none;stroke-opacity:1"
           id="path4228" />
        <path
           d="m 157.64893,574.14812 -2.28272,0 0,-1.45264 q -0.30517,0.20752 -0.83008,0.58594 -0.51269,0.36621 -1.00097,0.58594 -0.57373,0.28076 -1.31836,0.46387 -0.74463,0.19531 -1.74561,0.19531 -1.84326,0 -3.125,-1.2207 -1.28174,-1.22071 -1.28174,-3.1128 0,-1.55029 0.65918,-2.50244 0.67139,-0.96435 1.9043,-1.51367 1.24512,-0.54932 2.99072,-0.74463 1.74561,-0.19531 3.74756,-0.29297 l 0,-0.354 q 0,-0.78125 -0.28076,-1.29395 -0.26856,-0.51269 -0.78125,-0.80566 -0.48828,-0.28076 -1.17188,-0.37842 -0.68359,-0.0977 -1.42822,-0.0977 -0.90332,0 -2.01416,0.24414 -1.11084,0.23194 -2.29492,0.6836 l -0.12207,0 0,-2.33154 q 0.67139,-0.18311 1.94092,-0.40284 1.26953,-0.21972 2.50244,-0.21972 1.44043,0 2.50244,0.24414 1.07422,0.23193 1.85547,0.80566 0.76904,0.56152 1.17187,1.45264 0.40284,0.89111 0.40284,2.20947 l 0,9.25293 z m -2.28272,-3.35693 0,-3.79639 q -1.0498,0.061 -2.47803,0.18311 -1.41601,0.12207 -2.24609,0.354 -0.98877,0.28076 -1.59912,0.87891 -0.61035,0.58593 -0.61035,1.62353 0,1.17188 0.708,1.77002 0.70801,0.58594 2.16065,0.58594 1.2085,0 2.20947,-0.46387 1.00098,-0.47607 1.85547,-1.13525 z"
           style="font-size:25px;fill:#000000;stroke:none;stroke-opacity:1"
           id="path4230" />
        <path
           d="m 174.0918,567.1657 q 0,1.66015 -0.47608,3.03955 -0.47607,1.36719 -1.34277,2.31934 -0.80566,0.90332 -1.9043,1.4038 -1.08642,0.48829 -2.30713,0.48829 -1.06201,0 -1.92871,-0.23194 -0.85449,-0.23193 -1.7456,-0.72021 l 0,5.71289 -2.29492,0 0,-18.66455 2.29492,0 0,1.42822 q 0.91552,-0.76904 2.05078,-1.28174 1.14746,-0.5249 2.4414,-0.5249 2.46582,0 3.83301,1.86767 1.3794,1.85547 1.3794,5.16358 z m -2.36817,0.061 q 0,-2.46582 -0.84228,-3.68652 -0.84229,-1.2207 -2.58789,-1.2207 -0.98877,0 -1.98975,0.42724 -1.00098,0.42725 -1.9165,1.12305 l 0,7.72705 q 0.97656,0.43945 1.67236,0.59815 0.70801,0.15869 1.59912,0.15869 1.91651,0 2.99072,-1.29395 1.07422,-1.29394 1.07422,-3.83301 z"
           style="font-size:25px;fill:#000000;stroke:none;stroke-opacity:1"
           id="path4232" />
        <path
           d="m 189.06982,574.14812 -2.29492,0 0,-7.76367 q 0,-0.93994 -0.10986,-1.75781 -0.10986,-0.83008 -0.40283,-1.29395 -0.30518,-0.51269 -0.87891,-0.75684 -0.57373,-0.25634 -1.48926,-0.25634 -0.93994,0 -1.96533,0.46386 -1.02539,0.46387 -1.96533,1.18409 l 0,10.18066 -2.29492,0 0,-18.99414 2.29492,0 0,6.87256 q 1.07422,-0.89111 2.22168,-1.3916 1.14746,-0.50049 2.35596,-0.50049 2.20947,0 3.36914,1.33057 1.15966,1.33056 1.15966,3.833 l 0,8.8501 z"
           style="font-size:25px;fill:#000000;stroke:none;stroke-opacity:1"
           id="path4234" />
        <path
           d="m 204.90234,567.56853 -10.04638,0 q 0,1.25732 0.37841,2.19727 0.37842,0.92773 1.0376,1.52588 0.63477,0.58593 1.50147,0.8789 0.8789,0.29297 1.92871,0.29297 1.3916,0 2.79541,-0.54932 1.41601,-0.56152 2.01416,-1.09863 l 0.12207,0 0,2.50244 q -1.15967,0.48828 -2.36817,0.81787 -1.20849,0.32959 -2.53906,0.32959 -3.39355,0 -5.29785,-1.83105 -1.9043,-1.84326 -1.9043,-5.22461 0,-3.34473 1.81885,-5.31006 1.83106,-1.96533 4.80957,-1.96533 2.75879,0 4.24805,1.61133 1.50146,1.61132 1.50146,4.57763 l 0,1.24512 z m -2.23388,-1.75781 q -0.0122,-1.80664 -0.91553,-2.79541 -0.89111,-0.98877 -2.72217,-0.98877 -1.84326,0 -2.94189,1.08642 -1.08643,1.08643 -1.23291,2.69776 l 7.8125,0 z"
           style="font-size:25px;fill:#000000;stroke:none;stroke-opacity:1"
           id="path4236" />
        <path
           d="m 229.18213,574.14812 -12.30469,0 0,-2.55127 q 1.28174,-1.09863 2.56348,-2.19726 1.29394,-1.09864 2.40478,-2.18506 2.34375,-2.27051 3.21045,-3.60108 0.8667,-1.34277 0.8667,-2.89306 0,-1.41602 -0.93994,-2.20948 -0.92773,-0.80566 -2.6001,-0.80566 -1.11084,0 -2.40478,0.39062 -1.29395,0.39063 -2.52686,1.19629 l -0.12207,0 0,-2.56347 q 0.8667,-0.42725 2.30713,-0.78125 1.45264,-0.35401 2.80762,-0.35401 2.79541,0 4.38232,1.35498 1.58692,1.34278 1.58692,3.64991 0,1.03759 -0.26856,1.94091 -0.25635,0.89112 -0.76904,1.69678 -0.47608,0.75684 -1.12305,1.48926 -0.63476,0.73242 -1.55029,1.62353 -1.30615,1.28174 -2.69776,2.49024 -1.3916,1.19629 -2.60009,2.22168 l 9.77783,0 0,2.0874 z"
           style="font-size:25px;fill:#000000;stroke:none;stroke-opacity:1"
           id="path4238" />
      </g>
      <g
         transform="translate(731.35044,-368.70568)"
         style="font-style:normal;font-weight:normal;font-size:40px;line-height:125%;font-family:sans-serif;letter-spacing:0px;word-spacing:0px;fill:#000000;fill-opacity:1;stroke:none;stroke-width:1px;stroke-linecap:butt;stroke-linejoin:miter;stroke-opacity:1"
         id="flowRoot5649">
        <path
           d="m 328.09619,492.35361 q 0.64453,0.57739 1.06079,1.45019 0.41626,0.8728 0.41626,2.25586 0,1.36963 -0.49682,2.51099 -0.49683,1.14135 -1.39649,1.9873 -1.00708,0.93994 -2.37671,1.39649 -1.3562,0.44311 -2.98095,0.44311 -1.66504,0 -3.27637,-0.40283 -1.61133,-0.3894 -2.64527,-0.85938 l 0,-2.80639 0.20142,0 q 1.14136,0.75195 2.68555,1.24878 1.54419,0.49682 2.98095,0.49682 0.84595,0 1.79932,-0.28198 0.95337,-0.28198 1.54419,-0.83252 0.61768,-0.59082 0.91309,-1.30249 0.30883,-0.71167 0.30883,-1.79931 0,-1.07422 -0.34912,-1.77247 -0.33569,-0.71167 -0.93994,-1.1145 -0.60425,-0.41626 -1.46362,-0.56396 -0.85938,-0.16114 -1.85303,-0.16114 l -1.20849,0 0,-2.229 0.93994,0 q 2.04101,0 3.24951,-0.84595 1.22192,-0.85937 1.22192,-2.49756 0,-0.72509 -0.30884,-1.2622 -0.30883,-0.55054 -0.85937,-0.89966 -0.57739,-0.34912 -1.23535,-0.4834 -0.65796,-0.13428 -1.49048,-0.13428 -1.27564,0 -2.7124,0.45655 -1.43677,0.45654 -2.71241,1.28906 l -0.13427,0 0,-2.8064 q 0.95337,-0.46997 2.53784,-0.85937 1.5979,-0.40283 3.08838,-0.40283 1.46362,0 2.57812,0.26855 1.1145,0.26856 2.01416,0.85938 0.9668,0.64453 1.46363,1.55761 0.49682,0.91309 0.49682,2.13501 0,1.66504 -1.18164,2.91382 -1.16821,1.23535 -2.76611,1.55762 l 0,0.18799 q 0.64453,0.10742 1.47705,0.45654 0.83252,0.33569 1.40991,0.84595 z"
           style="font-size:27.5px"
           id="path4269" />
      </g>
      <g
         transform="translate(738.42151,-182.83761)"
         style="font-style:normal;font-weight:normal;font-size:40px;line-height:125%;font-family:sans-serif;letter-spacing:0px;word-spacing:0px;fill:#000000;fill-opacity:1;stroke:none;stroke-width:1px;stroke-linecap:butt;stroke-linejoin:miter;stroke-opacity:1"
         id="flowRoot5657">
        <path
           d="m 330.15063,495.4957 q 0,3.04809 -2.01416,4.98169 -2.00073,1.92016 -4.91455,1.92016 -1.47705,0 -2.68554,-0.45654 -1.2085,-0.45654 -2.13501,-1.3562 -1.15479,-1.1145 -1.78589,-2.9541 -0.61768,-1.8396 -0.61768,-4.43116 0,-2.65869 0.56397,-4.71313 0.57739,-2.05444 1.82617,-3.65234 1.18164,-1.51734 3.0481,-2.36329 1.86645,-0.85937 4.35058,-0.85937 0.79224,0 1.32935,0.0671 0.53711,0.0671 1.08764,0.2417 l 0,2.56469 -0.13427,0 q -0.37598,-0.20141 -1.14136,-0.37597 -0.75195,-0.18799 -1.54419,-0.18799 -2.88696,0 -4.60571,1.81274 -1.71875,1.79932 -2.00074,4.87427 1.12793,-0.68481 2.21558,-1.03393 1.10107,-0.36255 2.53784,-0.36255 1.27564,0 2.24243,0.2417 0.98023,0.22827 2.00074,0.93994 1.18164,0.81909 1.77246,2.06787 0.60424,1.24878 0.60424,3.03467 z m -2.72583,0.10742 q 0,-1.24878 -0.37597,-2.06787 -0.36255,-0.81909 -1.2085,-1.42334 -0.61767,-0.42969 -1.36963,-0.56397 -0.75195,-0.13428 -1.57104,-0.13428 -1.14136,0 -2.12158,0.26856 -0.98023,0.26855 -2.01416,0.83252 -0.0269,0.29541 -0.0403,0.57739 -0.0134,0.26856 -0.0134,0.68482 0,2.12158 0.42968,3.35693 0.44312,1.22192 1.2085,1.93359 0.61767,0.59082 1.32934,0.87281 0.7251,0.26855 1.57105,0.26855 1.94702,0 3.06152,-1.18164 1.1145,-1.19507 1.1145,-3.42407 z"
           style="font-size:27.5px;fill:#ff0000"
           id="path4266" />
      </g>
    </g>
  </g>
</svg>
