<?xml version="1.0" encoding="UTF-8" standalone="no"?>
<!-- Created with Inkscape (http://www.inkscape.org/) -->

<svg
   xmlns:dc="http://purl.org/dc/elements/1.1/"
   xmlns:cc="http://creativecommons.org/ns#"
   xmlns:rdf="http://www.w3.org/1999/02/22-rdf-syntax-ns#"
   xmlns:svg="http://www.w3.org/2000/svg"
   xmlns="http://www.w3.org/2000/svg"
   xmlns:sodipodi="http://sodipodi.sourceforge.net/DTD/sodipodi-0.dtd"
   xmlns:inkscape="http://www.inkscape.org/namespaces/inkscape"
   width="38.833809cm"
   height="13.579766cm"
   viewBox="0 0 1376.0011 481.17281"
   id="svg2"
   version="1.1"
   inkscape:version="0.91 r13725"
   sodipodi:docname="demo_sousgraphe.svg"
   inkscape:export-filename="C:\Users\Alexandre fauquette\Desktop\a garder\pages site\images\demo_sousgraphe.png"
   inkscape:export-xdpi="400"
   inkscape:export-ydpi="400">
  <defs
     id="defs4" />
  <sodipodi:namedview
     id="base"
     pagecolor="#ffffff"
     bordercolor="#666666"
     borderopacity="1.0"
     inkscape:pageopacity="0.0"
     inkscape:pageshadow="2"
     inkscape:zoom="0.49497476"
     inkscape:cx="427.97477"
     inkscape:cy="159.29227"
     inkscape:document-units="px"
     inkscape:current-layer="layer1"
     showgrid="false"
     inkscape:snap-center="true"
     inkscape:snap-nodes="true"
     inkscape:snap-global="true"
     inkscape:window-width="1280"
     inkscape:window-height="657"
     inkscape:window-x="-8"
     inkscape:window-y="-8"
     inkscape:window-maximized="1"
     fit-margin-top="1"
     fit-margin-right="1"
     fit-margin-bottom="1"
     fit-margin-left="1"
     units="cm" />
  <metadata
     id="metadata7">
    <rdf:RDF>
      <cc:Work
         rdf:about="">
        <dc:format>image/svg+xml</dc:format>
        <dc:type
           rdf:resource="http://purl.org/dc/dcmitype/StillImage" />
        <dc:title />
      </cc:Work>
    </rdf:RDF>
  </metadata>
  <g
     inkscape:label="Calque 1"
     inkscape:groupmode="layer"
     id="layer1"
     transform="translate(26.218771,4.7984933)">
    <path
       inkscape:connector-curvature="0"
       id="path4229"
       d="m 742.22303,239.20378 96.97464,0"
       style="fill:none;fill-rule:evenodd;stroke:#000000;stroke-width:2;stroke-linecap:butt;stroke-linejoin:miter;stroke-miterlimit:4;stroke-dasharray:none;stroke-opacity:1" />
    <path
       inkscape:connector-curvature="0"
       id="path4231"
       d="m 690.08018,153.4895 149.11749,85.71428"
       style="fill:none;fill-rule:evenodd;stroke:#9b9b9b;stroke-width:2;stroke-linecap:butt;stroke-linejoin:miter;stroke-miterlimit:4;stroke-dasharray:8, 8;stroke-dashoffset:0;stroke-opacity:1" />
    <path
       inkscape:connector-curvature="0"
       id="path4233"
       d="M 572.93733,187.77521 484.36589,327.06092"
       style="fill:none;fill-rule:evenodd;stroke:#9b9b9b;stroke-width:2;stroke-linecap:butt;stroke-linejoin:miter;stroke-miterlimit:4;stroke-dasharray:8, 8;stroke-dashoffset:0;stroke-opacity:1" />
    <path
       sodipodi:nodetypes="sssssss"
       inkscape:connector-curvature="0"
       id="path4235"
       d="m 699.46522,283.70467 c 32.26954,48.57343 15.24863,134.53868 -14.22713,154.12076 -16.43466,10.9183 -44.43714,-8.78902 -53.26263,-29.19957 -7.00313,-16.196 -19.97424,-41.80332 -34.2514,-63.29389 -15.67821,-23.59947 -36.92856,-22.31901 -54.19327,-35.37207 -18.27024,-13.81331 -18.87738,-39.39486 -3.72246,-49.46296 29.47576,-19.58209 127.38736,-25.36569 159.65689,23.20773 z"
       style="opacity:1;fill:#72aeff;fill-opacity:0.62288136;fill-rule:nonzero;stroke:none;stroke-width:2;stroke-linecap:round;stroke-linejoin:round;stroke-miterlimit:4;stroke-dasharray:none;stroke-dashoffset:0;stroke-opacity:1" />
    <path
       inkscape:connector-curvature="0"
       id="path4237"
       d="m 484.36589,327.06092 97.85714,-46.42857"
       style="fill:none;fill-rule:evenodd;stroke:#000000;stroke-width:2;stroke-linecap:butt;stroke-linejoin:miter;stroke-miterlimit:4;stroke-dasharray:none;stroke-opacity:1" />
    <path
       inkscape:connector-curvature="0"
       id="path4239"
       d="m 572.93733,187.77521 9.2857,92.85714"
       style="fill:none;fill-rule:evenodd;stroke:#000000;stroke-width:2;stroke-linecap:butt;stroke-linejoin:miter;stroke-miterlimit:4;stroke-dasharray:none;stroke-opacity:1" />
    <path
       inkscape:connector-curvature="0"
       id="path4241"
       d="M 742.22303,239.20378 690.08018,153.4895"
       style="fill:none;fill-rule:evenodd;stroke:#000000;stroke-width:2;stroke-linecap:butt;stroke-linejoin:miter;stroke-miterlimit:4;stroke-dasharray:none;stroke-opacity:1" />
    <path
       inkscape:connector-curvature="0"
       id="path4243"
       d="M 572.93733,187.77521 690.08018,153.4895"
       style="fill:none;fill-rule:evenodd;stroke:#000000;stroke-width:2;stroke-linecap:butt;stroke-linejoin:miter;stroke-miterlimit:4;stroke-dasharray:none;stroke-opacity:1" />
    <path
       inkscape:connector-curvature="0"
       id="path4245"
       d="m 676.50876,313.4895 65.71427,-74.28572"
       style="fill:none;fill-rule:evenodd;stroke:#9b9b9b;stroke-width:2;stroke-linecap:butt;stroke-linejoin:miter;stroke-miterlimit:4;stroke-dasharray:8, 8;stroke-dashoffset:0;stroke-opacity:1" />
    <path
       inkscape:connector-curvature="0"
       id="path4247"
       d="m 582.22303,280.63235 94.28573,32.85715"
       style="fill:none;fill-rule:evenodd;stroke:#000000;stroke-width:2;stroke-linecap:butt;stroke-linejoin:miter;stroke-miterlimit:4;stroke-dasharray:none;stroke-opacity:1" />
    <path
       inkscape:connector-curvature="0"
       id="path4249"
       d="m 676.50876,403.4895 0,-90"
       style="fill:none;fill-rule:evenodd;stroke:#000000;stroke-width:2;stroke-linecap:butt;stroke-linejoin:miter;stroke-miterlimit:4;stroke-dasharray:none;stroke-opacity:1" />
    <g
       transform="translate(440.04355,99.344315)"
       style="font-style:normal;font-weight:normal;font-size:40px;line-height:125%;font-family:sans-serif;letter-spacing:0px;word-spacing:0px;fill:#000000;fill-opacity:1;stroke:none;stroke-width:1px;stroke-linecap:butt;stroke-linejoin:miter;stroke-opacity:1"
       id="flowRoot4251">
      <path
         d="m 210.4082,228.21356 -10.58593,29.08203 -5.15625,0 -10.58594,-29.08203 4.14062,0 9.1211,25.58593 9.12109,-25.58593 3.94531,0 z"
         style=""
         id="path4435" />
    </g>
    <g
       transform="translate(420.55986,81.433673)"
       style="font-style:normal;font-weight:normal;font-size:40px;line-height:125%;font-family:sans-serif;letter-spacing:0px;word-spacing:0px;fill:#000000;fill-opacity:1;stroke:none;stroke-width:1px;stroke-linecap:butt;stroke-linejoin:miter;stroke-opacity:1"
       id="flowRoot4259">
      <path
         d="m 308.42456,205.7977 -2.51099,0 0,-1.5979 q -0.33569,0.22827 -0.91308,0.64453 -0.56397,0.40283 -1.10108,0.64453 -0.6311,0.30884 -1.45019,0.51025 -0.81909,0.21485 -1.92017,0.21485 -2.02759,0 -3.4375,-1.34278 -1.40991,-1.34277 -1.40991,-3.42407 0,-1.70532 0.7251,-2.75268 0.73852,-1.06079 2.09472,-1.66504 1.36963,-0.60425 3.2898,-0.81909 1.92017,-0.21485 4.12231,-0.32227 l 0,-0.3894 q 0,-0.85938 -0.30883,-1.42334 -0.29541,-0.56397 -0.85938,-0.88623 -0.53711,-0.30884 -1.28906,-0.41626 -0.75195,-0.10743 -1.57105,-0.10743 -0.99365,0 -2.21557,0.26856 -1.22193,0.25513 -2.52442,0.75195 l -0.13427,0 0,-2.5647 q 0.73852,-0.20141 2.13501,-0.44311 1.39648,-0.2417 2.75268,-0.2417 1.58447,0 2.75269,0.26855 1.18164,0.25513 2.04101,0.88624 0.84595,0.61767 1.28907,1.5979 0.44311,0.98022 0.44311,2.43042 l 0,10.17822 z m -2.51099,-3.69263 0,-4.17602 q -1.15478,0.0671 -2.72583,0.20141 -1.55761,0.13428 -2.4707,0.38941 -1.08765,0.30883 -1.75903,0.96679 -0.67139,0.64453 -0.67139,1.78589 0,1.28906 0.77881,1.94702 0.77881,0.64453 2.37671,0.64453 1.32934,0 2.43042,-0.51025 1.10107,-0.52368 2.04101,-1.24878 z"
         style="font-size:27.5px"
         id="path4438" />
    </g>
    <g
       transform="translate(285.64036,31.780303)"
       style="font-style:normal;font-weight:normal;font-size:40px;line-height:125%;font-family:sans-serif;letter-spacing:0px;word-spacing:0px;fill:#000000;fill-opacity:1;stroke:none;stroke-width:1px;stroke-linecap:butt;stroke-linejoin:miter;stroke-opacity:1"
       id="flowRoot4267">
      <path
         d="m 307.48462,201.47397 q 0,2.05444 -1.70532,3.37036 -1.6919,1.31592 -4.63257,1.31592 -1.66504,0 -3.06152,-0.38941 -1.38306,-0.40283 -2.323,-0.8728 l 0,-2.83325 0.13427,0 q 1.19507,0.89966 2.6587,1.43677 1.46362,0.52368 2.80639,0.52368 1.66504,0 2.60498,-0.53711 0.93994,-0.53711 0.93994,-1.6919 0,-0.88623 -0.51025,-1.34277 -0.51025,-0.45654 -1.96045,-0.77881 -0.53711,-0.12085 -1.40991,-0.28198 -0.85938,-0.16113 -1.57105,-0.34912 -1.97387,-0.52368 -2.80639,-1.53076 -0.81909,-1.02051 -0.81909,-2.49756 0,-0.92652 0.37597,-1.74561 0.38941,-0.81909 1.16822,-1.46362 0.75195,-0.6311 1.90673,-0.99365 1.16822,-0.37598 2.60498,-0.37598 1.34278,0 2.71241,0.33569 1.38305,0.32227 2.29614,0.79224 l 0,2.69897 -0.13428,0 q -0.9668,-0.71167 -2.34985,-1.19506 -1.38306,-0.49683 -2.7124,-0.49683 -1.38306,0 -2.33643,0.53711 -0.95337,0.52368 -0.95337,1.57104 0,0.92652 0.57739,1.39649 0.56397,0.46997 1.82618,0.76538 0.69824,0.16113 1.55761,0.32226 0.87281,0.16114 1.4502,0.29542 1.75903,0.40283 2.7124,1.38305 0.95337,0.99365 0.95337,2.63184 z"
         style="font-size:27.5px"
         id="path4432" />
    </g>
    <g
       transform="translate(424.00873,96.484436)"
       id="g4275">
      <circle
         style="opacity:1;fill:#ffffff;fill-opacity:1;fill-rule:nonzero;stroke:#000000;stroke-width:2.35582829;stroke-linecap:round;stroke-linejoin:round;stroke-miterlimit:4;stroke-dasharray:none;stroke-dashoffset:0;stroke-opacity:1"
         id="circle4277"
         cx="158.21429"
         cy="184.14792"
         r="17.107801" />
      <circle
         r="17.107801"
         cy="217.00507"
         cx="252.50002"
         id="circle4279"
         style="opacity:1;fill:#ffffff;fill-opacity:1;fill-rule:nonzero;stroke:#000000;stroke-width:2.35582829;stroke-linecap:round;stroke-linejoin:round;stroke-miterlimit:4;stroke-dasharray:none;stroke-dashoffset:0;stroke-opacity:1" />
      <circle
         style="opacity:1;fill:#ffffff;fill-opacity:1;fill-rule:nonzero;stroke:#000000;stroke-width:2.35582829;stroke-linecap:round;stroke-linejoin:round;stroke-miterlimit:4;stroke-dasharray:none;stroke-dashoffset:0;stroke-opacity:1"
         id="circle4281"
         cx="252.50002"
         cy="307.00507"
         r="17.107801" />
      <circle
         r="17.107801"
         cy="230.57649"
         cx="60.357159"
         id="circle4283"
         style="opacity:1;fill:#ffffff;fill-opacity:1;fill-rule:nonzero;stroke:#000000;stroke-width:2.35582829;stroke-linecap:round;stroke-linejoin:round;stroke-miterlimit:4;stroke-dasharray:none;stroke-dashoffset:0;stroke-opacity:1" />
      <circle
         style="opacity:1;fill:#ffffff;fill-opacity:1;fill-rule:nonzero;stroke:#000000;stroke-width:2.35582829;stroke-linecap:round;stroke-linejoin:round;stroke-miterlimit:4;stroke-dasharray:none;stroke-dashoffset:0;stroke-opacity:1"
         id="circle4285"
         cx="148.92859"
         cy="91.290779"
         r="17.107801" />
      <circle
         r="17.107801"
         cy="57.005066"
         cx="266.07144"
         id="circle4287"
         style="opacity:1;fill:#ffffff;fill-opacity:1;fill-rule:nonzero;stroke:#000000;stroke-width:2.35582829;stroke-linecap:round;stroke-linejoin:round;stroke-miterlimit:4;stroke-dasharray:none;stroke-dashoffset:0;stroke-opacity:1" />
      <circle
         style="opacity:1;fill:#ffffff;fill-opacity:1;fill-rule:nonzero;stroke:#000000;stroke-width:2.35582829;stroke-linecap:round;stroke-linejoin:round;stroke-miterlimit:4;stroke-dasharray:none;stroke-dashoffset:0;stroke-opacity:1"
         id="circle4289"
         cx="318.21429"
         cy="142.71935"
         r="17.107801" />
      <circle
         r="17.107801"
         cy="142.71935"
         cx="415.18893"
         id="circle4291"
         style="opacity:1;fill:#ffffff;fill-opacity:1;fill-rule:nonzero;stroke:#000000;stroke-width:2.35582829;stroke-linecap:round;stroke-linejoin:round;stroke-miterlimit:4;stroke-dasharray:none;stroke-dashoffset:0;stroke-opacity:1" />
    </g>
    <g
       transform="translate(60.32279,42.010866)"
       style="font-style:normal;font-weight:normal;font-size:40px;line-height:125%;font-family:sans-serif;letter-spacing:0px;word-spacing:0px;fill:#000000;fill-opacity:1;stroke:none;stroke-width:1px;stroke-linecap:butt;stroke-linejoin:miter;stroke-opacity:1"
       id="flowRoot4293">
      <path
         d="m 521.24414,38.897149 q 0,2.988281 -2.48047,4.902344 -2.46094,1.914062 -6.73828,1.914062 -2.42187,0 -4.45312,-0.566406 -2.01172,-0.585937 -3.37891,-1.269531 l 0,-4.121094 0.19531,0 q 1.73828,1.308594 3.86719,2.089844 2.12891,0.761719 4.08203,0.761719 2.42188,0 3.78906,-0.78125 1.36719,-0.78125 1.36719,-2.460938 0,-1.289062 -0.74219,-1.953125 -0.74218,-0.664062 -2.85156,-1.132812 -0.78125,-0.175782 -2.05078,-0.410157 -1.25,-0.234375 -2.28516,-0.507812 -2.87109,-0.761719 -4.08203,-2.226563 -1.1914,-1.484375 -1.1914,-3.632812 0,-1.347656 0.54687,-2.539063 0.56641,-1.191406 1.69922,-2.128906 1.09375,-0.917969 2.77344,-1.445312 1.69922,-0.546875 3.78906,-0.546875 1.95312,0 3.94531,0.488281 2.01172,0.46875 3.33985,1.152344 l 0,3.925781 -0.19532,0 q -1.40625,-1.035156 -3.41797,-1.738281 -2.01171,-0.722657 -3.94531,-0.722657 -2.01172,0 -3.39844,0.78125 -1.38671,0.761719 -1.38671,2.285157 0,1.347656 0.83984,2.03125 0.82031,0.683593 2.65625,1.113281 1.01562,0.234375 2.26562,0.46875 1.26954,0.234375 2.10938,0.429687 2.55859,0.585938 3.94531,2.011719 1.38672,1.445313 1.38672,3.828125 z"
         style=""
         id="path4471" />
      <path
         d="m 545.11133,34.287774 q 0,5.332031 -2.73438,8.417969 -2.73437,3.085937 -7.32422,3.085937 -4.6289,0 -7.36328,-3.085937 -2.71484,-3.085938 -2.71484,-8.417969 0,-5.332031 2.71484,-8.417969 2.73438,-3.105468 7.36328,-3.105468 4.58985,0 7.32422,3.105468 2.73438,3.085938 2.73438,8.417969 z m -3.78906,0 q 0,-4.238281 -1.66016,-6.289062 -1.66016,-2.070313 -4.60938,-2.070313 -2.98828,0 -4.64843,2.070313 -1.64063,2.050781 -1.64063,6.289062 0,4.101563 1.66016,6.230469 1.66015,2.109375 4.6289,2.109375 2.92969,0 4.58985,-2.089844 1.67969,-2.109375 1.67969,-6.25 z"
         style=""
         id="path4473" />
      <path
         d="m 554.52539,45.186212 -3.67187,0 0,-30.390625 3.67187,0 0,30.390625 z"
         style=""
         id="path4475" />
      <path
         d="m 579.75977,45.186212 -3.67188,0 0,-2.421875 q -1.85547,1.464843 -3.55469,2.246093 -1.69922,0.78125 -3.75,0.78125 -3.4375,0 -5.35156,-2.089843 -1.91406,-2.109375 -1.91406,-6.171875 l 0,-14.160157 3.67187,0 0,12.421875 q 0,1.660157 0.15625,2.851563 0.15625,1.171875 0.66407,2.011719 0.52734,0.859375 1.36718,1.25 0.83985,0.390625 2.44141,0.390625 1.42578,0 3.10547,-0.742188 1.69922,-0.742187 3.16406,-1.894531 l 0,-16.289063 3.67188,0 0,21.816407 z"
         style=""
         id="path4477" />
      <path
         d="m 598.31445,44.990899 q -1.03515,0.273438 -2.26562,0.449219 -1.21094,0.175781 -2.16797,0.175781 -3.33984,0 -5.07813,-1.796875 -1.73828,-1.796875 -1.73828,-5.761719 l 0,-11.601562 -2.48047,0 0,-3.085938 2.48047,0 0,-6.269531 3.67188,0 0,6.269531 7.57812,0 0,3.085938 -7.57812,0 0,9.941406 q 0,1.71875 0.0781,2.695313 0.0781,0.957031 0.54688,1.796875 0.42969,0.78125 1.17187,1.152343 0.76172,0.351563 2.30469,0.351563 0.89844,0 1.875,-0.253906 0.97656,-0.273438 1.40625,-0.449219 l 0.19531,0 0,3.300781 z"
         style=""
         id="path4479" />
      <path
         d="m 606.71289,19.717462 -4.14062,0 0,-3.808594 4.14062,0 0,3.808594 z m -0.23437,25.46875 -3.67188,0 0,-21.816407 3.67188,0 0,21.816407 z"
         style=""
         id="path4481" />
      <path
         d="m 632.2207,34.287774 q 0,5.332031 -2.73437,8.417969 -2.73438,3.085937 -7.32422,3.085937 -4.62891,0 -7.36328,-3.085937 -2.71485,-3.085938 -2.71485,-8.417969 0,-5.332031 2.71485,-8.417969 2.73437,-3.105468 7.36328,-3.105468 4.58984,0 7.32422,3.105468 2.73437,3.085938 2.73437,8.417969 z m -3.78906,0 q 0,-4.238281 -1.66016,-6.289062 -1.66015,-2.070313 -4.60937,-2.070313 -2.98828,0 -4.64844,2.070313 -1.64062,2.050781 -1.64062,6.289062 0,4.101563 1.66015,6.230469 1.66016,2.109375 4.62891,2.109375 2.92969,0 4.58984,-2.089844 1.67969,-2.109375 1.67969,-6.25 z"
         style=""
         id="path4483" />
      <path
         d="m 656.16602,45.186212 -3.67188,0 0,-12.421875 q 0,-1.503907 -0.17578,-2.8125 -0.17578,-1.328125 -0.64453,-2.070313 -0.48828,-0.820312 -1.40625,-1.210937 -0.91797,-0.410157 -2.38281,-0.410157 -1.50391,0 -3.14454,0.742188 -1.64062,0.742187 -3.14453,1.894531 l 0,16.289063 -3.67187,0 0,-21.816407 3.67187,0 0,2.421875 q 1.71875,-1.425781 3.55469,-2.226562 1.83594,-0.800781 3.76953,-0.800781 3.53516,0 5.39063,2.128906 1.85547,2.128906 1.85547,6.132812 l 0,14.160157 z"
         style=""
         id="path4485" />
      <path
         d="m 698.72461,36.88543 q 0,1.699219 -0.80078,3.359375 -0.78125,1.660157 -2.20703,2.8125 -1.5625,1.25 -3.65235,1.953125 -2.07031,0.703125 -5,0.703125 -3.14453,0 -5.66406,-0.585937 -2.5,-0.585938 -5.09766,-1.738281 l 0,-4.84375 0.27344,0 q 2.20703,1.835937 5.09766,2.832031 2.89062,0.996094 5.42969,0.996094 3.59375,0 5.58593,-1.347657 2.01172,-1.347656 2.01172,-3.59375 0,-1.933593 -0.95703,-2.851562 -0.9375,-0.917969 -2.87109,-1.425781 -1.46485,-0.390625 -3.1836,-0.644532 -1.69922,-0.253906 -3.61328,-0.644531 -3.86719,-0.820312 -5.74219,-2.792969 -1.85546,-1.992187 -1.85546,-5.175781 0,-3.652344 3.08593,-5.976562 3.08594,-2.34375 7.83203,-2.34375 3.06641,0 5.625,0.585937 2.5586,0.585938 4.53125,1.445313 l 0,4.570312 -0.27343,0 q -1.66016,-1.40625 -4.375,-2.324219 -2.69532,-0.9375 -5.52735,-0.9375 -3.10547,0 -5,1.289063 -1.875,1.289062 -1.875,3.320312 0,1.816407 0.9375,2.851563 0.9375,1.035156 3.30078,1.582031 1.25,0.273438 3.55469,0.664063 2.30469,0.390625 3.90625,0.800781 3.24219,0.859375 4.88281,2.597656 1.64063,1.738281 1.64063,4.863281 z"
         style=""
         id="path4487" />
    </g>
    <path
       style="fill:none;fill-rule:evenodd;stroke:#000000;stroke-width:2;stroke-linecap:butt;stroke-linejoin:miter;stroke-miterlimit:4;stroke-dasharray:none;stroke-opacity:1"
       d="m 285.35715,239.20378 96.97464,0"
       id="path4215"
       inkscape:connector-curvature="0" />
    <path
       style="fill:none;fill-rule:evenodd;stroke:#000000;stroke-width:2;stroke-linecap:butt;stroke-linejoin:miter;stroke-miterlimit:4;stroke-dasharray:none;stroke-opacity:1"
       d="m 233.2143,153.4895 149.11749,85.71428"
       id="path4217"
       inkscape:connector-curvature="0" />
    <path
       style="fill:none;fill-rule:evenodd;stroke:#000000;stroke-width:2;stroke-linecap:butt;stroke-linejoin:miter;stroke-miterlimit:4;stroke-dasharray:none;stroke-opacity:1"
       d="M 116.07145,187.77521 27.500016,327.06092"
       id="path4204"
       inkscape:connector-curvature="0" />
    <path
       style="opacity:1;fill:#72aeff;fill-opacity:0.62288136;fill-rule:nonzero;stroke:none;stroke-width:2;stroke-linecap:round;stroke-linejoin:round;stroke-miterlimit:4;stroke-dasharray:none;stroke-dashoffset:0;stroke-opacity:1"
       d="m 242.59934,283.70467 c 32.26954,48.57343 15.24863,134.53868 -14.22713,154.12076 -16.43466,10.9183 -44.43714,-8.78902 -53.26263,-29.19957 -7.00313,-16.196 -19.97424,-41.80332 -34.2514,-63.29389 C 125.17997,321.7325 103.92962,323.01296 86.664917,309.9599 68.394677,296.14659 67.787537,270.56504 82.942457,260.49694 112.41821,240.91485 210.32981,235.13125 242.59934,283.70467 Z"
       id="path4175"
       inkscape:connector-curvature="0"
       sodipodi:nodetypes="sssssss" />
    <path
       style="fill:none;fill-rule:evenodd;stroke:#000000;stroke-width:2;stroke-linecap:butt;stroke-linejoin:miter;stroke-miterlimit:4;stroke-dasharray:none;stroke-opacity:1"
       d="M 27.500016,327.06092 125.35715,280.63235"
       id="path4150"
       inkscape:connector-curvature="0" />
    <path
       style="fill:none;fill-rule:evenodd;stroke:#000000;stroke-width:2;stroke-linecap:butt;stroke-linejoin:miter;stroke-miterlimit:4;stroke-dasharray:none;stroke-opacity:1"
       d="m 116.07145,187.77521 9.2857,92.85714"
       id="path4152"
       inkscape:connector-curvature="0" />
    <path
       style="fill:none;fill-rule:evenodd;stroke:#000000;stroke-width:2;stroke-linecap:butt;stroke-linejoin:miter;stroke-miterlimit:4;stroke-dasharray:none;stroke-opacity:1"
       d="M 285.35715,239.20378 233.2143,153.4895"
       id="path4156"
       inkscape:connector-curvature="0" />
    <path
       style="fill:none;fill-rule:evenodd;stroke:#000000;stroke-width:2;stroke-linecap:butt;stroke-linejoin:miter;stroke-miterlimit:4;stroke-dasharray:none;stroke-opacity:1"
       d="M 116.07145,187.77521 233.2143,153.4895"
       id="path4158"
       inkscape:connector-curvature="0" />
    <path
       style="fill:none;fill-rule:evenodd;stroke:#000000;stroke-width:2;stroke-linecap:butt;stroke-linejoin:miter;stroke-miterlimit:4;stroke-dasharray:none;stroke-opacity:1"
       d="m 219.64288,313.4895 65.71427,-74.28572"
       id="path4160"
       inkscape:connector-curvature="0" />
    <path
       style="fill:none;fill-rule:evenodd;stroke:#000000;stroke-width:2;stroke-linecap:butt;stroke-linejoin:miter;stroke-miterlimit:4;stroke-dasharray:none;stroke-opacity:1"
       d="m 125.35715,280.63235 94.28573,32.85715"
       id="path4162"
       inkscape:connector-curvature="0" />
    <path
       style="fill:none;fill-rule:evenodd;stroke:#000000;stroke-width:2;stroke-linecap:butt;stroke-linejoin:miter;stroke-miterlimit:4;stroke-dasharray:none;stroke-opacity:1"
       d="m 219.64288,403.4895 0,-90"
       id="path4164"
       inkscape:connector-curvature="0" />
    <g
       transform="translate(-16.822331,99.344315)"
       style="font-style:normal;font-weight:normal;font-size:40px;line-height:125%;font-family:sans-serif;letter-spacing:0px;word-spacing:0px;fill:#000000;fill-opacity:1;stroke:none;stroke-width:1px;stroke-linecap:butt;stroke-linejoin:miter;stroke-opacity:1"
       id="flowRoot4178">
      <path
         d="m 210.4082,228.21356 -10.58593,29.08203 -5.15625,0 -10.58594,-29.08203 4.14062,0 9.1211,25.58593 9.12109,-25.58593 3.94531,0 z"
         style=""
         id="path4423" />
    </g>
    <g
       transform="translate(-36.306019,81.433673)"
       style="font-style:normal;font-weight:normal;font-size:40px;line-height:125%;font-family:sans-serif;letter-spacing:0px;word-spacing:0px;fill:#000000;fill-opacity:1;stroke:none;stroke-width:1px;stroke-linecap:butt;stroke-linejoin:miter;stroke-opacity:1"
       id="flowRoot4186">
      <path
         d="m 308.42456,205.7977 -2.51099,0 0,-1.5979 q -0.33569,0.22827 -0.91308,0.64453 -0.56397,0.40283 -1.10108,0.64453 -0.6311,0.30884 -1.45019,0.51025 -0.81909,0.21485 -1.92017,0.21485 -2.02759,0 -3.4375,-1.34278 -1.40991,-1.34277 -1.40991,-3.42407 0,-1.70532 0.7251,-2.75268 0.73852,-1.06079 2.09472,-1.66504 1.36963,-0.60425 3.2898,-0.81909 1.92017,-0.21485 4.12231,-0.32227 l 0,-0.3894 q 0,-0.85938 -0.30883,-1.42334 -0.29541,-0.56397 -0.85938,-0.88623 -0.53711,-0.30884 -1.28906,-0.41626 -0.75195,-0.10743 -1.57105,-0.10743 -0.99365,0 -2.21557,0.26856 -1.22193,0.25513 -2.52442,0.75195 l -0.13427,0 0,-2.5647 q 0.73852,-0.20141 2.13501,-0.44311 1.39648,-0.2417 2.75268,-0.2417 1.58447,0 2.75269,0.26855 1.18164,0.25513 2.04101,0.88624 0.84595,0.61767 1.28907,1.5979 0.44311,0.98022 0.44311,2.43042 l 0,10.17822 z m -2.51099,-3.69263 0,-4.17602 q -1.15478,0.0671 -2.72583,0.20141 -1.55761,0.13428 -2.4707,0.38941 -1.08765,0.30883 -1.75903,0.96679 -0.67139,0.64453 -0.67139,1.78589 0,1.28906 0.77881,1.94702 0.77881,0.64453 2.37671,0.64453 1.32934,0 2.43042,-0.51025 1.10107,-0.52368 2.04101,-1.24878 z"
         style="font-size:27.5px"
         id="path4429" />
    </g>
    <g
       transform="translate(-171.22552,31.780303)"
       style="font-style:normal;font-weight:normal;font-size:40px;line-height:125%;font-family:sans-serif;letter-spacing:0px;word-spacing:0px;fill:#000000;fill-opacity:1;stroke:none;stroke-width:1px;stroke-linecap:butt;stroke-linejoin:miter;stroke-opacity:1"
       id="flowRoot4194">
      <path
         d="m 307.48462,201.47397 q 0,2.05444 -1.70532,3.37036 -1.6919,1.31592 -4.63257,1.31592 -1.66504,0 -3.06152,-0.38941 -1.38306,-0.40283 -2.323,-0.8728 l 0,-2.83325 0.13427,0 q 1.19507,0.89966 2.6587,1.43677 1.46362,0.52368 2.80639,0.52368 1.66504,0 2.60498,-0.53711 0.93994,-0.53711 0.93994,-1.6919 0,-0.88623 -0.51025,-1.34277 -0.51025,-0.45654 -1.96045,-0.77881 -0.53711,-0.12085 -1.40991,-0.28198 -0.85938,-0.16113 -1.57105,-0.34912 -1.97387,-0.52368 -2.80639,-1.53076 -0.81909,-1.02051 -0.81909,-2.49756 0,-0.92652 0.37597,-1.74561 0.38941,-0.81909 1.16822,-1.46362 0.75195,-0.6311 1.90673,-0.99365 1.16822,-0.37598 2.60498,-0.37598 1.34278,0 2.71241,0.33569 1.38305,0.32227 2.29614,0.79224 l 0,2.69897 -0.13428,0 q -0.9668,-0.71167 -2.34985,-1.19506 -1.38306,-0.49683 -2.7124,-0.49683 -1.38306,0 -2.33643,0.53711 -0.95337,0.52368 -0.95337,1.57104 0,0.92652 0.57739,1.39649 0.56397,0.46997 1.82618,0.76538 0.69824,0.16113 1.55761,0.32226 0.87281,0.16114 1.4502,0.29542 1.75903,0.40283 2.7124,1.38305 0.95337,0.99365 0.95337,2.63184 z"
         style="font-size:27.5px"
         id="path4426" />
    </g>
    <g
       id="g4219"
       transform="translate(-32.857143,96.484436)">
      <circle
         r="17.107801"
         cy="184.14792"
         cx="158.21429"
         id="path4136"
         style="opacity:1;fill:#ffffff;fill-opacity:1;fill-rule:nonzero;stroke:#000000;stroke-width:2.35582829;stroke-linecap:round;stroke-linejoin:round;stroke-miterlimit:4;stroke-dasharray:none;stroke-dashoffset:0;stroke-opacity:1" />
      <circle
         style="opacity:1;fill:#ffffff;fill-opacity:1;fill-rule:nonzero;stroke:#000000;stroke-width:2.35582829;stroke-linecap:round;stroke-linejoin:round;stroke-miterlimit:4;stroke-dasharray:none;stroke-dashoffset:0;stroke-opacity:1"
         id="circle4138"
         cx="252.50002"
         cy="217.00507"
         r="17.107801" />
      <circle
         r="17.107801"
         cy="307.00507"
         cx="252.50002"
         id="circle4140"
         style="opacity:1;fill:#ffffff;fill-opacity:1;fill-rule:nonzero;stroke:#000000;stroke-width:2.35582829;stroke-linecap:round;stroke-linejoin:round;stroke-miterlimit:4;stroke-dasharray:none;stroke-dashoffset:0;stroke-opacity:1" />
      <circle
         style="opacity:1;fill:#ffffff;fill-opacity:1;fill-rule:nonzero;stroke:#000000;stroke-width:2.35582829;stroke-linecap:round;stroke-linejoin:round;stroke-miterlimit:4;stroke-dasharray:none;stroke-dashoffset:0;stroke-opacity:1"
         id="circle4142"
         cx="60.357159"
         cy="230.57649"
         r="17.107801" />
      <circle
         r="17.107801"
         cy="91.290779"
         cx="148.92859"
         id="circle4144"
         style="opacity:1;fill:#ffffff;fill-opacity:1;fill-rule:nonzero;stroke:#000000;stroke-width:2.35582829;stroke-linecap:round;stroke-linejoin:round;stroke-miterlimit:4;stroke-dasharray:none;stroke-dashoffset:0;stroke-opacity:1" />
      <circle
         style="opacity:1;fill:#ffffff;fill-opacity:1;fill-rule:nonzero;stroke:#000000;stroke-width:2.35582829;stroke-linecap:round;stroke-linejoin:round;stroke-miterlimit:4;stroke-dasharray:none;stroke-dashoffset:0;stroke-opacity:1"
         id="circle4146"
         cx="266.07144"
         cy="57.005066"
         r="17.107801" />
      <circle
         r="17.107801"
         cy="142.71935"
         cx="318.21429"
         id="circle4148"
         style="opacity:1;fill:#ffffff;fill-opacity:1;fill-rule:nonzero;stroke:#000000;stroke-width:2.35582829;stroke-linecap:round;stroke-linejoin:round;stroke-miterlimit:4;stroke-dasharray:none;stroke-dashoffset:0;stroke-opacity:1" />
      <circle
         style="opacity:1;fill:#ffffff;fill-opacity:1;fill-rule:nonzero;stroke:#000000;stroke-width:2.35582829;stroke-linecap:round;stroke-linejoin:round;stroke-miterlimit:4;stroke-dasharray:none;stroke-dashoffset:0;stroke-opacity:1"
         id="circle4213"
         cx="415.18893"
         cy="142.71935"
         r="17.107801" />
    </g>
    <g
       transform="translate(-471.24035,18.182741)"
       style="font-style:normal;font-weight:normal;font-size:40px;line-height:125%;font-family:sans-serif;letter-spacing:0px;word-spacing:0px;fill:#000000;fill-opacity:1;stroke:none;stroke-width:1px;stroke-linecap:butt;stroke-linejoin:miter;stroke-opacity:1"
       id="flowRoot4369">
      <path
         d="m 536.25098,42.705743 q 0,5.546875 -2.51953,8.144531 -2.51954,2.597656 -7.75391,2.597656 -1.73828,0 -3.39844,-0.253906 -1.64062,-0.234375 -3.24219,-0.683594 l 0,-3.75 0.19532,0 q 0.89843,0.351563 2.85156,0.859375 1.95312,0.527344 3.90625,0.527344 1.875,0 3.10547,-0.449219 1.23047,-0.449218 1.91406,-1.25 0.68359,-0.761718 0.97656,-1.835937 0.29297,-1.074219 0.29297,-2.402344 l 0,-1.992187 q -1.66015,1.328125 -3.18359,1.992187 -1.50391,0.644531 -3.84766,0.644531 -3.90625,0 -6.21094,-2.8125 -2.28515,-2.832031 -2.28515,-7.96875 0,-2.8125 0.78125,-4.84375 0.80078,-2.050781 2.16797,-3.535156 1.26953,-1.386719 3.08593,-2.148437 1.81641,-0.78125 3.61329,-0.78125 1.89453,0 3.16406,0.390625 1.28906,0.371093 2.71484,1.152343 l 0.23438,-0.9375 3.4375,0 0,19.335938 z m -3.67188,-3.515625 0,-11.894531 q -1.46484,-0.664063 -2.73437,-0.9375 -1.25,-0.292969 -2.5,-0.292969 -3.02735,0 -4.76563,2.03125 -1.73828,2.03125 -1.73828,5.898437 0,3.671875 1.28906,5.566407 1.28907,1.894531 4.27735,1.894531 1.60156,0 3.20312,-0.605469 1.6211,-0.625 2.96875,-1.660156 z"
         style="text-align:center;text-anchor:middle"
         id="path4490" />
      <path
         d="m 557.09082,27.373712 -0.19531,0 q -0.82031,-0.195313 -1.60156,-0.273438 -0.76172,-0.09766 -1.81641,-0.09766 -1.69922,0 -3.28125,0.761719 -1.58203,0.742187 -3.04688,1.933593 l 0,15.488282 -3.67187,0 0,-21.816407 3.67187,0 0,3.222657 q 2.1875,-1.757813 3.84766,-2.480469 1.67969,-0.742188 3.41797,-0.742188 0.95703,0 1.38672,0.05859 0.42969,0.03906 1.28906,0.175781 l 0,3.769532 z"
         style="text-align:center;text-anchor:middle"
         id="path4492" />
      <path
         d="m 576.83691,45.186212 -3.65234,0 0,-2.324219 q -0.48828,0.332031 -1.32812,0.9375 -0.82032,0.585937 -1.60157,0.9375 -0.91797,0.449219 -2.10937,0.742187 -1.19141,0.3125 -2.79297,0.3125 -2.94922,0 -5,-1.953125 -2.05078,-1.953125 -2.05078,-4.980468 0,-2.480469 1.05469,-4.003907 1.07421,-1.542968 3.04687,-2.421875 1.99219,-0.878906 4.78516,-1.191406 2.79297,-0.3125 5.99609,-0.46875 l 0,-0.566406 q 0,-1.25 -0.44922,-2.070313 -0.42969,-0.820312 -1.25,-1.289062 -0.78125,-0.449219 -1.875,-0.605469 -1.09375,-0.15625 -2.28515,-0.15625 -1.44532,0 -3.22266,0.390625 -1.77734,0.371094 -3.67188,1.09375 l -0.19531,0 0,-3.730469 q 1.07422,-0.292968 3.10547,-0.644531 2.03125,-0.351562 4.00391,-0.351562 2.30468,0 4.0039,0.390625 1.71875,0.371093 2.96875,1.289062 1.23047,0.898438 1.875,2.324219 0.64453,1.425781 0.64453,3.535156 l 0,14.804688 z m -3.65234,-5.371094 0,-6.074219 q -1.67969,0.09766 -3.96484,0.292969 -2.26563,0.195312 -3.59375,0.566406 -1.58203,0.449219 -2.5586,1.40625 -0.97656,0.9375 -0.97656,2.597656 0,1.875 1.13281,2.832032 1.13282,0.9375 3.45703,0.9375 1.9336,0 3.53516,-0.742188 1.60156,-0.761719 2.96875,-1.816406 z"
         style="text-align:center;text-anchor:middle"
         id="path4494" />
      <path
         d="m 603.14551,34.014337 q 0,2.65625 -0.76172,4.863281 -0.76172,2.1875 -2.14844,3.710937 -1.28906,1.445313 -3.04687,2.246094 -1.73828,0.78125 -3.69141,0.78125 -1.69922,0 -3.08594,-0.371094 -1.36718,-0.371093 -2.79297,-1.152343 l 0,9.140625 -3.67187,0 0,-29.863282 3.67187,0 0,2.285157 q 1.46485,-1.230469 3.28125,-2.050782 1.83594,-0.839843 3.90625,-0.839843 3.94532,0 6.13282,2.988281 2.20703,2.96875 2.20703,8.261719 z m -3.78906,0.09766 q 0,-3.945313 -1.34766,-5.898438 -1.34766,-1.953125 -4.14063,-1.953125 -1.58203,0 -3.18359,0.683594 -1.60156,0.683594 -3.06641,1.796875 l 0,12.363281 q 1.5625,0.703125 2.67579,0.957032 1.13281,0.253906 2.55859,0.253906 3.06641,0 4.78516,-2.070313 1.71875,-2.070312 1.71875,-6.132812 z"
         style="text-align:center;text-anchor:middle"
         id="path4496" />
      <path
         d="m 627.11035,45.186212 -3.67187,0 0,-12.421875 q 0,-1.503907 -0.17578,-2.8125 -0.17579,-1.328125 -0.64454,-2.070313 -0.48828,-0.820312 -1.40625,-1.210937 -0.91796,-0.410157 -2.38281,-0.410157 -1.5039,0 -3.14453,0.742188 -1.64062,0.742187 -3.14453,1.894531 l 0,16.289063 -3.67188,0 0,-30.390625 3.67188,0 0,10.996093 q 1.71875,-1.425781 3.55469,-2.226562 1.83593,-0.800781 3.76953,-0.800781 3.53515,0 5.39062,2.128906 1.85547,2.128906 1.85547,6.132812 l 0,14.160157 z"
         style="text-align:center;text-anchor:middle"
         id="path4498" />
      <path
         d="m 652.44238,34.658868 -16.07422,0 q 0,2.011719 0.60547,3.515625 0.60547,1.484375 1.66016,2.441406 1.01562,0.9375 2.40234,1.40625 1.40625,0.46875 3.08594,0.46875 2.22656,0 4.47266,-0.878906 2.26562,-0.898438 3.22265,-1.757813 l 0.19532,0 0,4.003907 q -1.85547,0.78125 -3.78907,1.308593 -1.93359,0.527344 -4.0625,0.527344 -5.42968,0 -8.47656,-2.929687 -3.04687,-2.949219 -3.04687,-8.359375 0,-5.351563 2.91015,-8.496094 2.92969,-3.144531 7.69531,-3.144531 4.41407,0 6.79688,2.578125 2.40234,2.578125 2.40234,7.324218 l 0,1.992188 z m -3.57422,-2.8125 q -0.0195,-2.890625 -1.46484,-4.472656 -1.42578,-1.582032 -4.35547,-1.582032 -2.94922,0 -4.70703,1.738282 -1.73828,1.738281 -1.97266,4.316406 l 12.5,0 z"
         style="text-align:center;text-anchor:middle"
         id="path4500" />
      <path
         d="m 689.7666,45.186212 -3.67187,0 0,-2.285157 q -1.58203,1.367188 -3.30078,2.128907 -1.71875,0.761718 -3.73047,0.761718 -3.90625,0 -6.21094,-3.007812 -2.28516,-3.007813 -2.28516,-8.339844 0,-2.773437 0.78125,-4.941406 0.80078,-2.167969 2.14844,-3.691406 1.32813,-1.484375 3.08594,-2.265625 1.77734,-0.78125 3.67187,-0.78125 1.71875,0 3.04688,0.371093 1.32812,0.351563 2.79297,1.113282 l 0,-9.453125 3.67187,0 0,30.390625 z m -3.67187,-5.371094 0,-12.519531 q -1.48438,-0.664063 -2.65625,-0.917969 -1.17188,-0.253906 -2.5586,-0.253906 -3.08593,0 -4.80468,2.148437 -1.71875,2.148438 -1.71875,6.09375 0,3.886719 1.32812,5.917969 1.32813,2.011719 4.25781,2.011719 1.5625,0 3.16407,-0.683594 1.60156,-0.703125 2.98828,-1.796875 z"
         style="text-align:center;text-anchor:middle"
         id="path4502" />
      <path
         d="m 715.25488,34.658868 -16.07422,0 q 0,2.011719 0.60547,3.515625 0.60547,1.484375 1.66016,2.441406 1.01562,0.9375 2.40234,1.40625 1.40625,0.46875 3.08594,0.46875 2.22656,0 4.47266,-0.878906 2.26562,-0.898438 3.22265,-1.757813 l 0.19532,0 0,4.003907 q -1.85547,0.78125 -3.78907,1.308593 -1.93359,0.527344 -4.0625,0.527344 -5.42968,0 -8.47656,-2.929687 -3.04687,-2.949219 -3.04687,-8.359375 0,-5.351563 2.91015,-8.496094 2.92969,-3.144531 7.69531,-3.144531 4.41407,0 6.79688,2.578125 2.40234,2.578125 2.40234,7.324218 l 0,1.992188 z m -3.57422,-2.8125 q -0.0195,-2.890625 -1.46484,-4.472656 -1.42578,-1.582032 -4.35547,-1.582032 -2.94922,0 -4.70703,1.738282 -1.73828,1.738281 -1.97266,4.316406 l 12.5,0 z"
         style="text-align:center;text-anchor:middle"
         id="path4504" />
      <path
         d="m 752.5791,45.186212 -3.67187,0 0,-2.285157 q -1.58203,1.367188 -3.30078,2.128907 -1.71875,0.761718 -3.73047,0.761718 -3.90625,0 -6.21094,-3.007812 -2.28516,-3.007813 -2.28516,-8.339844 0,-2.773437 0.78125,-4.941406 0.80078,-2.167969 2.14844,-3.691406 1.32813,-1.484375 3.08594,-2.265625 1.77734,-0.78125 3.67187,-0.78125 1.71875,0 3.04688,0.371093 1.32812,0.351563 2.79297,1.113282 l 0,-9.453125 3.67187,0 0,30.390625 z m -3.67187,-5.371094 0,-12.519531 q -1.48438,-0.664063 -2.65625,-0.917969 -1.17188,-0.253906 -2.5586,-0.253906 -3.08593,0 -4.80468,2.148437 -1.71875,2.148438 -1.71875,6.09375 0,3.886719 1.32812,5.917969 1.32813,2.011719 4.25781,2.011719 1.5625,0 3.16407,-0.683594 1.60156,-0.703125 2.98828,-1.796875 z"
         style="text-align:center;text-anchor:middle"
         id="path4506" />
      <path
         d="m 778.06738,34.658868 -16.07422,0 q 0,2.011719 0.60547,3.515625 0.60547,1.484375 1.66016,2.441406 1.01562,0.9375 2.40234,1.40625 1.40625,0.46875 3.08594,0.46875 2.22656,0 4.47266,-0.878906 2.26562,-0.898438 3.22265,-1.757813 l 0.19532,0 0,4.003907 q -1.85547,0.78125 -3.78907,1.308593 -1.93359,0.527344 -4.0625,0.527344 -5.42968,0 -8.47656,-2.929687 -3.04687,-2.949219 -3.04687,-8.359375 0,-5.351563 2.91015,-8.496094 2.92969,-3.144531 7.69531,-3.144531 4.41407,0 6.79688,2.578125 2.40234,2.578125 2.40234,7.324218 l 0,1.992188 z m -3.57422,-2.8125 q -0.0195,-2.890625 -1.46484,-4.472656 -1.42578,-1.582032 -4.35547,-1.582032 -2.94922,0 -4.70703,1.738282 -1.73828,1.738281 -1.97266,4.316406 l 12.5,0 z m 0.44922,-19.394531 -5.33203,7.304687 -2.91015,0 3.49609,-7.304687 4.74609,0 z"
         style="text-align:center;text-anchor:middle"
         id="path4508" />
      <path
         d="m 802.83301,34.014337 q 0,2.65625 -0.76172,4.863281 -0.76172,2.1875 -2.14844,3.710937 -1.28906,1.445313 -3.04687,2.246094 -1.73828,0.78125 -3.69141,0.78125 -1.69922,0 -3.08594,-0.371094 -1.36718,-0.371093 -2.79297,-1.152343 l 0,9.140625 -3.67187,0 0,-29.863282 3.67187,0 0,2.285157 q 1.46485,-1.230469 3.28125,-2.050782 1.83594,-0.839843 3.90625,-0.839843 3.94532,0 6.13282,2.988281 2.20703,2.96875 2.20703,8.261719 z m -3.78906,0.09766 q 0,-3.945313 -1.34766,-5.898438 -1.34766,-1.953125 -4.14063,-1.953125 -1.58203,0 -3.18359,0.683594 -1.60156,0.683594 -3.06641,1.796875 l 0,12.363281 q 1.5625,0.703125 2.67579,0.957032 1.13281,0.253906 2.55859,0.253906 3.06641,0 4.78516,-2.070313 1.71875,-2.070312 1.71875,-6.132812 z"
         style="text-align:center;text-anchor:middle"
         id="path4510" />
      <path
         d="m 825.50879,45.186212 -3.65234,0 0,-2.324219 q -0.48829,0.332031 -1.32813,0.9375 -0.82031,0.585937 -1.60156,0.9375 -0.91797,0.449219 -2.10938,0.742187 -1.1914,0.3125 -2.79297,0.3125 -2.94921,0 -5,-1.953125 -2.05078,-1.953125 -2.05078,-4.980468 0,-2.480469 1.05469,-4.003907 1.07422,-1.542968 3.04688,-2.421875 1.99218,-0.878906 4.78515,-1.191406 2.79297,-0.3125 5.9961,-0.46875 l 0,-0.566406 q 0,-1.25 -0.44922,-2.070313 -0.42969,-0.820312 -1.25,-1.289062 -0.78125,-0.449219 -1.875,-0.605469 -1.09375,-0.15625 -2.28516,-0.15625 -1.44531,0 -3.22266,0.390625 -1.77734,0.371094 -3.67187,1.09375 l -0.19531,0 0,-3.730469 q 1.07422,-0.292968 3.10547,-0.644531 2.03125,-0.351562 4.0039,-0.351562 2.30469,0 4.00391,0.390625 1.71875,0.371093 2.96875,1.289062 1.23047,0.898438 1.875,2.324219 0.64453,1.425781 0.64453,3.535156 l 0,14.804688 z m -3.65234,-5.371094 0,-6.074219 q -1.67969,0.09766 -3.96485,0.292969 -2.26562,0.195312 -3.59375,0.566406 -1.58203,0.449219 -2.55859,1.40625 -0.97656,0.9375 -0.97656,2.597656 0,1.875 1.13281,2.832032 1.13281,0.9375 3.45703,0.9375 1.93359,0 3.53516,-0.742188 1.60156,-0.761719 2.96875,-1.816406 z"
         style="text-align:center;text-anchor:middle"
         id="path4512" />
      <path
         d="m 846.23145,27.373712 -0.19532,0 q -0.82031,-0.195313 -1.60156,-0.273438 -0.76172,-0.09766 -1.81641,-0.09766 -1.69921,0 -3.28125,0.761719 -1.58203,0.742187 -3.04687,1.933593 l 0,15.488282 -3.67188,0 0,-21.816407 3.67188,0 0,3.222657 q 2.1875,-1.757813 3.84766,-2.480469 1.67968,-0.742188 3.41796,-0.742188 0.95704,0 1.38672,0.05859 0.42969,0.03906 1.28907,0.175781 l 0,3.769532 z"
         style="text-align:center;text-anchor:middle"
         id="path4514" />
      <path
         d="m 861.05566,44.990899 q -1.03515,0.273438 -2.26562,0.449219 -1.21094,0.175781 -2.16797,0.175781 -3.33984,0 -5.07812,-1.796875 -1.73829,-1.796875 -1.73829,-5.761719 l 0,-11.601562 -2.48046,0 0,-3.085938 2.48046,0 0,-6.269531 3.67188,0 0,6.269531 7.57812,0 0,3.085938 -7.57812,0 0,9.941406 q 0,1.71875 0.0781,2.695313 0.0781,0.957031 0.54688,1.796875 0.42969,0.78125 1.17187,1.152343 0.76172,0.351563 2.30469,0.351563 0.89844,0 1.875,-0.253906 0.97656,-0.273438 1.40625,-0.449219 l 0.19531,0 0,3.300781 z"
         style="text-align:center;text-anchor:middle"
         id="path4516" />
      <path
         d="m 527.96973,95.186212 -3.65235,0 0,-2.324219 q -0.48828,0.332031 -1.32812,0.9375 -0.82031,0.585937 -1.60156,0.9375 -0.91797,0.449219 -2.10938,0.742187 -1.19141,0.3125 -2.79297,0.3125 -2.94922,0 -5,-1.953125 -2.05078,-1.953125 -2.05078,-4.980468 0,-2.480469 1.05469,-4.003907 1.07422,-1.542968 3.04687,-2.421875 1.99219,-0.878906 4.78516,-1.191406 2.79297,-0.3125 5.99609,-0.46875 l 0,-0.566406 q 0,-1.25 -0.44922,-2.070313 -0.42968,-0.820312 -1.25,-1.289062 -0.78125,-0.449219 -1.875,-0.605469 -1.09375,-0.15625 -2.28515,-0.15625 -1.44531,0 -3.22266,0.390625 -1.77734,0.371094 -3.67187,1.09375 l -0.19532,0 0,-3.730469 q 1.07422,-0.292968 3.10547,-0.644531 2.03125,-0.351562 4.00391,-0.351562 2.30469,0 4.00391,0.390625 1.71875,0.371093 2.96875,1.289062 1.23046,0.898438 1.875,2.324219 0.64453,1.425781 0.64453,3.535156 l 0,14.804688 z m -3.65235,-5.371094 0,-6.074219 q -1.67968,0.09766 -3.96484,0.292969 -2.26563,0.195312 -3.59375,0.566406 -1.58203,0.449219 -2.55859,1.40625 -0.97657,0.9375 -0.97657,2.597656 0,1.875 1.13282,2.832032 1.13281,0.9375 3.45703,0.9375 1.93359,0 3.53515,-0.742188 1.60157,-0.761719 2.96875,-1.816406 z"
         style="text-align:center;text-anchor:middle"
         id="path4518" />
      <path
         d="m 553.63379,73.369805 -8.82813,21.816407 -3.6914,0 -8.76953,-21.816407 3.98437,0 6.75781,17.363282 6.69922,-17.363282 3.84766,0 z"
         style="text-align:center;text-anchor:middle"
         id="path4520" />
      <path
         d="m 576.3877,84.658868 -16.07422,0 q 0,2.011719 0.60547,3.515625 0.60546,1.484375 1.66015,2.441406 1.01563,0.9375 2.40235,1.40625 1.40625,0.46875 3.08593,0.46875 2.22657,0 4.47266,-0.878906 2.26562,-0.898438 3.22266,-1.757813 l 0.19531,0 0,4.003907 q -1.85547,0.78125 -3.78906,1.308593 -1.9336,0.527344 -4.0625,0.527344 -5.42969,0 -8.47657,-2.929687 -3.04687,-2.949219 -3.04687,-8.359375 0,-5.351563 2.91015,-8.496094 2.92969,-3.144531 7.69532,-3.144531 4.41406,0 6.79687,2.578125 2.40235,2.578125 2.40235,7.324218 l 0,1.992188 z m -3.57422,-2.8125 q -0.0195,-2.890625 -1.46485,-4.472656 -1.42578,-1.582032 -4.35547,-1.582032 -2.94921,0 -4.70703,1.738282 -1.73828,1.738281 -1.97265,4.316406 l 12.5,0 z"
         style="text-align:center;text-anchor:middle"
         id="path4522" />
      <path
         d="m 598.08691,93.819024 q -1.83593,0.878906 -3.49609,1.367188 -1.64062,0.488281 -3.49609,0.488281 -2.36328,0 -4.33594,-0.683594 -1.97266,-0.703125 -3.37891,-2.109375 -1.42578,-1.40625 -2.20703,-3.554687 -0.78125,-2.148438 -0.78125,-5.019532 0,-5.351562 2.92969,-8.398437 2.94922,-3.046875 7.77344,-3.046875 1.875,0 3.67187,0.527344 1.81641,0.527343 3.32031,1.289062 l 0,4.082031 -0.19531,0 q -1.67969,-1.308593 -3.47656,-2.011718 -1.77734,-0.703125 -3.47656,-0.703125 -3.125,0 -4.94141,2.109375 -1.79687,2.089843 -1.79687,6.152343 0,3.945313 1.75781,6.074219 1.77734,2.109375 4.98047,2.109375 1.11328,0 2.26562,-0.292969 1.15235,-0.292968 2.07031,-0.761718 0.80079,-0.410157 1.50391,-0.859375 0.70313,-0.46875 1.11328,-0.800782 l 0.19531,0 0,4.042969 z"
         style="text-align:center;text-anchor:middle"
         id="path4524" />
      <path
         d="m 620.58691,95.186212 -3.67187,0 0,-30.390625 3.67187,0 0,30.390625 z"
         style="text-align:center;text-anchor:middle"
         id="path4526" />
      <path
         d="m 645.99707,84.658868 -16.07422,0 q 0,2.011719 0.60547,3.515625 0.60547,1.484375 1.66016,2.441406 1.01562,0.9375 2.40234,1.40625 1.40625,0.46875 3.08594,0.46875 2.22656,0 4.47265,-0.878906 2.26563,-0.898438 3.22266,-1.757813 l 0.19531,0 0,4.003907 q -1.85547,0.78125 -3.78906,1.308593 -1.93359,0.527344 -4.0625,0.527344 -5.42969,0 -8.47656,-2.929687 -3.04688,-2.949219 -3.04688,-8.359375 0,-5.351563 2.91016,-8.496094 2.92969,-3.144531 7.69531,-3.144531 4.41406,0 6.79688,2.578125 2.40234,2.578125 2.40234,7.324218 l 0,1.992188 z m -3.57422,-2.8125 q -0.0195,-2.890625 -1.46484,-4.472656 -1.42578,-1.582032 -4.35547,-1.582032 -2.94922,0 -4.70703,1.738282 -1.73828,1.738281 -1.97266,4.316406 l 12.5,0 z"
         style="text-align:center;text-anchor:middle"
         id="path4528" />
      <path
         d="m 667.14941,88.897149 q 0,2.988281 -2.48046,4.902344 -2.46094,1.914062 -6.73829,1.914062 -2.42187,0 -4.45312,-0.566406 -2.01172,-0.585937 -3.37891,-1.269531 l 0,-4.121094 0.19532,0 q 1.73828,1.308594 3.86718,2.089844 2.12891,0.761719 4.08203,0.761719 2.42188,0 3.78907,-0.78125 1.36718,-0.78125 1.36718,-2.460938 0,-1.289062 -0.74218,-1.953125 -0.74219,-0.664062 -2.85157,-1.132812 -0.78125,-0.175782 -2.05078,-0.410157 -1.25,-0.234375 -2.28515,-0.507812 -2.8711,-0.761719 -4.08203,-2.226563 -1.19141,-1.484375 -1.19141,-3.632812 0,-1.347656 0.54687,-2.539063 0.56641,-1.191406 1.69922,-2.128906 1.09375,-0.917969 2.77344,-1.445312 1.69922,-0.546875 3.78906,-0.546875 1.95313,0 3.94532,0.488281 2.01171,0.46875 3.33984,1.152344 l 0,3.925781 -0.19531,0 q -1.40625,-1.035156 -3.41797,-1.738281 -2.01172,-0.722657 -3.94531,-0.722657 -2.01172,0 -3.39844,0.78125 -1.38672,0.761719 -1.38672,2.285157 0,1.347656 0.83984,2.03125 0.82032,0.683593 2.65625,1.113281 1.01563,0.234375 2.26563,0.46875 1.26953,0.234375 2.10937,0.429687 2.5586,0.585938 3.94532,2.011719 1.38671,1.445313 1.38671,3.828125 z"
         style="text-align:center;text-anchor:middle"
         id="path4530" />
      <path
         d="m 704.72754,95.186212 -3.67188,0 0,-12.421875 q 0,-1.503907 -0.17578,-2.8125 -0.17578,-1.328125 -0.64453,-2.070313 -0.48828,-0.820312 -1.40625,-1.210937 -0.91797,-0.410157 -2.38281,-0.410157 -1.50391,0 -3.14453,0.742188 -1.64063,0.742187 -3.14453,1.894531 l 0,16.289063 -3.67188,0 0,-21.816407 3.67188,0 0,2.421875 q 1.71875,-1.425781 3.55468,-2.226562 1.83594,-0.800781 3.76954,-0.800781 3.53515,0 5.39062,2.128906 1.85547,2.128906 1.85547,6.132812 l 0,14.160157 z"
         style="text-align:center;text-anchor:middle"
         id="path4532" />
      <path
         d="m 730.3916,84.287774 q 0,5.332031 -2.73437,8.417969 -2.73438,3.085937 -7.32422,3.085937 -4.62891,0 -7.36328,-3.085937 -2.71485,-3.085938 -2.71485,-8.417969 0,-5.332031 2.71485,-8.417969 2.73437,-3.105468 7.36328,-3.105468 4.58984,0 7.32422,3.105468 2.73437,3.085938 2.73437,8.417969 z m -3.78906,0 q 0,-4.238281 -1.66016,-6.289062 -1.66015,-2.070313 -4.60937,-2.070313 -2.98828,0 -4.64844,2.070313 -1.64062,2.050781 -1.64062,6.289062 0,4.101563 1.66015,6.230469 1.66016,2.109375 4.62891,2.109375 2.92969,0 4.58984,-2.089844 1.67969,-2.109375 1.67969,-6.25 z"
         style="text-align:center;text-anchor:middle"
         id="path4534" />
      <path
         d="m 747.42285,94.990899 q -1.03515,0.273438 -2.26562,0.449219 -1.21094,0.175781 -2.16797,0.175781 -3.33985,0 -5.07813,-1.796875 -1.73828,-1.796875 -1.73828,-5.761719 l 0,-11.601562 -2.48047,0 0,-3.085938 2.48047,0 0,-6.269531 3.67188,0 0,6.269531 7.57812,0 0,3.085938 -7.57812,0 0,9.941406 q 0,1.71875 0.0781,2.695313 0.0781,0.957031 0.54688,1.796875 0.42968,0.78125 1.17187,1.152343 0.76172,0.351563 2.30469,0.351563 0.89844,0 1.875,-0.253906 0.97656,-0.273438 1.40625,-0.449219 l 0.19531,0 0,3.300781 z"
         style="text-align:center;text-anchor:middle"
         id="path4536" />
      <path
         d="m 768.8291,95.186212 -3.65234,0 0,-2.324219 q -0.48828,0.332031 -1.32813,0.9375 -0.82031,0.585937 -1.60156,0.9375 -0.91797,0.449219 -2.10937,0.742187 -1.19141,0.3125 -2.79297,0.3125 -2.94922,0 -5,-1.953125 -2.05078,-1.953125 -2.05078,-4.980468 0,-2.480469 1.05468,-4.003907 1.07422,-1.542968 3.04688,-2.421875 1.99219,-0.878906 4.78515,-1.191406 2.79297,-0.3125 5.9961,-0.46875 l 0,-0.566406 q 0,-1.25 -0.44922,-2.070313 -0.42969,-0.820312 -1.25,-1.289062 -0.78125,-0.449219 -1.875,-0.605469 -1.09375,-0.15625 -2.28516,-0.15625 -1.44531,0 -3.22265,0.390625 -1.77735,0.371094 -3.67188,1.09375 l -0.19531,0 0,-3.730469 q 1.07422,-0.292968 3.10547,-0.644531 2.03125,-0.351562 4.0039,-0.351562 2.30469,0 4.00391,0.390625 1.71875,0.371093 2.96875,1.289062 1.23047,0.898438 1.875,2.324219 0.64453,1.425781 0.64453,3.535156 l 0,14.804688 z m -3.65234,-5.371094 0,-6.074219 q -1.67969,0.09766 -3.96485,0.292969 -2.26562,0.195312 -3.59375,0.566406 -1.58203,0.449219 -2.55859,1.40625 -0.97656,0.9375 -0.97656,2.597656 0,1.875 1.13281,2.832032 1.13281,0.9375 3.45703,0.9375 1.9336,0 3.53516,-0.742188 1.60156,-0.761719 2.96875,-1.816406 z"
         style="text-align:center;text-anchor:middle"
         id="path4538" />
      <path
         d="m 787.2666,94.990899 q -1.03515,0.273438 -2.26562,0.449219 -1.21094,0.175781 -2.16797,0.175781 -3.33985,0 -5.07813,-1.796875 -1.73828,-1.796875 -1.73828,-5.761719 l 0,-11.601562 -2.48047,0 0,-3.085938 2.48047,0 0,-6.269531 3.67188,0 0,6.269531 7.57812,0 0,3.085938 -7.57812,0 0,9.941406 q 0,1.71875 0.0781,2.695313 0.0781,0.957031 0.54688,1.796875 0.42968,0.78125 1.17187,1.152343 0.76172,0.351563 2.30469,0.351563 0.89844,0 1.875,-0.253906 0.97656,-0.273438 1.40625,-0.449219 l 0.19531,0 0,3.300781 z"
         style="text-align:center;text-anchor:middle"
         id="path4540" />
      <path
         d="m 795.66504,69.717462 -4.14063,0 0,-3.808594 4.14063,0 0,3.808594 z m -0.23438,25.46875 -3.67187,0 0,-21.816407 3.67187,0 0,21.816407 z"
         style="text-align:center;text-anchor:middle"
         id="path4542" />
      <path
         d="m 821.17285,84.287774 q 0,5.332031 -2.73437,8.417969 -2.73438,3.085937 -7.32422,3.085937 -4.62891,0 -7.36328,-3.085937 -2.71485,-3.085938 -2.71485,-8.417969 0,-5.332031 2.71485,-8.417969 2.73437,-3.105468 7.36328,-3.105468 4.58984,0 7.32422,3.105468 2.73437,3.085938 2.73437,8.417969 z m -3.78906,0 q 0,-4.238281 -1.66016,-6.289062 -1.66015,-2.070313 -4.60937,-2.070313 -2.98828,0 -4.64844,2.070313 -1.64062,2.050781 -1.64062,6.289062 0,4.101563 1.66015,6.230469 1.66016,2.109375 4.62891,2.109375 2.92969,0 4.58984,-2.089844 1.67969,-2.109375 1.67969,-6.25 z"
         style="text-align:center;text-anchor:middle"
         id="path4544" />
      <path
         d="m 845.11816,95.186212 -3.67187,0 0,-12.421875 q 0,-1.503907 -0.17578,-2.8125 -0.17578,-1.328125 -0.64453,-2.070313 -0.48828,-0.820312 -1.40625,-1.210937 -0.91797,-0.410157 -2.38282,-0.410157 -1.5039,0 -3.14453,0.742188 -1.64062,0.742187 -3.14453,1.894531 l 0,16.289063 -3.67187,0 0,-21.816407 3.67187,0 0,2.421875 q 1.71875,-1.425781 3.55469,-2.226562 1.83594,-0.800781 3.76953,-0.800781 3.53516,0 5.39063,2.128906 1.85546,2.128906 1.85546,6.132812 l 0,14.160157 z"
         style="text-align:center;text-anchor:middle"
         id="path4546" />
      <path
         d="m 867.77441,88.897149 q 0,2.988281 -2.48046,4.902344 -2.46094,1.914062 -6.73829,1.914062 -2.42187,0 -4.45312,-0.566406 -2.01172,-0.585937 -3.37891,-1.269531 l 0,-4.121094 0.19532,0 q 1.73828,1.308594 3.86718,2.089844 2.12891,0.761719 4.08203,0.761719 2.42188,0 3.78907,-0.78125 1.36718,-0.78125 1.36718,-2.460938 0,-1.289062 -0.74218,-1.953125 -0.74219,-0.664062 -2.85157,-1.132812 -0.78125,-0.175782 -2.05078,-0.410157 -1.25,-0.234375 -2.28515,-0.507812 -2.8711,-0.761719 -4.08203,-2.226563 -1.19141,-1.484375 -1.19141,-3.632812 0,-1.347656 0.54687,-2.539063 0.56641,-1.191406 1.69922,-2.128906 1.09375,-0.917969 2.77344,-1.445312 1.69922,-0.546875 3.78906,-0.546875 1.95313,0 3.94532,0.488281 2.01171,0.46875 3.33984,1.152344 l 0,3.925781 -0.19531,0 q -1.40625,-1.035156 -3.41797,-1.738281 -2.01172,-0.722657 -3.94531,-0.722657 -2.01172,0 -3.39844,0.78125 -1.38672,0.761719 -1.38672,2.285157 0,1.347656 0.83984,2.03125 0.82032,0.683593 2.65625,1.113281 1.01563,0.234375 2.26563,0.46875 1.26953,0.234375 2.10937,0.429687 2.5586,0.585938 3.94532,2.011719 1.38671,1.445313 1.38671,3.828125 z"
         style="text-align:center;text-anchor:middle"
         id="path4548" />
    </g>
    <path
       style="fill:none;fill-rule:evenodd;stroke:#000000;stroke-width:2;stroke-linecap:butt;stroke-linejoin:miter;stroke-miterlimit:4;stroke-dasharray:none;stroke-opacity:1"
       d="m 1199.089,239.20378 96.9746,0"
       id="path4381"
       inkscape:connector-curvature="0" />
    <path
       style="fill:none;fill-rule:evenodd;stroke:#9b9b9b;stroke-width:2;stroke-linecap:butt;stroke-linejoin:miter;stroke-miterlimit:4;stroke-dasharray:8, 8;stroke-dashoffset:0;stroke-opacity:1"
       d="m 1146.9461,153.4895 149.1175,85.71428"
       id="path4383"
       inkscape:connector-curvature="0" />
    <path
       style="fill:none;fill-rule:evenodd;stroke:#9b9b9b;stroke-width:2;stroke-linecap:butt;stroke-linejoin:miter;stroke-miterlimit:4;stroke-dasharray:8, 8;stroke-dashoffset:0;stroke-opacity:1"
       d="M 1029.8033,187.77521 941.23182,327.06092"
       id="path4385"
       inkscape:connector-curvature="0" />
    <path
       style="opacity:1;fill:#72aeff;fill-opacity:0.62288136;fill-rule:nonzero;stroke:none;stroke-width:2;stroke-linecap:round;stroke-linejoin:round;stroke-miterlimit:4;stroke-dasharray:none;stroke-dashoffset:0;stroke-opacity:1"
       d="m 1156.3312,283.70467 c 32.2695,48.57343 15.2486,134.53868 -14.2272,154.12076 -16.4346,10.9183 -44.4371,-8.78902 -53.2626,-29.19957 -7.0031,-16.196 -19.9742,-41.80332 -34.2514,-63.29389 -15.6782,-23.59947 -36.9286,-22.31901 -54.1933,-35.37207 -18.27022,-13.81331 -18.87736,-39.39486 -3.72244,-49.46296 29.47574,-19.58209 127.38734,-25.36569 159.65694,23.20773 z"
       id="path4387"
       inkscape:connector-curvature="0"
       sodipodi:nodetypes="sssssss" />
    <path
       style="fill:none;fill-rule:evenodd;stroke:#000000;stroke-width:2;stroke-linecap:butt;stroke-linejoin:miter;stroke-miterlimit:4;stroke-dasharray:none;stroke-opacity:1"
       d="M 941.23182,327.06092 1039.089,280.63235"
       id="path4389"
       inkscape:connector-curvature="0" />
    <path
       style="fill:none;fill-rule:evenodd;stroke:#9b9b9b;stroke-width:2;stroke-linecap:butt;stroke-linejoin:miter;stroke-miterlimit:4;stroke-dasharray:8, 8;stroke-dashoffset:0;stroke-opacity:1"
       d="m 1029.8033,187.77521 9.2857,92.85714"
       id="path4391"
       inkscape:connector-curvature="0" />
    <path
       style="fill:none;fill-rule:evenodd;stroke:#000000;stroke-width:2;stroke-linecap:butt;stroke-linejoin:miter;stroke-miterlimit:4;stroke-dasharray:none;stroke-opacity:1"
       d="M 1199.089,239.20378 1146.9461,153.4895"
       id="path4393"
       inkscape:connector-curvature="0" />
    <path
       style="fill:none;fill-rule:evenodd;stroke:#000000;stroke-width:2;stroke-linecap:butt;stroke-linejoin:miter;stroke-miterlimit:4;stroke-dasharray:none;stroke-opacity:1"
       d="M 1029.8033,187.77521 1146.9461,153.4895"
       id="path4395"
       inkscape:connector-curvature="0" />
    <path
       style="fill:none;fill-rule:evenodd;stroke:#000000;stroke-width:2;stroke-linecap:butt;stroke-linejoin:miter;stroke-miterlimit:4;stroke-dasharray:none;stroke-dashoffset:0;stroke-opacity:1"
       d="m 1133.3747,313.4895 65.7143,-74.28572"
       id="path4397"
       inkscape:connector-curvature="0" />
    <path
       style="fill:none;fill-rule:evenodd;stroke:#000000;stroke-width:2;stroke-linecap:butt;stroke-linejoin:miter;stroke-miterlimit:4;stroke-dasharray:none;stroke-opacity:1"
       d="m 1039.089,280.63235 94.2857,32.85715"
       id="path4399"
       inkscape:connector-curvature="0" />
    <path
       style="fill:none;fill-rule:evenodd;stroke:#000000;stroke-width:2;stroke-linecap:butt;stroke-linejoin:miter;stroke-miterlimit:4;stroke-dasharray:none;stroke-opacity:1"
       d="m 1133.3747,403.4895 0,-90"
       id="path4401"
       inkscape:connector-curvature="0" />
    <g
       transform="translate(896.90948,99.344315)"
       style="font-style:normal;font-weight:normal;font-size:40px;line-height:125%;font-family:sans-serif;letter-spacing:0px;word-spacing:0px;fill:#000000;fill-opacity:1;stroke:none;stroke-width:1px;stroke-linecap:butt;stroke-linejoin:miter;stroke-opacity:1"
       id="flowRoot4403">
      <path
         d="m 210.4082,228.21356 -10.58593,29.08203 -5.15625,0 -10.58594,-29.08203 4.14062,0 9.1211,25.58593 9.12109,-25.58593 3.94531,0 z"
         style=""
         id="path4444" />
    </g>
    <g
       transform="translate(877.42579,81.433673)"
       style="font-style:normal;font-weight:normal;font-size:40px;line-height:125%;font-family:sans-serif;letter-spacing:0px;word-spacing:0px;fill:#000000;fill-opacity:1;stroke:none;stroke-width:1px;stroke-linecap:butt;stroke-linejoin:miter;stroke-opacity:1"
       id="flowRoot4411">
      <path
         d="m 308.42456,205.7977 -2.51099,0 0,-1.5979 q -0.33569,0.22827 -0.91308,0.64453 -0.56397,0.40283 -1.10108,0.64453 -0.6311,0.30884 -1.45019,0.51025 -0.81909,0.21485 -1.92017,0.21485 -2.02759,0 -3.4375,-1.34278 -1.40991,-1.34277 -1.40991,-3.42407 0,-1.70532 0.7251,-2.75268 0.73852,-1.06079 2.09472,-1.66504 1.36963,-0.60425 3.2898,-0.81909 1.92017,-0.21485 4.12231,-0.32227 l 0,-0.3894 q 0,-0.85938 -0.30883,-1.42334 -0.29541,-0.56397 -0.85938,-0.88623 -0.53711,-0.30884 -1.28906,-0.41626 -0.75195,-0.10743 -1.57105,-0.10743 -0.99365,0 -2.21557,0.26856 -1.22193,0.25513 -2.52442,0.75195 l -0.13427,0 0,-2.5647 q 0.73852,-0.20141 2.13501,-0.44311 1.39648,-0.2417 2.75268,-0.2417 1.58447,0 2.75269,0.26855 1.18164,0.25513 2.04101,0.88624 0.84595,0.61767 1.28907,1.5979 0.44311,0.98022 0.44311,2.43042 l 0,10.17822 z m -2.51099,-3.69263 0,-4.17602 q -1.15478,0.0671 -2.72583,0.20141 -1.55761,0.13428 -2.4707,0.38941 -1.08765,0.30883 -1.75903,0.96679 -0.67139,0.64453 -0.67139,1.78589 0,1.28906 0.77881,1.94702 0.77881,0.64453 2.37671,0.64453 1.32934,0 2.43042,-0.51025 1.10107,-0.52368 2.04101,-1.24878 z"
         style="font-size:27.5px"
         id="path4447" />
    </g>
    <g
       transform="translate(742.50629,31.780303)"
       style="font-style:normal;font-weight:normal;font-size:40px;line-height:125%;font-family:sans-serif;letter-spacing:0px;word-spacing:0px;fill:#000000;fill-opacity:1;stroke:none;stroke-width:1px;stroke-linecap:butt;stroke-linejoin:miter;stroke-opacity:1"
       id="flowRoot4419">
      <path
         d="m 307.48462,201.47397 q 0,2.05444 -1.70532,3.37036 -1.6919,1.31592 -4.63257,1.31592 -1.66504,0 -3.06152,-0.38941 -1.38306,-0.40283 -2.323,-0.8728 l 0,-2.83325 0.13427,0 q 1.19507,0.89966 2.6587,1.43677 1.46362,0.52368 2.80639,0.52368 1.66504,0 2.60498,-0.53711 0.93994,-0.53711 0.93994,-1.6919 0,-0.88623 -0.51025,-1.34277 -0.51025,-0.45654 -1.96045,-0.77881 -0.53711,-0.12085 -1.40991,-0.28198 -0.85938,-0.16113 -1.57105,-0.34912 -1.97387,-0.52368 -2.80639,-1.53076 -0.81909,-1.02051 -0.81909,-2.49756 0,-0.92652 0.37597,-1.74561 0.38941,-0.81909 1.16822,-1.46362 0.75195,-0.6311 1.90673,-0.99365 1.16822,-0.37598 2.60498,-0.37598 1.34278,0 2.71241,0.33569 1.38305,0.32227 2.29614,0.79224 l 0,2.69897 -0.13428,0 q -0.9668,-0.71167 -2.34985,-1.19506 -1.38306,-0.49683 -2.7124,-0.49683 -1.38306,0 -2.33643,0.53711 -0.95337,0.52368 -0.95337,1.57104 0,0.92652 0.57739,1.39649 0.56397,0.46997 1.82618,0.76538 0.69824,0.16113 1.55761,0.32226 0.87281,0.16114 1.4502,0.29542 1.75903,0.40283 2.7124,1.38305 0.95337,0.99365 0.95337,2.63184 z"
         style="font-size:27.5px"
         id="path4441" />
    </g>
    <g
       id="g4427"
       transform="translate(880.87466,96.484436)">
      <circle
         r="17.107801"
         cy="184.14792"
         cx="158.21429"
         id="circle4429"
         style="opacity:1;fill:#ffffff;fill-opacity:1;fill-rule:nonzero;stroke:#000000;stroke-width:2.35582829;stroke-linecap:round;stroke-linejoin:round;stroke-miterlimit:4;stroke-dasharray:none;stroke-dashoffset:0;stroke-opacity:1" />
      <circle
         style="opacity:1;fill:#ffffff;fill-opacity:1;fill-rule:nonzero;stroke:#000000;stroke-width:2.35582829;stroke-linecap:round;stroke-linejoin:round;stroke-miterlimit:4;stroke-dasharray:none;stroke-dashoffset:0;stroke-opacity:1"
         id="circle4431"
         cx="252.50002"
         cy="217.00507"
         r="17.107801" />
      <circle
         r="17.107801"
         cy="307.00507"
         cx="252.50002"
         id="circle4433"
         style="opacity:1;fill:#ffffff;fill-opacity:1;fill-rule:nonzero;stroke:#000000;stroke-width:2.35582829;stroke-linecap:round;stroke-linejoin:round;stroke-miterlimit:4;stroke-dasharray:none;stroke-dashoffset:0;stroke-opacity:1" />
      <circle
         style="opacity:1;fill:#ffffff;fill-opacity:1;fill-rule:nonzero;stroke:#000000;stroke-width:2.35582829;stroke-linecap:round;stroke-linejoin:round;stroke-miterlimit:4;stroke-dasharray:none;stroke-dashoffset:0;stroke-opacity:1"
         id="circle4435"
         cx="60.357159"
         cy="230.57649"
         r="17.107801" />
      <circle
         r="17.107801"
         cy="91.290779"
         cx="148.92859"
         id="circle4437"
         style="opacity:1;fill:#ffffff;fill-opacity:1;fill-rule:nonzero;stroke:#000000;stroke-width:2.35582829;stroke-linecap:round;stroke-linejoin:round;stroke-miterlimit:4;stroke-dasharray:none;stroke-dashoffset:0;stroke-opacity:1" />
      <circle
         style="opacity:1;fill:#ffffff;fill-opacity:1;fill-rule:nonzero;stroke:#000000;stroke-width:2.35582829;stroke-linecap:round;stroke-linejoin:round;stroke-miterlimit:4;stroke-dasharray:none;stroke-dashoffset:0;stroke-opacity:1"
         id="circle4439"
         cx="266.07144"
         cy="57.005066"
         r="17.107801" />
      <circle
         r="17.107801"
         cy="142.71935"
         cx="318.21429"
         id="circle4441"
         style="opacity:1;fill:#ffffff;fill-opacity:1;fill-rule:nonzero;stroke:#000000;stroke-width:2.35582829;stroke-linecap:round;stroke-linejoin:round;stroke-miterlimit:4;stroke-dasharray:none;stroke-dashoffset:0;stroke-opacity:1" />
      <circle
         style="opacity:1;fill:#ffffff;fill-opacity:1;fill-rule:nonzero;stroke:#000000;stroke-width:2.35582829;stroke-linecap:round;stroke-linejoin:round;stroke-miterlimit:4;stroke-dasharray:none;stroke-dashoffset:0;stroke-opacity:1"
         id="circle4443"
         cx="415.18893"
         cy="142.71935"
         r="17.107801" />
    </g>
    <g
       transform="translate(517.18872,42.010866)"
       style="font-style:normal;font-weight:normal;font-size:40px;line-height:125%;font-family:sans-serif;letter-spacing:0px;word-spacing:0px;fill:#000000;fill-opacity:1;stroke:none;stroke-width:1px;stroke-linecap:butt;stroke-linejoin:miter;stroke-opacity:1"
       id="flowRoot4445">
      <path
         d="m 521.24414,38.897149 q 0,2.988281 -2.48047,4.902344 -2.46094,1.914062 -6.73828,1.914062 -2.42187,0 -4.45312,-0.566406 -2.01172,-0.585937 -3.37891,-1.269531 l 0,-4.121094 0.19531,0 q 1.73828,1.308594 3.86719,2.089844 2.12891,0.761719 4.08203,0.761719 2.42188,0 3.78906,-0.78125 1.36719,-0.78125 1.36719,-2.460938 0,-1.289062 -0.74219,-1.953125 -0.74218,-0.664062 -2.85156,-1.132812 -0.78125,-0.175782 -2.05078,-0.410157 -1.25,-0.234375 -2.28516,-0.507812 -2.87109,-0.761719 -4.08203,-2.226563 -1.1914,-1.484375 -1.1914,-3.632812 0,-1.347656 0.54687,-2.539063 0.56641,-1.191406 1.69922,-2.128906 1.09375,-0.917969 2.77344,-1.445312 1.69922,-0.546875 3.78906,-0.546875 1.95312,0 3.94531,0.488281 2.01172,0.46875 3.33985,1.152344 l 0,3.925781 -0.19532,0 q -1.40625,-1.035156 -3.41797,-1.738281 -2.01171,-0.722657 -3.94531,-0.722657 -2.01172,0 -3.39844,0.78125 -1.38671,0.761719 -1.38671,2.285157 0,1.347656 0.83984,2.03125 0.82031,0.683593 2.65625,1.113281 1.01562,0.234375 2.26562,0.46875 1.26954,0.234375 2.10938,0.429687 2.55859,0.585938 3.94531,2.011719 1.38672,1.445313 1.38672,3.828125 z"
         style=""
         id="path4450" />
      <path
         d="m 545.11133,34.287774 q 0,5.332031 -2.73438,8.417969 -2.73437,3.085937 -7.32422,3.085937 -4.6289,0 -7.36328,-3.085937 -2.71484,-3.085938 -2.71484,-8.417969 0,-5.332031 2.71484,-8.417969 2.73438,-3.105468 7.36328,-3.105468 4.58985,0 7.32422,3.105468 2.73438,3.085938 2.73438,8.417969 z m -3.78906,0 q 0,-4.238281 -1.66016,-6.289062 -1.66016,-2.070313 -4.60938,-2.070313 -2.98828,0 -4.64843,2.070313 -1.64063,2.050781 -1.64063,6.289062 0,4.101563 1.66016,6.230469 1.66015,2.109375 4.6289,2.109375 2.92969,0 4.58985,-2.089844 1.67969,-2.109375 1.67969,-6.25 z"
         style=""
         id="path4452" />
      <path
         d="m 554.52539,45.186212 -3.67187,0 0,-30.390625 3.67187,0 0,30.390625 z"
         style=""
         id="path4454" />
      <path
         d="m 579.75977,45.186212 -3.67188,0 0,-2.421875 q -1.85547,1.464843 -3.55469,2.246093 -1.69922,0.78125 -3.75,0.78125 -3.4375,0 -5.35156,-2.089843 -1.91406,-2.109375 -1.91406,-6.171875 l 0,-14.160157 3.67187,0 0,12.421875 q 0,1.660157 0.15625,2.851563 0.15625,1.171875 0.66407,2.011719 0.52734,0.859375 1.36718,1.25 0.83985,0.390625 2.44141,0.390625 1.42578,0 3.10547,-0.742188 1.69922,-0.742187 3.16406,-1.894531 l 0,-16.289063 3.67188,0 0,21.816407 z"
         style=""
         id="path4456" />
      <path
         d="m 598.31445,44.990899 q -1.03515,0.273438 -2.26562,0.449219 -1.21094,0.175781 -2.16797,0.175781 -3.33984,0 -5.07813,-1.796875 -1.73828,-1.796875 -1.73828,-5.761719 l 0,-11.601562 -2.48047,0 0,-3.085938 2.48047,0 0,-6.269531 3.67188,0 0,6.269531 7.57812,0 0,3.085938 -7.57812,0 0,9.941406 q 0,1.71875 0.0781,2.695313 0.0781,0.957031 0.54688,1.796875 0.42969,0.78125 1.17187,1.152343 0.76172,0.351563 2.30469,0.351563 0.89844,0 1.875,-0.253906 0.97656,-0.273438 1.40625,-0.449219 l 0.19531,0 0,3.300781 z"
         style=""
         id="path4458" />
      <path
         d="m 606.71289,19.717462 -4.14062,0 0,-3.808594 4.14062,0 0,3.808594 z m -0.23437,25.46875 -3.67188,0 0,-21.816407 3.67188,0 0,21.816407 z"
         style=""
         id="path4460" />
      <path
         d="m 632.2207,34.287774 q 0,5.332031 -2.73437,8.417969 -2.73438,3.085937 -7.32422,3.085937 -4.62891,0 -7.36328,-3.085937 -2.71485,-3.085938 -2.71485,-8.417969 0,-5.332031 2.71485,-8.417969 2.73437,-3.105468 7.36328,-3.105468 4.58984,0 7.32422,3.105468 2.73437,3.085938 2.73437,8.417969 z m -3.78906,0 q 0,-4.238281 -1.66016,-6.289062 -1.66015,-2.070313 -4.60937,-2.070313 -2.98828,0 -4.64844,2.070313 -1.64062,2.050781 -1.64062,6.289062 0,4.101563 1.66015,6.230469 1.66016,2.109375 4.62891,2.109375 2.92969,0 4.58984,-2.089844 1.67969,-2.109375 1.67969,-6.25 z"
         style=""
         id="path4462" />
      <path
         d="m 656.16602,45.186212 -3.67188,0 0,-12.421875 q 0,-1.503907 -0.17578,-2.8125 -0.17578,-1.328125 -0.64453,-2.070313 -0.48828,-0.820312 -1.40625,-1.210937 -0.91797,-0.410157 -2.38281,-0.410157 -1.50391,0 -3.14454,0.742188 -1.64062,0.742187 -3.14453,1.894531 l 0,16.289063 -3.67187,0 0,-21.816407 3.67187,0 0,2.421875 q 1.71875,-1.425781 3.55469,-2.226562 1.83594,-0.800781 3.76953,-0.800781 3.53516,0 5.39063,2.128906 1.85547,2.128906 1.85547,6.132812 l 0,14.160157 z"
         style=""
         id="path4464" />
      <path
         d="m 698.72461,36.88543 q 0,1.699219 -0.80078,3.359375 -0.78125,1.660157 -2.20703,2.8125 -1.5625,1.25 -3.65235,1.953125 -2.07031,0.703125 -5,0.703125 -3.14453,0 -5.66406,-0.585937 -2.5,-0.585938 -5.09766,-1.738281 l 0,-4.84375 0.27344,0 q 2.20703,1.835937 5.09766,2.832031 2.89062,0.996094 5.42969,0.996094 3.59375,0 5.58593,-1.347657 2.01172,-1.347656 2.01172,-3.59375 0,-1.933593 -0.95703,-2.851562 -0.9375,-0.917969 -2.87109,-1.425781 -1.46485,-0.390625 -3.1836,-0.644532 -1.69922,-0.253906 -3.61328,-0.644531 -3.86719,-0.820312 -5.74219,-2.792969 -1.85546,-1.992187 -1.85546,-5.175781 0,-3.652344 3.08593,-5.976562 3.08594,-2.34375 7.83203,-2.34375 3.06641,0 5.625,0.585937 2.5586,0.585938 4.53125,1.445313 l 0,4.570312 -0.27343,0 q -1.66016,-1.40625 -4.375,-2.324219 -2.69532,-0.9375 -5.52735,-0.9375 -3.10547,0 -5,1.289063 -1.875,1.289062 -1.875,3.320312 0,1.816407 0.9375,2.851563 0.9375,1.035156 3.30078,1.582031 1.25,0.273438 3.55469,0.664063 2.30469,0.390625 3.90625,0.800781 3.24219,0.859375 4.88281,2.597656 1.64063,1.738281 1.64063,4.863281 z"
         style=""
         id="path4466" />
      <path
         d="m 708.56836,14.795587 -0.83984,11.308593 -2.65625,0 -0.83985,-11.308593 4.33594,0 z"
         style=""
         id="path4468" />
    </g>
  </g>
</svg>
