<?xml version="1.0" encoding="UTF-8" standalone="no"?>
<!-- Created with Inkscape (http://www.inkscape.org/) -->

<svg
   xmlns:dc="http://purl.org/dc/elements/1.1/"
   xmlns:cc="http://creativecommons.org/ns#"
   xmlns:rdf="http://www.w3.org/1999/02/22-rdf-syntax-ns#"
   xmlns:svg="http://www.w3.org/2000/svg"
   xmlns="http://www.w3.org/2000/svg"
   xmlns:sodipodi="http://sodipodi.sourceforge.net/DTD/sodipodi-0.dtd"
   xmlns:inkscape="http://www.inkscape.org/namespaces/inkscape"
   width="19.714365cm"
   height="8.3314066cm"
   viewBox="0 0 698.54049 295.20731"
   id="svg2"
   version="1.1"
   inkscape:version="0.91 r13725"
   sodipodi:docname="exemple connexe.svg">
  <defs
     id="defs4" />
  <sodipodi:namedview
     id="base"
     pagecolor="#ffffff"
     bordercolor="#666666"
     borderopacity="1.0"
     inkscape:pageopacity="0.0"
     inkscape:pageshadow="2"
     inkscape:zoom="0.7"
     inkscape:cx="152.55609"
     inkscape:cy="125.10259"
     inkscape:document-units="px"
     inkscape:current-layer="layer1"
     showgrid="false"
     inkscape:snap-center="true"
     inkscape:window-width="1280"
     inkscape:window-height="657"
     inkscape:window-x="-8"
     inkscape:window-y="-8"
     inkscape:window-maximized="1"
     fit-margin-top="1"
     fit-margin-left="1"
     fit-margin-bottom="1"
     fit-margin-right="1"
     units="cm" />
  <metadata
     id="metadata7">
    <rdf:RDF>
      <cc:Work
         rdf:about="">
        <dc:format>image/svg+xml</dc:format>
        <dc:type
           rdf:resource="http://purl.org/dc/dcmitype/StillImage" />
        <dc:title />
      </cc:Work>
    </rdf:RDF>
  </metadata>
  <g
     inkscape:label="Calque 1"
     inkscape:groupmode="layer"
     id="layer1"
     transform="translate(-19.232687,8.4859587)">
    <path
       style="fill:none;fill-rule:evenodd;stroke:#000000;stroke-width:2;stroke-linecap:butt;stroke-linejoin:miter;stroke-miterlimit:4;stroke-dasharray:none;stroke-opacity:1"
       d="m 76.938769,166.16898 70.507521,-61.1952"
       id="path4388"
       inkscape:connector-curvature="0" />
    <path
       style="fill:none;fill-rule:evenodd;stroke:#000000;stroke-width:2;stroke-linecap:butt;stroke-linejoin:miter;stroke-miterlimit:4;stroke-dasharray:none;stroke-opacity:1"
       d="m 246.29981,104.97377 -98.06257,1e-5"
       id="path4390"
       inkscape:connector-curvature="0"
       sodipodi:nodetypes="cc" />
    <path
       style="fill:none;fill-rule:evenodd;stroke:#000000;stroke-width:2;stroke-linecap:butt;stroke-linejoin:miter;stroke-miterlimit:4;stroke-dasharray:none;stroke-opacity:1"
       d="m 76.938769,166.16898 70.507521,61.1952"
       id="path4392"
       inkscape:connector-curvature="0" />
    <path
       style="fill:none;fill-rule:evenodd;stroke:#000000;stroke-width:2;stroke-linecap:butt;stroke-linejoin:miter;stroke-miterlimit:4;stroke-dasharray:none;stroke-opacity:1"
       d="m 148.23724,104.97378 -0.37297,122.3904"
       id="path4394"
       inkscape:connector-curvature="0" />
    <path
       style="fill:none;fill-rule:evenodd;stroke:#000000;stroke-width:2;stroke-linecap:butt;stroke-linejoin:miter;stroke-miterlimit:4;stroke-dasharray:none;stroke-opacity:1"
       d="m 245.89076,104.97378 0,122.3904"
       id="path4396"
       inkscape:connector-curvature="0" />
    <path
       style="fill:none;fill-rule:evenodd;stroke:#000000;stroke-width:2;stroke-linecap:butt;stroke-linejoin:miter;stroke-miterlimit:4;stroke-dasharray:none;stroke-opacity:1"
       d="m 315.06797,166.16898 -69.17721,61.1952"
       id="path4398"
       inkscape:connector-curvature="0" />
    <path
       style="fill:none;fill-rule:evenodd;stroke:#000000;stroke-width:2;stroke-linecap:butt;stroke-linejoin:miter;stroke-miterlimit:4;stroke-dasharray:none;stroke-opacity:1"
       d="m 147.86427,227.36418 98.02649,0"
       id="path4400"
       inkscape:connector-curvature="0" />
    <path
       style="fill:none;fill-rule:evenodd;stroke:#000000;stroke-width:2;stroke-linecap:butt;stroke-linejoin:miter;stroke-miterlimit:4;stroke-dasharray:none;stroke-opacity:1"
       d="M 315.06797,166.16898 246.29981,104.97377"
       id="path4402"
       inkscape:connector-curvature="0"
       sodipodi:nodetypes="cc" />
    <path
       style="fill:none;fill-rule:evenodd;stroke:#000000;stroke-width:2;stroke-linecap:butt;stroke-linejoin:miter;stroke-miterlimit:4;stroke-dasharray:none;stroke-opacity:1"
       d="m 147.86427,227.36418 98.02649,-122.3904"
       id="path4404"
       inkscape:connector-curvature="0" />
    <circle
       r="21.569088"
       cy="104.97378"
       cx="147.44629"
       id="circle4146"
       style="opacity:1;fill:#ffffff;fill-opacity:1;fill-rule:nonzero;stroke:#000000;stroke-width:1.40784454;stroke-linecap:round;stroke-linejoin:round;stroke-miterlimit:4;stroke-dasharray:none;stroke-dashoffset:0;stroke-opacity:1" />
    <g
       transform="matrix(0.65848009,0,0,0.65848009,37.33865,-54.224513)"
       style="font-style:normal;font-weight:normal;font-size:40px;line-height:125%;font-family:sans-serif;letter-spacing:0px;word-spacing:0px;fill:#000000;fill-opacity:1;stroke:none;stroke-width:1px;stroke-linecap:butt;stroke-linejoin:miter;stroke-opacity:1"
       id="flowRoot4148">
      <path
         d="m 179.38281,247.36199 q 0,2.16797 -0.82031,3.82813 -0.82031,1.66015 -2.20703,2.73437 -1.64063,1.28907 -3.61328,1.83594 -1.95313,0.54688 -4.98047,0.54688 l -10.3125,0 0,-29.08204 8.61328,0 q 3.18359,0 4.76562,0.23438 1.58204,0.23437 3.02735,0.97656 1.60156,0.83985 2.32422,2.16797 0.72265,1.30859 0.72265,3.14453 0,2.07031 -1.05468,3.53516 -1.05469,1.44531 -2.8125,2.32422 l 0,0.15625 q 2.94921,0.60547 4.64843,2.59765 1.69922,1.97266 1.69922,5 z m -6.5039,-13.10547 q 0,-1.05468 -0.35157,-1.77734 -0.35156,-0.72266 -1.13281,-1.17187 -0.91797,-0.52735 -2.22656,-0.64454 -1.3086,-0.13671 -3.24219,-0.13671 l -4.60937,0 0,8.39843 5,0 q 1.8164,0 2.89062,-0.17578 1.07422,-0.19531 1.99219,-0.78125 0.91797,-0.58594 1.28906,-1.5039 0.39063,-0.9375 0.39063,-2.20704 z m 2.48046,13.26172 q 0,-1.75781 -0.52734,-2.79297 -0.52734,-1.03515 -1.91406,-1.75781 -0.9375,-0.48828 -2.28516,-0.625 -1.32812,-0.15625 -3.24219,-0.15625 l -6.07421,0 0,10.82031 5.11718,0 q 2.53907,0 4.16016,-0.2539 1.62109,-0.27344 2.65625,-0.97656 1.09375,-0.76172 1.60156,-1.73829 0.50781,-0.97656 0.50781,-2.51953 z"
         style=""
         id="path6092" />
    </g>
    <circle
       r="21.569088"
       cy="104.97378"
       cx="245.89076"
       id="circle4166"
       style="opacity:1;fill:#ffffff;fill-opacity:1;fill-rule:nonzero;stroke:#000000;stroke-width:1.40784454;stroke-linecap:round;stroke-linejoin:round;stroke-miterlimit:4;stroke-dasharray:none;stroke-dashoffset:0;stroke-opacity:1" />
    <g
       transform="matrix(0.65848009,0,0,0.65848009,135.78311,-54.224513)"
       style="font-style:normal;font-weight:normal;font-size:40px;line-height:125%;font-family:sans-serif;letter-spacing:0px;word-spacing:0px;fill:#000000;fill-opacity:1;stroke:none;stroke-width:1px;stroke-linecap:butt;stroke-linejoin:miter;stroke-opacity:1"
       id="flowRoot4168">
      <path
         d="m 182.01953,241.79559 q 0,3.96484 -1.73828,7.1875 -1.71875,3.22265 -4.58984,5 -1.99219,1.23047 -4.45313,1.77734 -2.44141,0.54688 -6.44531,0.54688 l -7.34375,0 0,-29.08204 7.26562,0 q 4.25782,0 6.75782,0.625 2.51953,0.60547 4.25781,1.67969 2.96875,1.85547 4.6289,4.94141 1.66016,3.08594 1.66016,7.32422 z m -4.04297,-0.0586 q 0,-3.41797 -1.1914,-5.76172 -1.19141,-2.34375 -3.55469,-3.6914 -1.71875,-0.97656 -3.65235,-1.34766 -1.93359,-0.39062 -4.6289,-0.39062 l -3.63281,0 0,22.4414 3.63281,0 q 2.79297,0 4.86328,-0.41015 2.08984,-0.41016 3.82812,-1.52344 2.16797,-1.38672 3.24219,-3.65234 1.09375,-2.26563 1.09375,-5.66407 z"
         style=""
         id="path6089" />
    </g>
    <circle
       style="opacity:1;fill:#ffffff;fill-opacity:1;fill-rule:nonzero;stroke:#000000;stroke-width:1.40784454;stroke-linecap:round;stroke-linejoin:round;stroke-miterlimit:4;stroke-dasharray:none;stroke-dashoffset:0;stroke-opacity:1"
       id="circle4156"
       cx="147.44629"
       cy="227.36418"
       r="21.569088" />
    <g
       transform="matrix(0.65848009,0,0,0.65848009,37.338649,68.165896)"
       style="font-style:normal;font-weight:normal;font-size:40px;line-height:125%;font-family:sans-serif;letter-spacing:0px;word-spacing:0px;fill:#000000;fill-opacity:1;stroke:none;stroke-width:1px;stroke-linecap:butt;stroke-linejoin:miter;stroke-opacity:1"
       id="flowRoot4158">
      <path
         d="m 179.91016,254.19793 q -1.07422,0.46875 -1.95313,0.87891 -0.85937,0.41015 -2.26562,0.85937 -1.19141,0.3711 -2.59766,0.625 -1.38672,0.27344 -3.06641,0.27344 -3.16406,0 -5.76172,-0.87891 -2.57812,-0.89843 -4.49218,-2.79297 -1.875,-1.85546 -2.92969,-4.70703 -1.05469,-2.87109 -1.05469,-6.66015 0,-3.59375 1.01563,-6.42578 1.01562,-2.83204 2.92968,-4.78516 1.85547,-1.89453 4.47266,-2.89063 2.63672,-0.99609 5.83984,-0.99609 2.34375,0 4.66797,0.56641 2.34375,0.5664 5.19532,1.99218 l 0,4.58985 -0.29297,0 q -2.40235,-2.01172 -4.76563,-2.92969 -2.36328,-0.91797 -5.05859,-0.91797 -2.20703,0 -3.98438,0.72266 -1.75781,0.70312 -3.14453,2.20703 -1.34765,1.46484 -2.10937,3.71094 -0.74219,2.22656 -0.74219,5.15625 0,3.0664 0.82031,5.27343 0.83985,2.20704 2.14844,3.59375 1.36719,1.44532 3.18359,2.14844 1.83594,0.6836 3.86719,0.6836 2.79297,0 5.23438,-0.95704 2.4414,-0.95703 4.57031,-2.87109 l 0.27344,0 0,4.53125 z"
         style=""
         id="path6098" />
    </g>
    <circle
       style="opacity:1;fill:#ffffff;fill-opacity:1;fill-rule:nonzero;stroke:#000000;stroke-width:1.40784454;stroke-linecap:round;stroke-linejoin:round;stroke-miterlimit:4;stroke-dasharray:none;stroke-dashoffset:0;stroke-opacity:1"
       id="circle4176"
       cx="245.89076"
       cy="227.36418"
       r="21.569088" />
    <g
       transform="matrix(0.65848009,0,0,0.65848009,135.78312,68.165893)"
       style="font-style:normal;font-weight:normal;font-size:40px;line-height:125%;font-family:sans-serif;letter-spacing:0px;word-spacing:0px;fill:#000000;fill-opacity:1;stroke:none;stroke-width:1px;stroke-linecap:butt;stroke-linejoin:miter;stroke-opacity:1"
       id="flowRoot4178">
      <path
         d="m 176.60937,256.30731 -19.16015,0 0,-29.08204 19.16015,0 0,3.4375 -15.29296,0 0,7.96875 15.29296,0 0,3.4375 -15.29296,0 0,10.80079 15.29296,0 0,3.4375 z"
         style=""
         id="path6101" />
    </g>
    <circle
       style="opacity:1;fill:#ffffff;fill-opacity:1;fill-rule:nonzero;stroke:#000000;stroke-width:1.40784454;stroke-linecap:round;stroke-linejoin:round;stroke-miterlimit:4;stroke-dasharray:none;stroke-dashoffset:0;stroke-opacity:1"
       id="path4136"
       cx="76.938766"
       cy="166.16898"
       r="21.569088" />
    <g
       style="font-style:normal;font-weight:normal;font-size:26.33920288px;line-height:125%;font-family:sans-serif;letter-spacing:0px;word-spacing:0px;fill:#000000;fill-opacity:1;stroke:none;stroke-width:1px;stroke-linecap:butt;stroke-linejoin:miter;stroke-opacity:1"
       id="flowRoot4138">
      <path
         d="m 85.606477,175.74386 -2.713658,0 -1.877697,-5.33729 -8.282445,0 -1.877697,5.33729 -2.585049,0 6.970629,-19.14994 3.395288,0 6.970629,19.14994 z m -5.375873,-7.52365 -3.356705,-9.40135 -3.369566,9.40135 6.726271,0 z"
         style=""
         id="path6095" />
    </g>
    <circle
       r="21.569088"
       cy="166.16898"
       cx="315.06796"
       id="circle4186"
       style="opacity:1;fill:#ffffff;fill-opacity:1;fill-rule:nonzero;stroke:#000000;stroke-width:1.40784454;stroke-linecap:round;stroke-linejoin:round;stroke-miterlimit:4;stroke-dasharray:none;stroke-dashoffset:0;stroke-opacity:1" />
    <g
       transform="matrix(0.65848009,0,0,0.65848009,204.96031,6.9706909)"
       style="font-style:normal;font-weight:normal;font-size:40px;line-height:125%;font-family:sans-serif;letter-spacing:0px;word-spacing:0px;fill:#000000;fill-opacity:1;stroke:none;stroke-width:1px;stroke-linecap:butt;stroke-linejoin:miter;stroke-opacity:1"
       id="flowRoot4188">
      <path
         d="m 176.02344,230.66277 -14.70703,0 0,8.20313 12.63671,0 0,3.4375 -12.63671,0 0,14.00391 -3.86719,0 0,-29.08204 18.57422,0 0,3.4375 z"
         style=""
         id="path6104" />
    </g>
    <path
       inkscape:connector-curvature="0"
       id="path4406"
       d="M 433.36348,166.16898 503.871,104.97378"
       style="fill:none;fill-rule:evenodd;stroke:#000000;stroke-width:2;stroke-linecap:butt;stroke-linejoin:miter;stroke-miterlimit:4;stroke-dasharray:none;stroke-opacity:1" />
    <path
       sodipodi:nodetypes="cc"
       inkscape:connector-curvature="0"
       id="path4408"
       d="m 602.72452,104.97377 -98.06257,1e-5"
       style="fill:none;fill-rule:evenodd;stroke:#000000;stroke-width:2;stroke-linecap:butt;stroke-linejoin:miter;stroke-miterlimit:4;stroke-dasharray:none;stroke-opacity:1" />
    <path
       inkscape:connector-curvature="0"
       id="path4410"
       d="m 433.36348,166.16898 70.50752,61.1952"
       style="fill:none;fill-rule:evenodd;stroke:#000000;stroke-width:2;stroke-linecap:butt;stroke-linejoin:miter;stroke-miterlimit:4;stroke-dasharray:none;stroke-opacity:1" />
    <path
       inkscape:connector-curvature="0"
       id="path4412"
       d="m 504.66195,104.97378 -0.37297,122.3904"
       style="fill:none;fill-rule:evenodd;stroke:#000000;stroke-width:2;stroke-linecap:butt;stroke-linejoin:miter;stroke-miterlimit:4;stroke-dasharray:none;stroke-opacity:1" />
    <path
       inkscape:connector-curvature="0"
       id="path4416"
       d="m 659.37085,166.16898 -57.05538,61.1952"
       style="fill:none;fill-rule:evenodd;stroke:#000000;stroke-width:2;stroke-linecap:butt;stroke-linejoin:miter;stroke-miterlimit:4;stroke-dasharray:none;stroke-opacity:1"
       sodipodi:nodetypes="cc" />
    <path
       inkscape:connector-curvature="0"
       id="path4422"
       d="m 504.28898,227.36418 98.02649,-122.3904"
       style="fill:none;fill-rule:evenodd;stroke:#000000;stroke-width:2;stroke-linecap:butt;stroke-linejoin:miter;stroke-miterlimit:4;stroke-dasharray:none;stroke-opacity:1" />
    <circle
       style="opacity:1;fill:#ffffff;fill-opacity:1;fill-rule:nonzero;stroke:#000000;stroke-width:1.40784454;stroke-linecap:round;stroke-linejoin:round;stroke-miterlimit:4;stroke-dasharray:none;stroke-dashoffset:0;stroke-opacity:1"
       id="circle4318"
       cx="504.56726"
       cy="104.97378"
       r="21.569088" />
    <g
       transform="matrix(0.65848009,0,0,0.65848009,394.45961,-54.224513)"
       style="font-style:normal;font-weight:normal;font-size:40px;line-height:125%;font-family:sans-serif;letter-spacing:0px;word-spacing:0px;fill:#000000;fill-opacity:1;stroke:none;stroke-width:1px;stroke-linecap:butt;stroke-linejoin:miter;stroke-opacity:1"
       id="flowRoot4320">
      <path
         d="m 179.38281,247.36199 q 0,2.16797 -0.82031,3.82813 -0.82031,1.66015 -2.20703,2.73437 -1.64063,1.28907 -3.61328,1.83594 -1.95313,0.54688 -4.98047,0.54688 l -10.3125,0 0,-29.08204 8.61328,0 q 3.18359,0 4.76562,0.23438 1.58204,0.23437 3.02735,0.97656 1.60156,0.83985 2.32422,2.16797 0.72265,1.30859 0.72265,3.14453 0,2.07031 -1.05468,3.53516 -1.05469,1.44531 -2.8125,2.32422 l 0,0.15625 q 2.94921,0.60547 4.64843,2.59765 1.69922,1.97266 1.69922,5 z m -6.5039,-13.10547 q 0,-1.05468 -0.35157,-1.77734 -0.35156,-0.72266 -1.13281,-1.17187 -0.91797,-0.52735 -2.22656,-0.64454 -1.3086,-0.13671 -3.24219,-0.13671 l -4.60937,0 0,8.39843 5,0 q 1.8164,0 2.89062,-0.17578 1.07422,-0.19531 1.99219,-0.78125 0.91797,-0.58594 1.28906,-1.5039 0.39063,-0.9375 0.39063,-2.20704 z m 2.48046,13.26172 q 0,-1.75781 -0.52734,-2.79297 -0.52734,-1.03515 -1.91406,-1.75781 -0.9375,-0.48828 -2.28516,-0.625 -1.32812,-0.15625 -3.24219,-0.15625 l -6.07421,0 0,10.82031 5.11718,0 q 2.53907,0 4.16016,-0.2539 1.62109,-0.27344 2.65625,-0.97656 1.09375,-0.76172 1.60156,-1.73829 0.50781,-0.97656 0.50781,-2.51953 z"
         style=""
         id="path6107" />
    </g>
    <circle
       style="opacity:1;fill:#ffffff;fill-opacity:1;fill-rule:nonzero;stroke:#000000;stroke-width:1.40784454;stroke-linecap:round;stroke-linejoin:round;stroke-miterlimit:4;stroke-dasharray:none;stroke-dashoffset:0;stroke-opacity:1"
       id="circle4330"
       cx="603.01172"
       cy="104.97378"
       r="21.569088" />
    <g
       transform="matrix(0.65848009,0,0,0.65848009,492.90407,-54.224513)"
       style="font-style:normal;font-weight:normal;font-size:40px;line-height:125%;font-family:sans-serif;letter-spacing:0px;word-spacing:0px;fill:#000000;fill-opacity:1;stroke:none;stroke-width:1px;stroke-linecap:butt;stroke-linejoin:miter;stroke-opacity:1"
       id="flowRoot4332">
      <path
         d="m 182.01953,241.79559 q 0,3.96484 -1.73828,7.1875 -1.71875,3.22265 -4.58984,5 -1.99219,1.23047 -4.45313,1.77734 -2.44141,0.54688 -6.44531,0.54688 l -7.34375,0 0,-29.08204 7.26562,0 q 4.25782,0 6.75782,0.625 2.51953,0.60547 4.25781,1.67969 2.96875,1.85547 4.6289,4.94141 1.66016,3.08594 1.66016,7.32422 z m -4.04297,-0.0586 q 0,-3.41797 -1.1914,-5.76172 -1.19141,-2.34375 -3.55469,-3.6914 -1.71875,-0.97656 -3.65235,-1.34766 -1.93359,-0.39062 -4.6289,-0.39062 l -3.63281,0 0,22.4414 3.63281,0 q 2.79297,0 4.86328,-0.41015 2.08984,-0.41016 3.82812,-1.52344 2.16797,-1.38672 3.24219,-3.65234 1.09375,-2.26563 1.09375,-5.66407 z"
         style=""
         id="path6116" />
    </g>
    <circle
       r="21.569088"
       cy="227.36418"
       cx="504.56726"
       id="circle4342"
       style="opacity:1;fill:#ffffff;fill-opacity:1;fill-rule:nonzero;stroke:#000000;stroke-width:1.40784454;stroke-linecap:round;stroke-linejoin:round;stroke-miterlimit:4;stroke-dasharray:none;stroke-dashoffset:0;stroke-opacity:1" />
    <g
       transform="matrix(0.65848009,0,0,0.65848009,394.4596,68.165896)"
       style="font-style:normal;font-weight:normal;font-size:40px;line-height:125%;font-family:sans-serif;letter-spacing:0px;word-spacing:0px;fill:#000000;fill-opacity:1;stroke:none;stroke-width:1px;stroke-linecap:butt;stroke-linejoin:miter;stroke-opacity:1"
       id="flowRoot4344">
      <path
         d="m 179.91016,254.19793 q -1.07422,0.46875 -1.95313,0.87891 -0.85937,0.41015 -2.26562,0.85937 -1.19141,0.3711 -2.59766,0.625 -1.38672,0.27344 -3.06641,0.27344 -3.16406,0 -5.76172,-0.87891 -2.57812,-0.89843 -4.49218,-2.79297 -1.875,-1.85546 -2.92969,-4.70703 -1.05469,-2.87109 -1.05469,-6.66015 0,-3.59375 1.01563,-6.42578 1.01562,-2.83204 2.92968,-4.78516 1.85547,-1.89453 4.47266,-2.89063 2.63672,-0.99609 5.83984,-0.99609 2.34375,0 4.66797,0.56641 2.34375,0.5664 5.19532,1.99218 l 0,4.58985 -0.29297,0 q -2.40235,-2.01172 -4.76563,-2.92969 -2.36328,-0.91797 -5.05859,-0.91797 -2.20703,0 -3.98438,0.72266 -1.75781,0.70312 -3.14453,2.20703 -1.34765,1.46484 -2.10937,3.71094 -0.74219,2.22656 -0.74219,5.15625 0,3.0664 0.82031,5.27343 0.83985,2.20704 2.14844,3.59375 1.36719,1.44532 3.18359,2.14844 1.83594,0.6836 3.86719,0.6836 2.79297,0 5.23438,-0.95704 2.4414,-0.95703 4.57031,-2.87109 l 0.27344,0 0,4.53125 z"
         style=""
         id="path6113" />
    </g>
    <circle
       r="21.569088"
       cy="227.36418"
       cx="603.01172"
       id="circle4354"
       style="opacity:1;fill:#ffffff;fill-opacity:1;fill-rule:nonzero;stroke:#000000;stroke-width:1.40784454;stroke-linecap:round;stroke-linejoin:round;stroke-miterlimit:4;stroke-dasharray:none;stroke-dashoffset:0;stroke-opacity:1" />
    <g
       style="font-style:normal;font-weight:normal;font-size:26.33920288px;line-height:125%;font-family:sans-serif;letter-spacing:0px;word-spacing:0px;fill:#000000;fill-opacity:1;stroke:none;stroke-width:1px;stroke-linecap:butt;stroke-linejoin:miter;stroke-opacity:1"
       id="flowRoot4356">
      <path
         d="m 609.19853,236.93917 -12.61658,0 0,-19.14994 12.61658,0 0,2.26353 -10.07011,0 0,5.24726 10.07011,0 0,2.26353 -10.07011,0 0,7.1121 10.07011,0 0,2.26352 z"
         style=""
         id="path6122" />
    </g>
    <circle
       r="21.569088"
       cy="166.16898"
       cx="434.05972"
       id="circle4366"
       style="opacity:1;fill:#ffffff;fill-opacity:1;fill-rule:nonzero;stroke:#000000;stroke-width:1.40784454;stroke-linecap:round;stroke-linejoin:round;stroke-miterlimit:4;stroke-dasharray:none;stroke-dashoffset:0;stroke-opacity:1" />
    <g
       transform="matrix(0.65848009,0,0,0.65848009,323.95208,6.9706919)"
       style="font-style:normal;font-weight:normal;font-size:40px;line-height:125%;font-family:sans-serif;letter-spacing:0px;word-spacing:0px;fill:#000000;fill-opacity:1;stroke:none;stroke-width:1px;stroke-linecap:butt;stroke-linejoin:miter;stroke-opacity:1"
       id="flowRoot4368">
      <path
         d="m 180.37891,256.30731 -4.1211,0 -2.85156,-8.10547 -12.57813,0 -2.85156,8.10547 -3.92578,0 10.58594,-29.08204 5.15625,0 10.58594,29.08204 z m -8.16407,-11.42579 -5.09765,-14.27734 -5.11719,14.27734 10.21484,0 z"
         style=""
         id="path6110" />
    </g>
    <circle
       style="opacity:1;fill:#ffffff;fill-opacity:1;fill-rule:nonzero;stroke:#000000;stroke-width:1.40784454;stroke-linecap:round;stroke-linejoin:round;stroke-miterlimit:4;stroke-dasharray:none;stroke-dashoffset:0;stroke-opacity:1"
       id="circle4378"
       cx="660.06708"
       cy="166.16898"
       r="21.569088" />
    <g
       transform="matrix(0.65848009,0,0,0.65848009,549.95943,6.9706909)"
       style="font-style:normal;font-weight:normal;font-size:40px;line-height:125%;font-family:sans-serif;letter-spacing:0px;word-spacing:0px;fill:#000000;fill-opacity:1;stroke:none;stroke-width:1px;stroke-linecap:butt;stroke-linejoin:miter;stroke-opacity:1"
       id="flowRoot4380">
      <path
         d="m 176.02344,230.66277 -14.70703,0 0,8.20313 12.63671,0 0,3.4375 -12.63671,0 0,14.00391 -3.86719,0 0,-29.08204 18.57422,0 0,3.4375 z"
         style=""
         id="path6119" />
    </g>
    <path
       style="fill:#7e7e7e;fill-opacity:1;fill-rule:evenodd;stroke:#818181;stroke-width:3;stroke-linecap:butt;stroke-linejoin:miter;stroke-miterlimit:4;stroke-dasharray:12, 12;stroke-dashoffset:0;stroke-opacity:1"
       d="M 671.83861,97.76805 538.49847,250.30108"
       id="path4424"
       inkscape:connector-curvature="0"
       sodipodi:nodetypes="cc" />
    <g
       transform="translate(-20.203051,0)"
       style="font-style:normal;font-weight:normal;font-size:40px;line-height:125%;font-family:sans-serif;text-align:center;letter-spacing:0px;word-spacing:0px;text-anchor:middle;fill:#000000;fill-opacity:1;stroke:none;stroke-width:1px;stroke-linecap:butt;stroke-linejoin:miter;stroke-opacity:1"
       id="flowRoot4426">
      <path
         d="m 172.46558,41.42221 q -1.26221,0.604248 -2.40357,0.939941 -1.12793,0.335694 -2.40356,0.335694 -1.62476,0 -2.98096,-0.469971 -1.3562,-0.483399 -2.323,-1.450195 -0.98022,-0.966797 -1.51733,-2.443848 -0.53711,-1.477051 -0.53711,-3.450928 0,-3.679199 2.01416,-5.773926 2.02759,-2.094726 5.34424,-2.094726 1.28906,0 2.52441,0.362549 1.24878,0.362549 2.28272,0.88623 l 0,2.806397 -0.13428,0 q -1.15479,-0.899659 -2.39014,-1.383057 -1.22192,-0.483398 -2.39013,-0.483398 -2.14844,0 -3.39722,1.450195 -1.23535,1.436767 -1.23535,4.229736 0,2.712403 1.20849,4.176026 1.22193,1.450195 3.42408,1.450195 0.76538,0 1.55761,-0.201416 0.79224,-0.201416 1.42334,-0.523682 0.55054,-0.281982 1.03394,-0.59082 0.4834,-0.322266 0.76538,-0.550537 l 0.13428,0 0,2.779541 z"
         style="font-size:27.5px"
         id="path5905" />
      <path
         d="m 188.49829,34.869475 q 0,3.665772 -1.87988,5.787354 -1.87988,2.121582 -5.0354,2.121582 -3.18238,0 -5.06226,-2.121582 -1.86645,-2.121582 -1.86645,-5.787354 0,-3.665771 1.86645,-5.787353 1.87988,-2.13501 5.06226,-2.13501 3.15552,0 5.0354,2.13501 1.87988,2.121582 1.87988,5.787353 z m -2.60498,0 q 0,-2.913818 -1.14136,-4.32373 -1.14135,-1.42334 -3.16894,-1.42334 -2.05445,0 -3.1958,1.42334 -1.12793,1.409912 -1.12793,4.32373 0,2.819825 1.14135,4.283448 1.14136,1.450195 3.18238,1.450195 2.01416,0 3.15552,-1.436768 1.15478,-1.450195 1.15478,-4.296875 z"
         style="font-size:27.5px"
         id="path5907" />
      <path
         d="m 204.96069,42.362151 -2.52441,0 0,-8.540039 q 0,-1.033935 -0.12085,-1.933594 -0.12085,-0.913085 -0.44312,-1.423339 -0.33569,-0.563965 -0.96679,-0.83252 -0.63111,-0.281982 -1.63819,-0.281982 -1.03393,0 -2.16186,0.510254 -1.12793,0.510253 -2.16187,1.30249 l 0,11.19873 -2.52441,0 0,-14.998779 2.52441,0 0,1.665039 q 1.18164,-0.980225 2.44385,-1.530762 1.26221,-0.550537 2.59155,-0.550537 2.43042,0 3.70606,1.463623 1.27563,1.463623 1.27563,4.216309 l 0,9.735107 z"
         style="font-size:27.5px"
         id="path5909" />
      <path
         d="m 222.36304,42.362151 -2.52442,0 0,-8.540039 q 0,-1.033935 -0.12085,-1.933594 -0.12085,-0.913085 -0.44311,-1.423339 -0.3357,-0.563965 -0.9668,-0.83252 -0.6311,-0.281982 -1.63818,-0.281982 -1.03394,0 -2.16187,0.510254 -1.12793,0.510253 -2.16186,1.30249 l 0,11.19873 -2.52442,0 0,-14.998779 2.52442,0 0,1.665039 q 1.18164,-0.980225 2.44384,-1.530762 1.26221,-0.550537 2.59156,-0.550537 2.43042,0 3.70605,1.463623 1.27564,1.463623 1.27564,4.216309 l 0,9.735107 z"
         style="font-size:27.5px"
         id="path5911" />
      <path
         d="m 239.77881,35.124602 -11.05103,0 q 0,1.383057 0.41626,2.416993 0.41626,1.020507 1.14136,1.678466 0.69824,0.644532 1.65161,0.966797 0.9668,0.322266 2.12158,0.322266 1.53077,0 3.07495,-0.604248 1.55762,-0.617676 2.21558,-1.208496 l 0.13428,0 0,2.752685 q -1.27564,0.53711 -2.60498,0.899659 -1.32935,0.362548 -2.79297,0.362548 -3.73291,0 -5.82764,-2.01416 -2.09472,-2.027588 -2.09472,-5.74707 0,-3.679199 2.00073,-5.841065 2.01416,-2.161865 5.29053,-2.161865 3.03466,0 4.67285,1.772461 1.65161,1.772461 1.65161,5.035401 l 0,1.369628 z m -2.45728,-1.933593 q -0.0134,-1.987305 -1.00708,-3.074951 -0.98022,-1.087647 -2.99438,-1.087647 -2.02759,0 -3.23609,1.195068 -1.19506,1.195069 -1.3562,2.96753 l 8.59375,0 z"
         style="font-size:27.5px"
         id="path5913" />
      <path
         d="m 256.59033,42.362151 -3.18237,0 -4.25659,-5.760498 -4.28345,5.760498 -2.94067,0 5.85449,-7.479248 -5.80078,-7.519531 3.18237,0 4.22974,5.666504 4.24316,-5.666504 2.9541,0 -5.89477,7.385254 5.89477,7.613525 z"
         style="font-size:27.5px"
         id="path5915" />
      <path
         d="m 272.11279,35.124602 -11.05102,0 q 0,1.383057 0.41626,2.416993 0.41626,1.020507 1.14135,1.678466 0.69825,0.644532 1.65162,0.966797 0.96679,0.322266 2.12158,0.322266 1.53076,0 3.07495,-0.604248 1.55762,-0.617676 2.21558,-1.208496 l 0.13427,0 0,2.752685 q -1.27563,0.53711 -2.60498,0.899659 -1.32934,0.362548 -2.79297,0.362548 -3.73291,0 -5.82763,-2.01416 -2.09473,-2.027588 -2.09473,-5.74707 0,-3.679199 2.00073,-5.841065 2.01416,-2.161865 5.29053,-2.161865 3.03467,0 4.67285,1.772461 1.65161,1.772461 1.65161,5.035401 l 0,1.369628 z m -2.45727,-1.933593 q -0.0134,-1.987305 -1.00708,-3.074951 -0.98023,-1.087647 -2.99439,-1.087647 -2.02759,0 -3.23608,1.195068 -1.19507,1.195069 -1.3562,2.96753 l 8.59375,0 z"
         style="font-size:27.5px"
         id="path5917" />
    </g>
    <g
       transform="translate(330.31988,0)"
       style="font-style:normal;font-weight:normal;font-size:40px;line-height:125%;font-family:sans-serif;text-align:center;letter-spacing:0px;word-spacing:0px;text-anchor:middle;fill:#000000;fill-opacity:1;stroke:none;stroke-width:1px;stroke-linecap:butt;stroke-linejoin:miter;stroke-opacity:1"
       id="flowRoot4434">
      <path
         d="m 143.32739,42.362151 -2.52441,0 0,-8.540039 q 0,-1.033935 -0.12085,-1.933594 -0.12085,-0.913085 -0.44312,-1.423339 -0.33569,-0.563965 -0.96679,-0.83252 -0.63111,-0.281982 -1.63819,-0.281982 -1.03393,0 -2.16186,0.510254 -1.12793,0.510253 -2.16187,1.30249 l 0,11.19873 -2.52441,0 0,-14.998779 2.52441,0 0,1.665039 q 1.18164,-0.980225 2.44385,-1.530762 1.26221,-0.550537 2.59155,-0.550537 2.43042,0 3.70606,1.463623 1.27563,1.463623 1.27563,4.216309 l 0,9.735107 z"
         style="font-size:27.5px"
         id="path5920" />
      <path
         d="m 160.97144,34.869475 q 0,3.665772 -1.87989,5.787354 -1.87988,2.121582 -5.0354,2.121582 -3.18237,0 -5.06225,-2.121582 -1.86646,-2.121582 -1.86646,-5.787354 0,-3.665771 1.86646,-5.787353 1.87988,-2.13501 5.06225,-2.13501 3.15552,0 5.0354,2.13501 1.87989,2.121582 1.87989,5.787353 z m -2.60498,0 q 0,-2.913818 -1.14136,-4.32373 -1.14136,-1.42334 -3.16895,-1.42334 -2.05444,0 -3.1958,1.42334 -1.12793,1.409912 -1.12793,4.32373 0,2.819825 1.14136,4.283448 1.14136,1.450195 3.18237,1.450195 2.01416,0 3.15552,-1.436768 1.15479,-1.450195 1.15479,-4.296875 z"
         style="font-size:27.5px"
         id="path5922" />
      <path
         d="m 177.43384,42.362151 -2.52442,0 0,-8.540039 q 0,-1.033935 -0.12085,-1.933594 -0.12085,-0.913085 -0.44311,-1.423339 -0.33569,-0.563965 -0.9668,-0.83252 -0.6311,-0.281982 -1.63818,-0.281982 -1.03394,0 -2.16187,0.510254 -1.12793,0.510253 -2.16186,1.30249 l 0,11.19873 -2.52442,0 0,-14.998779 2.52442,0 0,1.665039 q 1.18164,-0.980225 2.44385,-1.530762 1.2622,-0.550537 2.59155,-0.550537 2.43042,0 3.70605,1.463623 1.27564,1.463623 1.27564,4.216309 l 0,9.735107 z"
         style="font-size:27.5px"
         id="path5924" />
      <path
         d="m 203.05396,41.42221 q -1.26221,0.604248 -2.40357,0.939941 -1.12793,0.335694 -2.40356,0.335694 -1.62476,0 -2.98096,-0.469971 -1.3562,-0.483399 -2.323,-1.450195 -0.98022,-0.966797 -1.51733,-2.443848 -0.53711,-1.477051 -0.53711,-3.450928 0,-3.679199 2.01416,-5.773926 2.02759,-2.094726 5.34424,-2.094726 1.28906,0 2.52441,0.362549 1.24878,0.362549 2.28272,0.88623 l 0,2.806397 -0.13428,0 q -1.15479,-0.899659 -2.39014,-1.383057 -1.22192,-0.483398 -2.39014,-0.483398 -2.14843,0 -3.39721,1.450195 -1.23535,1.436767 -1.23535,4.229736 0,2.712403 1.20849,4.176026 1.22193,1.450195 3.42407,1.450195 0.76539,0 1.55762,-0.201416 0.79224,-0.201416 1.42334,-0.523682 0.55054,-0.281982 1.03394,-0.59082 0.4834,-0.322266 0.76538,-0.550537 l 0.13428,0 0,2.779541 z"
         style="font-size:27.5px"
         id="path5926" />
      <path
         d="m 219.08667,34.869475 q 0,3.665772 -1.87988,5.787354 -1.87989,2.121582 -5.0354,2.121582 -3.18238,0 -5.06226,-2.121582 -1.86645,-2.121582 -1.86645,-5.787354 0,-3.665771 1.86645,-5.787353 1.87988,-2.13501 5.06226,-2.13501 3.15551,0 5.0354,2.13501 1.87988,2.121582 1.87988,5.787353 z m -2.60498,0 q 0,-2.913818 -1.14136,-4.32373 -1.14136,-1.42334 -3.16894,-1.42334 -2.05445,0 -3.1958,1.42334 -1.12793,1.409912 -1.12793,4.32373 0,2.819825 1.14135,4.283448 1.14136,1.450195 3.18238,1.450195 2.01416,0 3.15551,-1.436768 1.15479,-1.450195 1.15479,-4.296875 z"
         style="font-size:27.5px"
         id="path5928" />
      <path
         d="m 235.54907,42.362151 -2.52441,0 0,-8.540039 q 0,-1.033935 -0.12085,-1.933594 -0.12085,-0.913085 -0.44312,-1.423339 -0.33569,-0.563965 -0.96679,-0.83252 -0.63111,-0.281982 -1.63819,-0.281982 -1.03393,0 -2.16186,0.510254 -1.12793,0.510253 -2.16187,1.30249 l 0,11.19873 -2.52441,0 0,-14.998779 2.52441,0 0,1.665039 q 1.18164,-0.980225 2.44385,-1.530762 1.26221,-0.550537 2.59155,-0.550537 2.43042,0 3.70606,1.463623 1.27563,1.463623 1.27563,4.216309 l 0,9.735107 z"
         style="font-size:27.5px"
         id="path5930" />
      <path
         d="m 252.95142,42.362151 -2.52442,0 0,-8.540039 q 0,-1.033935 -0.12085,-1.933594 -0.12085,-0.913085 -0.44311,-1.423339 -0.3357,-0.563965 -0.9668,-0.83252 -0.6311,-0.281982 -1.63818,-0.281982 -1.03394,0 -2.16187,0.510254 -1.12793,0.510253 -2.16186,1.30249 l 0,11.19873 -2.52442,0 0,-14.998779 2.52442,0 0,1.665039 q 1.18164,-0.980225 2.44384,-1.530762 1.26221,-0.550537 2.59156,-0.550537 2.43042,0 3.70605,1.463623 1.27564,1.463623 1.27564,4.216309 l 0,9.735107 z"
         style="font-size:27.5px"
         id="path5932" />
      <path
         d="m 270.36719,35.124602 -11.05103,0 q 0,1.383057 0.41626,2.416993 0.41626,1.020507 1.14136,1.678466 0.69824,0.644532 1.65161,0.966797 0.9668,0.322266 2.12158,0.322266 1.53076,0 3.07495,-0.604248 1.55762,-0.617676 2.21558,-1.208496 l 0.13428,0 0,2.752685 q -1.27564,0.53711 -2.60498,0.899659 -1.32935,0.362548 -2.79297,0.362548 -3.73291,0 -5.82764,-2.01416 -2.09473,-2.027588 -2.09473,-5.74707 0,-3.679199 2.00074,-5.841065 2.01416,-2.161865 5.29052,-2.161865 3.03467,0 4.67286,1.772461 1.65161,1.772461 1.65161,5.035401 l 0,1.369628 z m -2.45728,-1.933593 q -0.0134,-1.987305 -1.00708,-3.074951 -0.98022,-1.087647 -2.99438,-1.087647 -2.02759,0 -3.23609,1.195068 -1.19507,1.195069 -1.3562,2.96753 l 8.59375,0 z"
         style="font-size:27.5px"
         id="path5934" />
      <path
         d="m 287.17871,42.362151 -3.18237,0 -4.25659,-5.760498 -4.28345,5.760498 -2.94068,0 5.8545,-7.479248 -5.80078,-7.519531 3.18237,0 4.22974,5.666504 4.24316,-5.666504 2.9541,0 -5.89477,7.385254 5.89477,7.613525 z"
         style="font-size:27.5px"
         id="path5936" />
      <path
         d="m 302.70117,35.124602 -11.05102,0 q 0,1.383057 0.41626,2.416993 0.41626,1.020507 1.14135,1.678466 0.69825,0.644532 1.65161,0.966797 0.9668,0.322266 2.12159,0.322266 1.53076,0 3.07495,-0.604248 1.55762,-0.617676 2.21557,-1.208496 l 0.13428,0 0,2.752685 q -1.27563,0.53711 -2.60498,0.899659 -1.32934,0.362548 -2.79297,0.362548 -3.73291,0 -5.82763,-2.01416 -2.09473,-2.027588 -2.09473,-5.74707 0,-3.679199 2.00073,-5.841065 2.01416,-2.161865 5.29053,-2.161865 3.03467,0 4.67285,1.772461 1.65161,1.772461 1.65161,5.035401 l 0,1.369628 z m -2.45727,-1.933593 q -0.0134,-1.987305 -1.00708,-3.074951 -0.98023,-1.087647 -2.99439,-1.087647 -2.02759,0 -3.23608,1.195068 -1.19507,1.195069 -1.3562,2.96753 l 8.59375,0 z"
         style="font-size:27.5px"
         id="path5938" />
    </g>
    <text
       xml:space="preserve"
       style="font-style:normal;font-weight:normal;font-size:40px;line-height:125%;font-family:sans-serif;letter-spacing:0px;word-spacing:0px;fill:#000000;fill-opacity:1;stroke:none;stroke-width:1px;stroke-linecap:butt;stroke-linejoin:miter;stroke-opacity:1"
       x="216.17264"
       y="-14.358883"
       id="text4442"
       sodipodi:linespacing="125%"><tspan
         sodipodi:role="line"
         id="tspan4444"
         x="216.17264"
         y="-14.358883" /></text>
  </g>
</svg>
