<?xml version="1.0" encoding="UTF-8" standalone="no"?>
<!-- Created with Inkscape (http://www.inkscape.org/) -->

<svg
   xmlns:dc="http://purl.org/dc/elements/1.1/"
   xmlns:cc="http://creativecommons.org/ns#"
   xmlns:rdf="http://www.w3.org/1999/02/22-rdf-syntax-ns#"
   xmlns:svg="http://www.w3.org/2000/svg"
   xmlns="http://www.w3.org/2000/svg"
   xmlns:sodipodi="http://sodipodi.sourceforge.net/DTD/sodipodi-0.dtd"
   xmlns:inkscape="http://www.inkscape.org/namespaces/inkscape"
   width="26.739557cm"
   height="15.080053cm"
   viewBox="0 0 947.46463 534.33258"
   id="svg19034"
   version="1.1"
   inkscape:version="0.91 r13725"
   sodipodi:docname="flot-villes.svg">
  <defs
     id="defs19036">
    <inkscape:path-effect
       effect="spiro"
       id="path-effect21168"
       is_visible="true" />
    <inkscape:path-effect
       effect="spiro"
       id="path-effect21164"
       is_visible="true" />
  </defs>
  <sodipodi:namedview
     id="base"
     pagecolor="#ffffff"
     bordercolor="#666666"
     borderopacity="1.0"
     inkscape:pageopacity="0.0"
     inkscape:pageshadow="2"
     inkscape:zoom="0.9899495"
     inkscape:cx="682.99751"
     inkscape:cy="278.59068"
     inkscape:document-units="px"
     inkscape:current-layer="layer1"
     showgrid="false"
     showguides="false"
     inkscape:object-paths="true"
     inkscape:object-nodes="true"
     inkscape:snap-smooth-nodes="true"
     inkscape:snap-global="true"
     inkscape:window-width="1280"
     inkscape:window-height="657"
     inkscape:window-x="-8"
     inkscape:window-y="-8"
     inkscape:window-maximized="1"
     inkscape:snap-intersection-paths="false"
     inkscape:snap-center="true"
     fit-margin-top="1"
     fit-margin-left="1"
     fit-margin-bottom="1"
     fit-margin-right="1"
     units="cm" />
  <metadata
     id="metadata19039">
    <rdf:RDF>
      <cc:Work
         rdf:about="">
        <dc:format>image/svg+xml</dc:format>
        <dc:type
           rdf:resource="http://purl.org/dc/dcmitype/StillImage" />
        <dc:title />
      </cc:Work>
    </rdf:RDF>
  </metadata>
  <g
     inkscape:label="Calque 1"
     inkscape:groupmode="layer"
     id="layer1"
     transform="translate(87.966012,-371.10803)">
    <path
       style="fill:#e9e6e6;fill-opacity:1;fill-rule:evenodd;stroke:#000000;stroke-width:1px;stroke-linecap:butt;stroke-linejoin:miter;stroke-opacity:1"
       d="m 272.85714,443.79078 c -51.47159,107.04021 -110.73291,82.66438 -189.277002,98.61348 54.103332,20.11393 86.227312,44.61737 89.629792,108.23351 -1.847,91.76219 -4.35019,83.53205 -14.6385,119.58158 l 129.28571,56.42857 C 276.86942,780.16605 365.15728,774.20483 444.28571,764.50506 433.66923,714.86168 396.87684,637.88394 420,600.21935 c 23.12315,-37.66459 23.14824,-36.21257 40,-53.57143 -38.57143,-7.62655 -77.14286,-5.47637 -115.71429,-37.85714 z"
       id="path21587"
       inkscape:connector-curvature="0"
       sodipodi:nodetypes="cccccczccc"
       inkscape:export-xdpi="100"
       inkscape:export-ydpi="100" />
    <path
       style="fill:none;fill-rule:evenodd;stroke:#000000;stroke-width:3;stroke-linecap:butt;stroke-linejoin:miter;stroke-miterlimit:4;stroke-dasharray:none;stroke-opacity:1"
       d="m 209.70535,532.383 77.82392,-62.66468 127.29318,83.65052"
       id="path21591"
       inkscape:connector-curvature="0"
       sodipodi:nodetypes="ccc"
       inkscape:export-xdpi="100"
       inkscape:export-ydpi="100" />
    <path
       style="fill:none;fill-rule:evenodd;stroke:#000000;stroke-width:3;stroke-linecap:butt;stroke-linejoin:miter;stroke-miterlimit:4;stroke-dasharray:none;stroke-opacity:1"
       d="m 287.52927,469.71832 1.96408,102.57068 -79.788,-39.906 -84.51422,18.04925 66.68648,63.35301 -16.3647,150.00875 92.08887,-37.81208 -41.41628,-39.39593 63.30785,-114.297 125.3291,-18.92016 -15.8009,70.55346 -109.5282,-51.6333 63.97137,136.01526 38.87799,60.73657 -104.48556,43.78742 -20.25537,-86.84632 85.86294,-17.67767"
       id="path21589"
       inkscape:connector-curvature="0"
       sodipodi:nodetypes="ccccccccccccccccc"
       inkscape:export-xdpi="100"
       inkscape:export-ydpi="100" />
    <path
       style="fill:none;fill-rule:evenodd;stroke:#000000;stroke-width:3;stroke-linecap:butt;stroke-linejoin:miter;stroke-miterlimit:4;stroke-dasharray:none;stroke-opacity:1"
       d="m 399.02155,623.9223 -6.67884,145.11853"
       id="path21593"
       inkscape:connector-curvature="0"
       sodipodi:nodetypes="cc"
       inkscape:export-xdpi="100"
       inkscape:export-ydpi="100" />
    <path
       style="fill:none;fill-rule:evenodd;stroke:#3a7c0e;stroke-width:3;stroke-linecap:butt;stroke-linejoin:miter;stroke-miterlimit:4;stroke-dasharray:none;stroke-opacity:1"
       d="M 287.85715,812.82825 C 241.20395,835.1731 148.22496,891.28046 -8.544404,644.90804 13.11776,724.28197 152.76441,1021.0124 392.34271,769.04083"
       id="path21615"
       inkscape:connector-curvature="0"
       sodipodi:nodetypes="ccc"
       inkscape:export-xdpi="100"
       inkscape:export-ydpi="100" />
    <path
       style="fill:none;fill-rule:evenodd;stroke:#3a7c0e;stroke-width:3;stroke-linecap:butt;stroke-linejoin:miter;stroke-miterlimit:4;stroke-dasharray:none;stroke-opacity:1"
       d="M 185.129,617.82587 C 124.68789,586.2232 41.724327,629.03959 -8.544404,644.90804 13.407862,606.55357 27.134012,552.08452 125.19113,550.43225"
       id="path21607"
       inkscape:connector-curvature="0"
       sodipodi:nodetypes="ccc"
       inkscape:export-xdpi="100"
       inkscape:export-ydpi="100" />
    <path
       style="fill:none;fill-rule:evenodd;stroke:#3a7c0e;stroke-width:3;stroke-linecap:butt;stroke-linejoin:miter;stroke-miterlimit:4;stroke-dasharray:none;stroke-opacity:1"
       d="M 209.70535,532.383 C 119.9389,507.76058 -6.731677,482.5759 -8.544404,644.90804 47.656399,553.72855 188.69709,566.84501 289.49335,572.289"
       id="path21609"
       inkscape:connector-curvature="0"
       sodipodi:nodetypes="ccc"
       inkscape:export-xdpi="100"
       inkscape:export-ydpi="100" />
    <path
       style="fill:none;fill-rule:evenodd;stroke:#3a7c0e;stroke-width:3;stroke-linecap:butt;stroke-linejoin:miter;stroke-miterlimit:4;stroke-dasharray:none;stroke-opacity:1"
       d="M 226.1855,686.586 C 162.8031,705.62575 56.536373,659.83591 -8.544403,644.90804 68.7929,671.94042 164.92517,742.87103 267.60178,725.98193"
       id="path21611"
       inkscape:connector-curvature="0"
       sodipodi:nodetypes="ccc"
       inkscape:export-xdpi="100"
       inkscape:export-ydpi="100" />
    <path
       style="fill:none;fill-rule:evenodd;stroke:#3a7c0e;stroke-width:3;stroke-linecap:butt;stroke-linejoin:miter;stroke-miterlimit:4;stroke-dasharray:none;stroke-opacity:1"
       d="M 175.51291,763.79401 -8.544404,644.90804 C 100.24576,661.2604 278.5572,636.04553 353.46472,708.30426"
       id="path21613"
       inkscape:connector-curvature="0"
       sodipodi:nodetypes="ccc"
       inkscape:export-xdpi="100"
       inkscape:export-ydpi="100" />
    <path
       style="fill:none;fill-rule:evenodd;stroke:#3a7c0e;stroke-width:3;stroke-linecap:butt;stroke-linejoin:miter;stroke-miterlimit:4;stroke-dasharray:none;stroke-opacity:1"
       d="M 399.02155,623.9223 -8.544403,644.90804 C -97.343304,370.54309 310.07882,327.20172 414.82245,553.36884"
       id="path21617"
       inkscape:connector-curvature="0"
       sodipodi:nodetypes="ccc"
       inkscape:export-xdpi="100"
       inkscape:export-ydpi="100" />
    <path
       style="fill:none;fill-rule:evenodd;stroke:#3a7c0e;stroke-width:3;stroke-linecap:butt;stroke-linejoin:miter;stroke-miterlimit:4;stroke-dasharray:none;stroke-opacity:1"
       d="M 287.52927,469.71832 C 166.21246,473.6907 -24.459,424.148 -8.544403,644.90804"
       id="path21619"
       inkscape:connector-curvature="0"
       sodipodi:nodetypes="cc"
       inkscape:export-xdpi="100"
       inkscape:export-ydpi="100" />
    <g
       id="g21621"
       inkscape:export-xdpi="100"
       inkscape:export-ydpi="100">
      <circle
         r="13.819683"
         cy="469.71832"
         cx="287.52927"
         id="circle21552"
         style="opacity:1;fill:#ffffff;fill-opacity:1;fill-rule:nonzero;stroke:#000000;stroke-width:1;stroke-linecap:round;stroke-linejoin:round;stroke-miterlimit:4;stroke-dasharray:none;stroke-dashoffset:0;stroke-opacity:1"
         inkscape:export-xdpi="100"
         inkscape:export-ydpi="100" />
      <circle
         inkscape:export-ydpi="100"
         inkscape:export-xdpi="100"
         style="opacity:1;fill:#ffffff;fill-opacity:1;fill-rule:nonzero;stroke:#000000;stroke-width:1;stroke-linecap:round;stroke-linejoin:round;stroke-miterlimit:4;stroke-dasharray:none;stroke-dashoffset:0;stroke-opacity:1"
         id="circle21563"
         cx="209.70535"
         cy="532.383"
         r="13.819683" />
      <circle
         r="13.819683"
         cy="572.289"
         cx="289.49335"
         id="circle21565"
         style="opacity:1;fill:#ffffff;fill-opacity:1;fill-rule:nonzero;stroke:#000000;stroke-width:1;stroke-linecap:round;stroke-linejoin:round;stroke-miterlimit:4;stroke-dasharray:none;stroke-dashoffset:0;stroke-opacity:1"
         inkscape:export-xdpi="100"
         inkscape:export-ydpi="100" />
      <circle
         inkscape:export-ydpi="100"
         inkscape:export-xdpi="100"
         style="opacity:1;fill:#ffffff;fill-opacity:1;fill-rule:nonzero;stroke:#000000;stroke-width:1;stroke-linecap:round;stroke-linejoin:round;stroke-miterlimit:4;stroke-dasharray:none;stroke-dashoffset:0;stroke-opacity:1"
         id="circle21567"
         cx="414.82245"
         cy="553.36884"
         r="13.819683" />
      <circle
         r="13.819683"
         cy="623.9223"
         cx="399.02155"
         id="circle21569"
         style="opacity:1;fill:#ffffff;fill-opacity:1;fill-rule:nonzero;stroke:#000000;stroke-width:1;stroke-linecap:round;stroke-linejoin:round;stroke-miterlimit:4;stroke-dasharray:none;stroke-dashoffset:0;stroke-opacity:1"
         inkscape:export-xdpi="100"
         inkscape:export-ydpi="100" />
      <circle
         inkscape:export-ydpi="100"
         inkscape:export-xdpi="100"
         style="opacity:1;fill:#ffffff;fill-opacity:1;fill-rule:nonzero;stroke:#000000;stroke-width:1;stroke-linecap:round;stroke-linejoin:round;stroke-miterlimit:4;stroke-dasharray:none;stroke-dashoffset:0;stroke-opacity:1"
         id="circle21571"
         cx="353.46472"
         cy="708.30426"
         r="13.819683" />
      <circle
         r="13.819683"
         cy="769.04083"
         cx="392.34271"
         id="circle21573"
         style="opacity:1;fill:#ffffff;fill-opacity:1;fill-rule:nonzero;stroke:#000000;stroke-width:1;stroke-linecap:round;stroke-linejoin:round;stroke-miterlimit:4;stroke-dasharray:none;stroke-dashoffset:0;stroke-opacity:1"
         inkscape:export-xdpi="100"
         inkscape:export-ydpi="100" />
      <circle
         inkscape:export-ydpi="100"
         inkscape:export-xdpi="100"
         style="opacity:1;fill:#ffffff;fill-opacity:1;fill-rule:nonzero;stroke:#000000;stroke-width:1;stroke-linecap:round;stroke-linejoin:round;stroke-miterlimit:4;stroke-dasharray:none;stroke-dashoffset:0;stroke-opacity:1"
         id="circle21575"
         cx="287.85715"
         cy="812.82825"
         r="13.819683" />
      <circle
         r="13.819683"
         cy="763.79401"
         cx="175.51291"
         id="circle21577"
         style="opacity:1;fill:#ffffff;fill-opacity:1;fill-rule:nonzero;stroke:#000000;stroke-width:1;stroke-linecap:round;stroke-linejoin:round;stroke-miterlimit:4;stroke-dasharray:none;stroke-dashoffset:0;stroke-opacity:1"
         inkscape:export-xdpi="100"
         inkscape:export-ydpi="100" />
      <circle
         inkscape:export-ydpi="100"
         inkscape:export-xdpi="100"
         style="opacity:1;fill:#ffffff;fill-opacity:1;fill-rule:nonzero;stroke:#000000;stroke-width:1;stroke-linecap:round;stroke-linejoin:round;stroke-miterlimit:4;stroke-dasharray:none;stroke-dashoffset:0;stroke-opacity:1"
         id="circle21579"
         cx="267.60178"
         cy="725.98193"
         r="13.819683" />
      <circle
         r="13.819683"
         cy="686.586"
         cx="226.1855"
         id="circle21581"
         style="opacity:1;fill:#ffffff;fill-opacity:1;fill-rule:nonzero;stroke:#000000;stroke-width:1;stroke-linecap:round;stroke-linejoin:round;stroke-miterlimit:4;stroke-dasharray:none;stroke-dashoffset:0;stroke-opacity:1"
         inkscape:export-xdpi="100"
         inkscape:export-ydpi="100" />
      <circle
         inkscape:export-ydpi="100"
         inkscape:export-xdpi="100"
         style="opacity:1;fill:#ffffff;fill-opacity:1;fill-rule:nonzero;stroke:#000000;stroke-width:1;stroke-linecap:round;stroke-linejoin:round;stroke-miterlimit:4;stroke-dasharray:none;stroke-dashoffset:0;stroke-opacity:1"
         id="circle21583"
         cx="125.19113"
         cy="550.43225"
         r="13.819683" />
      <circle
         r="13.819683"
         cy="617.82587"
         cx="185.129"
         id="circle21585"
         style="opacity:1;fill:#ffffff;fill-opacity:1;fill-rule:nonzero;stroke:#000000;stroke-width:1;stroke-linecap:round;stroke-linejoin:round;stroke-miterlimit:4;stroke-dasharray:none;stroke-dashoffset:0;stroke-opacity:1"
         inkscape:export-xdpi="100"
         inkscape:export-ydpi="100" />
    </g>
    <circle
       r="39.65403"
       cy="641.42126"
       cx="-11.444217"
       id="circle21597"
       style="opacity:1;fill:#ffffff;fill-opacity:1;fill-rule:nonzero;stroke:#2b5d0a;stroke-width:2.86938787;stroke-linecap:round;stroke-linejoin:round;stroke-miterlimit:4;stroke-dasharray:none;stroke-dashoffset:0;stroke-opacity:1"
       inkscape:export-xdpi="100"
       inkscape:export-ydpi="100" />
    <g
       transform="translate(-10.213749,-12.004877)"
       style="font-style:normal;font-weight:normal;font-size:40px;line-height:125%;font-family:sans-serif;letter-spacing:0px;word-spacing:0px;fill:#2b5d0a;fill-opacity:1;stroke:none;stroke-width:1px;stroke-linecap:butt;stroke-linejoin:miter;stroke-opacity:1"
       id="flowRoot21599">
      <path
         d="m -24.746094,655.73568 q 0,1.49414 -1.240234,2.45118 -1.230469,0.95703 -3.369141,0.95703 -1.210937,0 -2.226562,-0.28321 -1.00586,-0.29296 -1.689453,-0.63476 l 0,-2.06055 0.09766,0 q 0.869141,0.6543 1.933594,1.04492 1.064453,0.38086 2.041015,0.38086 1.210938,0 1.894532,-0.39062 0.683593,-0.39063 0.683593,-1.23047 0,-0.64453 -0.371093,-0.97656 -0.371094,-0.33203 -1.425782,-0.56641 -0.390625,-0.0879 -1.02539,-0.20508 -0.625,-0.11719 -1.142578,-0.2539 -1.435547,-0.38086 -2.041016,-1.11329 -0.595703,-0.74218 -0.595703,-1.8164 0,-0.67383 0.273437,-1.26953 0.283203,-0.59571 0.84961,-1.06446 0.546875,-0.45898 1.386718,-0.72265 0.84961,-0.27344 1.894532,-0.27344 0.976562,0 1.972656,0.24414 1.005859,0.23438 1.669922,0.57617 l 0,1.96289 -0.09766,0 q -0.703125,-0.51757 -1.708985,-0.86914 -1.005859,-0.36133 -1.972656,-0.36133 -1.005859,0 -1.699219,0.39063 -0.693359,0.38086 -0.693359,1.14258 0,0.67383 0.419922,1.01562 0.410156,0.3418 1.328125,0.55664 0.507812,0.11719 1.132812,0.23438 0.634766,0.11719 1.054688,0.21484 1.279297,0.29297 1.972656,1.00586 0.693359,0.72266 0.693359,1.91406 z"
         style="font-size:20px;fill:#2b5d0a"
         id="path15788" />
      <path
         d="m -12.8125,653.431 q 0,2.66601 -1.367188,4.20898 -1.367187,1.54297 -3.662109,1.54297 -2.314453,0 -3.68164,-1.54297 -1.357422,-1.54297 -1.357422,-4.20898 0,-2.66602 1.357422,-4.20899 1.367187,-1.55273 3.68164,-1.55273 2.294922,0 3.662109,1.55273 1.367188,1.54297 1.367188,4.20899 z m -1.894531,0 q 0,-2.11914 -0.830078,-3.14453 -0.830078,-1.03516 -2.304688,-1.03516 -1.49414,0 -2.324219,1.03516 -0.820312,1.02539 -0.820312,3.14453 0,2.05078 0.830078,3.11523 0.830078,1.05469 2.314453,1.05469 1.464844,0 2.294922,-1.04492 0.839844,-1.05469 0.839844,-3.125 z"
         style="font-size:20px;fill:#2b5d0a"
         id="path15790" />
      <path
         d="m -0.91796875,658.88022 -1.83593755,0 0,-1.21094 q -0.9277343,0.73242 -1.7773437,1.12304 -0.8496094,0.39063 -1.875,0.39063 -1.71875,0 -2.6757813,-1.04492 -0.9570317,-1.05469 -0.9570317,-3.08594 l 0,-7.08008 1.835938,0 0,6.21094 q 0,0.83008 0.078125,1.42578 0.078125,0.58594 0.3320313,1.00586 0.2636718,0.42969 0.6835937,0.625 0.4199219,0.19531 1.2207031,0.19531 0.7128907,0 1.5527344,-0.37109 0.8496094,-0.37109 1.5820312,-0.94727 l 0,-8.14453 1.83593755,0 0,10.90821 z"
         style="font-size:20px;fill:#2b5d0a"
         id="path15792" />
      <path
         d="m 9.5019531,649.97397 -0.097656,0 q -0.4101563,-0.0977 -0.8007813,-0.13672 -0.3808593,-0.0488 -0.9082031,-0.0488 -0.8496094,0 -1.640625,0.38086 -0.7910156,0.37109 -1.5234375,0.96679 l 0,7.74415 -1.8359375,0 0,-10.90821 1.8359375,0 0,1.61133 q 1.09375,-0.87891 1.9238281,-1.24023 0.8398438,-0.3711 1.7089844,-0.3711 0.4785156,0 0.6933594,0.0293 0.2148437,0.0195 0.6445312,0.0879 l 0,1.88477 z"
         style="font-size:20px;fill:#2b5d0a"
         id="path15794" />
      <path
         d="m 19.316406,658.19662 q -0.917969,0.43945 -1.748047,0.6836 -0.820312,0.24414 -1.748046,0.24414 -1.181641,0 -2.167969,-0.3418 -0.986328,-0.35156 -1.689453,-1.05469 -0.712891,-0.70312 -1.103516,-1.77734 -0.390625,-1.07422 -0.390625,-2.50977 0,-2.67578 1.464844,-4.19922 1.474609,-1.52343 3.886719,-1.52343 0.937499,0 1.835937,0.26367 0.908203,0.26367 1.660156,0.64453 l 0,2.04101 -0.09766,0 q -0.839844,-0.65429 -1.738281,-1.00585 -0.888672,-0.35157 -1.738281,-0.35157 -1.5625,0 -2.470704,1.05469 -0.898437,1.04492 -0.898437,3.07617 0,1.97266 0.878906,3.03711 0.888672,1.05469 2.490235,1.05469 0.55664,0 1.132812,-0.14649 0.576172,-0.14648 1.035156,-0.38085 0.400391,-0.20508 0.751953,-0.42969 0.351563,-0.23438 0.556641,-0.40039 l 0.09766,0 0,2.02148 z"
         style="font-size:20px;fill:#2b5d0a"
         id="path15796" />
      <path
         d="m 30.810547,653.61654 -8.03711,0 q 0,1.00586 0.302735,1.75782 0.302734,0.74218 0.830078,1.2207 0.507812,0.46875 1.201172,0.70312 0.703125,0.23438 1.542969,0.23438 1.113281,0 2.236328,-0.43945 1.132812,-0.44922 1.611328,-0.87891 l 0.09766,0 0,2.00195 q -0.927734,0.39063 -1.894531,0.6543 -0.966797,0.26367 -2.03125,0.26367 -2.714844,0 -4.238281,-1.46484 -1.523438,-1.47461 -1.523438,-4.17969 0,-2.67578 1.455078,-4.24805 1.464844,-1.57226 3.847656,-1.57226 2.207032,0 3.398438,1.28906 1.201172,1.28906 1.201172,3.66211 l 0,0.99609 z m -1.78711,-1.40625 q -0.0098,-1.44531 -0.732421,-2.23632 -0.712891,-0.79102 -2.177735,-0.79102 -1.474609,0 -2.353515,0.86914 -0.869141,0.86914 -0.986329,2.1582 l 6.25,0 z"
         style="font-size:20px;fill:#2b5d0a"
         id="path15798" />
    </g>
    <flowRoot
       xml:space="preserve"
       id="flowRoot21679"
       style="font-style:normal;font-weight:normal;font-size:40px;line-height:125%;font-family:sans-serif;letter-spacing:0px;word-spacing:0px;fill:#000000;fill-opacity:1;stroke:none;stroke-width:1px;stroke-linecap:butt;stroke-linejoin:miter;stroke-opacity:1"><flowRegion
         id="flowRegion21681"><rect
           id="rect21683"
           width="97.989853"
           height="65.23053"
           x="489.86728"
           y="469.27454" /></flowRegion><flowPara
         id="flowPara21685" /></flowRoot>    <g
       style="font-style:normal;font-weight:normal;font-size:40px;line-height:125%;font-family:sans-serif;letter-spacing:0px;word-spacing:0px;fill:#bc2122;fill-opacity:1;stroke:none;stroke-width:1px;stroke-linecap:butt;stroke-linejoin:miter;stroke-opacity:1"
       id="text21687">
      <path
         d="m 292.28513,466.84235 q 0,0.96679 -0.3418,1.79687 -0.33203,0.82031 -0.9375,1.42578 -0.75195,0.75196 -1.77734,1.13281 -1.0254,0.3711 -2.5879,0.3711 l -1.93359,0 0,5.41992 -1.93359,0 0,-14.54102 3.94531,0 q 1.30859,0 2.2168,0.22461 0.9082,0.21485 1.61132,0.6836 0.83008,0.55664 1.2793,1.38672 0.45899,0.83007 0.45899,2.09961 z m -2.01172,0.0488 q 0,-0.75195 -0.26367,-1.30859 -0.26368,-0.55664 -0.80079,-0.9082 -0.46875,-0.30274 -1.07421,-0.42969 -0.59571,-0.13672 -1.51368,-0.13672 l -1.91406,0 0,5.81055 1.63086,0 q 1.17188,0 1.9043,-0.20508 0.73242,-0.21484 1.1914,-0.67383 0.45899,-0.46875 0.64453,-0.98633 0.19532,-0.51757 0.19532,-1.16211 z"
         style="font-size:20px;fill:#bc2122"
         id="path15801" />
    </g>
    <path
       style="fill:none;fill-rule:evenodd;stroke:#000000;stroke-width:4;stroke-linecap:butt;stroke-linejoin:miter;stroke-miterlimit:4;stroke-dasharray:none;stroke-opacity:1"
       d="m 493.57143,594.08856 61.42857,0"
       id="path21693"
       inkscape:connector-curvature="0"
       inkscape:export-xdpi="100"
       inkscape:export-ydpi="100" />
    <path
       inkscape:connector-curvature="0"
       id="path21695"
       d="m 493.57143,669.69598 61.42857,0"
       style="fill:none;fill-rule:evenodd;stroke:#2b5d0a;stroke-width:4;stroke-linecap:butt;stroke-linejoin:miter;stroke-miterlimit:4;stroke-dasharray:none;stroke-opacity:1"
       inkscape:export-xdpi="100"
       inkscape:export-ydpi="100" />
    <g
       transform="matrix(0.60044751,0,0,0.60044751,232.32807,237.36957)"
       style="font-style:normal;font-weight:normal;font-size:40px;line-height:125%;font-family:sans-serif;letter-spacing:0px;word-spacing:0px;fill:#000000;fill-opacity:1;stroke:none;stroke-width:1px;stroke-linecap:butt;stroke-linejoin:miter;stroke-opacity:1"
       id="flowRoot21697">
      <path
         d="m 595.08398,592.34051 -0.19531,0 q -0.82031,-0.19531 -1.60156,-0.27344 -0.76172,-0.0977 -1.81641,-0.0977 -1.69922,0 -3.28125,0.76172 -1.58203,0.74219 -3.04687,1.9336 l 0,15.48828 -3.67188,0 0,-21.81641 3.67188,0 0,3.22266 q 2.1875,-1.75781 3.84765,-2.48047 1.67969,-0.74219 3.41797,-0.74219 0.95703,0 1.38672,0.0586 0.42969,0.0391 1.28906,0.17578 l 0,3.76953 z"
         style=""
         id="path15804" />
      <path
         d="m 616.8418,599.62566 -16.07422,0 q 0,2.01172 0.60547,3.51563 0.60547,1.48437 1.66015,2.44141 1.01563,0.9375 2.40235,1.40625 1.40625,0.46875 3.08593,0.46875 2.22657,0 4.47266,-0.87891 2.26563,-0.89844 3.22266,-1.75781 l 0.19531,0 0,4.0039 q -1.85547,0.78125 -3.78906,1.3086 -1.9336,0.52734 -4.0625,0.52734 -5.42969,0 -8.47657,-2.92969 -3.04687,-2.94922 -3.04687,-8.35937 0,-5.35156 2.91016,-8.4961 2.92968,-3.14453 7.69531,-3.14453 4.41406,0 6.79687,2.57813 2.40235,2.57812 2.40235,7.32422 l 0,1.99218 z m -3.57422,-2.8125 q -0.0195,-2.89062 -1.46485,-4.47265 -1.42578,-1.58203 -4.35546,-1.58203 -2.94922,0 -4.70704,1.73828 -1.73828,1.73828 -1.97265,4.3164 l 12.5,0 z m 0.44922,-19.39453 -5.33203,7.30469 -2.91016,0 3.49609,-7.30469 4.7461,0 z"
         style=""
         id="path15806" />
      <path
         d="m 637.99414,603.86395 q 0,2.98828 -2.48047,4.90234 -2.46094,1.91406 -6.73828,1.91406 -2.42187,0 -4.45312,-0.5664 -2.01172,-0.58594 -3.37891,-1.26954 l 0,-4.12109 0.19531,0 q 1.73828,1.30859 3.86719,2.08984 2.12891,0.76172 4.08203,0.76172 2.42188,0 3.78906,-0.78125 1.36719,-0.78125 1.36719,-2.46093 0,-1.28907 -0.74219,-1.95313 -0.74218,-0.66406 -2.85156,-1.13281 -0.78125,-0.17578 -2.05078,-0.41016 -1.25,-0.23437 -2.28516,-0.50781 -2.87109,-0.76172 -4.08203,-2.22656 -1.1914,-1.48438 -1.1914,-3.63282 0,-1.34765 0.54687,-2.53906 0.56641,-1.1914 1.69922,-2.1289 1.09375,-0.91797 2.77344,-1.44532 1.69922,-0.54687 3.78906,-0.54687 1.95312,0 3.94531,0.48828 2.01172,0.46875 3.33985,1.15234 l 0,3.92578 -0.19532,0 q -1.40625,-1.03515 -3.41797,-1.73828 -2.01171,-0.72265 -3.94531,-0.72265 -2.01172,0 -3.39844,0.78125 -1.38671,0.76172 -1.38671,2.28515 0,1.34766 0.83984,2.03125 0.82031,0.6836 2.65625,1.11328 1.01562,0.23438 2.26562,0.46875 1.26954,0.23438 2.10938,0.42969 2.55859,0.58594 3.94531,2.01172 1.38672,1.44531 1.38672,3.82813 z"
         style=""
         id="path15808" />
      <path
         d="m 661.5293,599.62566 -16.07422,0 q 0,2.01172 0.60547,3.51563 0.60547,1.48437 1.66015,2.44141 1.01563,0.9375 2.40235,1.40625 1.40625,0.46875 3.08593,0.46875 2.22657,0 4.47266,-0.87891 2.26563,-0.89844 3.22266,-1.75781 l 0.19531,0 0,4.0039 q -1.85547,0.78125 -3.78906,1.3086 -1.9336,0.52734 -4.0625,0.52734 -5.42969,0 -8.47657,-2.92969 -3.04687,-2.94922 -3.04687,-8.35937 0,-5.35156 2.91016,-8.4961 2.92968,-3.14453 7.69531,-3.14453 4.41406,0 6.79687,2.57813 2.40235,2.57812 2.40235,7.32422 l 0,1.99218 z m -3.57422,-2.8125 q -0.0195,-2.89062 -1.46485,-4.47265 -1.42578,-1.58203 -4.35546,-1.58203 -2.94922,0 -4.70704,1.73828 -1.73828,1.73828 -1.97265,4.3164 l 12.5,0 z"
         style=""
         id="path15810" />
      <path
         d="m 684.04883,610.15301 -3.65235,0 0,-2.32422 q -0.48828,0.33203 -1.32812,0.9375 -0.82031,0.58594 -1.60156,0.9375 -0.91797,0.44922 -2.10938,0.74219 -1.1914,0.3125 -2.79297,0.3125 -2.94922,0 -5,-1.95313 -2.05078,-1.95312 -2.05078,-4.98047 0,-2.48047 1.05469,-4.0039 1.07422,-1.54297 3.04687,-2.42188 1.99219,-0.8789 4.78516,-1.1914 2.79297,-0.3125 5.99609,-0.46875 l 0,-0.56641 q 0,-1.25 -0.44921,-2.07031 -0.42969,-0.82032 -1.25,-1.28907 -0.78125,-0.44921 -1.875,-0.60546 -1.09375,-0.15625 -2.28516,-0.15625 -1.44531,0 -3.22266,0.39062 -1.77734,0.37109 -3.67187,1.09375 l -0.19531,0 0,-3.73047 q 1.07421,-0.29297 3.10546,-0.64453 2.03125,-0.35156 4.00391,-0.35156 2.30469,0 4.00391,0.39062 1.71875,0.3711 2.96875,1.28907 1.23047,0.89843 1.875,2.32421 0.64453,1.42579 0.64453,3.53516 l 0,14.80469 z m -3.65235,-5.3711 0,-6.07421 q -1.67968,0.0976 -3.96484,0.29296 -2.26562,0.19532 -3.59375,0.56641 -1.58203,0.44922 -2.55859,1.40625 -0.97657,0.9375 -0.97657,2.59766 0,1.875 1.13282,2.83203 1.13281,0.9375 3.45703,0.9375 1.93359,0 3.53515,-0.74219 1.60157,-0.76172 2.96875,-1.81641 z"
         style=""
         id="path15812" />
      <path
         d="m 709.24414,610.15301 -3.67187,0 0,-2.42188 q -1.85547,1.46485 -3.55469,2.2461 -1.69922,0.78125 -3.75,0.78125 -3.4375,0 -5.35156,-2.08985 -1.91407,-2.10937 -1.91407,-6.17187 l 0,-14.16016 3.67188,0 0,12.42188 q 0,1.66015 0.15625,2.85156 0.15625,1.17187 0.66406,2.01172 0.52734,0.85937 1.36719,1.25 0.83984,0.39062 2.4414,0.39062 1.42579,0 3.10547,-0.74218 1.69922,-0.74219 3.16407,-1.89454 l 0,-16.28906 3.67187,0 0,21.81641 z"
         style=""
         id="path15814" />
      <path
         d="m 744.14648,592.34051 -0.19531,0 q -0.82031,-0.19531 -1.60156,-0.27344 -0.76172,-0.0977 -1.81641,-0.0977 -1.69922,0 -3.28125,0.76172 -1.58203,0.74219 -3.04687,1.9336 l 0,15.48828 -3.67188,0 0,-21.81641 3.67188,0 0,3.22266 q 2.1875,-1.75781 3.84765,-2.48047 1.67969,-0.74219 3.41797,-0.74219 0.95703,0 1.38672,0.0586 0.42969,0.0391 1.28906,0.17578 l 0,3.76953 z"
         style=""
         id="path15816" />
      <path
         d="m 766.23633,599.25457 q 0,5.33203 -2.73438,8.41797 -2.73437,3.08594 -7.32422,3.08594 -4.6289,0 -7.36328,-3.08594 -2.71484,-3.08594 -2.71484,-8.41797 0,-5.33203 2.71484,-8.41797 2.73438,-3.10547 7.36328,-3.10547 4.58985,0 7.32422,3.10547 2.73438,3.08594 2.73438,8.41797 z m -3.78906,0 q 0,-4.23828 -1.66016,-6.28906 -1.66016,-2.07031 -4.60938,-2.07031 -2.98828,0 -4.64843,2.07031 -1.64063,2.05078 -1.64063,6.28906 0,4.10156 1.66016,6.23047 1.66015,2.10937 4.6289,2.10937 2.92969,0 4.58985,-2.08984 1.67969,-2.10937 1.67969,-6.25 z"
         style=""
         id="path15818" />
      <path
         d="m 790.02539,610.15301 -3.67187,0 0,-2.42188 q -1.85547,1.46485 -3.55469,2.2461 -1.69922,0.78125 -3.75,0.78125 -3.4375,0 -5.35156,-2.08985 -1.91407,-2.10937 -1.91407,-6.17187 l 0,-14.16016 3.67188,0 0,12.42188 q 0,1.66015 0.15625,2.85156 0.15625,1.17187 0.66406,2.01172 0.52734,0.85937 1.36719,1.25 0.83984,0.39062 2.4414,0.39062 1.42579,0 3.10547,-0.74218 1.69922,-0.74219 3.16407,-1.89454 l 0,-16.28906 3.67187,0 0,21.81641 z"
         style=""
         id="path15820" />
      <path
         d="m 808.58008,609.9577 q -1.03516,0.27343 -2.26563,0.44921 -1.21093,0.17579 -2.16797,0.17579 -3.33984,0 -5.07812,-1.79688 -1.73828,-1.79687 -1.73828,-5.76172 l 0,-11.60156 -2.48047,0 0,-3.08594 2.48047,0 0,-6.26953 3.67187,0 0,6.26953 7.57813,0 0,3.08594 -7.57813,0 0,9.94141 q 0,1.71875 0.0781,2.69531 0.0781,0.95703 0.54687,1.79687 0.42969,0.78125 1.17188,1.15235 0.76172,0.35156 2.30469,0.35156 0.89843,0 1.875,-0.25391 0.97656,-0.27343 1.40625,-0.44922 l 0.19531,0 0,3.30079 z"
         style=""
         id="path15822" />
      <path
         d="m 816.97852,584.68426 -4.14063,0 0,-3.8086 4.14063,0 0,3.8086 z m -0.23438,25.46875 -3.67187,0 0,-21.81641 3.67187,0 0,21.81641 z"
         style=""
         id="path15824" />
      <path
         d="m 842.1543,599.62566 -16.07422,0 q 0,2.01172 0.60547,3.51563 0.60547,1.48437 1.66015,2.44141 1.01563,0.9375 2.40235,1.40625 1.40625,0.46875 3.08593,0.46875 2.22657,0 4.47266,-0.87891 2.26563,-0.89844 3.22266,-1.75781 l 0.19531,0 0,4.0039 q -1.85547,0.78125 -3.78906,1.3086 -1.9336,0.52734 -4.0625,0.52734 -5.42969,0 -8.47657,-2.92969 -3.04687,-2.94922 -3.04687,-8.35937 0,-5.35156 2.91016,-8.4961 2.92968,-3.14453 7.69531,-3.14453 4.41406,0 6.79687,2.57813 2.40235,2.57812 2.40235,7.32422 l 0,1.99218 z m -3.57422,-2.8125 q -0.0195,-2.89062 -1.46485,-4.47265 -1.42578,-1.58203 -4.35546,-1.58203 -2.94922,0 -4.70704,1.73828 -1.73828,1.73828 -1.97265,4.3164 l 12.5,0 z"
         style=""
         id="path15826" />
      <path
         d="m 861.33398,592.34051 -0.19531,0 q -0.82031,-0.19531 -1.60156,-0.27344 -0.76172,-0.0977 -1.81641,-0.0977 -1.69922,0 -3.28125,0.76172 -1.58203,0.74219 -3.04687,1.9336 l 0,15.48828 -3.67188,0 0,-21.81641 3.67188,0 0,3.22266 q 2.1875,-1.75781 3.84765,-2.48047 1.67969,-0.74219 3.41797,-0.74219 0.95703,0 1.38672,0.0586 0.42969,0.0391 1.28906,0.17578 l 0,3.76953 z"
         style=""
         id="path15828" />
    </g>
    <g
       transform="matrix(0.60044751,0,0,0.60044751,225.89437,267.5787)"
       style="font-style:normal;font-weight:normal;font-size:40px;line-height:125%;font-family:sans-serif;letter-spacing:0px;word-spacing:0px;fill:#3a7c0e;fill-opacity:1;stroke:none;stroke-width:1px;stroke-linecap:butt;stroke-linejoin:miter;stroke-opacity:1"
       id="flowRoot21705">
      <path
         d="m 611.38477,669.69598 q 0,2.65625 -0.76172,4.86328 -0.76172,2.1875 -2.14844,3.71094 -1.28906,1.44531 -3.04688,2.24609 -1.73828,0.78125 -3.6914,0.78125 -1.69922,0 -3.08594,-0.37109 -1.36719,-0.3711 -2.79297,-1.15235 l 0,9.14063 -3.67187,0 0,-29.86328 3.67187,0 0,2.28515 q 1.46485,-1.23047 3.28125,-2.05078 1.83594,-0.83984 3.90625,-0.83984 3.94531,0 6.13281,2.98828 2.20704,2.96875 2.20704,8.26172 z m -3.78907,0.0977 q 0,-3.94531 -1.34765,-5.89843 -1.34766,-1.95313 -4.14063,-1.95313 -1.58203,0 -3.18359,0.68359 -1.60156,0.6836 -3.06641,1.79688 l 0,12.36328 q 1.5625,0.70313 2.67578,0.95703 1.13282,0.25391 2.5586,0.25391 3.0664,0 4.78515,-2.07031 1.71875,-2.07032 1.71875,-6.13282 z"
         style=""
         id="path15831" />
      <path
         d="m 635.70117,669.96941 q 0,5.33204 -2.73437,8.41797 -2.73438,3.08594 -7.32422,3.08594 -4.62891,0 -7.36328,-3.08594 -2.71485,-3.08593 -2.71485,-8.41797 0,-5.33203 2.71485,-8.41796 2.73437,-3.10547 7.36328,-3.10547 4.58984,0 7.32422,3.10547 2.73437,3.08593 2.73437,8.41796 z m -3.78906,0 q 0,-4.23828 -1.66016,-6.28906 -1.66015,-2.07031 -4.60937,-2.07031 -2.98828,0 -4.64844,2.07031 -1.64062,2.05078 -1.64062,6.28906 0,4.10157 1.66015,6.23047 1.66016,2.10938 4.62891,2.10938 2.92969,0 4.58984,-2.08985 1.67969,-2.10937 1.67969,-6.25 z"
         style=""
         id="path15833" />
      <path
         d="m 660.60352,669.69598 q 0,2.65625 -0.76172,4.86328 -0.76172,2.1875 -2.14844,3.71094 -1.28906,1.44531 -3.04688,2.24609 -1.73828,0.78125 -3.6914,0.78125 -1.69922,0 -3.08594,-0.37109 -1.36719,-0.3711 -2.79297,-1.15235 l 0,9.14063 -3.67187,0 0,-29.86328 3.67187,0 0,2.28515 q 1.46485,-1.23047 3.28125,-2.05078 1.83594,-0.83984 3.90625,-0.83984 3.94531,0 6.13281,2.98828 2.20704,2.96875 2.20704,8.26172 z m -3.78907,0.0977 q 0,-3.94531 -1.34765,-5.89843 -1.34766,-1.95313 -4.14063,-1.95313 -1.58203,0 -3.18359,0.68359 -1.60156,0.6836 -3.06641,1.79688 l 0,12.36328 q 1.5625,0.70313 2.67578,0.95703 1.13282,0.25391 2.5586,0.25391 3.0664,0 4.78515,-2.07031 1.71875,-2.07032 1.71875,-6.13282 z"
         style=""
         id="path15835" />
      <path
         d="m 684.41211,680.86785 -3.67188,0 0,-2.42187 q -1.85546,1.46484 -3.55468,2.24609 -1.69922,0.78125 -3.75,0.78125 -3.4375,0 -5.35157,-2.08984 -1.91406,-2.10938 -1.91406,-6.17188 l 0,-14.16015 3.67188,0 0,12.42187 q 0,1.66016 0.15625,2.85156 0.15625,1.17188 0.66406,2.01172 0.52734,0.85938 1.36719,1.25 0.83984,0.39063 2.4414,0.39063 1.42578,0 3.10547,-0.74219 1.69922,-0.74219 3.16406,-1.89453 l 0,-16.28906 3.67188,0 0,21.8164 z"
         style=""
         id="path15837" />
      <path
         d="m 695.34961,680.86785 -3.67188,0 0,-30.39062 3.67188,0 0,30.39062 z"
         style=""
         id="path15839" />
      <path
         d="m 719.45117,680.86785 -3.65234,0 0,-2.32422 q -0.48828,0.33203 -1.32813,0.9375 -0.82031,0.58594 -1.60156,0.9375 -0.91797,0.44922 -2.10937,0.74219 -1.19141,0.3125 -2.79297,0.3125 -2.94922,0 -5,-1.95312 -2.05078,-1.95313 -2.05078,-4.98047 0,-2.48047 1.05468,-4.00391 1.07422,-1.54297 3.04688,-2.42187 1.99219,-0.87891 4.78515,-1.19141 2.79297,-0.3125 5.9961,-0.46875 l 0,-0.56641 q 0,-1.25 -0.44922,-2.07031 -0.42969,-0.82031 -1.25,-1.28906 -0.78125,-0.44922 -1.875,-0.60547 -1.09375,-0.15625 -2.28516,-0.15625 -1.44531,0 -3.22265,0.39062 -1.77735,0.3711 -3.67188,1.09375 l -0.19531,0 0,-3.73046 q 1.07422,-0.29297 3.10547,-0.64454 2.03125,-0.35156 4.0039,-0.35156 2.30469,0 4.00391,0.39063 1.71875,0.37109 2.96875,1.28906 1.23047,0.89844 1.875,2.32422 0.64453,1.42578 0.64453,3.53515 l 0,14.80469 z m -3.65234,-5.37109 0,-6.07422 q -1.67969,0.0977 -3.96485,0.29297 -2.26562,0.19531 -3.59375,0.5664 -1.58203,0.44922 -2.55859,1.40625 -0.97656,0.9375 -0.97656,2.59766 0,1.875 1.13281,2.83203 1.13281,0.9375 3.45703,0.9375 1.9336,0 3.53516,-0.74219 1.60156,-0.76171 2.96875,-1.8164 z"
         style=""
         id="path15841" />
      <path
         d="m 737.88867,680.67254 q -1.03515,0.27344 -2.26562,0.44922 -1.21094,0.17578 -2.16797,0.17578 -3.33985,0 -5.07813,-1.79688 -1.73828,-1.79687 -1.73828,-5.76171 l 0,-11.60157 -2.48047,0 0,-3.08593 2.48047,0 0,-6.26954 3.67188,0 0,6.26954 7.57812,0 0,3.08593 -7.57812,0 0,9.94141 q 0,1.71875 0.0781,2.69531 0.0781,0.95703 0.54688,1.79688 0.42968,0.78125 1.17187,1.15234 0.76172,0.35156 2.30469,0.35156 0.89844,0 1.875,-0.2539 0.97656,-0.27344 1.40625,-0.44922 l 0.19531,0 0,3.30078 z"
         style=""
         id="path15843" />
      <path
         d="m 746.28711,655.3991 -4.14063,0 0,-3.80859 4.14063,0 0,3.80859 z m -0.23438,25.46875 -3.67187,0 0,-21.8164 3.67187,0 0,21.8164 z"
         style=""
         id="path15845" />
      <path
         d="m 771.79492,669.96941 q 0,5.33204 -2.73437,8.41797 -2.73438,3.08594 -7.32422,3.08594 -4.62891,0 -7.36328,-3.08594 -2.71485,-3.08593 -2.71485,-8.41797 0,-5.33203 2.71485,-8.41796 2.73437,-3.10547 7.36328,-3.10547 4.58984,0 7.32422,3.10547 2.73437,3.08593 2.73437,8.41796 z m -3.78906,0 q 0,-4.23828 -1.66016,-6.28906 -1.66015,-2.07031 -4.60937,-2.07031 -2.98828,0 -4.64844,2.07031 -1.64062,2.05078 -1.64062,6.28906 0,4.10157 1.66015,6.23047 1.66016,2.10938 4.62891,2.10938 2.92969,0 4.58984,-2.08985 1.67969,-2.10937 1.67969,-6.25 z"
         style=""
         id="path15847" />
      <path
         d="m 795.74023,680.86785 -3.67187,0 0,-12.42187 q 0,-1.50391 -0.17578,-2.8125 -0.17578,-1.32813 -0.64453,-2.07032 -0.48828,-0.82031 -1.40625,-1.21093 -0.91797,-0.41016 -2.38282,-0.41016 -1.5039,0 -3.14453,0.74219 -1.64062,0.74219 -3.14453,1.89453 l 0,16.28906 -3.67187,0 0,-21.8164 3.67187,0 0,2.42187 q 1.71875,-1.42578 3.55469,-2.22656 1.83594,-0.80078 3.76953,-0.80078 3.53516,0 5.39063,2.1289 1.85546,2.12891 1.85546,6.13282 l 0,14.16015 z"
         style=""
         id="path15849" />
      <path
         d="m 834.56836,680.86785 -3.67188,0 0,-2.28515 q -1.58203,1.36718 -3.30078,2.1289 -1.71875,0.76172 -3.73047,0.76172 -3.90625,0 -6.21093,-3.00781 -2.28516,-3.00781 -2.28516,-8.33985 0,-2.77343 0.78125,-4.9414 0.80078,-2.16797 2.14844,-3.69141 1.32812,-1.48437 3.08594,-2.26562 1.77734,-0.78125 3.67187,-0.78125 1.71875,0 3.04688,0.37109 1.32812,0.35156 2.79296,1.11328 l 0,-9.45312 3.67188,0 0,30.39062 z m -3.67188,-5.37109 0,-12.51953 q -1.48437,-0.66407 -2.65625,-0.91797 -1.17187,-0.25391 -2.55859,-0.25391 -3.08594,0 -4.80469,2.14844 -1.71875,2.14844 -1.71875,6.09375 0,3.88672 1.32813,5.91797 1.32812,2.01172 4.25781,2.01172 1.5625,0 3.16406,-0.6836 1.60157,-0.70312 2.98828,-1.79687 z"
         style=""
         id="path15851" />
      <path
         d="m 860.05664,670.34051 -16.07422,0 q 0,2.01172 0.60547,3.51562 0.60547,1.48438 1.66016,2.44141 1.01562,0.9375 2.40234,1.40625 1.40625,0.46875 3.08594,0.46875 2.22656,0 4.47265,-0.87891 2.26563,-0.89843 3.22266,-1.75781 l 0.19531,0 0,4.00391 q -1.85547,0.78125 -3.78906,1.30859 -1.93359,0.52734 -4.0625,0.52734 -5.42969,0 -8.47656,-2.92968 -3.04688,-2.94922 -3.04688,-8.35938 0,-5.35156 2.91016,-8.49609 2.92969,-3.14453 7.69531,-3.14453 4.41406,0 6.79688,2.57812 2.40234,2.57813 2.40234,7.32422 l 0,1.99219 z m -3.57422,-2.8125 q -0.0195,-2.89063 -1.46484,-4.47266 -1.42578,-1.58203 -4.35547,-1.58203 -2.94922,0 -4.70703,1.73828 -1.73828,1.73828 -1.97266,4.31641 l 12.5,0 z"
         style=""
         id="path15853" />
      <path
         d="m 881.20898,674.57879 q 0,2.98828 -2.48046,4.90234 -2.46094,1.91407 -6.73829,1.91407 -2.42187,0 -4.45312,-0.56641 -2.01172,-0.58594 -3.37891,-1.26953 l 0,-4.1211 0.19532,0 q 1.73828,1.3086 3.86718,2.08985 2.12891,0.76172 4.08203,0.76172 2.42188,0 3.78907,-0.78125 1.36718,-0.78125 1.36718,-2.46094 0,-1.28906 -0.74218,-1.95313 -0.74219,-0.66406 -2.85157,-1.13281 -0.78125,-0.17578 -2.05078,-0.41015 -1.25,-0.23438 -2.28515,-0.50782 -2.8711,-0.76172 -4.08203,-2.22656 -1.19141,-1.48437 -1.19141,-3.63281 0,-1.34766 0.54687,-2.53906 0.56641,-1.19141 1.69922,-2.12891 1.09375,-0.91797 2.77344,-1.44531 1.69922,-0.54688 3.78906,-0.54688 1.95313,0 3.94532,0.48828 2.01171,0.46875 3.33984,1.15235 l 0,3.92578 -0.19531,0 q -1.40625,-1.03516 -3.41797,-1.73828 -2.01172,-0.72266 -3.94531,-0.72266 -2.01172,0 -3.39844,0.78125 -1.38672,0.76172 -1.38672,2.28516 0,1.34765 0.83984,2.03125 0.82032,0.68359 2.65625,1.11328 1.01563,0.23437 2.26563,0.46875 1.26953,0.23437 2.10937,0.42969 2.5586,0.58593 3.94532,2.01171 1.38671,1.44532 1.38671,3.82813 z"
         style=""
         id="path15855" />
      <path
         d="m 919.41211,659.05145 -8.82813,21.8164 -3.6914,0 -8.76953,-21.8164 3.98437,0 6.75781,17.36328 6.69922,-17.36328 3.84766,0 z"
         style=""
         id="path15857" />
      <path
         d="m 928.16211,655.3991 -4.14063,0 0,-3.80859 4.14063,0 0,3.80859 z m -0.23438,25.46875 -3.67187,0 0,-21.8164 3.67187,0 0,21.8164 z"
         style=""
         id="path15859" />
      <path
         d="m 938.78711,680.86785 -3.67188,0 0,-30.39062 3.67188,0 0,30.39062 z"
         style=""
         id="path15861" />
      <path
         d="m 949.64648,680.86785 -3.67187,0 0,-30.39062 3.67187,0 0,30.39062 z"
         style=""
         id="path15863" />
      <path
         d="m 975.05664,670.34051 -16.07422,0 q 0,2.01172 0.60547,3.51562 0.60547,1.48438 1.66016,2.44141 1.01562,0.9375 2.40234,1.40625 1.40625,0.46875 3.08594,0.46875 2.22656,0 4.47265,-0.87891 2.26563,-0.89843 3.22266,-1.75781 l 0.19531,0 0,4.00391 q -1.85547,0.78125 -3.78906,1.30859 -1.93359,0.52734 -4.0625,0.52734 -5.42969,0 -8.47656,-2.92968 -3.04688,-2.94922 -3.04688,-8.35938 0,-5.35156 2.91016,-8.49609 2.92969,-3.14453 7.69531,-3.14453 4.41406,0 6.79688,2.57812 2.40234,2.57813 2.40234,7.32422 l 0,1.99219 z m -3.57422,-2.8125 q -0.0195,-2.89063 -1.46484,-4.47266 -1.42578,-1.58203 -4.35547,-1.58203 -2.94922,0 -4.70703,1.73828 -1.73828,1.73828 -1.97266,4.31641 l 12.5,0 z"
         style=""
         id="path15865" />
      <path
         d="m 996.20898,674.57879 q 0,2.98828 -2.48046,4.90234 -2.46094,1.91407 -6.73829,1.91407 -2.42187,0 -4.45312,-0.56641 -2.01172,-0.58594 -3.37891,-1.26953 l 0,-4.1211 0.19532,0 q 1.73828,1.3086 3.86718,2.08985 2.12891,0.76172 4.08203,0.76172 2.42188,0 3.78907,-0.78125 1.36718,-0.78125 1.36718,-2.46094 0,-1.28906 -0.74218,-1.95313 -0.74219,-0.66406 -2.85157,-1.13281 -0.78125,-0.17578 -2.05078,-0.41015 -1.25,-0.23438 -2.28515,-0.50782 -2.8711,-0.76172 -4.08203,-2.22656 -1.19141,-1.48437 -1.19141,-3.63281 0,-1.34766 0.54687,-2.53906 0.56641,-1.19141 1.69922,-2.12891 1.09375,-0.91797 2.77344,-1.44531 1.69922,-0.54688 3.78906,-0.54688 1.95313,0 3.94532,0.48828 2.01171,0.46875 3.33984,1.15235 l 0,3.92578 -0.19531,0 q -1.40625,-1.03516 -3.41797,-1.73828 -2.01172,-0.72266 -3.94531,-0.72266 -2.01172,0 -3.39844,0.78125 -1.38672,0.76172 -1.38672,2.28516 0,1.34765 0.83984,2.03125 0.82032,0.68359 2.65625,1.11328 1.01563,0.23437 2.26563,0.46875 1.26953,0.23437 2.10937,0.42969 2.5586,0.58593 3.94532,2.01171 1.38671,1.44532 1.38671,3.82813 z"
         style=""
         id="path15867" />
    </g>
  </g>
</svg>
