<?xml version="1.0" encoding="UTF-8" standalone="no"?>
<!-- Created with Inkscape (http://www.inkscape.org/) -->

<svg
   xmlns:dc="http://purl.org/dc/elements/1.1/"
   xmlns:cc="http://creativecommons.org/ns#"
   xmlns:rdf="http://www.w3.org/1999/02/22-rdf-syntax-ns#"
   xmlns:svg="http://www.w3.org/2000/svg"
   xmlns="http://www.w3.org/2000/svg"
   xmlns:sodipodi="http://sodipodi.sourceforge.net/DTD/sodipodi-0.dtd"
   xmlns:inkscape="http://www.inkscape.org/namespaces/inkscape"
   width="14.231173cm"
   height="9.2520514cm"
   viewBox="0 0 504.25415 327.82858"
   id="svg2"
   version="1.1"
   inkscape:version="0.91 r13725"
   sodipodi:docname="graphe_seul.svg">
  <defs
     id="defs4" />
  <sodipodi:namedview
     id="base"
     pagecolor="#ffffff"
     bordercolor="#666666"
     borderopacity="1.0"
     inkscape:pageopacity="0.0"
     inkscape:pageshadow="2"
     inkscape:zoom="0.9899495"
     inkscape:cx="176.1335"
     inkscape:cy="290.93491"
     inkscape:document-units="px"
     inkscape:current-layer="layer1"
     showgrid="false"
     inkscape:snap-center="true"
     inkscape:snap-object-midpoints="true"
     inkscape:snap-smooth-nodes="false"
     inkscape:object-nodes="false"
     inkscape:snap-intersection-paths="true"
     inkscape:snap-nodes="true"
     inkscape:snap-bbox="true"
     inkscape:bbox-nodes="true"
     inkscape:snap-others="true"
     inkscape:snap-global="false"
     inkscape:window-width="1280"
     inkscape:window-height="657"
     inkscape:window-x="-8"
     inkscape:window-y="-8"
     inkscape:window-maximized="1"
     fit-margin-top="1"
     fit-margin-left="1"
     fit-margin-bottom="1"
     fit-margin-right="1"
     units="cm" />
  <metadata
     id="metadata7">
    <rdf:RDF>
      <cc:Work
         rdf:about="">
        <dc:format>image/svg+xml</dc:format>
        <dc:type
           rdf:resource="http://purl.org/dc/dcmitype/StillImage" />
        <dc:title />
      </cc:Work>
    </rdf:RDF>
  </metadata>
  <g
     inkscape:label="Calque 1"
     inkscape:groupmode="layer"
     id="layer1"
     transform="translate(-102.64186,-46.984863)">
    <path
       sodipodi:nodetypes="cccccccccccccccc"
       style="fill:none;fill-rule:evenodd;stroke:#000000;stroke-width:2.02961445;stroke-linecap:butt;stroke-linejoin:miter;stroke-miterlimit:4;stroke-dasharray:none;stroke-opacity:1"
       d="m 157.6462,204.15709 148.77885,-94.71534 m 0,0 241.77463,1e-5 m 0,0 -135.53605,94.71533 m 0,0 -255.01743,0 m 0,0 147.96622,109.83326 m 0,0 107.05121,-109.83326 m 0,0 135.41051,109.83326 m 0.12554,0 -242.58726,0"
       id="path4317"
       inkscape:connector-curvature="0"
       inkscape:export-xdpi="400"
       inkscape:export-ydpi="400" />
    <path
       sodipodi:nodetypes="cc"
       style="fill:none;fill-rule:evenodd;stroke:#000000;stroke-width:2.02961445;stroke-linecap:butt;stroke-linejoin:miter;stroke-miterlimit:4;stroke-dasharray:none;stroke-opacity:1"
       d="M 410.95909,204.15709 306.42505,109.44175"
       id="path4319"
       inkscape:connector-curvature="0"
       inkscape:export-xdpi="400"
       inkscape:export-ydpi="400" />
    <path
       sodipodi:nodetypes="cc"
       style="fill:none;fill-rule:evenodd;stroke:#000000;stroke-width:2.02961445;stroke-linecap:butt;stroke-linejoin:miter;stroke-miterlimit:4;stroke-dasharray:none;stroke-opacity:1"
       d="m 548.62911,109.44176 -0.42943,204.54859"
       id="path4321"
       inkscape:connector-curvature="0"
       inkscape:export-xdpi="400"
       inkscape:export-ydpi="400" />
    <path
       transform="matrix(0.67651801,-0.00522359,0.00522359,0.67651801,122.65809,69.324047)"
       inkscape:transform-center-y="-0.92064868"
       inkscape:transform-center-x="0.64221695"
       d="m 402.68077,182.525 -15.0979,-3.40506 10.49782,-11.37263 z"
       inkscape:randomized="0"
       inkscape:rounded="0"
       inkscape:flatsided="true"
       sodipodi:arg2="1.792617"
       sodipodi:arg1="0.74541948"
       sodipodi:r2="4.4678559"
       sodipodi:r1="8.9357119"
       sodipodi:cy="176.46408"
       sodipodi:cx="396.11478"
       sodipodi:sides="3"
       id="path4747"
       style="opacity:1;fill:#ffffff;fill-opacity:1;fill-rule:nonzero;stroke:#000000;stroke-width:3;stroke-linecap:round;stroke-linejoin:round;stroke-miterlimit:4;stroke-dasharray:none;stroke-dashoffset:0;stroke-opacity:1"
       sodipodi:type="star"
       inkscape:export-xdpi="400"
       inkscape:export-ydpi="400" />
    <path
       sodipodi:type="star"
       style="opacity:1;fill:#ffffff;fill-opacity:1;fill-rule:nonzero;stroke:#000000;stroke-width:3;stroke-linecap:round;stroke-linejoin:round;stroke-miterlimit:4;stroke-dasharray:none;stroke-dashoffset:0;stroke-opacity:1"
       id="path4749"
       sodipodi:sides="3"
       sodipodi:cx="396.11478"
       sodipodi:cy="176.46408"
       sodipodi:r1="8.9357119"
       sodipodi:r2="4.4678559"
       sodipodi:arg1="0.74541948"
       sodipodi:arg2="1.792617"
       inkscape:flatsided="true"
       inkscape:rounded="0"
       inkscape:randomized="0"
       d="m 402.68077,182.525 -15.0979,-3.40506 10.49782,-11.37263 z"
       inkscape:transform-center-x="0.25459112"
       inkscape:transform-center-y="1.2854863"
       transform="matrix(0.49912303,0.45670571,-0.45670571,0.49912303,167.15353,-145.69312)"
       inkscape:export-xdpi="400"
       inkscape:export-ydpi="400" />
    <path
       transform="matrix(0.48947443,-0.46703177,0.46703177,0.48947443,109.11319,302.89927)"
       inkscape:transform-center-y="0.049925227"
       inkscape:transform-center-x="-1.4678893"
       d="m 402.68077,182.525 -15.0979,-3.40506 10.49782,-11.37263 z"
       inkscape:randomized="0"
       inkscape:rounded="0"
       inkscape:flatsided="true"
       sodipodi:arg2="1.792617"
       sodipodi:arg1="0.74541948"
       sodipodi:r2="4.4678559"
       sodipodi:r1="8.9357119"
       sodipodi:cy="176.46408"
       sodipodi:cx="396.11478"
       sodipodi:sides="3"
       id="path4751"
       style="opacity:1;fill:#ffffff;fill-opacity:1;fill-rule:nonzero;stroke:#000000;stroke-width:3;stroke-linecap:round;stroke-linejoin:round;stroke-miterlimit:4;stroke-dasharray:none;stroke-dashoffset:0;stroke-opacity:1"
       sodipodi:type="star"
       inkscape:export-xdpi="400"
       inkscape:export-ydpi="400" />
    <path
       sodipodi:type="star"
       style="opacity:1;fill:#ffffff;fill-opacity:1;fill-rule:nonzero;stroke:#000000;stroke-width:3;stroke-linecap:round;stroke-linejoin:round;stroke-miterlimit:4;stroke-dasharray:none;stroke-dashoffset:0;stroke-opacity:1"
       id="path4753"
       sodipodi:sides="3"
       sodipodi:cx="396.11478"
       sodipodi:cy="176.46408"
       sodipodi:r1="8.9357119"
       sodipodi:r2="4.4678559"
       sodipodi:arg1="0.74541948"
       sodipodi:arg2="1.792617"
       inkscape:flatsided="true"
       inkscape:rounded="0"
       inkscape:randomized="0"
       d="m 402.68077,182.525 -15.0979,-3.40506 10.49782,-11.37263 z"
       inkscape:transform-center-x="-0.98821587"
       inkscape:transform-center-y="-0.57246213"
       transform="matrix(0.57503344,-0.35642733,0.35642733,0.57503344,32.350087,335.07338)"
       inkscape:export-xdpi="400"
       inkscape:export-ydpi="400" />
    <path
       transform="matrix(0.67039496,-0.09096428,0.09096428,0.67039496,3.2187172,216.50999)"
       inkscape:transform-center-y="-1.2782843"
       inkscape:transform-center-x="0.2625112"
       d="m 402.68077,182.525 -15.0979,-3.40506 10.49782,-11.37263 z"
       inkscape:randomized="0"
       inkscape:rounded="0"
       inkscape:flatsided="true"
       sodipodi:arg2="1.792617"
       sodipodi:arg1="0.74541948"
       sodipodi:r2="4.4678559"
       sodipodi:r1="8.9357119"
       sodipodi:cy="176.46408"
       sodipodi:cx="396.11478"
       sodipodi:sides="3"
       id="path4755"
       style="opacity:1;fill:#ffffff;fill-opacity:1;fill-rule:nonzero;stroke:#000000;stroke-width:3;stroke-linecap:round;stroke-linejoin:round;stroke-miterlimit:4;stroke-dasharray:none;stroke-dashoffset:0;stroke-opacity:1"
       sodipodi:type="star"
       inkscape:export-xdpi="400"
       inkscape:export-ydpi="400" />
    <path
       sodipodi:type="star"
       style="opacity:1;fill:#ffffff;fill-opacity:1;fill-rule:nonzero;stroke:#000000;stroke-width:3;stroke-linecap:round;stroke-linejoin:round;stroke-miterlimit:4;stroke-dasharray:none;stroke-dashoffset:0;stroke-opacity:1"
       id="path4757"
       sodipodi:sides="3"
       sodipodi:cx="396.11478"
       sodipodi:cy="176.46408"
       sodipodi:r1="8.9357119"
       sodipodi:r2="4.4678559"
       sodipodi:arg1="0.74541948"
       sodipodi:arg2="1.792617"
       inkscape:flatsided="true"
       inkscape:rounded="0"
       inkscape:randomized="0"
       d="m 402.68077,182.525 -15.0979,-3.40506 10.49782,-11.37263 z"
       inkscape:transform-center-x="-1.4863932"
       inkscape:transform-center-y="0.028726216"
       transform="matrix(0.49273914,-0.46358606,0.46358606,0.49273914,245.70472,410.66665)"
       inkscape:export-xdpi="400"
       inkscape:export-ydpi="400" />
    <path
       transform="matrix(0.676408,-0.01327088,0.01327088,0.676408,258.09604,183.56287)"
       inkscape:transform-center-y="-0.9548261"
       inkscape:transform-center-x="0.60703945"
       d="m 402.68077,182.525 -15.0979,-3.40506 10.49782,-11.37263 z"
       inkscape:randomized="0"
       inkscape:rounded="0"
       inkscape:flatsided="true"
       sodipodi:arg2="1.792617"
       sodipodi:arg1="0.74541948"
       sodipodi:r2="4.4678559"
       sodipodi:r1="8.9357119"
       sodipodi:cy="176.46408"
       sodipodi:cx="396.11478"
       sodipodi:sides="3"
       id="path4759"
       style="opacity:1;fill:#ffffff;fill-opacity:1;fill-rule:nonzero;stroke:#000000;stroke-width:3;stroke-linecap:round;stroke-linejoin:round;stroke-miterlimit:4;stroke-dasharray:none;stroke-dashoffset:0;stroke-opacity:1"
       sodipodi:type="star"
       inkscape:export-xdpi="400"
       inkscape:export-ydpi="400" />
    <path
       sodipodi:type="star"
       style="opacity:1;fill:#ffffff;fill-opacity:1;fill-rule:nonzero;stroke:#000000;stroke-width:3;stroke-linecap:round;stroke-linejoin:round;stroke-miterlimit:4;stroke-dasharray:none;stroke-dashoffset:0;stroke-opacity:1"
       id="path4761"
       sodipodi:sides="3"
       sodipodi:cx="396.11478"
       sodipodi:cy="176.46408"
       sodipodi:r1="8.9357119"
       sodipodi:r2="4.4678559"
       sodipodi:arg1="0.74541948"
       sodipodi:arg2="1.792617"
       inkscape:flatsided="true"
       inkscape:rounded="0"
       inkscape:randomized="0"
       d="m 402.68077,182.525 -15.0979,-3.40506 10.49782,-11.37263 z"
       inkscape:transform-center-x="0.0081269139"
       inkscape:transform-center-y="1.504299"
       transform="matrix(0.46021733,0.495887,-0.495887,0.46021733,453.31381,10.887231)"
       inkscape:export-xdpi="400"
       inkscape:export-ydpi="400" />
    <path
       transform="matrix(0.50643294,0.4485862,-0.4485862,0.50643294,406.10234,-143.44643)"
       inkscape:transform-center-y="1.2411453"
       inkscape:transform-center-x="0.30318974"
       d="m 402.68077,182.525 -15.0979,-3.40506 10.49782,-11.37263 z"
       inkscape:randomized="0"
       inkscape:rounded="0"
       inkscape:flatsided="true"
       sodipodi:arg2="1.792617"
       sodipodi:arg1="0.74541948"
       sodipodi:r2="4.4678559"
       sodipodi:r1="8.9357119"
       sodipodi:cy="176.46408"
       sodipodi:cx="396.11478"
       sodipodi:sides="3"
       id="path4763"
       style="opacity:1;fill:#ffffff;fill-opacity:1;fill-rule:nonzero;stroke:#000000;stroke-width:3;stroke-linecap:round;stroke-linejoin:round;stroke-miterlimit:4;stroke-dasharray:none;stroke-dashoffset:0;stroke-opacity:1"
       sodipodi:type="star"
       inkscape:export-xdpi="400"
       inkscape:export-ydpi="400" />
    <path
       transform="matrix(0.49069733,-0.46574675,0.46574675,0.49069733,246.37467,207.54422)"
       inkscape:transform-center-y="0.042001726"
       inkscape:transform-center-x="-1.4748125"
       d="m 402.68077,182.525 -15.0979,-3.40506 10.49782,-11.37263 z"
       inkscape:randomized="0"
       inkscape:rounded="0"
       inkscape:flatsided="true"
       sodipodi:arg2="1.792617"
       sodipodi:arg1="0.74541948"
       sodipodi:r2="4.4678559"
       sodipodi:r1="8.9357119"
       sodipodi:cy="176.46408"
       sodipodi:cx="396.11478"
       sodipodi:sides="3"
       id="path4765"
       style="opacity:1;fill:#ffffff;fill-opacity:1;fill-rule:nonzero;stroke:#000000;stroke-width:3;stroke-linecap:round;stroke-linejoin:round;stroke-miterlimit:4;stroke-dasharray:none;stroke-dashoffset:0;stroke-opacity:1"
       sodipodi:type="star"
       inkscape:export-xdpi="400"
       inkscape:export-ydpi="400" />
    <path
       sodipodi:nodetypes="sssss"
       inkscape:connector-curvature="0"
       id="path4136"
       d="m 176.10368,204.15709 c 0,10.19378 -8.26369,18.45747 -18.45747,18.45747 -10.19378,0 -18.45747,-8.26369 -18.45747,-18.45747 0,-10.19378 8.26369,-18.45747 18.45747,-18.45747 10.19378,0 18.45747,8.26369 18.45747,18.45747 z"
       style="opacity:1;fill:#ffffff;fill-opacity:1;fill-rule:nonzero;stroke:#000000;stroke-width:2.22762561;stroke-linecap:round;stroke-linejoin:round;stroke-miterlimit:4;stroke-dasharray:none;stroke-dashoffset:0;stroke-opacity:1" />
    <g
       id="flowRoot4138"
       style="font-style:normal;font-weight:normal;font-size:40px;line-height:125%;font-family:sans-serif;letter-spacing:0px;word-spacing:0px;fill:#000000;fill-opacity:1;stroke:none;stroke-width:1px;stroke-linecap:butt;stroke-linejoin:miter;stroke-opacity:1"
       transform="matrix(0.67653817,0,0,0.67653817,-48.765322,31.709438)">
      <path
         inkscape:connector-curvature="0"
         id="path16575"
         d="m 318.26367,269.43816 -4.12109,0 -2.85156,-8.10546 -12.57813,0 -2.85156,8.10546 -3.92578,0 10.58593,-29.08203 5.15625,0 10.58594,29.08203 z m -8.16406,-11.42578 -5.09766,-14.27734 -5.11718,14.27734 10.21484,0 z" />
    </g>
    <circle
       r="18.457468"
       cy="109.44176"
       cx="305.61243"
       id="circle4146"
       style="opacity:1;fill:#ffffff;fill-opacity:1;fill-rule:nonzero;stroke:#000000;stroke-width:2.22762561;stroke-linecap:round;stroke-linejoin:round;stroke-miterlimit:4;stroke-dasharray:none;stroke-dashoffset:0;stroke-opacity:1" />
    <g
       transform="matrix(0.67653817,0,0,0.67653817,99.200885,-63.005899)"
       style="font-style:normal;font-weight:normal;font-size:40px;line-height:125%;font-family:sans-serif;letter-spacing:0px;word-spacing:0px;fill:#000000;fill-opacity:1;stroke:none;stroke-width:1px;stroke-linecap:butt;stroke-linejoin:miter;stroke-opacity:1"
       id="flowRoot4148">
      <path
         d="m 317.26758,260.49285 q 0,2.16797 -0.82031,3.82813 -0.82032,1.66015 -2.20704,2.73437 -1.64062,1.28906 -3.61328,1.83594 -1.95312,0.54687 -4.98047,0.54687 l -10.3125,0 0,-29.08203 8.61329,0 q 3.18359,0 4.76562,0.23438 1.58203,0.23437 3.02734,0.97656 1.60157,0.83984 2.32422,2.16797 0.72266,1.30859 0.72266,3.14453 0,2.07031 -1.05469,3.53516 -1.05469,1.44531 -2.8125,2.32422 l 0,0.15625 q 2.94922,0.60546 4.64844,2.59765 1.69922,1.97266 1.69922,5 z m -6.50391,-13.10547 q 0,-1.05468 -0.35156,-1.77734 -0.35156,-0.72266 -1.13281,-1.17188 -0.91797,-0.52734 -2.22657,-0.64453 -1.30859,-0.13672 -3.24218,-0.13672 l -4.60938,0 0,8.39844 5,0 q 1.81641,0 2.89063,-0.17578 1.07422,-0.19531 1.99218,-0.78125 0.91797,-0.58594 1.28907,-1.50391 0.39062,-0.9375 0.39062,-2.20703 z m 2.48047,13.26172 q 0,-1.75781 -0.52734,-2.79297 -0.52735,-1.03515 -1.91407,-1.75781 -0.9375,-0.48828 -2.28515,-0.625 -1.32813,-0.15625 -3.24219,-0.15625 l -6.07422,0 0,10.82031 5.11719,0 q 2.53906,0 4.16016,-0.2539 1.62109,-0.27344 2.65625,-0.97657 1.09375,-0.76171 1.60156,-1.73828 0.50781,-0.97656 0.50781,-2.51953 z"
         style=""
         id="path16513" />
    </g>
    <circle
       style="opacity:1;fill:#ffffff;fill-opacity:1;fill-rule:nonzero;stroke:#000000;stroke-width:2.22762561;stroke-linecap:round;stroke-linejoin:round;stroke-miterlimit:4;stroke-dasharray:none;stroke-dashoffset:0;stroke-opacity:1"
       id="circle4156"
       cx="305.61243"
       cy="313.99036"
       r="18.457468" />
    <g
       transform="matrix(0.67653817,0,0,0.67653817,99.200877,141.54269)"
       style="font-style:normal;font-weight:normal;font-size:40px;line-height:125%;font-family:sans-serif;letter-spacing:0px;word-spacing:0px;fill:#000000;fill-opacity:1;stroke:none;stroke-width:1px;stroke-linecap:butt;stroke-linejoin:miter;stroke-opacity:1"
       id="flowRoot4158">
      <path
         d="m 313.9082,243.79363 -14.70703,0 0,8.20313 12.63672,0 0,3.4375 -12.63672,0 0,14.0039 -3.86719,0 0,-29.08203 18.57422,0 0,3.4375 z"
         style=""
         id="path16581" />
    </g>
    <circle
       r="18.457468"
       cy="204.15709"
       cx="410.95908"
       id="circle4166"
       style="opacity:1;fill:#ffffff;fill-opacity:1;fill-rule:nonzero;stroke:#000000;stroke-width:2.22762561;stroke-linecap:round;stroke-linejoin:round;stroke-miterlimit:4;stroke-dasharray:none;stroke-dashoffset:0;stroke-opacity:1" />
    <g
       style="font-style:normal;font-weight:normal;font-size:27.06152725px;line-height:125%;font-family:sans-serif;letter-spacing:0px;word-spacing:0px;fill:#000000;fill-opacity:1;stroke:none;stroke-width:1px;stroke-linecap:butt;stroke-linejoin:miter;stroke-opacity:1"
       id="flowRoot4168">
      <path
         d="m 420.97642,204.17695 q 0,2.68237 -1.17601,4.86262 -1.1628,2.18025 -3.10521,3.38269 -1.34779,0.83246 -3.01271,1.20244 -1.6517,0.36999 -4.3605,0.36999 l -4.96833,0 0,-19.67511 4.91548,0 q 2.88057,0 4.57192,0.42284 1.70455,0.40962 2.88057,1.13637 2.00847,1.2553 3.13163,3.34305 1.12316,2.08776 1.12316,4.95511 z m -2.73522,-0.0396 q 0,-2.31238 -0.80604,-3.89802 -0.80603,-1.58564 -2.40488,-2.49738 -1.1628,-0.66068 -2.47095,-0.91174 -1.30815,-0.26427 -3.13163,-0.26427 l -2.45774,0 0,15.18247 2.45774,0 q 1.88955,0 3.2902,-0.27749 1.41386,-0.27748 2.58987,-1.03066 1.46671,-0.93817 2.19346,-2.47095 0.73997,-1.53278 0.73997,-3.83196 z"
         style=""
         id="path16552" />
    </g>
    <circle
       style="opacity:1;fill:#ffffff;fill-opacity:1;fill-rule:nonzero;stroke:#000000;stroke-width:2.22762561;stroke-linecap:round;stroke-linejoin:round;stroke-miterlimit:4;stroke-dasharray:none;stroke-dashoffset:0;stroke-opacity:1"
       id="circle4176"
       cx="548.19971"
       cy="109.44176"
       r="18.457468" />
    <g
       transform="matrix(0.67653817,0,0,0.67653817,341.78813,-63.005896)"
       style="font-style:normal;font-weight:normal;font-size:40px;line-height:125%;font-family:sans-serif;letter-spacing:0px;word-spacing:0px;fill:#000000;fill-opacity:1;stroke:none;stroke-width:1px;stroke-linecap:butt;stroke-linejoin:miter;stroke-opacity:1"
       id="flowRoot4178">
      <path
         d="m 317.79492,267.32879 q -1.07422,0.46875 -1.95312,0.87891 -0.85938,0.41015 -2.26563,0.85937 -1.1914,0.37109 -2.59765,0.625 -1.38672,0.27344 -3.06641,0.27344 -3.16406,0 -5.76172,-0.87891 -2.57812,-0.89844 -4.49219,-2.79297 -1.875,-1.85547 -2.92968,-4.70703 -1.05469,-2.87109 -1.05469,-6.66015 0,-3.59375 1.01562,-6.42579 1.01563,-2.83203 2.92969,-4.78515 1.85547,-1.89453 4.47266,-2.89063 2.63672,-0.99609 5.83984,-0.99609 2.34375,0 4.66797,0.56641 2.34375,0.5664 5.19531,1.99218 l 0,4.58985 -0.29297,0 q -2.40234,-2.01172 -4.76562,-2.92969 -2.36328,-0.91797 -5.0586,-0.91797 -2.20703,0 -3.98437,0.72266 -1.75781,0.70312 -3.14453,2.20703 -1.34766,1.46484 -2.10938,3.71094 -0.74218,2.22656 -0.74218,5.15625 0,3.0664 0.82031,5.27343 0.83984,2.20703 2.14844,3.59375 1.36718,1.44532 3.18359,2.14844 1.83594,0.68359 3.86719,0.68359 2.79297,0 5.23437,-0.95703 2.44141,-0.95703 4.57031,-2.87109 l 0.27344,0 0,4.53125 z"
         style=""
         id="path16569" />
    </g>
    <circle
       r="18.457468"
       cy="313.99036"
       cx="548.19971"
       id="circle4186"
       style="opacity:1;fill:#ffffff;fill-opacity:1;fill-rule:nonzero;stroke:#000000;stroke-width:2.22762561;stroke-linecap:round;stroke-linejoin:round;stroke-miterlimit:4;stroke-dasharray:none;stroke-dashoffset:0;stroke-opacity:1" />
    <g
       id="g4296"
       transform="matrix(0.67653817,0,0,0.67653817,237.95859,100.73244)">
      <g
         transform="translate(153.47183,60.322189)"
         style="font-style:normal;font-weight:normal;font-size:40px;line-height:125%;font-family:sans-serif;letter-spacing:0px;word-spacing:0px;fill:#000000;fill-opacity:1;stroke:none;stroke-width:1px;stroke-linecap:butt;stroke-linejoin:miter;stroke-opacity:1"
         id="flowRoot4188">
        <path
           d="m 314.49414,269.43816 -19.16016,0 0,-29.08203 19.16016,0 0,3.4375 -15.29297,0 0,7.96875 15.29297,0 0,3.4375 -15.29297,0 0,10.80078 15.29297,0 0,3.4375 z"
           style=""
           id="path16572" />
      </g>
    </g>
    <g
       transform="matrix(0.67653817,0,0,0.67653817,103.24556,43.069147)"
       style="font-style:normal;font-weight:normal;font-size:40px;line-height:125%;font-family:sans-serif;letter-spacing:0px;word-spacing:0px;fill:#000000;fill-opacity:1;stroke:none;stroke-width:1px;stroke-linecap:butt;stroke-linejoin:miter;stroke-opacity:1"
       id="flowRoot4196">
      <path
         d="m 185.68945,158.01043 -19.6875,0 0,-4.08203 q 2.05078,-1.75781 4.10157,-3.51563 2.07031,-1.75781 3.84765,-3.49609 3.75,-3.63281 5.13672,-5.76172 1.38672,-2.14844 1.38672,-4.6289 0,-2.26563 -1.50391,-3.53516 -1.48437,-1.28906 -4.16015,-1.28906 -1.77735,0 -3.84766,0.625 -2.07031,0.625 -4.04297,1.91406 l -0.19531,0 0,-4.10156 q 1.38672,-0.6836 3.69141,-1.25 2.32421,-0.56641 4.49218,-0.56641 4.47266,0 7.01172,2.16797 2.53906,2.14844 2.53906,5.83984 0,1.66016 -0.42968,3.10547 -0.41016,1.42578 -1.23047,2.71485 -0.76172,1.21093 -1.79688,2.38281 -1.01562,1.17187 -2.48047,2.59765 -2.08984,2.05079 -4.3164,3.98438 -2.22656,1.91406 -4.16016,3.55469 l 15.64453,0 0,3.33984 z"
         style=""
         id="path16505" />
    </g>
    <g
       transform="matrix(0.67653817,0,0,0.67653817,193.62107,52.216397)"
       style="font-style:normal;font-weight:normal;font-size:40px;line-height:125%;font-family:sans-serif;letter-spacing:0px;word-spacing:0px;fill:#000000;fill-opacity:1;stroke:none;stroke-width:1px;stroke-linecap:butt;stroke-linejoin:miter;stroke-opacity:1"
       id="flowRoot4204">
      <path
         d="m 369.21094,65.539727 -4.31641,0 0,8.183594 -3.75,0 0,-8.183594 -13.92578,0 0,-4.492187 14.08203,-16.40625 3.59375,0 0,17.773437 4.31641,0 0,3.125 z m -8.06641,-3.125 0,-13.125 -11.26953,13.125 11.26953,0 z"
         style=""
         id="path16516" />
    </g>
    <g
       transform="matrix(0.67653817,0,0,0.67653817,147.85294,26.121353)"
       style="font-style:normal;font-weight:normal;font-size:40px;line-height:125%;font-family:sans-serif;letter-spacing:0px;word-spacing:0px;fill:#000000;fill-opacity:1;stroke:none;stroke-width:1px;stroke-linecap:butt;stroke-linejoin:miter;stroke-opacity:1"
       id="flowRoot4212">
      <path
         d="m 338.31445,195.15301 -15.74218,0 0,-2.96875 6.05468,0 0,-19.49219 -6.05468,0 0,-2.65625 q 1.23046,0 2.63671,-0.19531 1.40625,-0.21485 2.12891,-0.60547 0.89844,-0.48828 1.40625,-1.23047 0.52734,-0.76172 0.60547,-2.03125 l 3.02734,0 0,26.21094 5.9375,0 0,2.96875 z"
         style=""
         id="path16549" />
    </g>
    <g
       transform="matrix(0.67653817,0,0,0.67653817,96.091629,23.816507)"
       style="font-style:normal;font-weight:normal;font-size:40px;line-height:125%;font-family:sans-serif;letter-spacing:0px;word-spacing:0px;fill:#000000;fill-opacity:1;stroke:none;stroke-width:1px;stroke-linecap:butt;stroke-linejoin:miter;stroke-opacity:1"
       id="flowRoot4220">
      <path
         d="m 279.74023,250.19988 q 0,2.03125 -0.74218,3.88672 -0.74219,1.85547 -2.03125,3.125 -1.40625,1.36719 -3.35938,2.10938 -1.93359,0.72265 -4.49219,0.72265 -2.38281,0 -4.58984,-0.50781 -2.20703,-0.48828 -3.73047,-1.19141 l 0,-4.12109 0.27344,0 q 1.60156,1.01563 3.75,1.73828 2.14844,0.70313 4.21875,0.70313 1.38672,0 2.67578,-0.39063 1.30859,-0.39062 2.32422,-1.36719 0.85937,-0.83984 1.28906,-2.01171 0.44922,-1.17188 0.44922,-2.71485 0,-1.5039 -0.52734,-2.53906 -0.50782,-1.03516 -1.42578,-1.66016 -1.01563,-0.74218 -2.48047,-1.03515 -1.44532,-0.3125 -3.24219,-0.3125 -1.71875,0 -3.32031,0.23437 -1.58203,0.23438 -2.73438,0.46875 l 0,-14.98047 17.5,0 0,3.41797 -13.73047,0 0,7.73438 q 0.83985,-0.0781 1.71875,-0.11719 0.87891,-0.0391 1.52344,-0.0391 2.36328,0 4.14063,0.41015 1.77734,0.39063 3.26171,1.40625 1.5625,1.07422 2.42188,2.77344 0.85937,1.69922 0.85937,4.25781 z"
         style=""
         id="path16543" />
    </g>
    <g
       transform="matrix(0.67653817,0,0,0.67653817,77.922723,50.283427)"
       style="font-style:normal;font-weight:normal;font-size:40px;line-height:125%;font-family:sans-serif;letter-spacing:0px;word-spacing:0px;fill:#000000;fill-opacity:1;stroke:none;stroke-width:1px;stroke-linecap:butt;stroke-linejoin:miter;stroke-opacity:1"
       id="flowRoot4228">
      <path
         d="m 214.55859,331.1491 q 0.9375,0.83985 1.54297,2.10938 0.60547,1.26953 0.60547,3.28125 0,1.99218 -0.72266,3.65234 -0.72265,1.66016 -2.03125,2.89063 -1.46484,1.36718 -3.45703,2.03125 -1.97265,0.64453 -4.33593,0.64453 -2.42188,0 -4.76563,-0.58594 -2.34375,-0.56641 -3.84766,-1.25 l 0,-4.08203 0.29297,0 q 1.66016,1.09375 3.90625,1.8164 2.2461,0.72266 4.33594,0.72266 1.23047,0 2.61719,-0.41016 1.38672,-0.41015 2.24609,-1.21093 0.89844,-0.85938 1.32813,-1.89453 0.44922,-1.03516 0.44922,-2.61719 0,-1.5625 -0.50782,-2.57813 -0.48828,-1.03515 -1.36718,-1.62109 -0.87891,-0.60547 -2.12891,-0.82031 -1.25,-0.23438 -2.69531,-0.23438 l -1.75782,0 0,-3.24219 1.36719,0 q 2.96875,0 4.72656,-1.23046 1.77735,-1.25 1.77735,-3.63282 0,-1.05468 -0.44922,-1.83593 -0.44922,-0.80079 -1.25,-1.3086 -0.83984,-0.50781 -1.79688,-0.70312 -0.95703,-0.19532 -2.16796,-0.19532 -1.85547,0 -3.94532,0.66407 -2.08984,0.66406 -3.94531,1.875 l -0.19531,0 0,-4.08203 q 1.38672,-0.6836 3.6914,-1.25 2.32422,-0.58594 4.49219,-0.58594 2.12891,0 3.75,0.39062 1.6211,0.39063 2.92969,1.25 1.40625,0.9375 2.12891,2.26563 0.72265,1.32812 0.72265,3.10547 0,2.42187 -1.71875,4.23828 -1.69922,1.79687 -4.02344,2.26562 l 0,0.27344 q 0.9375,0.15625 2.14844,0.66406 1.21094,0.48828 2.05078,1.23047 z"
         style=""
         id="path16540" />
    </g>
    <g
       transform="matrix(0.67653817,0,0,0.67653817,187.7986,73.567827)"
       style="font-style:normal;font-weight:normal;font-size:40px;line-height:125%;font-family:sans-serif;letter-spacing:0px;word-spacing:0px;fill:#000000;fill-opacity:1;stroke:none;stroke-width:1px;stroke-linecap:butt;stroke-linejoin:miter;stroke-opacity:1"
       id="flowRoot4236">
      <path
         d="m 386.88672,392.29559 -15.74219,0 0,-2.96875 6.05469,0 0,-19.49219 -6.05469,0 0,-2.65625 q 1.23047,0 2.63672,-0.19531 1.40625,-0.21485 2.12891,-0.60547 0.89843,-0.48828 1.40625,-1.23047 0.52734,-0.76172 0.60546,-2.03125 l 3.02735,0 0,26.21094 5.9375,0 0,2.96875 z"
         style=""
         id="path16558" />
      <path
         d="m 413.97656,377.74481 q 0,7.83203 -2.46094,11.5039 -2.4414,3.65235 -7.59765,3.65235 -5.23438,0 -7.65625,-3.71094 -2.40235,-3.71094 -2.40235,-11.40625 0,-7.75391 2.44141,-11.44531 2.44141,-3.71094 7.61719,-3.71094 5.23437,0 7.63672,3.76953 2.42187,3.75 2.42187,11.34766 z m -5.13672,8.86718 q 0.6836,-1.58203 0.91797,-3.71093 0.25391,-2.14844 0.25391,-5.15625 0,-2.96875 -0.25391,-5.15625 -0.23437,-2.1875 -0.9375,-3.71094 -0.68359,-1.50391 -1.875,-2.26563 -1.17187,-0.76172 -3.02734,-0.76172 -1.83594,0 -3.04688,0.76172 -1.1914,0.76172 -1.89453,2.30469 -0.66406,1.44531 -0.91797,3.76953 -0.23437,2.32422 -0.23437,5.09766 0,3.04687 0.21484,5.09765 0.21485,2.05079 0.91797,3.67188 0.64453,1.52344 1.81641,2.32422 1.1914,0.80078 3.14453,0.80078 1.83594,0 3.04687,-0.76172 1.21094,-0.76172 1.875,-2.30469 z"
         style=""
         id="path16560" />
    </g>
    <g
       transform="matrix(0.67653817,0,0,0.67653817,79.924375,71.994957)"
       style="font-style:normal;font-weight:normal;font-size:40px;line-height:125%;font-family:sans-serif;letter-spacing:0px;word-spacing:0px;fill:#000000;fill-opacity:1;stroke:none;stroke-width:1px;stroke-linecap:butt;stroke-linejoin:miter;stroke-opacity:1"
       id="flowRoot4244">
      <path
         d="m 382.83203,295.15301 -19.6875,0 0,-4.08203 q 2.05078,-1.75782 4.10156,-3.51563 2.07032,-1.75781 3.84766,-3.49609 3.75,-3.63281 5.13672,-5.76172 1.38672,-2.14844 1.38672,-4.62891 0,-2.26562 -1.50391,-3.53515 -1.48437,-1.28907 -4.16016,-1.28907 -1.77734,0 -3.84765,0.625 -2.07031,0.625 -4.04297,1.91407 l -0.19531,0 0,-4.10157 q 1.38672,-0.68359 3.6914,-1.25 2.32422,-0.5664 4.49219,-0.5664 4.47266,0 7.01172,2.16797 2.53906,2.14843 2.53906,5.83984 0,1.66016 -0.42969,3.10547 -0.41015,1.42578 -1.23046,2.71484 -0.76172,1.21094 -1.79688,2.38282 -1.01562,1.17187 -2.48047,2.59765 -2.08984,2.05078 -4.3164,3.98438 -2.22657,1.91406 -4.16016,3.55468 l 15.64453,0 0,3.33985 z"
         style=""
         id="path16546" />
    </g>
    <g
       transform="matrix(0.67653817,0,0,0.67653817,189.0315,47.921687)"
       style="font-style:normal;font-weight:normal;font-size:40px;line-height:125%;font-family:sans-serif;letter-spacing:0px;word-spacing:0px;fill:#000000;fill-opacity:1;stroke:none;stroke-width:1px;stroke-linecap:butt;stroke-linejoin:miter;stroke-opacity:1"
       id="flowRoot4252">
      <path
         d="m 458.54687,193.72332 -19.6875,0 0,-4.08203 q 2.05079,-1.75781 4.10157,-3.51563 2.07031,-1.75781 3.84765,-3.49609 3.75,-3.63281 5.13672,-5.76172 1.38672,-2.14844 1.38672,-4.6289 0,-2.26563 -1.50391,-3.53516 -1.48437,-1.28906 -4.16015,-1.28906 -1.77735,0 -3.84766,0.625 -2.07031,0.625 -4.04297,1.91406 l -0.19531,0 0,-4.10156 q 1.38672,-0.6836 3.69141,-1.25 2.32422,-0.56641 4.49218,-0.56641 4.47266,0 7.01172,2.16797 2.53907,2.14844 2.53907,5.83984 0,1.66016 -0.42969,3.10547 -0.41016,1.42578 -1.23047,2.71485 -0.76172,1.21093 -1.79688,2.38281 -1.01562,1.17187 -2.48046,2.59765 -2.08985,2.05079 -4.31641,3.98438 -2.22656,1.91406 -4.16016,3.55469 l 15.64453,0 0,3.33984 z"
         style=""
         id="path16563" />
    </g>
    <g
       transform="matrix(0.67653817,0,0,0.67653817,170.02169,62.536187)"
       style="font-style:normal;font-weight:normal;font-size:40px;line-height:125%;font-family:sans-serif;letter-spacing:0px;word-spacing:0px;fill:#000000;fill-opacity:1;stroke:none;stroke-width:1px;stroke-linecap:butt;stroke-linejoin:miter;stroke-opacity:1"
       id="flowRoot4260">
      <path
         d="m 464.33789,243.28387 -13.16406,24.72656 -4.17969,0 14.00391,-25.66406 -16.5625,0 0,-3.41797 19.90234,0 0,4.35547 z"
         style=""
         id="path16555" />
    </g>
    <g
       transform="matrix(0.67653817,0,0,0.67653817,260.78921,90.292907)"
       style="font-style:normal;font-weight:normal;font-size:40px;line-height:125%;font-family:sans-serif;letter-spacing:0px;word-spacing:0px;fill:#000000;fill-opacity:1;stroke:none;stroke-width:1px;stroke-linecap:butt;stroke-linejoin:miter;stroke-opacity:1"
       id="flowRoot4403">
      <path
         d="m 459.21094,185.53973 -4.31641,0 0,8.18359 -3.75,0 0,-8.18359 -13.92578,0 0,-4.49219 14.08203,-16.40625 3.59375,0 0,17.77344 4.31641,0 0,3.125 z m -8.06641,-3.125 0,-13.125 -11.26953,13.125 11.26953,0 z"
         style=""
         id="path16566" />
    </g>
  </g>
</svg>
